0
SECTION
2
HEADER
9
$INSUNITS
70
4
0
ENDSEC
0
SECTION
2
TABLES
0
TABLE
2
LTYPE
0
LTYPE
72
65
70
64
2
CONTINUOUS
3
______
73
0
40
0
0
ENDTAB
0
TABLE
2
LAYER
0
ENDTAB
0
ENDSEC
0
SECTION
2
ENTITIES
0
LINE
8
0
10
91.2492653
20
-111.9342949
11
91.0811663
21
-39.7036504
0
LINE
8
0
10
91.5811518
20
-39.2024868
11
128.5800132
21
-39.2015132
0
LINE
8
0
10
129.08
20
-38.7015132
11
129.08
21
-35.3275
0
LINE
8
0
10
129.58
20
-34.8275
11
147.58
21
-34.8275
0
LINE
8
0
10
148.08
20
-34.3275
11
148.08
21
-33.2525
0
LINE
8
0
10
148.58
20
-32.7525
11
165.582
21
-32.7525
0
LINE
8
0
10
166.082
20
-33.2525
11
166.082
21
-34.3275
0
LINE
8
0
10
166.582
20
-34.8275
11
184.582
21
-34.8275
0
LINE
8
0
10
185.082
20
-35.3275
11
185.082
21
-36.6231184
0
LINE
8
0
10
185.5818816
20
-37.1231184
11
204.0571232
21
-37.1274941
0
LINE
8
0
10
204.1067543
20
-37.1299753
11
224.3827495
21
-39.1574771
0
LINE
8
0
10
224.833
20
-39.6549959
11
224.833
21
-124.7106236
0
LINE
8
0
10
224.7475076
20
-124.9902367
11
213.2828548
21
-141.9858107
0
LINE
8
0
10
212.6543954
20
-142.1581098
11
179.0051814
21
-126.2273384
0
LINE
8
0
10
178.831516
20
-126.1808762
11
163.5204456
21
-124.9431945
0
LINE
8
0
10
163.3807357
20
-124.9515536
11
146.2492103
21
-128.4275153
0
LINE
8
0
10
146.1497869
20
-128.4375
11
125.5623547
21
-128.4375
0
LINE
8
0
10
125.3484465
20
-128.3894328
11
91.5353556
21
-112.3850642
0
ARC
8
0
10
91.5811649
20
-39.7024868
40
0.5
50
90.0015069
51
180.1333389
0
ARC
8
0
10
128.58
20
-38.7015132
40
0.5
50
270.0015069
51
0
0
ARC
8
0
10
129.58
20
-35.3275
40
0.5
50
90
51
180
0
ARC
8
0
10
147.58
20
-34.3275
40
0.5
50
270
51
0
0
ARC
8
0
10
148.58
20
-33.2525
40
0.5
50
90
51
180
0
ARC
8
0
10
165.582
20
-33.2525
40
0.5
50
0
51
90
0
ARC
8
0
10
166.582
20
-34.3275
40
0.5
50
180
51
270
0
ARC
8
0
10
184.582
20
-35.3275
40
0.5
50
0
51
90
0
ARC
8
0
10
185.582
20
-36.6231184
40
0.5
50
180
51
269.9864324
0
ARC
8
0
10
204.0570048
20
-37.6274941
40
0.5
50
84.2896788
51
89.9864324
0
ARC
8
0
10
224.333
20
-39.6549959
40
0.5
50
0
51
84.2896788
0
ARC
8
0
10
224.333
20
-124.7106236
40
0.5
50
325.9976984
51
0
0
ARC
8
0
10
212.8683472
20
-141.7061976
40
0.5
50
244.6654098
51
325.9976984
0
ARC
8
0
10
178.7912296
20
-126.6792506
40
0.5
50
64.6654098
51
85.3785031
0
ARC
8
0
10
163.4801591
20
-125.4415689
40
0.5
50
85.3785031
51
101.469531
0
ARC
8
0
10
146.1497869
20
-127.9375
40
0.5
50
270
51
281.469531
0
ARC
8
0
10
125.5623547
20
-127.9375
40
0.5
50
244.6709304
51
270
0
ARC
8
0
10
91.7492639
20
-111.9331313
40
0.5
50
180.1333389
51
244.6709304
0
LINE
8
0
10
93.1
20
-106.9
11
106.9
21
-106.9
0
LINE
8
0
10
106.9
20
-106.9
11
106.9
21
-93.1
0
LINE
8
0
10
106.9
20
-93.1
11
93.1
21
-93.1
0
LINE
8
0
10
93.1
20
-93.1
11
93.1
21
-106.9
0
LINE
8
0
10
93.1
20
-89.4
11
106.9
21
-89.4
0
LINE
8
0
10
106.9
20
-89.4
11
106.9
21
-75.6
0
LINE
8
0
10
106.9
20
-75.6
11
93.1
21
-75.6
0
LINE
8
0
10
93.1
20
-75.6
11
93.1
21
-89.4
0
LINE
8
0
10
93.1
20
-71.9
11
106.9
21
-71.9
0
LINE
8
0
10
106.9
20
-71.9
11
106.9
21
-58.1
0
LINE
8
0
10
106.9
20
-58.1
11
93.1
21
-58.1
0
LINE
8
0
10
93.1
20
-58.1
11
93.1
21
-71.9
0
LINE
8
0
10
93.1
20
-54.4
11
106.9
21
-54.4
0
LINE
8
0
10
106.9
20
-54.4
11
106.9
21
-40.6
0
LINE
8
0
10
106.9
20
-40.6
11
93.1
21
-40.6
0
LINE
8
0
10
93.1
20
-40.6
11
93.1
21
-54.4
0
LINE
8
0
10
112.1
20
-106.9
11
125.9
21
-106.9
0
LINE
8
0
10
125.9
20
-106.9
11
125.9
21
-93.1
0
LINE
8
0
10
125.9
20
-93.1
11
112.1
21
-93.1
0
LINE
8
0
10
112.1
20
-93.1
11
112.1
21
-106.9
0
LINE
8
0
10
112.1
20
-89.4
11
125.9
21
-89.4
0
LINE
8
0
10
125.9
20
-89.4
11
125.9
21
-75.6
0
LINE
8
0
10
125.9
20
-75.6
11
112.1
21
-75.6
0
LINE
8
0
10
112.1
20
-75.6
11
112.1
21
-89.4
0
LINE
8
0
10
112.1
20
-71.9
11
125.9
21
-71.9
0
LINE
8
0
10
125.9
20
-71.9
11
125.9
21
-58.1
0
LINE
8
0
10
125.9
20
-58.1
11
112.1
21
-58.1
0
LINE
8
0
10
112.1
20
-58.1
11
112.1
21
-71.9
0
LINE
8
0
10
112.1
20
-54.4
11
125.9
21
-54.4
0
LINE
8
0
10
125.9
20
-54.4
11
125.9
21
-40.6
0
LINE
8
0
10
125.9
20
-40.6
11
112.1
21
-40.6
0
LINE
8
0
10
112.1
20
-40.6
11
112.1
21
-54.4
0
LINE
8
0
10
131.1
20
-102.525
11
144.9
21
-102.525
0
LINE
8
0
10
144.9
20
-102.525
11
144.9
21
-88.725
0
LINE
8
0
10
144.9
20
-88.725
11
131.1
21
-88.725
0
LINE
8
0
10
131.1
20
-88.725
11
131.1
21
-102.525
0
LINE
8
0
10
131.1
20
-85.025
11
144.9
21
-85.025
0
LINE
8
0
10
144.9
20
-85.025
11
144.9
21
-71.225
0
LINE
8
0
10
144.9
20
-71.225
11
131.1
21
-71.225
0
LINE
8
0
10
131.1
20
-71.225
11
131.1
21
-85.025
0
LINE
8
0
10
131.1
20
-67.525
11
144.9
21
-67.525
0
LINE
8
0
10
144.9
20
-67.525
11
144.9
21
-53.725
0
LINE
8
0
10
144.9
20
-53.725
11
131.1
21
-53.725
0
LINE
8
0
10
131.1
20
-53.725
11
131.1
21
-67.525
0
LINE
8
0
10
131.1
20
-50.025
11
144.9
21
-50.025
0
LINE
8
0
10
144.9
20
-50.025
11
144.9
21
-36.225
0
LINE
8
0
10
144.9
20
-36.225
11
131.1
21
-36.225
0
LINE
8
0
10
131.1
20
-36.225
11
131.1
21
-50.025
0
LINE
8
0
10
150.1
20
-100.3375
11
163.9
21
-100.3375
0
LINE
8
0
10
163.9
20
-100.3375
11
163.9
21
-86.5375
0
LINE
8
0
10
163.9
20
-86.5375
11
150.1
21
-86.5375
0
LINE
8
0
10
150.1
20
-86.5375
11
150.1
21
-100.3375
0
LINE
8
0
10
150.1
20
-82.8375
11
163.9
21
-82.8375
0
LINE
8
0
10
163.9
20
-82.8375
11
163.9
21
-69.0375
0
LINE
8
0
10
163.9
20
-69.0375
11
150.1
21
-69.0375
0
LINE
8
0
10
150.1
20
-69.0375
11
150.1
21
-82.8375
0
LINE
8
0
10
150.1
20
-65.3375
11
163.9
21
-65.3375
0
LINE
8
0
10
163.9
20
-65.3375
11
163.9
21
-51.5375
0
LINE
8
0
10
163.9
20
-51.5375
11
150.1
21
-51.5375
0
LINE
8
0
10
150.1
20
-51.5375
11
150.1
21
-65.3375
0
LINE
8
0
10
150.1
20
-47.8375
11
163.9
21
-47.8375
0
LINE
8
0
10
163.9
20
-47.8375
11
163.9
21
-34.0375
0
LINE
8
0
10
163.9
20
-34.0375
11
150.1
21
-34.0375
0
LINE
8
0
10
150.1
20
-34.0375
11
150.1
21
-47.8375
0
LINE
8
0
10
169.1
20
-102.525
11
182.9
21
-102.525
0
LINE
8
0
10
182.9
20
-102.525
11
182.9
21
-88.725
0
LINE
8
0
10
182.9
20
-88.725
11
169.1
21
-88.725
0
LINE
8
0
10
169.1
20
-88.725
11
169.1
21
-102.525
0
LINE
8
0
10
169.1
20
-85.025
11
182.9
21
-85.025
0
LINE
8
0
10
182.9
20
-85.025
11
182.9
21
-71.225
0
LINE
8
0
10
182.9
20
-71.225
11
169.1
21
-71.225
0
LINE
8
0
10
169.1
20
-71.225
11
169.1
21
-85.025
0
LINE
8
0
10
169.1
20
-67.525
11
182.9
21
-67.525
0
LINE
8
0
10
182.9
20
-67.525
11
182.9
21
-53.725
0
LINE
8
0
10
182.9
20
-53.725
11
169.1
21
-53.725
0
LINE
8
0
10
169.1
20
-53.725
11
169.1
21
-67.525
0
LINE
8
0
10
169.1
20
-50.025
11
182.9
21
-50.025
0
LINE
8
0
10
182.9
20
-50.025
11
182.9
21
-36.225
0
LINE
8
0
10
182.9
20
-36.225
11
169.1
21
-36.225
0
LINE
8
0
10
169.1
20
-36.225
11
169.1
21
-50.025
0
LINE
8
0
10
188.1
20
-104.7125
11
201.9
21
-104.7125
0
LINE
8
0
10
201.9
20
-104.7125
11
201.9
21
-90.9125
0
LINE
8
0
10
201.9
20
-90.9125
11
188.1
21
-90.9125
0
LINE
8
0
10
188.1
20
-90.9125
11
188.1
21
-104.7125
0
LINE
8
0
10
188.1
20
-87.2125
11
201.9
21
-87.2125
0
LINE
8
0
10
201.9
20
-87.2125
11
201.9
21
-73.4125
0
LINE
8
0
10
201.9
20
-73.4125
11
188.1
21
-73.4125
0
LINE
8
0
10
188.1
20
-73.4125
11
188.1
21
-87.2125
0
LINE
8
0
10
188.1
20
-69.7125
11
201.9
21
-69.7125
0
LINE
8
0
10
201.9
20
-69.7125
11
201.9
21
-55.9125
0
LINE
8
0
10
201.9
20
-55.9125
11
188.1
21
-55.9125
0
LINE
8
0
10
188.1
20
-55.9125
11
188.1
21
-69.7125
0
LINE
8
0
10
188.1
20
-52.2125
11
201.9
21
-52.2125
0
LINE
8
0
10
201.9
20
-52.2125
11
201.9
21
-38.4125
0
LINE
8
0
10
201.9
20
-38.4125
11
188.1
21
-38.4125
0
LINE
8
0
10
188.1
20
-38.4125
11
188.1
21
-52.2125
0
LINE
8
0
10
127.3
20
-124.8375
11
141.1
21
-124.8375
0
LINE
8
0
10
141.1
20
-124.8375
11
141.1
21
-111.0375
0
LINE
8
0
10
141.1
20
-111.0375
11
127.3
21
-111.0375
0
LINE
8
0
10
127.3
20
-111.0375
11
127.3
21
-124.8375
0
LINE
8
0
10
146.3
20
-121.3375
11
160.1
21
-121.3375
0
LINE
8
0
10
160.1
20
-121.3375
11
160.1
21
-107.5375
0
LINE
8
0
10
160.1
20
-107.5375
11
146.3
21
-107.5375
0
LINE
8
0
10
146.3
20
-107.5375
11
146.3
21
-121.3375
0
LINE
8
0
10
165.3
20
-121.3375
11
179.1
21
-121.3375
0
LINE
8
0
10
179.1
20
-121.3375
11
179.1
21
-107.5375
0
LINE
8
0
10
179.1
20
-107.5375
11
165.3
21
-107.5375
0
LINE
8
0
10
165.3
20
-107.5375
11
165.3
21
-121.3375
0
LINE
8
0
10
182.8787423
20
-125.3330244
11
196.2085187
21
-128.9047272
0
LINE
8
0
10
196.2085187
20
-128.9047272
11
199.7802215
21
-115.5749508
0
LINE
8
0
10
199.7802215
20
-115.5749508
11
186.4504451
21
-112.003248
0
LINE
8
0
10
186.4504451
20
-112.003248
11
182.8787423
21
-125.3330244
0
LINE
8
0
10
200.5315671
20
-130.9617261
11
212.4827177
21
-137.8617261
0
LINE
8
0
10
212.4827177
20
-137.8617261
11
219.3827177
21
-125.9105755
0
LINE
8
0
10
219.3827177
20
-125.9105755
11
207.4315671
21
-119.0105755
0
LINE
8
0
10
207.4315671
20
-119.0105755
11
200.5315671
21
-130.9617261
0
CIRCLE
8
0
10
109.5
20
-56.25
40
1.1
0
CIRCLE
8
0
10
109.5
20
-91.25
40
1.1
0
CIRCLE
8
0
10
185.068
20
-51.8235
40
1.1
0
CIRCLE
8
0
10
185.068
20
-86.8235
40
1.1
0
CIRCLE
8
0
10
120.357
20
-111.365
40
1.1
0
ENDSEC
0
EOF