0
SECTION
2
HEADER
9
$INSUNITS
70
4
0
ENDSEC
0
SECTION
2
TABLES
0
TABLE
2
LTYPE
0
LTYPE
72
65
70
64
2
CONTINUOUS
3
______
73
0
40
0
0
ENDTAB
0
TABLE
2
LAYER
0
ENDTAB
0
ENDSEC
0
SECTION
2
ENTITIES
0
LINE
8
0
10
91.2492653
20
-111.9342949
11
91.0811663
21
-39.7036504
0
LINE
8
0
10
91.5811518
20
-39.2024868
11
128.5800132
21
-39.2015132
0
LINE
8
0
10
129.08
20
-38.7015132
11
129.08
21
-35.3275
0
LINE
8
0
10
129.58
20
-34.8275
11
147.58
21
-34.8275
0
LINE
8
0
10
148.08
20
-34.3275
11
148.08
21
-33.2525
0
LINE
8
0
10
148.58
20
-32.7525
11
165.582
21
-32.7525
0
LINE
8
0
10
166.082
20
-33.2525
11
166.082
21
-34.3275
0
LINE
8
0
10
166.582
20
-34.8275
11
184.582
21
-34.8275
0
LINE
8
0
10
185.082
20
-35.3275
11
185.082
21
-36.6231184
0
LINE
8
0
10
185.5818816
20
-37.1231184
11
204.0571232
21
-37.1274941
0
LINE
8
0
10
204.1067543
20
-37.1299753
11
224.3827495
21
-39.1574771
0
LINE
8
0
10
224.833
20
-124.7106236
11
224.833
21
-39.6549959
0
LINE
8
0
10
224.7475076
20
-124.9902367
11
213.2828548
21
-141.9858107
0
LINE
8
0
10
212.6543954
20
-142.1581098
11
179.0051814
21
-126.2273384
0
LINE
8
0
10
178.831516
20
-126.1808762
11
163.5204456
21
-124.9431945
0
LINE
8
0
10
163.3807357
20
-124.9515536
11
146.2492103
21
-128.4275153
0
LINE
8
0
10
146.1497869
20
-128.4375
11
125.5623547
21
-128.4375
0
LINE
8
0
10
125.3484465
20
-128.3894328
11
91.5353556
21
-112.3850642
0
ARC
8
0
10
91.5811649
20
-39.7024868
40
0.5
50
90.0015069
51
180.1333389
0
ARC
8
0
10
128.58
20
-38.7015132
40
0.5
50
270.0015069
51
0
0
ARC
8
0
10
129.58
20
-35.3275
40
0.5
50
90
51
180
0
ARC
8
0
10
147.58
20
-34.3275
40
0.5
50
270
51
0
0
ARC
8
0
10
148.58
20
-33.2525
40
0.5
50
90
51
180
0
ARC
8
0
10
165.582
20
-33.2525
40
0.5
50
0
51
90
0
ARC
8
0
10
166.582
20
-34.3275
40
0.5
50
180
51
270
0
ARC
8
0
10
184.582
20
-35.3275
40
0.5
50
0
51
90
0
ARC
8
0
10
185.582
20
-36.6231184
40
0.5
50
180
51
269.9864324
0
ARC
8
0
10
204.0570048
20
-37.6274941
40
0.5
50
84.2896788
51
89.9864324
0
ARC
8
0
10
224.333
20
-39.6549959
40
0.5
50
0
51
84.2896788
0
ARC
8
0
10
224.333
20
-124.7106236
40
0.5
50
325.9976984
51
0
0
ARC
8
0
10
212.8683472
20
-141.7061976
40
0.5
50
244.6654098
51
325.9976984
0
ARC
8
0
10
178.7912296
20
-126.6792506
40
0.5
50
64.6654098
51
85.3785031
0
ARC
8
0
10
163.4801591
20
-125.4415689
40
0.5
50
85.3785031
51
101.469531
0
ARC
8
0
10
146.1497869
20
-127.9375
40
0.5
50
270
51
281.469531
0
ARC
8
0
10
125.5623547
20
-127.9375
40
0.5
50
244.6709304
51
270
0
ARC
8
0
10
91.7492639
20
-111.9331313
40
0.5
50
180.1333389
51
244.6709304
0
CIRCLE
8
0
10
109.5
20
-56.25
40
2.15
0
CIRCLE
8
0
10
109.5
20
-91.25
40
2.15
0
CIRCLE
8
0
10
185.068
20
-51.8235
40
2.15
0
CIRCLE
8
0
10
185.068
20
-86.8235
40
2.15
0
CIRCLE
8
0
10
120.357
20
-111.365
40
2.15
0
ENDSEC
0
EOF