%TF.GenerationSoftware,KiCad,Pcbnew,8.0.7*%
%TF.CreationDate,2025-02-11T23:53:49-03:00*%
%TF.ProjectId,souffle_wireless,736f7566-666c-4655-9f77-6972656c6573,0.1*%
%TF.SameCoordinates,Original*%
%TF.FileFunction,Copper,L2,Bot*%
%TF.FilePolarity,Positive*%
%FSLAX46Y46*%
G04 Gerber Fmt 4.6, Leading zero omitted, Abs format (unit mm)*
G04 Created by KiCad (PCBNEW 8.0.7) date 2025-02-11 23:53:49*
%MOMM*%
%LPD*%
G01*
G04 APERTURE LIST*
G04 Aperture macros list*
%AMRotRect*
0 Rectangle, with rotation*
0 The origin of the aperture is its center*
0 $1 length*
0 $2 width*
0 $3 Rotation angle, in degrees counterclockwise*
0 Add horizontal line*
21,1,$1,$2,0,0,$3*%
%AMFreePoly0*
4,1,6,0.600000,-0.200000,0.600000,-0.400000,-0.600000,-0.400000,-0.600000,-0.200000,0.000000,0.400000,0.600000,-0.200000,0.600000,-0.200000,$1*%
%AMFreePoly1*
4,1,6,0.600000,-1.000000,0.000000,-0.400000,-0.600000,-1.000000,-0.600000,0.250000,0.600000,0.250000,0.600000,-1.000000,0.600000,-1.000000,$1*%
G04 Aperture macros list end*
%TA.AperFunction,SMDPad,CuDef*%
%ADD10R,1.550000X2.000000*%
%TD*%
%TA.AperFunction,SMDPad,CuDef*%
%ADD11R,2.000000X2.000000*%
%TD*%
%TA.AperFunction,SMDPad,CuDef*%
%ADD12RotRect,1.550000X2.000000X345.000000*%
%TD*%
%TA.AperFunction,SMDPad,CuDef*%
%ADD13RotRect,2.000000X2.000000X345.000000*%
%TD*%
%TA.AperFunction,SMDPad,CuDef*%
%ADD14RotRect,1.550000X2.000000X330.000000*%
%TD*%
%TA.AperFunction,SMDPad,CuDef*%
%ADD15RotRect,2.000000X2.000000X330.000000*%
%TD*%
%TA.AperFunction,SMDPad,CuDef*%
%ADD16R,1.200000X0.900000*%
%TD*%
%TA.AperFunction,SMDPad,CuDef*%
%ADD17RotRect,0.900000X1.200000X75.000000*%
%TD*%
%TA.AperFunction,SMDPad,CuDef*%
%ADD18RotRect,0.900000X1.200000X60.000000*%
%TD*%
%TA.AperFunction,ComponentPad*%
%ADD19C,1.700000*%
%TD*%
%TA.AperFunction,ComponentPad*%
%ADD20C,0.800000*%
%TD*%
%TA.AperFunction,SMDPad,CuDef*%
%ADD21R,0.600000X1.200000*%
%TD*%
%TA.AperFunction,SMDPad,CuDef*%
%ADD22R,1.200000X0.600000*%
%TD*%
%TA.AperFunction,ComponentPad*%
%ADD23O,1.700000X1.700000*%
%TD*%
%TA.AperFunction,SMDPad,CuDef*%
%ADD24R,0.800000X1.000000*%
%TD*%
%TA.AperFunction,SMDPad,CuDef*%
%ADD25R,1.500000X0.700000*%
%TD*%
%TA.AperFunction,SMDPad,CuDef*%
%ADD26R,1.550000X1.000000*%
%TD*%
%TA.AperFunction,ComponentPad*%
%ADD27O,1.750000X1.200000*%
%TD*%
%TA.AperFunction,SMDPad,CuDef*%
%ADD28FreePoly0,270.000000*%
%TD*%
%TA.AperFunction,SMDPad,CuDef*%
%ADD29FreePoly1,270.000000*%
%TD*%
%TA.AperFunction,ViaPad*%
%ADD30C,0.600000*%
%TD*%
%TA.AperFunction,Conductor*%
%ADD31C,0.250000*%
%TD*%
%TA.AperFunction,Conductor*%
%ADD32C,0.200000*%
%TD*%
G04 APERTURE END LIST*
D10*
%TO.P,S1,1*%
%TO.N,outer_bottom_B*%
X97500000Y-102650000D03*
%TO.P,S1,2*%
%TO.N,C0*%
X102500000Y-102650000D03*
D11*
%TO.P,S1,3*%
%TO.N,N/C*%
X93650000Y-94000000D03*
X93650000Y-106000000D03*
X106350000Y-94000000D03*
X106350000Y-106000000D03*
%TD*%
D10*
%TO.P,S2,1*%
%TO.N,outer_home_B*%
X97500000Y-85150000D03*
%TO.P,S2,2*%
%TO.N,C0*%
X102500000Y-85150000D03*
D11*
%TO.P,S2,3*%
%TO.N,N/C*%
X93650000Y-76500000D03*
X93650000Y-88500000D03*
X106350000Y-76500000D03*
X106350000Y-88500000D03*
%TD*%
D10*
%TO.P,S3,1*%
%TO.N,outer_top_B*%
X97500000Y-67650000D03*
%TO.P,S3,2*%
%TO.N,C0*%
X102500000Y-67650000D03*
D11*
%TO.P,S3,3*%
%TO.N,N/C*%
X93650000Y-59000000D03*
X93650000Y-71000000D03*
X106350000Y-59000000D03*
X106350000Y-71000000D03*
%TD*%
D10*
%TO.P,S4,1*%
%TO.N,outer_number_B*%
X97500000Y-50150000D03*
%TO.P,S4,2*%
%TO.N,C0*%
X102500000Y-50150000D03*
D11*
%TO.P,S4,3*%
%TO.N,N/C*%
X93650000Y-41500000D03*
X93650000Y-53500000D03*
X106350000Y-41500000D03*
X106350000Y-53500000D03*
%TD*%
D10*
%TO.P,S5,1*%
%TO.N,pinky_bottom_B*%
X116500000Y-102650000D03*
%TO.P,S5,2*%
%TO.N,C1*%
X121500000Y-102650000D03*
D11*
%TO.P,S5,3*%
%TO.N,N/C*%
X112650000Y-94000000D03*
X112650000Y-106000000D03*
X125350000Y-94000000D03*
X125350000Y-106000000D03*
%TD*%
D10*
%TO.P,S6,1*%
%TO.N,pinky_home_B*%
X116500000Y-85150000D03*
%TO.P,S6,2*%
%TO.N,C1*%
X121500000Y-85150000D03*
D11*
%TO.P,S6,3*%
%TO.N,N/C*%
X112650000Y-76500000D03*
X112650000Y-88500000D03*
X125350000Y-76500000D03*
X125350000Y-88500000D03*
%TD*%
D10*
%TO.P,S7,1*%
%TO.N,pinky_top_B*%
X116500000Y-67650000D03*
%TO.P,S7,2*%
%TO.N,C1*%
X121500000Y-67650000D03*
D11*
%TO.P,S7,3*%
%TO.N,N/C*%
X112650000Y-59000000D03*
X112650000Y-71000000D03*
X125350000Y-59000000D03*
X125350000Y-71000000D03*
%TD*%
D10*
%TO.P,S8,1*%
%TO.N,pinky_number_B*%
X116500000Y-50150000D03*
%TO.P,S8,2*%
%TO.N,C1*%
X121500000Y-50150000D03*
D11*
%TO.P,S8,3*%
%TO.N,N/C*%
X112650000Y-41500000D03*
X112650000Y-53500000D03*
X125350000Y-41500000D03*
X125350000Y-53500000D03*
%TD*%
D10*
%TO.P,S9,1*%
%TO.N,ring_bottom_B*%
X135500000Y-98275000D03*
%TO.P,S9,2*%
%TO.N,C2*%
X140500000Y-98275000D03*
D11*
%TO.P,S9,3*%
%TO.N,N/C*%
X131650000Y-89625000D03*
X131650000Y-101625000D03*
X144350000Y-89625000D03*
X144350000Y-101625000D03*
%TD*%
D10*
%TO.P,S10,1*%
%TO.N,ring_home_B*%
X135500000Y-80775000D03*
%TO.P,S10,2*%
%TO.N,C2*%
X140500000Y-80775000D03*
D11*
%TO.P,S10,3*%
%TO.N,N/C*%
X131650000Y-72125000D03*
X131650000Y-84125000D03*
X144350000Y-72125000D03*
X144350000Y-84125000D03*
%TD*%
D10*
%TO.P,S11,1*%
%TO.N,ring_top_B*%
X135500000Y-63275000D03*
%TO.P,S11,2*%
%TO.N,C2*%
X140500000Y-63275000D03*
D11*
%TO.P,S11,3*%
%TO.N,N/C*%
X131650000Y-54625000D03*
X131650000Y-66625000D03*
X144350000Y-54625000D03*
X144350000Y-66625000D03*
%TD*%
D10*
%TO.P,S12,1*%
%TO.N,ring_number_B*%
X135500000Y-45775000D03*
%TO.P,S12,2*%
%TO.N,C2*%
X140500000Y-45775000D03*
D11*
%TO.P,S12,3*%
%TO.N,N/C*%
X131650000Y-37125000D03*
X131650000Y-49125000D03*
X144350000Y-37125000D03*
X144350000Y-49125000D03*
%TD*%
D10*
%TO.P,S13,1*%
%TO.N,middle_bottom_B*%
X154500000Y-96087500D03*
%TO.P,S13,2*%
%TO.N,C3*%
X159500000Y-96087500D03*
D11*
%TO.P,S13,3*%
%TO.N,N/C*%
X150650000Y-87437500D03*
X150650000Y-99437500D03*
X163350000Y-87437500D03*
X163350000Y-99437500D03*
%TD*%
D10*
%TO.P,S14,1*%
%TO.N,middle_home_B*%
X154500000Y-78587500D03*
%TO.P,S14,2*%
%TO.N,C3*%
X159500000Y-78587500D03*
D11*
%TO.P,S14,3*%
%TO.N,N/C*%
X150650000Y-69937500D03*
X150650000Y-81937500D03*
X163350000Y-69937500D03*
X163350000Y-81937500D03*
%TD*%
D10*
%TO.P,S15,1*%
%TO.N,middle_top_B*%
X154500000Y-61087500D03*
%TO.P,S15,2*%
%TO.N,C3*%
X159500000Y-61087500D03*
D11*
%TO.P,S15,3*%
%TO.N,N/C*%
X150650000Y-52437500D03*
X150650000Y-64437500D03*
X163350000Y-52437500D03*
X163350000Y-64437500D03*
%TD*%
D10*
%TO.P,S16,1*%
%TO.N,middle_number_B*%
X154500000Y-43587500D03*
%TO.P,S16,2*%
%TO.N,C3*%
X159500000Y-43587500D03*
D11*
%TO.P,S16,3*%
%TO.N,N/C*%
X150650000Y-34937500D03*
X150650000Y-46937500D03*
X163350000Y-34937500D03*
X163350000Y-46937500D03*
%TD*%
D10*
%TO.P,S17,1*%
%TO.N,index_bottom_B*%
X173500000Y-98275000D03*
%TO.P,S17,2*%
%TO.N,C4*%
X178500000Y-98275000D03*
D11*
%TO.P,S17,3*%
%TO.N,N/C*%
X169650000Y-89625000D03*
X169650000Y-101625000D03*
X182350000Y-89625000D03*
X182350000Y-101625000D03*
%TD*%
D10*
%TO.P,S18,1*%
%TO.N,index_home_B*%
X173500000Y-80775000D03*
%TO.P,S18,2*%
%TO.N,C4*%
X178500000Y-80775000D03*
D11*
%TO.P,S18,3*%
%TO.N,N/C*%
X169650000Y-72125000D03*
X169650000Y-84125000D03*
X182350000Y-72125000D03*
X182350000Y-84125000D03*
%TD*%
D10*
%TO.P,S19,1*%
%TO.N,index_top_B*%
X173500000Y-63275000D03*
%TO.P,S19,2*%
%TO.N,C4*%
X178500000Y-63275000D03*
D11*
%TO.P,S19,3*%
%TO.N,N/C*%
X169650000Y-54625000D03*
X169650000Y-66625000D03*
X182350000Y-54625000D03*
X182350000Y-66625000D03*
%TD*%
D10*
%TO.P,S20,1*%
%TO.N,index_number_B*%
X173500000Y-45775000D03*
%TO.P,S20,2*%
%TO.N,C4*%
X178500000Y-45775000D03*
D11*
%TO.P,S20,3*%
%TO.N,N/C*%
X169650000Y-37125000D03*
X169650000Y-49125000D03*
X182350000Y-37125000D03*
X182350000Y-49125000D03*
%TD*%
D10*
%TO.P,S21,1*%
%TO.N,inner_bottom_B*%
X192500000Y-100462500D03*
%TO.P,S21,2*%
%TO.N,C5*%
X197500000Y-100462500D03*
D11*
%TO.P,S21,3*%
%TO.N,N/C*%
X188650000Y-91812500D03*
X188650000Y-103812500D03*
X201350000Y-91812500D03*
X201350000Y-103812500D03*
%TD*%
D10*
%TO.P,S22,1*%
%TO.N,inner_home_B*%
X192500000Y-82962500D03*
%TO.P,S22,2*%
%TO.N,C5*%
X197500000Y-82962500D03*
D11*
%TO.P,S22,3*%
%TO.N,N/C*%
X188650000Y-74312500D03*
X188650000Y-86312500D03*
X201350000Y-74312500D03*
X201350000Y-86312500D03*
%TD*%
D10*
%TO.P,S23,1*%
%TO.N,inner_top_B*%
X192500000Y-65462500D03*
%TO.P,S23,2*%
%TO.N,C5*%
X197500000Y-65462500D03*
D11*
%TO.P,S23,3*%
%TO.N,N/C*%
X188650000Y-56812500D03*
X188650000Y-68812500D03*
X201350000Y-56812500D03*
X201350000Y-68812500D03*
%TD*%
D10*
%TO.P,S24,1*%
%TO.N,inner_number_B*%
X192500000Y-47962500D03*
%TO.P,S24,2*%
%TO.N,C5*%
X197500000Y-47962500D03*
D11*
%TO.P,S24,3*%
%TO.N,N/C*%
X188650000Y-39312500D03*
X188650000Y-51312500D03*
X201350000Y-39312500D03*
X201350000Y-51312500D03*
%TD*%
D10*
%TO.P,S25,1*%
%TO.N,inward_home_B*%
X131700000Y-120587500D03*
%TO.P,S25,2*%
%TO.N,C1*%
X136700000Y-120587500D03*
D11*
%TO.P,S25,3*%
%TO.N,N/C*%
X127850000Y-111937500D03*
X127850000Y-123937500D03*
X140550000Y-111937500D03*
X140550000Y-123937500D03*
%TD*%
D10*
%TO.P,S26,1*%
%TO.N,mid_home_B*%
X150700000Y-117087500D03*
%TO.P,S26,2*%
%TO.N,C2*%
X155700000Y-117087500D03*
D11*
%TO.P,S26,3*%
%TO.N,N/C*%
X146850000Y-108437500D03*
X146850000Y-120437500D03*
X159550000Y-108437500D03*
X159550000Y-120437500D03*
%TD*%
D10*
%TO.P,S27,1*%
%TO.N,outward_home_B*%
X169700000Y-117087500D03*
%TO.P,S27,2*%
%TO.N,C3*%
X174700000Y-117087500D03*
D11*
%TO.P,S27,3*%
%TO.N,N/C*%
X165850000Y-108437500D03*
X165850000Y-120437500D03*
X178550000Y-108437500D03*
X178550000Y-120437500D03*
%TD*%
D12*
%TO.P,S28,1*%
%TO.N,extra_outward_home_B*%
X188228815Y-122366656D03*
%TO.P,S28,2*%
%TO.N,C4*%
X193058444Y-123660751D03*
D13*
%TO.P,S28,3*%
%TO.N,N/C*%
X186748785Y-113014944D03*
X183642957Y-124606054D03*
X199016043Y-116301946D03*
X195910215Y-127893056D03*
%TD*%
D14*
%TO.P,S29,1*%
%TO.N,big_outward_home_B*%
X206467036Y-129481167D03*
%TO.P,S29,2*%
%TO.N,C5*%
X210797164Y-131981167D03*
D15*
%TO.P,S29,3*%
%TO.N,N/C*%
X207457839Y-120065048D03*
X201457839Y-130457352D03*
X218456361Y-126415048D03*
X212456361Y-136807352D03*
%TD*%
D16*
%TO.P,D1,2*%
%TO.N,outer_bottom_B*%
X92250000Y-96850000D03*
%TO.P,D1,1*%
%TO.N,R3*%
X92250000Y-100150000D03*
%TD*%
%TO.P,D2,2*%
%TO.N,outer_home_B*%
X92250000Y-79350000D03*
%TO.P,D2,1*%
%TO.N,R2*%
X92250000Y-82650000D03*
%TD*%
%TO.P,D3,2*%
%TO.N,outer_top_B*%
X92250000Y-61850000D03*
%TO.P,D3,1*%
%TO.N,R1*%
X92250000Y-65150000D03*
%TD*%
%TO.P,D4,2*%
%TO.N,outer_number_B*%
X92250000Y-44350000D03*
%TO.P,D4,1*%
%TO.N,R0*%
X92250000Y-47650000D03*
%TD*%
%TO.P,D5,2*%
%TO.N,pinky_bottom_B*%
X111250000Y-96850000D03*
%TO.P,D5,1*%
%TO.N,R3*%
X111250000Y-100150000D03*
%TD*%
%TO.P,D6,2*%
%TO.N,pinky_home_B*%
X111250000Y-79350000D03*
%TO.P,D6,1*%
%TO.N,R2*%
X111250000Y-82650000D03*
%TD*%
%TO.P,D7,2*%
%TO.N,pinky_top_B*%
X111250000Y-61850000D03*
%TO.P,D7,1*%
%TO.N,R1*%
X111250000Y-65150000D03*
%TD*%
%TO.P,D8,2*%
%TO.N,pinky_number_B*%
X111250000Y-44350000D03*
%TO.P,D8,1*%
%TO.N,R0*%
X111250000Y-47650000D03*
%TD*%
%TO.P,D9,2*%
%TO.N,ring_bottom_B*%
X130250000Y-92475000D03*
%TO.P,D9,1*%
%TO.N,R3*%
X130250000Y-95775000D03*
%TD*%
%TO.P,D10,2*%
%TO.N,ring_home_B*%
X130250000Y-74975000D03*
%TO.P,D10,1*%
%TO.N,R2*%
X130250000Y-78275000D03*
%TD*%
%TO.P,D11,2*%
%TO.N,ring_top_B*%
X130250000Y-57475000D03*
%TO.P,D11,1*%
%TO.N,R1*%
X130250000Y-60775000D03*
%TD*%
%TO.P,D12,2*%
%TO.N,ring_number_B*%
X130250000Y-39975000D03*
%TO.P,D12,1*%
%TO.N,R0*%
X130250000Y-43275000D03*
%TD*%
%TO.P,D13,2*%
%TO.N,middle_bottom_B*%
X149250000Y-90287500D03*
%TO.P,D13,1*%
%TO.N,R3*%
X149250000Y-93587500D03*
%TD*%
%TO.P,D14,2*%
%TO.N,middle_home_B*%
X149250000Y-72787500D03*
%TO.P,D14,1*%
%TO.N,R2*%
X149250000Y-76087500D03*
%TD*%
%TO.P,D15,2*%
%TO.N,middle_top_B*%
X149250000Y-55287500D03*
%TO.P,D15,1*%
%TO.N,R1*%
X149250000Y-58587500D03*
%TD*%
%TO.P,D16,2*%
%TO.N,middle_number_B*%
X149250000Y-37787500D03*
%TO.P,D16,1*%
%TO.N,R0*%
X149250000Y-41087500D03*
%TD*%
%TO.P,D17,2*%
%TO.N,index_bottom_B*%
X168250000Y-92475000D03*
%TO.P,D17,1*%
%TO.N,R3*%
X168250000Y-95775000D03*
%TD*%
%TO.P,D18,2*%
%TO.N,index_home_B*%
X168250000Y-74975000D03*
%TO.P,D18,1*%
%TO.N,R2*%
X168250000Y-78275000D03*
%TD*%
%TO.P,D19,2*%
%TO.N,index_top_B*%
X168250000Y-57475000D03*
%TO.P,D19,1*%
%TO.N,R1*%
X168250000Y-60775000D03*
%TD*%
%TO.P,D20,2*%
%TO.N,index_number_B*%
X168250000Y-39975000D03*
%TO.P,D20,1*%
%TO.N,R0*%
X168250000Y-43275000D03*
%TD*%
%TO.P,D21,2*%
%TO.N,inner_bottom_B*%
X187250000Y-94662500D03*
%TO.P,D21,1*%
%TO.N,R3*%
X187250000Y-97962500D03*
%TD*%
%TO.P,D22,2*%
%TO.N,inner_home_B*%
X187250000Y-77162500D03*
%TO.P,D22,1*%
%TO.N,R2*%
X187250000Y-80462500D03*
%TD*%
%TO.P,D23,2*%
%TO.N,inner_top_B*%
X187250000Y-59662500D03*
%TO.P,D23,1*%
%TO.N,R1*%
X187250000Y-62962500D03*
%TD*%
%TO.P,D24,2*%
%TO.N,inner_number_B*%
X187250000Y-42162500D03*
%TO.P,D24,1*%
%TO.N,R0*%
X187250000Y-45462500D03*
%TD*%
%TO.P,D25,2*%
%TO.N,inward_home_B*%
X126450000Y-114787500D03*
%TO.P,D25,1*%
%TO.N,R4*%
X126450000Y-118087500D03*
%TD*%
%TO.P,D26,2*%
%TO.N,mid_home_B*%
X145450000Y-111287500D03*
%TO.P,D26,1*%
%TO.N,R4*%
X145450000Y-114587500D03*
%TD*%
%TO.P,D27,2*%
%TO.N,outward_home_B*%
X164450000Y-111287500D03*
%TO.P,D27,1*%
%TO.N,R4*%
X164450000Y-114587500D03*
%TD*%
D17*
%TO.P,D28,2*%
%TO.N,extra_outward_home_B*%
X184658851Y-115405522D03*
%TO.P,D28,1*%
%TO.N,R4*%
X183804749Y-118593078D03*
%TD*%
D18*
%TO.P,D29,2*%
%TO.N,big_outward_home_B*%
X204820400Y-121833158D03*
%TO.P,D29,1*%
%TO.N,R4*%
X203170400Y-124691042D03*
%TD*%
D19*
%TO.P,MCU1,24*%
%TO.N,MCU1_24*%
X207084000Y-44420000D03*
%TO.P,MCU1,1*%
%TO.N,MCU1_1*%
X222324000Y-44420000D03*
D20*
%TO.P,MCU1,124*%
%TO.N,RAW*%
X211304000Y-44420000D03*
%TO.P,MCU1,101*%
%TO.N,LED*%
X218104000Y-44420000D03*
D21*
%TO.P,MCU1,24*%
%TO.N,MCU1_24*%
X209224000Y-44420000D03*
%TO.P,MCU1,101*%
%TO.N,LED*%
X210124000Y-44420000D03*
%TO.P,MCU1,124*%
%TO.N,RAW*%
X219284000Y-44420000D03*
%TO.P,MCU1,1*%
%TO.N,MCU1_1*%
X220184000Y-44420000D03*
D19*
%TO.P,MCU1,23*%
%TO.N,MCU1_23*%
X207084000Y-46960000D03*
%TO.P,MCU1,2*%
%TO.N,MCU1_2*%
X222324000Y-46960000D03*
D20*
%TO.P,MCU1,123*%
%TO.N,GND*%
X211304000Y-46960000D03*
%TO.P,MCU1,102*%
%TO.N,DAT*%
X218104000Y-46960000D03*
D21*
%TO.P,MCU1,23*%
%TO.N,MCU1_23*%
X209224000Y-46960000D03*
%TO.P,MCU1,102*%
%TO.N,DAT*%
X210124000Y-46960000D03*
%TO.P,MCU1,123*%
%TO.N,GND*%
X219284000Y-46960000D03*
%TO.P,MCU1,2*%
%TO.N,MCU1_2*%
X220184000Y-46960000D03*
D19*
%TO.P,MCU1,22*%
%TO.N,MCU1_22*%
X207084000Y-49500000D03*
%TO.P,MCU1,3*%
%TO.N,MCU1_3*%
X222324000Y-49500000D03*
D20*
%TO.P,MCU1,122*%
%TO.N,RST*%
X211304000Y-49500000D03*
%TO.P,MCU1,103*%
%TO.N,GND*%
X218104000Y-49500000D03*
D21*
%TO.P,MCU1,22*%
%TO.N,MCU1_22*%
X209224000Y-49500000D03*
%TO.P,MCU1,103*%
%TO.N,GND*%
X210124000Y-49500000D03*
%TO.P,MCU1,122*%
%TO.N,RST*%
X219284000Y-49500000D03*
%TO.P,MCU1,3*%
%TO.N,MCU1_3*%
X220184000Y-49500000D03*
D19*
%TO.P,MCU1,21*%
%TO.N,MCU1_21*%
X207084000Y-52040000D03*
%TO.P,MCU1,4*%
%TO.N,MCU1_4*%
X222324000Y-52040000D03*
D20*
%TO.P,MCU1,121*%
%TO.N,VCC*%
X211304000Y-52040000D03*
%TO.P,MCU1,104*%
%TO.N,GND*%
X218104000Y-52040000D03*
D21*
%TO.P,MCU1,21*%
%TO.N,MCU1_21*%
X209224000Y-52040000D03*
%TO.P,MCU1,104*%
%TO.N,GND*%
X210124000Y-52040000D03*
%TO.P,MCU1,121*%
%TO.N,VCC*%
X219284000Y-52040000D03*
%TO.P,MCU1,4*%
%TO.N,MCU1_4*%
X220184000Y-52040000D03*
D19*
%TO.P,MCU1,20*%
%TO.N,MCU1_20*%
X207084000Y-54580000D03*
%TO.P,MCU1,5*%
%TO.N,MCU1_5*%
X222324000Y-54580000D03*
D20*
%TO.P,MCU1,120*%
%TO.N,C0*%
X211304000Y-54580000D03*
%TO.P,MCU1,105*%
%TO.N,SDA*%
X218104000Y-54580000D03*
D21*
%TO.P,MCU1,20*%
%TO.N,MCU1_20*%
X209224000Y-54580000D03*
%TO.P,MCU1,105*%
%TO.N,SDA*%
X210124000Y-54580000D03*
%TO.P,MCU1,120*%
%TO.N,C0*%
X219284000Y-54580000D03*
%TO.P,MCU1,5*%
%TO.N,MCU1_5*%
X220184000Y-54580000D03*
D19*
%TO.P,MCU1,19*%
%TO.N,MCU1_19*%
X207084000Y-57120000D03*
%TO.P,MCU1,6*%
%TO.N,MCU1_6*%
X222324000Y-57120000D03*
D20*
%TO.P,MCU1,119*%
%TO.N,C1*%
X211304000Y-57120000D03*
%TO.P,MCU1,106*%
%TO.N,SCL*%
X218104000Y-57120000D03*
D21*
%TO.P,MCU1,19*%
%TO.N,MCU1_19*%
X209224000Y-57120000D03*
%TO.P,MCU1,106*%
%TO.N,SCL*%
X210124000Y-57120000D03*
%TO.P,MCU1,119*%
%TO.N,C1*%
X219284000Y-57120000D03*
%TO.P,MCU1,6*%
%TO.N,MCU1_6*%
X220184000Y-57120000D03*
D19*
%TO.P,MCU1,18*%
%TO.N,MCU1_18*%
X207084000Y-59660000D03*
%TO.P,MCU1,7*%
%TO.N,MCU1_7*%
X222324000Y-59660000D03*
D20*
%TO.P,MCU1,118*%
%TO.N,C2*%
X211304000Y-59660000D03*
%TO.P,MCU1,107*%
%TO.N,CS*%
X218104000Y-59660000D03*
D21*
%TO.P,MCU1,18*%
%TO.N,MCU1_18*%
X209224000Y-59660000D03*
%TO.P,MCU1,107*%
%TO.N,CS*%
X210124000Y-59660000D03*
%TO.P,MCU1,118*%
%TO.N,C2*%
X219284000Y-59660000D03*
%TO.P,MCU1,7*%
%TO.N,MCU1_7*%
X220184000Y-59660000D03*
D19*
%TO.P,MCU1,17*%
%TO.N,MCU1_17*%
X207084000Y-62200000D03*
%TO.P,MCU1,8*%
%TO.N,MCU1_8*%
X222324000Y-62200000D03*
D20*
%TO.P,MCU1,117*%
%TO.N,C3*%
X211304000Y-62200000D03*
%TO.P,MCU1,108*%
%TO.N,R0*%
X218104000Y-62200000D03*
D21*
%TO.P,MCU1,17*%
%TO.N,MCU1_17*%
X209224000Y-62200000D03*
%TO.P,MCU1,108*%
%TO.N,R0*%
X210124000Y-62200000D03*
%TO.P,MCU1,117*%
%TO.N,C3*%
X219284000Y-62200000D03*
%TO.P,MCU1,8*%
%TO.N,MCU1_8*%
X220184000Y-62200000D03*
D19*
%TO.P,MCU1,16*%
%TO.N,MCU1_16*%
X207084000Y-64740000D03*
%TO.P,MCU1,9*%
%TO.N,MCU1_9*%
X222324000Y-64740000D03*
D20*
%TO.P,MCU1,116*%
%TO.N,C4*%
X211304000Y-64740000D03*
%TO.P,MCU1,109*%
%TO.N,R1*%
X218104000Y-64740000D03*
D21*
%TO.P,MCU1,16*%
%TO.N,MCU1_16*%
X209224000Y-64740000D03*
%TO.P,MCU1,109*%
%TO.N,R1*%
X210124000Y-64740000D03*
%TO.P,MCU1,116*%
%TO.N,C4*%
X219284000Y-64740000D03*
%TO.P,MCU1,9*%
%TO.N,MCU1_9*%
X220184000Y-64740000D03*
D19*
%TO.P,MCU1,15*%
%TO.N,MCU1_15*%
X207084000Y-67280000D03*
%TO.P,MCU1,10*%
%TO.N,MCU1_10*%
X222324000Y-67280000D03*
D20*
%TO.P,MCU1,115*%
%TO.N,C5*%
X211304000Y-67280000D03*
%TO.P,MCU1,110*%
%TO.N,R2*%
X218104000Y-67280000D03*
D21*
%TO.P,MCU1,15*%
%TO.N,MCU1_15*%
X209224000Y-67280000D03*
%TO.P,MCU1,110*%
%TO.N,R2*%
X210124000Y-67280000D03*
%TO.P,MCU1,115*%
%TO.N,C5*%
X219284000Y-67280000D03*
%TO.P,MCU1,10*%
%TO.N,MCU1_10*%
X220184000Y-67280000D03*
D19*
%TO.P,MCU1,14*%
%TO.N,MCU1_14*%
X207084000Y-69820000D03*
%TO.P,MCU1,11*%
%TO.N,MCU1_11*%
X222324000Y-69820000D03*
D20*
%TO.P,MCU1,114*%
%TO.N,P16*%
X211304000Y-69820000D03*
%TO.P,MCU1,111*%
%TO.N,R3*%
X218104000Y-69820000D03*
D21*
%TO.P,MCU1,14*%
%TO.N,MCU1_14*%
X209224000Y-69820000D03*
%TO.P,MCU1,111*%
%TO.N,R3*%
X210124000Y-69820000D03*
%TO.P,MCU1,114*%
%TO.N,P16*%
X219284000Y-69820000D03*
%TO.P,MCU1,11*%
%TO.N,MCU1_11*%
X220184000Y-69820000D03*
D19*
%TO.P,MCU1,13*%
%TO.N,MCU1_13*%
X207084000Y-72360000D03*
%TO.P,MCU1,12*%
%TO.N,MCU1_12*%
X222324000Y-72360000D03*
D20*
%TO.P,MCU1,113*%
%TO.N,P10*%
X211304000Y-72360000D03*
%TO.P,MCU1,112*%
%TO.N,R4*%
X218104000Y-72360000D03*
D21*
%TO.P,MCU1,13*%
%TO.N,MCU1_13*%
X209224000Y-72360000D03*
%TO.P,MCU1,112*%
%TO.N,R4*%
X210124000Y-72360000D03*
%TO.P,MCU1,113*%
%TO.N,P10*%
X219284000Y-72360000D03*
%TO.P,MCU1,12*%
%TO.N,MCU1_12*%
X220184000Y-72360000D03*
%TD*%
D22*
%TO.P,DISP1,24*%
%TO.N,DISP1_5*%
X219727000Y-77950000D03*
%TO.P,DISP1,25*%
%TO.N,DISP1_4*%
X217187000Y-77950000D03*
%TO.P,DISP1,26*%
%TO.N,DISP1_2*%
X212107000Y-77950000D03*
%TO.P,DISP1,27*%
%TO.N,DISP1_1*%
X209567000Y-77950000D03*
%TO.P,DISP1,20*%
%TO.N,CS*%
X219727000Y-78850000D03*
%TO.P,DISP1,21*%
%TO.N,GND*%
X217187000Y-78850000D03*
%TO.P,DISP1,22*%
%TO.N,SCL*%
X212107000Y-78850000D03*
%TO.P,DISP1,23*%
%TO.N,SDA*%
X209567000Y-78850000D03*
D23*
%TO.P,DISP1,1*%
%TO.N,DISP1_1*%
X209567000Y-76200000D03*
%TO.P,DISP1,2*%
%TO.N,DISP1_2*%
X212107000Y-76200000D03*
%TO.P,DISP1,3*%
%TO.N,VCC*%
X214647000Y-76200000D03*
%TO.P,DISP1,4*%
%TO.N,DISP1_4*%
X217187000Y-76200000D03*
D19*
%TO.P,DISP1,5*%
%TO.N,DISP1_5*%
X219727000Y-76200000D03*
%TD*%
D24*
%TO.P,PWR1,*%
%TO.N,*%
X221915000Y-80600000D03*
X224125000Y-80600000D03*
X221915000Y-87900000D03*
X224125000Y-87900000D03*
D25*
%TO.P,PWR1,1*%
%TO.N,BAT_P*%
X221265000Y-82000000D03*
%TO.P,PWR1,2*%
%TO.N,RAW*%
X221265000Y-85000000D03*
%TO.P,PWR1,3*%
%TO.N,N/C*%
X221265000Y-86500000D03*
%TD*%
D26*
%TO.P,RST1,1*%
%TO.N,GND*%
X212079000Y-40362500D03*
%TO.P,RST1,2*%
%TO.N,RST*%
X212079000Y-42062500D03*
%TO.P,RST1,3*%
%TO.N,GND*%
X217329000Y-40362500D03*
%TO.P,RST1,4*%
%TO.N,RST*%
X217329000Y-42062500D03*
%TD*%
D27*
%TO.P,JST1,11*%
%TO.N,JST1_1*%
X211750000Y-85000000D03*
%TO.P,JST1,12*%
%TO.N,JST1_2*%
X211750000Y-83000000D03*
D28*
%TO.P,JST1,31*%
%TO.N,JST1_1*%
X213550000Y-85000000D03*
%TO.P,JST1,32*%
%TO.N,JST1_2*%
X213550000Y-83000000D03*
D29*
%TO.P,JST1,1*%
%TO.N,BAT_P*%
X214566000Y-83000000D03*
%TO.P,JST1,2*%
%TO.N,GND*%
X214566000Y-85000000D03*
%TD*%
D30*
%TO.N,BAT_P*%
X219406800Y-82342500D03*
%TO.N,CS*%
X223557700Y-62889400D03*
X218825300Y-80605600D03*
%TO.N,SCL*%
X213218900Y-78729800D03*
%TO.N,SDA*%
X212335500Y-79937700D03*
%TO.N,VCC*%
X207971200Y-50937100D03*
X205436600Y-77484300D03*
%TO.N,RST*%
X210776300Y-42288500D03*
%TO.N,GND*%
X210800000Y-40581400D03*
X206051100Y-81553100D03*
X215326400Y-83760300D03*
X216285300Y-81553100D03*
X216090200Y-79367700D03*
%TO.N,RAW*%
X219999200Y-83500000D03*
%TO.N,pinky_number_F*%
X119940600Y-44350000D03*
X119940600Y-49589400D03*
%TO.N,R4*%
X201956600Y-122604700D03*
X163327300Y-114587500D03*
X179950000Y-113635600D03*
X183804700Y-122472200D03*
X146567300Y-114371900D03*
X127567600Y-118087500D03*
%TO.N,R0*%
X188405400Y-45462500D03*
X148348300Y-42571800D03*
X167025600Y-43025000D03*
X128514800Y-47650000D03*
X110016600Y-47785300D03*
X93376500Y-47650000D03*
X190752100Y-60830000D03*
%TO.N,R1*%
X163597400Y-60491800D03*
X149028800Y-60807200D03*
X129144000Y-60807200D03*
X110093200Y-64976400D03*
X100806200Y-65690700D03*
X188353800Y-62962500D03*
X190087900Y-64110500D03*
%TO.N,R2*%
X185783300Y-77899100D03*
X110113900Y-82650000D03*
X148348300Y-78275000D03*
X131168000Y-82101500D03*
X92250000Y-86451700D03*
X168250000Y-76463300D03*
%TO.N,R3*%
X148348300Y-96150800D03*
X187250000Y-96371600D03*
X128514800Y-99589900D03*
X110071800Y-100258600D03*
X167128100Y-95864200D03*
X211004200Y-71090000D03*
X203224800Y-71090000D03*
X203224800Y-97001000D03*
X100905700Y-100604300D03*
X127096500Y-99182500D03*
%TO.N,C5*%
X211990400Y-132951300D03*
X196222100Y-48923700D03*
X197026200Y-66970900D03*
X196837600Y-81438200D03*
X196212200Y-99439800D03*
%TO.N,C4*%
X179780100Y-45775000D03*
X179780100Y-63275000D03*
X179780100Y-80775000D03*
X179780100Y-98275000D03*
X194087000Y-122179100D03*
X178820100Y-70134200D03*
%TO.N,C3*%
X175998200Y-117087500D03*
X160779000Y-42964600D03*
X160780300Y-60711500D03*
X160779300Y-78352700D03*
X160787000Y-96087500D03*
X209075300Y-73709800D03*
%TO.N,C2*%
X154422800Y-117087500D03*
X139216800Y-45988700D03*
X139216800Y-63275000D03*
X139217300Y-81310600D03*
X139208500Y-98951700D03*
%TO.N,C1*%
X137990200Y-120081200D03*
X121500000Y-48620300D03*
X122781100Y-66734600D03*
X122783700Y-84516800D03*
X122785000Y-102299000D03*
%TO.N,C0*%
X102500000Y-48644500D03*
X101208300Y-66885100D03*
X101196800Y-84633200D03*
X101218600Y-102408200D03*
%TD*%
D31*
%TO.N,JST1_2*%
X213550000Y-83000000D02*
X211750000Y-83000000D01*
%TO.N,JST1_1*%
X213550000Y-85000000D02*
X211750000Y-85000000D01*
D32*
%TO.N,BAT_P*%
X219749300Y-82000000D02*
X219406800Y-82342500D01*
X221265000Y-82000000D02*
X219749300Y-82000000D01*
X218749300Y-83000000D02*
X219406800Y-82342500D01*
X214566000Y-83000000D02*
X218749300Y-83000000D01*
D31*
%TO.N,DISP1_5*%
X219727000Y-76200000D02*
X219727000Y-77950000D01*
%TO.N,DISP1_4*%
X217187000Y-76200000D02*
X217187000Y-77950000D01*
%TO.N,DISP1_2*%
X212107000Y-76200000D02*
X212107000Y-77950000D01*
%TO.N,DISP1_1*%
X209567000Y-76200000D02*
X209567000Y-77950000D01*
%TO.N,MCU1_12*%
X222324000Y-72360000D02*
X220204000Y-72360000D01*
D32*
X220184000Y-72360000D02*
X220204000Y-72360000D01*
D31*
%TO.N,MCU1_13*%
X207084000Y-72360000D02*
X209204000Y-72360000D01*
D32*
X209224000Y-72360000D02*
X209204000Y-72360000D01*
D31*
%TO.N,MCU1_11*%
X222324000Y-69820000D02*
X220204000Y-69820000D01*
D32*
X220184000Y-69820000D02*
X220204000Y-69820000D01*
D31*
%TO.N,MCU1_14*%
X207084000Y-69820000D02*
X209204000Y-69820000D01*
D32*
X209224000Y-69820000D02*
X209204000Y-69820000D01*
D31*
%TO.N,MCU1_10*%
X222324000Y-67280000D02*
X220204000Y-67280000D01*
D32*
X220184000Y-67280000D02*
X220204000Y-67280000D01*
D31*
%TO.N,MCU1_15*%
X207084000Y-67280000D02*
X209204000Y-67280000D01*
D32*
X209224000Y-67280000D02*
X209204000Y-67280000D01*
D31*
%TO.N,MCU1_9*%
X222324000Y-64740000D02*
X220204000Y-64740000D01*
D32*
X220184000Y-64740000D02*
X220204000Y-64740000D01*
D31*
%TO.N,MCU1_16*%
X207084000Y-64740000D02*
X209204000Y-64740000D01*
D32*
X209224000Y-64740000D02*
X209204000Y-64740000D01*
D31*
%TO.N,MCU1_8*%
X222324000Y-62200000D02*
X220204000Y-62200000D01*
D32*
X220184000Y-62200000D02*
X220204000Y-62200000D01*
D31*
%TO.N,MCU1_17*%
X207084000Y-62200000D02*
X209204000Y-62200000D01*
D32*
X209224000Y-62200000D02*
X209204000Y-62200000D01*
D31*
%TO.N,MCU1_7*%
X222324000Y-59660000D02*
X220204000Y-59660000D01*
D32*
X220184000Y-59660000D02*
X220204000Y-59660000D01*
D31*
%TO.N,MCU1_18*%
X207084000Y-59660000D02*
X209204000Y-59660000D01*
D32*
X209224000Y-59660000D02*
X209204000Y-59660000D01*
D31*
%TO.N,MCU1_6*%
X222324000Y-57120000D02*
X220204000Y-57120000D01*
D32*
X220184000Y-57120000D02*
X220204000Y-57120000D01*
D31*
%TO.N,MCU1_19*%
X207084000Y-57120000D02*
X209204000Y-57120000D01*
D32*
X209224000Y-57120000D02*
X209204000Y-57120000D01*
D31*
%TO.N,MCU1_5*%
X222324000Y-54580000D02*
X220204000Y-54580000D01*
D32*
X220184000Y-54580000D02*
X220204000Y-54580000D01*
D31*
%TO.N,MCU1_20*%
X207084000Y-54580000D02*
X209204000Y-54580000D01*
D32*
X209224000Y-54580000D02*
X209204000Y-54580000D01*
D31*
%TO.N,MCU1_4*%
X222324000Y-52040000D02*
X220204000Y-52040000D01*
D32*
X220184000Y-52040000D02*
X220204000Y-52040000D01*
D31*
%TO.N,MCU1_21*%
X207084000Y-52040000D02*
X209204000Y-52040000D01*
D32*
X209224000Y-52040000D02*
X209204000Y-52040000D01*
D31*
%TO.N,MCU1_3*%
X222324000Y-49500000D02*
X220204000Y-49500000D01*
D32*
X220184000Y-49500000D02*
X220204000Y-49500000D01*
D31*
%TO.N,MCU1_22*%
X207084000Y-49500000D02*
X209204000Y-49500000D01*
D32*
X209224000Y-49500000D02*
X209204000Y-49500000D01*
D31*
%TO.N,MCU1_2*%
X222324000Y-46960000D02*
X220204000Y-46960000D01*
D32*
X220184000Y-46960000D02*
X220204000Y-46960000D01*
D31*
%TO.N,MCU1_23*%
X207084000Y-46960000D02*
X209204000Y-46960000D01*
D32*
X209224000Y-46960000D02*
X209204000Y-46960000D01*
D31*
%TO.N,MCU1_1*%
X222324000Y-44420000D02*
X220204000Y-44420000D01*
D32*
X220184000Y-44420000D02*
X220204000Y-44420000D01*
D31*
%TO.N,MCU1_24*%
X207084000Y-44420000D02*
X209204000Y-44420000D01*
D32*
X209224000Y-44420000D02*
X209204000Y-44420000D01*
D31*
%TO.N,CS*%
X209929000Y-59660000D02*
X210124000Y-59660000D01*
X212099000Y-59890000D02*
X217874000Y-59890000D01*
X211604000Y-60385000D02*
X212099000Y-59890000D01*
X211004000Y-60385000D02*
X211604000Y-60385000D01*
X210279000Y-59660000D02*
X211004000Y-60385000D01*
X210124000Y-59660000D02*
X210279000Y-59660000D01*
D32*
X217874000Y-59890000D02*
X218104000Y-59660000D01*
X223557700Y-75921000D02*
X223557700Y-62889400D01*
X220628700Y-78850000D02*
X223557700Y-75921000D01*
X219727000Y-78850000D02*
X220628700Y-78850000D01*
X219727000Y-78850000D02*
X218825300Y-78850000D01*
X218825300Y-78850000D02*
X218825300Y-80605600D01*
D31*
%TO.N,SCL*%
X209929000Y-57120000D02*
X210124000Y-57120000D01*
D32*
X217874000Y-57350000D02*
X218104000Y-57120000D01*
D31*
X212099000Y-57350000D02*
X217874000Y-57350000D01*
X211604000Y-57845000D02*
X212099000Y-57350000D01*
X211004000Y-57845000D02*
X211604000Y-57845000D01*
X210279000Y-57120000D02*
X211004000Y-57845000D01*
X210124000Y-57120000D02*
X210279000Y-57120000D01*
D32*
X212107000Y-78850000D02*
X211205300Y-78850000D01*
X210124000Y-57120000D02*
X210124000Y-58021700D01*
X209755700Y-58390000D02*
X210124000Y-58021700D01*
X206683900Y-58390000D02*
X209755700Y-58390000D01*
X205524400Y-59549500D02*
X206683900Y-58390000D01*
X205524400Y-73059400D02*
X205524400Y-59549500D01*
X206576500Y-74111500D02*
X205524400Y-73059400D01*
X208607600Y-74111500D02*
X206576500Y-74111500D01*
X209023500Y-74527400D02*
X208607600Y-74111500D01*
X209591500Y-74527400D02*
X209023500Y-74527400D01*
X210837000Y-75772900D02*
X209591500Y-74527400D01*
X210837000Y-78481700D02*
X210837000Y-75772900D01*
X211205300Y-78850000D02*
X210837000Y-78481700D01*
X213098700Y-78850000D02*
X213218900Y-78729800D01*
X212107000Y-78850000D02*
X213098700Y-78850000D01*
%TO.N,SDA*%
X217874000Y-54810000D02*
X218104000Y-54580000D01*
D31*
X209929000Y-54580000D02*
X210124000Y-54580000D01*
X212099000Y-54810000D02*
X217874000Y-54810000D01*
X211604000Y-55305000D02*
X212099000Y-54810000D01*
X211004000Y-55305000D02*
X211604000Y-55305000D01*
X210279000Y-54580000D02*
X211004000Y-55305000D01*
X210124000Y-54580000D02*
X210279000Y-54580000D01*
D32*
X206922900Y-77107600D02*
X208665300Y-78850000D01*
X206922900Y-75025800D02*
X206922900Y-77107600D01*
X206410300Y-74513200D02*
X206922900Y-75025800D01*
X206410200Y-74513200D02*
X206410300Y-74513200D01*
X205122700Y-73225700D02*
X206410200Y-74513200D01*
X205122700Y-57445200D02*
X205122700Y-73225700D01*
X206822700Y-55745200D02*
X205122700Y-57445200D01*
X209419300Y-55745200D02*
X206822700Y-55745200D01*
X209929000Y-55235500D02*
X209419300Y-55745200D01*
X209929000Y-54580000D02*
X209929000Y-55235500D01*
X209567000Y-78850000D02*
X209116200Y-78850000D01*
X209116200Y-78850000D02*
X208665300Y-78850000D01*
X210203900Y-79937700D02*
X212335500Y-79937700D01*
X209116200Y-78850000D02*
X210203900Y-79937700D01*
D31*
%TO.N,DAT*%
X209929000Y-46960000D02*
X210124000Y-46960000D01*
X212099000Y-47190000D02*
X217874000Y-47190000D01*
X211604000Y-47685000D02*
X212099000Y-47190000D01*
X211004000Y-47685000D02*
X211604000Y-47685000D01*
X210279000Y-46960000D02*
X211004000Y-47685000D01*
X210124000Y-46960000D02*
X210279000Y-46960000D01*
D32*
X217874000Y-47190000D02*
X218104000Y-46960000D01*
D31*
%TO.N,LED*%
X209929000Y-44420000D02*
X210124000Y-44420000D01*
X212099000Y-44650000D02*
X217874000Y-44650000D01*
X211604000Y-45145000D02*
X212099000Y-44650000D01*
X211004000Y-45145000D02*
X211604000Y-45145000D01*
X210279000Y-44420000D02*
X211004000Y-45145000D01*
X210124000Y-44420000D02*
X210279000Y-44420000D01*
D32*
X217874000Y-44650000D02*
X218104000Y-44420000D01*
D31*
%TO.N,P10*%
X219479000Y-72360000D02*
X219284000Y-72360000D01*
X217299000Y-72140000D02*
X211524000Y-72140000D01*
X217804000Y-71635000D02*
X217299000Y-72140000D01*
X218404000Y-71635000D02*
X217804000Y-71635000D01*
X219129000Y-72360000D02*
X218404000Y-71635000D01*
X219284000Y-72360000D02*
X219129000Y-72360000D01*
D32*
X211524000Y-72140000D02*
X211304000Y-72360000D01*
D31*
%TO.N,P16*%
X219479000Y-69820000D02*
X219284000Y-69820000D01*
X217299000Y-69600000D02*
X211524000Y-69600000D01*
X217804000Y-69095000D02*
X217299000Y-69600000D01*
X218404000Y-69095000D02*
X217804000Y-69095000D01*
X219129000Y-69820000D02*
X218404000Y-69095000D01*
X219284000Y-69820000D02*
X219129000Y-69820000D01*
D32*
X211524000Y-69600000D02*
X211304000Y-69820000D01*
D31*
%TO.N,VCC*%
X219479000Y-52040000D02*
X219284000Y-52040000D01*
X217299000Y-51820000D02*
X211524000Y-51820000D01*
X217804000Y-51315000D02*
X217299000Y-51820000D01*
X218404000Y-51315000D02*
X217804000Y-51315000D01*
X219129000Y-52040000D02*
X218404000Y-51315000D01*
X219284000Y-52040000D02*
X219129000Y-52040000D01*
D32*
X211524000Y-51820000D02*
X211304000Y-52040000D01*
X204319300Y-76367000D02*
X205436600Y-77484300D01*
X204319300Y-53162700D02*
X204319300Y-76367000D01*
X206631800Y-50850200D02*
X204319300Y-53162700D01*
X207884300Y-50850200D02*
X206631800Y-50850200D01*
X207971200Y-50937100D02*
X207884300Y-50850200D01*
D31*
%TO.N,RST*%
X219479000Y-49500000D02*
X219284000Y-49500000D01*
X217299000Y-49280000D02*
X211524000Y-49280000D01*
X217804000Y-48775000D02*
X217299000Y-49280000D01*
X218404000Y-48775000D02*
X217804000Y-48775000D01*
X219129000Y-49500000D02*
X218404000Y-48775000D01*
X219284000Y-49500000D02*
X219129000Y-49500000D01*
D32*
X211524000Y-49280000D02*
X211304000Y-49500000D01*
X213580700Y-41637500D02*
X213155700Y-42062500D01*
X215827300Y-41637500D02*
X213580700Y-41637500D01*
X216252300Y-42062500D02*
X215827300Y-41637500D01*
X217329000Y-42062500D02*
X216252300Y-42062500D01*
X212617400Y-42062500D02*
X213155700Y-42062500D01*
X212617400Y-42062500D02*
X212079000Y-42062500D01*
X211002300Y-42062500D02*
X210776300Y-42288500D01*
X212079000Y-42062500D02*
X211002300Y-42062500D01*
D31*
%TO.N,GND*%
X209929000Y-52040000D02*
X210124000Y-52040000D01*
X209929000Y-49500000D02*
X210124000Y-49500000D01*
X219479000Y-46960000D02*
X219284000Y-46960000D01*
X217299000Y-46740000D02*
X211524000Y-46740000D01*
X217804000Y-46235000D02*
X217299000Y-46740000D01*
X218404000Y-46235000D02*
X217804000Y-46235000D01*
X219129000Y-46960000D02*
X218404000Y-46235000D01*
X219284000Y-46960000D02*
X219129000Y-46960000D01*
D32*
X211524000Y-46740000D02*
X211304000Y-46960000D01*
X217874000Y-49730000D02*
X218104000Y-49500000D01*
X217874000Y-52270000D02*
X218104000Y-52040000D01*
D31*
X210124000Y-52040000D02*
X210201500Y-52040000D01*
D32*
X210201500Y-50627500D02*
X210804000Y-50025000D01*
X210201500Y-52040000D02*
X210201500Y-50627500D01*
D31*
X210279000Y-49500000D02*
X210804000Y-50025000D01*
X210124000Y-49500000D02*
X210279000Y-49500000D01*
X212099000Y-49730000D02*
X217874000Y-49730000D01*
X211604000Y-50225000D02*
X212099000Y-49730000D01*
X211004000Y-50225000D02*
X211604000Y-50225000D01*
X210804000Y-50025000D02*
X211004000Y-50225000D01*
D32*
X213611300Y-40818100D02*
X213155700Y-40362500D01*
X215796700Y-40818100D02*
X213611300Y-40818100D01*
X216252300Y-40362500D02*
X215796700Y-40818100D01*
X217329000Y-40362500D02*
X216252300Y-40362500D01*
X212617400Y-40362500D02*
X213155700Y-40362500D01*
X212617400Y-40362500D02*
X212079000Y-40362500D01*
X211002300Y-40379100D02*
X210800000Y-40581400D01*
X211002300Y-40362500D02*
X211002300Y-40379100D01*
X212079000Y-40362500D02*
X211002300Y-40362500D01*
D31*
X210201500Y-52040000D02*
X210240300Y-52040000D01*
X212099000Y-52270000D02*
X217874000Y-52270000D01*
X211604000Y-52765000D02*
X212099000Y-52270000D01*
X211004000Y-52765000D02*
X211604000Y-52765000D01*
X210279000Y-52040000D02*
X211004000Y-52765000D01*
X210240300Y-52040000D02*
X210279000Y-52040000D01*
D32*
X214566000Y-85000000D02*
X215117700Y-85000000D01*
X215117700Y-83969000D02*
X215326400Y-83760300D01*
X215117700Y-85000000D02*
X215117700Y-83969000D01*
X206051100Y-74722100D02*
X206051100Y-81553100D01*
X204721000Y-73392000D02*
X206051100Y-74722100D01*
X204721000Y-55256700D02*
X204721000Y-73392000D01*
X206667700Y-53310000D02*
X204721000Y-55256700D01*
X209288600Y-53310000D02*
X206667700Y-53310000D01*
X210240300Y-52358300D02*
X209288600Y-53310000D01*
X210240300Y-52040000D02*
X210240300Y-52358300D01*
X217187000Y-78850000D02*
X216285300Y-78850000D01*
X216285300Y-78850000D02*
X216285300Y-79367700D01*
X216285300Y-79367700D02*
X216285300Y-81553100D01*
X216285300Y-79367700D02*
X216090200Y-79367700D01*
D31*
%TO.N,RAW*%
X219479000Y-44420000D02*
X219284000Y-44420000D01*
X217299000Y-44200000D02*
X211524000Y-44200000D01*
X217804000Y-43695000D02*
X217299000Y-44200000D01*
X218404000Y-43695000D02*
X217804000Y-43695000D01*
X219129000Y-44420000D02*
X218404000Y-43695000D01*
X219284000Y-44420000D02*
X219129000Y-44420000D01*
D32*
X211524000Y-44200000D02*
X211304000Y-44420000D01*
X220213300Y-83714100D02*
X219999200Y-83500000D01*
X220213300Y-85000000D02*
X220213300Y-83714100D01*
X220739200Y-85000000D02*
X220213300Y-85000000D01*
X220739200Y-85000000D02*
X221265000Y-85000000D01*
X219479000Y-45075500D02*
X219479000Y-44420000D01*
X219988700Y-45585200D02*
X219479000Y-45075500D01*
X222601400Y-45585200D02*
X219988700Y-45585200D01*
X224199300Y-47183100D02*
X222601400Y-45585200D01*
X224199300Y-76315300D02*
X224199300Y-47183100D01*
X223423300Y-77091300D02*
X224199300Y-76315300D01*
X223423300Y-81607100D02*
X223423300Y-77091300D01*
X224081400Y-82265200D02*
X223423300Y-81607100D01*
X224081400Y-83235300D02*
X224081400Y-82265200D01*
X222316700Y-85000000D02*
X224081400Y-83235300D01*
X221265000Y-85000000D02*
X222316700Y-85000000D01*
%TO.N,pinky_number_F*%
X119940600Y-49589400D02*
X119940600Y-44350000D01*
D31*
%TO.N,R4*%
X209929000Y-72360000D02*
X210124000Y-72360000D01*
D32*
X217874000Y-72590000D02*
X218104000Y-72360000D01*
X203170400Y-124691000D02*
X202215000Y-124139400D01*
X201956600Y-123881000D02*
X201956600Y-122604700D01*
X202215000Y-124139400D02*
X201956600Y-123881000D01*
X164450000Y-114587500D02*
X163548300Y-114587500D01*
X163548300Y-114587500D02*
X163327300Y-114587500D01*
X179950000Y-114738400D02*
X179950000Y-113635600D01*
X182739200Y-117527600D02*
X179950000Y-114738400D01*
X182739200Y-118307600D02*
X182739200Y-117527600D01*
X183804700Y-118593100D02*
X182739200Y-118307600D01*
X183804700Y-119809500D02*
X183804700Y-122472200D01*
X183547700Y-119552500D02*
X183804700Y-119809500D01*
X183547600Y-119552500D02*
X183547700Y-119552500D01*
X183804700Y-118593100D02*
X183547600Y-119552500D01*
X145450000Y-114587500D02*
X146351700Y-114587500D01*
X146351700Y-114587500D02*
X146567300Y-114371900D01*
X126450000Y-118087500D02*
X127567600Y-118087500D01*
D31*
X212099000Y-72590000D02*
X215917000Y-72590000D01*
X211604000Y-73085000D02*
X212099000Y-72590000D01*
X211004000Y-73085000D02*
X211604000Y-73085000D01*
X210279000Y-72360000D02*
X211004000Y-73085000D01*
X210124000Y-72360000D02*
X210279000Y-72360000D01*
X215917000Y-72590000D02*
X217874000Y-72590000D01*
D32*
X203170400Y-124691000D02*
X203667100Y-123830800D01*
X215917000Y-77235900D02*
X215917000Y-72590000D01*
X204640500Y-88512400D02*
X215917000Y-77235900D01*
X204640500Y-118989200D02*
X204640500Y-88512400D01*
X203667000Y-119962700D02*
X204640500Y-118989200D01*
X203667000Y-123830700D02*
X203667000Y-119962700D01*
X203667100Y-123830800D02*
X203667000Y-123830700D01*
D31*
%TO.N,R0*%
X209929000Y-62200000D02*
X210124000Y-62200000D01*
D32*
X217874000Y-62430000D02*
X218104000Y-62200000D01*
D31*
X212099000Y-62430000D02*
X217874000Y-62430000D01*
X211604000Y-62925000D02*
X212099000Y-62430000D01*
X211004000Y-62925000D02*
X211604000Y-62925000D01*
X210279000Y-62200000D02*
X211004000Y-62925000D01*
X210124000Y-62200000D02*
X210279000Y-62200000D01*
D32*
X187250000Y-45462500D02*
X188151700Y-45462500D01*
X188151700Y-45462500D02*
X188405400Y-45462500D01*
X149250000Y-41087500D02*
X148348300Y-41087500D01*
X148348300Y-41087500D02*
X148348300Y-42571800D01*
X128514800Y-45761900D02*
X128514800Y-47650000D01*
X130250000Y-44026700D02*
X128514800Y-45761900D01*
X130250000Y-43275000D02*
X130250000Y-44026700D01*
X110151900Y-47650000D02*
X110016600Y-47785300D01*
X111250000Y-47650000D02*
X110151900Y-47650000D01*
X92250000Y-47650000D02*
X93151700Y-47650000D01*
X167275600Y-43275000D02*
X167025600Y-43025000D01*
X168250000Y-43275000D02*
X167275600Y-43275000D01*
X93151700Y-47650000D02*
X93376500Y-47650000D01*
X190752100Y-47809200D02*
X190752100Y-60830000D01*
X188405400Y-45462500D02*
X190752100Y-47809200D01*
D31*
%TO.N,R1*%
X209929000Y-64740000D02*
X210124000Y-64740000D01*
X212099000Y-64970000D02*
X217874000Y-64970000D01*
X211604000Y-65465000D02*
X212099000Y-64970000D01*
X211004000Y-65465000D02*
X211604000Y-65465000D01*
X210279000Y-64740000D02*
X211004000Y-65465000D01*
X210124000Y-64740000D02*
X210279000Y-64740000D01*
D32*
X217874000Y-64970000D02*
X218104000Y-64740000D01*
X163880600Y-60775000D02*
X163597400Y-60491800D01*
X168250000Y-60775000D02*
X163880600Y-60775000D01*
X149028800Y-59560400D02*
X149028800Y-60807200D01*
X149250000Y-59339200D02*
X149028800Y-59560400D01*
X149250000Y-58587500D02*
X149250000Y-59339200D01*
X129176200Y-60775000D02*
X129144000Y-60807200D01*
X130250000Y-60775000D02*
X129176200Y-60775000D01*
X110266800Y-65150000D02*
X110093200Y-64976400D01*
X111250000Y-65150000D02*
X110266800Y-65150000D01*
X92250000Y-65150000D02*
X92250000Y-65901700D01*
X99448500Y-67048400D02*
X100806200Y-65690700D01*
X99448500Y-67948300D02*
X99448500Y-67048400D01*
X98445100Y-68951700D02*
X99448500Y-67948300D01*
X95300000Y-68951700D02*
X98445100Y-68951700D01*
X92250000Y-65901700D02*
X95300000Y-68951700D01*
X187250000Y-62962500D02*
X188151700Y-62962500D01*
X188151700Y-62962500D02*
X188353800Y-62962500D01*
X189501800Y-64110500D02*
X190087900Y-64110500D01*
X188353800Y-62962500D02*
X189501800Y-64110500D01*
D31*
%TO.N,R2*%
X209929000Y-67280000D02*
X210124000Y-67280000D01*
X212099000Y-67510000D02*
X217874000Y-67510000D01*
X211604000Y-68005000D02*
X212099000Y-67510000D01*
X211004000Y-68005000D02*
X211604000Y-68005000D01*
X210279000Y-67280000D02*
X211004000Y-68005000D01*
X210124000Y-67280000D02*
X210279000Y-67280000D01*
D32*
X217874000Y-67510000D02*
X218104000Y-67280000D01*
X187250000Y-80462500D02*
X188151700Y-80462500D01*
X188151700Y-80267500D02*
X185783300Y-77899100D01*
X188151700Y-80462500D02*
X188151700Y-80267500D01*
X111250000Y-82650000D02*
X110348300Y-82650000D01*
X110348300Y-82650000D02*
X110113900Y-82650000D01*
X149250000Y-76087500D02*
X148348300Y-76087500D01*
X148348300Y-76087500D02*
X148348300Y-78275000D01*
X131168000Y-79944700D02*
X131168000Y-82101500D01*
X130250000Y-79026700D02*
X131168000Y-79944700D01*
X130250000Y-78275000D02*
X130250000Y-79026700D01*
X92250000Y-82650000D02*
X92250000Y-86451700D01*
X168250000Y-78275000D02*
X168250000Y-76463300D01*
%TO.N,R3*%
X217874000Y-70050000D02*
X218104000Y-69820000D01*
D31*
X209929000Y-69820000D02*
X210124000Y-69820000D01*
D32*
X149250000Y-93587500D02*
X148348300Y-93587500D01*
X148348300Y-93587500D02*
X148348300Y-96150800D01*
X187250000Y-97962500D02*
X187250000Y-96371600D01*
X130250000Y-95775000D02*
X130250000Y-96526700D01*
X110180400Y-100150000D02*
X110071800Y-100258600D01*
X111250000Y-100150000D02*
X110180400Y-100150000D01*
X167259100Y-95864200D02*
X167128100Y-95864200D01*
X167348300Y-95775000D02*
X167259100Y-95864200D01*
X168250000Y-95775000D02*
X167348300Y-95775000D01*
D31*
X211004000Y-70545000D02*
X211004200Y-70545000D01*
X210279000Y-69820000D02*
X211004000Y-70545000D01*
X210124000Y-69820000D02*
X210279000Y-69820000D01*
X212099000Y-70050000D02*
X217874000Y-70050000D01*
X211604000Y-70545000D02*
X212099000Y-70050000D01*
X211004200Y-70545000D02*
X211604000Y-70545000D01*
D32*
X203224800Y-97001000D02*
X203224800Y-71090000D01*
X211004200Y-70545000D02*
X211004200Y-71090000D01*
X100160200Y-101349800D02*
X100905700Y-100604300D01*
X100160200Y-102192900D02*
X100160200Y-101349800D01*
X98401400Y-103951700D02*
X100160200Y-102192900D01*
X95300000Y-103951700D02*
X98401400Y-103951700D01*
X92250000Y-100901700D02*
X95300000Y-103951700D01*
X92250000Y-100150000D02*
X92250000Y-100901700D01*
X128514800Y-99182500D02*
X127096500Y-99182500D01*
X128514800Y-98261900D02*
X128514800Y-99182500D01*
X130250000Y-96526700D02*
X128514800Y-98261900D01*
X128514800Y-99182500D02*
X128514800Y-99589900D01*
%TO.N,big_outward_home_B*%
X206128800Y-126970600D02*
X207262200Y-128104000D01*
X206128800Y-123141500D02*
X206128800Y-126970600D01*
X205775700Y-122788400D02*
X206128800Y-123141500D01*
X205775700Y-122384900D02*
X205775700Y-122788400D01*
X205775800Y-122384800D02*
X205775700Y-122384900D01*
X204820400Y-121833200D02*
X205775800Y-122384800D01*
X206467000Y-129481200D02*
X207262200Y-128104000D01*
%TO.N,extra_outward_home_B*%
X188640300Y-120830600D02*
X188640400Y-120830600D01*
X188228800Y-120419100D02*
X188640300Y-120830600D01*
X188228800Y-118975400D02*
X188228800Y-120419100D01*
X185724400Y-116471000D02*
X188228800Y-118975400D01*
X185724400Y-115691000D02*
X185724400Y-116471000D01*
X184658900Y-115405500D02*
X185724400Y-115691000D01*
X188228800Y-122366700D02*
X188640400Y-120830600D01*
%TO.N,outward_home_B*%
X168623300Y-116212500D02*
X168623300Y-117087500D01*
X164450000Y-112039200D02*
X168623300Y-116212500D01*
X164450000Y-111287500D02*
X164450000Y-112039200D01*
X169700000Y-117087500D02*
X168623300Y-117087500D01*
%TO.N,mid_home_B*%
X149623300Y-116212500D02*
X149623300Y-117087500D01*
X145450000Y-112039200D02*
X149623300Y-116212500D01*
X145450000Y-111287500D02*
X145450000Y-112039200D01*
X150700000Y-117087500D02*
X149623300Y-117087500D01*
%TO.N,inward_home_B*%
X130623300Y-119712500D02*
X130623300Y-120587500D01*
X126450000Y-115539200D02*
X130623300Y-119712500D01*
X126450000Y-114787500D02*
X126450000Y-115539200D01*
X131700000Y-120587500D02*
X130623300Y-120587500D01*
%TO.N,inner_number_B*%
X191423300Y-47087500D02*
X191423300Y-47962500D01*
X187250000Y-42914200D02*
X191423300Y-47087500D01*
X187250000Y-42162500D02*
X187250000Y-42914200D01*
X192500000Y-47962500D02*
X191423300Y-47962500D01*
%TO.N,inner_top_B*%
X191423300Y-64587500D02*
X191423300Y-65462500D01*
X187250000Y-60414200D02*
X191423300Y-64587500D01*
X187250000Y-59662500D02*
X187250000Y-60414200D01*
X192500000Y-65462500D02*
X191423300Y-65462500D01*
%TO.N,inner_home_B*%
X191423300Y-82087500D02*
X191423300Y-82962500D01*
X187250000Y-77914200D02*
X191423300Y-82087500D01*
X187250000Y-77162500D02*
X187250000Y-77914200D01*
X192500000Y-82962500D02*
X191423300Y-82962500D01*
%TO.N,inner_bottom_B*%
X191423300Y-99587500D02*
X191423300Y-100462500D01*
X187250000Y-95414200D02*
X191423300Y-99587500D01*
X187250000Y-94662500D02*
X187250000Y-95414200D01*
X192500000Y-100462500D02*
X191423300Y-100462500D01*
D31*
%TO.N,C5*%
X219479000Y-67280000D02*
X219284000Y-67280000D01*
X217299000Y-67060000D02*
X211524000Y-67060000D01*
X217804000Y-66555000D02*
X217299000Y-67060000D01*
X218404000Y-66555000D02*
X217804000Y-66555000D01*
X219129000Y-67280000D02*
X218404000Y-66555000D01*
X219284000Y-67280000D02*
X219129000Y-67280000D01*
D32*
X211524000Y-67060000D02*
X211304000Y-67280000D01*
X211990400Y-132735300D02*
X212031700Y-132694000D01*
X211990400Y-132951300D02*
X211990400Y-132735300D01*
X197500000Y-47962500D02*
X196423300Y-47962500D01*
X197500000Y-65462500D02*
X197500000Y-66764200D01*
X197060200Y-81660800D02*
X196837600Y-81438200D01*
X197500000Y-81660800D02*
X197060200Y-81660800D01*
X196423300Y-99650900D02*
X196423300Y-100462500D01*
X196212200Y-99439800D02*
X196423300Y-99650900D01*
X210797200Y-131981200D02*
X212031700Y-132694000D01*
X196423300Y-48722500D02*
X196423300Y-47962500D01*
X196222100Y-48923700D02*
X196423300Y-48722500D01*
X197500000Y-50201600D02*
X197500000Y-65462500D01*
X196222100Y-48923700D02*
X197500000Y-50201600D01*
X197232900Y-66764200D02*
X197026200Y-66970900D01*
X197500000Y-66764200D02*
X197232900Y-66764200D01*
X196837600Y-67159500D02*
X196837600Y-81438200D01*
X197026200Y-66970900D02*
X196837600Y-67159500D01*
X197500000Y-82962500D02*
X197500000Y-82311600D01*
X197500000Y-82311600D02*
X197500000Y-81660800D01*
X196212200Y-83599400D02*
X196212200Y-99439800D01*
X197500000Y-82311600D02*
X196212200Y-83599400D01*
X197500000Y-100462500D02*
X196961700Y-100462500D01*
X196961700Y-100462500D02*
X196423300Y-100462500D01*
X206159500Y-131268400D02*
X209562500Y-131268400D01*
X196961700Y-122070600D02*
X206159500Y-131268400D01*
X196961700Y-100462500D02*
X196961700Y-122070600D01*
X210797200Y-131981200D02*
X209562500Y-131268400D01*
%TO.N,index_number_B*%
X172423300Y-44900000D02*
X172423300Y-45775000D01*
X168250000Y-40726700D02*
X172423300Y-44900000D01*
X168250000Y-39975000D02*
X168250000Y-40726700D01*
X173500000Y-45775000D02*
X172423300Y-45775000D01*
%TO.N,index_top_B*%
X172423300Y-62400000D02*
X172423300Y-63275000D01*
X168250000Y-58226700D02*
X172423300Y-62400000D01*
X168250000Y-57475000D02*
X168250000Y-58226700D01*
X173500000Y-63275000D02*
X172423300Y-63275000D01*
%TO.N,index_home_B*%
X169753400Y-75726700D02*
X173500000Y-79473300D01*
X168250000Y-75726700D02*
X169753400Y-75726700D01*
X168250000Y-74975000D02*
X168250000Y-75726700D01*
X173500000Y-80775000D02*
X173500000Y-79473300D01*
%TO.N,index_bottom_B*%
X172423300Y-97400000D02*
X172423300Y-98275000D01*
X168250000Y-93226700D02*
X172423300Y-97400000D01*
X168250000Y-92475000D02*
X168250000Y-93226700D01*
X173500000Y-98275000D02*
X172423300Y-98275000D01*
D31*
%TO.N,C4*%
X219479000Y-64740000D02*
X219284000Y-64740000D01*
X217299000Y-64520000D02*
X211524000Y-64520000D01*
X217804000Y-64015000D02*
X217299000Y-64520000D01*
X218404000Y-64015000D02*
X217804000Y-64015000D01*
X219129000Y-64740000D02*
X218404000Y-64015000D01*
X219284000Y-64740000D02*
X219129000Y-64740000D01*
D32*
X211524000Y-64520000D02*
X211304000Y-64740000D01*
X193058400Y-123660800D02*
X193470000Y-122124700D01*
X193932400Y-122179100D02*
X194087000Y-122179100D01*
X193878000Y-122124700D02*
X193932400Y-122179100D01*
X193470000Y-122124700D02*
X193878000Y-122124700D01*
X178500000Y-45775000D02*
X179140100Y-45775000D01*
X179140100Y-45775000D02*
X179780100Y-45775000D01*
X179140100Y-45775000D02*
X179140100Y-63275000D01*
X179140100Y-63275000D02*
X179780100Y-63275000D01*
X178500000Y-63275000D02*
X178820100Y-63275000D01*
X178820100Y-63275000D02*
X179140100Y-63275000D01*
X178820100Y-80775000D02*
X179780100Y-80775000D01*
X178500000Y-80775000D02*
X178660100Y-80775000D01*
X178660100Y-80775000D02*
X178820100Y-80775000D01*
X178660100Y-80775000D02*
X178660100Y-98275000D01*
X178500000Y-98275000D02*
X178660100Y-98275000D01*
X178660100Y-98275000D02*
X179780100Y-98275000D01*
X193469900Y-122124700D02*
X193470000Y-122124700D01*
X193058400Y-121713200D02*
X193469900Y-122124700D01*
X193058400Y-115855600D02*
X193058400Y-121713200D01*
X184883400Y-107680600D02*
X193058400Y-115855600D01*
X184883400Y-101682700D02*
X184883400Y-107680600D01*
X181475700Y-98275000D02*
X184883400Y-101682700D01*
X179780100Y-98275000D02*
X181475700Y-98275000D01*
X178820100Y-63275000D02*
X178820100Y-70134200D01*
X178820100Y-70134200D02*
X178820100Y-80775000D01*
%TO.N,middle_number_B*%
X153423300Y-42712500D02*
X153423300Y-43587500D01*
X149250000Y-38539200D02*
X153423300Y-42712500D01*
X149250000Y-37787500D02*
X149250000Y-38539200D01*
X154500000Y-43587500D02*
X153423300Y-43587500D01*
%TO.N,middle_top_B*%
X153423300Y-60212500D02*
X153423300Y-61087500D01*
X149250000Y-56039200D02*
X153423300Y-60212500D01*
X149250000Y-55287500D02*
X149250000Y-56039200D01*
X154500000Y-61087500D02*
X153423300Y-61087500D01*
%TO.N,middle_home_B*%
X153423300Y-77712500D02*
X153423300Y-78587500D01*
X149250000Y-73539200D02*
X153423300Y-77712500D01*
X149250000Y-72787500D02*
X149250000Y-73539200D01*
X154500000Y-78587500D02*
X153423300Y-78587500D01*
%TO.N,middle_bottom_B*%
X153423300Y-95212500D02*
X153423300Y-96087500D01*
X149250000Y-91039200D02*
X153423300Y-95212500D01*
X149250000Y-90287500D02*
X149250000Y-91039200D01*
X154500000Y-96087500D02*
X153423300Y-96087500D01*
D31*
%TO.N,C3*%
X219479000Y-62200000D02*
X219284000Y-62200000D01*
X217299000Y-61980000D02*
X211524000Y-61980000D01*
X217804000Y-61475000D02*
X217299000Y-61980000D01*
X218404000Y-61475000D02*
X217804000Y-61475000D01*
X219129000Y-62200000D02*
X218404000Y-61475000D01*
X219284000Y-62200000D02*
X219129000Y-62200000D01*
D32*
X211524000Y-61980000D02*
X211304000Y-62200000D01*
X175776700Y-117087500D02*
X175998200Y-117087500D01*
X160576700Y-43166900D02*
X160576700Y-43587500D01*
X160779000Y-42964600D02*
X160576700Y-43166900D01*
X160576700Y-60915100D02*
X160576700Y-61087500D01*
X160780300Y-60711500D02*
X160576700Y-60915100D01*
X160576700Y-78555300D02*
X160576700Y-78587500D01*
X160779300Y-78352700D02*
X160576700Y-78555300D01*
X159500000Y-96087500D02*
X160576700Y-96087500D01*
X160576700Y-96087500D02*
X160787000Y-96087500D01*
X174700000Y-117087500D02*
X175238400Y-117087500D01*
X175238400Y-117087500D02*
X175776700Y-117087500D01*
X159500000Y-43587500D02*
X160038400Y-43587500D01*
X160038400Y-43587500D02*
X160576700Y-43587500D01*
X160038400Y-43587500D02*
X160038400Y-61087500D01*
X160038400Y-61087500D02*
X160576700Y-61087500D01*
X159500000Y-61087500D02*
X159769200Y-61087500D01*
X159769200Y-61087500D02*
X160038400Y-61087500D01*
X159500000Y-78587500D02*
X159769200Y-78587500D01*
X159769200Y-78587500D02*
X160576700Y-78587500D01*
X162436600Y-96087500D02*
X160787000Y-96087500D01*
X164829800Y-98480700D02*
X162436600Y-96087500D01*
X164829800Y-103617300D02*
X164829800Y-98480700D01*
X175238400Y-114025900D02*
X164829800Y-103617300D01*
X175238400Y-117087500D02*
X175238400Y-114025900D01*
X160779300Y-96079800D02*
X160787000Y-96087500D01*
X160779300Y-78352700D02*
X160779300Y-96079800D01*
X159769200Y-61087500D02*
X159769200Y-78587500D01*
X206742800Y-73709800D02*
X209075300Y-73709800D01*
X205926100Y-72893100D02*
X206742800Y-73709800D01*
X205926100Y-61612400D02*
X205926100Y-72893100D01*
X206523200Y-61015300D02*
X205926100Y-61612400D01*
X210378600Y-61015300D02*
X206523200Y-61015300D01*
X211304000Y-61940700D02*
X210378600Y-61015300D01*
X211304000Y-62200000D02*
X211304000Y-61940700D01*
%TO.N,ring_number_B*%
X134423300Y-44900000D02*
X134423300Y-45775000D01*
X130250000Y-40726700D02*
X134423300Y-44900000D01*
X130250000Y-39975000D02*
X130250000Y-40726700D01*
X135500000Y-45775000D02*
X134423300Y-45775000D01*
%TO.N,ring_top_B*%
X134423300Y-62400000D02*
X134423300Y-63275000D01*
X130250000Y-58226700D02*
X134423300Y-62400000D01*
X130250000Y-57475000D02*
X130250000Y-58226700D01*
X135500000Y-63275000D02*
X134423300Y-63275000D01*
%TO.N,ring_home_B*%
X134423300Y-79900000D02*
X134423300Y-80775000D01*
X130250000Y-75726700D02*
X134423300Y-79900000D01*
X130250000Y-74975000D02*
X130250000Y-75726700D01*
X135500000Y-80775000D02*
X134423300Y-80775000D01*
%TO.N,ring_bottom_B*%
X134423300Y-97400000D02*
X134423300Y-98275000D01*
X130250000Y-93226700D02*
X134423300Y-97400000D01*
X130250000Y-92475000D02*
X130250000Y-93226700D01*
X135500000Y-98275000D02*
X134423300Y-98275000D01*
D31*
%TO.N,C2*%
X219479000Y-59660000D02*
X219284000Y-59660000D01*
X217299000Y-59440000D02*
X211524000Y-59440000D01*
X217804000Y-58935000D02*
X217299000Y-59440000D01*
X218404000Y-58935000D02*
X217804000Y-58935000D01*
X219129000Y-59660000D02*
X218404000Y-58935000D01*
X219284000Y-59660000D02*
X219129000Y-59660000D01*
D32*
X211524000Y-59440000D02*
X211304000Y-59660000D01*
X155700000Y-117087500D02*
X154623300Y-117087500D01*
X140500000Y-45775000D02*
X139423300Y-45775000D01*
X140500000Y-80775000D02*
X139423300Y-80775000D01*
X139423300Y-98736900D02*
X139423300Y-98275000D01*
X139208500Y-98951700D02*
X139423300Y-98736900D01*
X140500000Y-98275000D02*
X139423300Y-98275000D01*
X154623300Y-117087500D02*
X154422800Y-117087500D01*
X140500000Y-104516300D02*
X140500000Y-98275000D01*
X153071200Y-117087500D02*
X140500000Y-104516300D01*
X154422800Y-117087500D02*
X153071200Y-117087500D01*
X139216800Y-45981500D02*
X139216800Y-45988700D01*
X139423300Y-45775000D02*
X139216800Y-45981500D01*
X139216800Y-45988700D02*
X139216800Y-63275000D01*
X140500000Y-63275000D02*
X139216800Y-63275000D01*
X140500000Y-63275000D02*
X140500000Y-80775000D01*
X139423300Y-81104600D02*
X139423300Y-80775000D01*
X139217300Y-81310600D02*
X139423300Y-81104600D01*
X139423300Y-81516600D02*
X139423300Y-98275000D01*
X139217300Y-81310600D02*
X139423300Y-81516600D01*
%TO.N,pinky_number_B*%
X115423300Y-49275000D02*
X115423300Y-50150000D01*
X111250000Y-45101700D02*
X115423300Y-49275000D01*
X111250000Y-44350000D02*
X111250000Y-45101700D01*
X116500000Y-50150000D02*
X115423300Y-50150000D01*
%TO.N,pinky_top_B*%
X115423300Y-66775000D02*
X115423300Y-67650000D01*
X111250000Y-62601700D02*
X115423300Y-66775000D01*
X111250000Y-61850000D02*
X111250000Y-62601700D01*
X116500000Y-67650000D02*
X115423300Y-67650000D01*
%TO.N,pinky_home_B*%
X115423300Y-84275000D02*
X115423300Y-85150000D01*
X111250000Y-80101700D02*
X115423300Y-84275000D01*
X111250000Y-79350000D02*
X111250000Y-80101700D01*
X116500000Y-85150000D02*
X115423300Y-85150000D01*
%TO.N,pinky_bottom_B*%
X115423300Y-101775000D02*
X115423300Y-102650000D01*
X111250000Y-97601700D02*
X115423300Y-101775000D01*
X111250000Y-96850000D02*
X111250000Y-97601700D01*
X116500000Y-102650000D02*
X115423300Y-102650000D01*
D31*
%TO.N,C1*%
X219479000Y-57120000D02*
X219284000Y-57120000D01*
X217299000Y-56900000D02*
X211524000Y-56900000D01*
X217804000Y-56395000D02*
X217299000Y-56900000D01*
X218404000Y-56395000D02*
X217804000Y-56395000D01*
X219129000Y-57120000D02*
X218404000Y-56395000D01*
X219284000Y-57120000D02*
X219129000Y-57120000D01*
D32*
X211524000Y-56900000D02*
X211304000Y-57120000D01*
X137776700Y-120294700D02*
X137776700Y-120587500D01*
X137990200Y-120081200D02*
X137776700Y-120294700D01*
X122576700Y-66939000D02*
X122576700Y-67650000D01*
X122781100Y-66734600D02*
X122576700Y-66939000D01*
X122576700Y-84723800D02*
X122576700Y-85150000D01*
X122783700Y-84516800D02*
X122576700Y-84723800D01*
X122576700Y-102507300D02*
X122576700Y-102650000D01*
X122785000Y-102299000D02*
X122576700Y-102507300D01*
X121500000Y-102650000D02*
X122576700Y-102650000D01*
X136700000Y-120587500D02*
X137238400Y-120587500D01*
X137238400Y-120587500D02*
X137776700Y-120587500D01*
X121500000Y-48620300D02*
X121500000Y-50150000D01*
X121500000Y-50150000D02*
X121500000Y-67650000D01*
X121500000Y-67650000D02*
X122038400Y-67650000D01*
X122038400Y-67650000D02*
X122576700Y-67650000D01*
X122783700Y-68395300D02*
X122783700Y-84516800D01*
X122038400Y-67650000D02*
X122783700Y-68395300D01*
X121500000Y-85150000D02*
X122038400Y-85150000D01*
X122038400Y-85150000D02*
X122576700Y-85150000D01*
X124149400Y-102299000D02*
X122785000Y-102299000D01*
X137238400Y-115388000D02*
X124149400Y-102299000D01*
X137238400Y-120587500D02*
X137238400Y-115388000D01*
X122785000Y-85896600D02*
X122785000Y-102299000D01*
X122038400Y-85150000D02*
X122785000Y-85896600D01*
%TO.N,outer_number_B*%
X96423300Y-49275000D02*
X96423300Y-50150000D01*
X92250000Y-45101700D02*
X96423300Y-49275000D01*
X92250000Y-44350000D02*
X92250000Y-45101700D01*
X97500000Y-50150000D02*
X96423300Y-50150000D01*
%TO.N,outer_top_B*%
X96423300Y-66775000D02*
X96423300Y-67650000D01*
X92250000Y-62601700D02*
X96423300Y-66775000D01*
X92250000Y-61850000D02*
X92250000Y-62601700D01*
X97500000Y-67650000D02*
X96423300Y-67650000D01*
%TO.N,outer_home_B*%
X96423300Y-84275000D02*
X96423300Y-85150000D01*
X92250000Y-80101700D02*
X96423300Y-84275000D01*
X92250000Y-79350000D02*
X92250000Y-80101700D01*
X97500000Y-85150000D02*
X96423300Y-85150000D01*
%TO.N,outer_bottom_B*%
X92250000Y-96850000D02*
X92250000Y-97601700D01*
X97500000Y-102650000D02*
X96589600Y-102650000D01*
X92250000Y-98310400D02*
X92250000Y-97601700D01*
X96589600Y-102650000D02*
X92250000Y-98310400D01*
D31*
%TO.N,C0*%
X219479000Y-54580000D02*
X219284000Y-54580000D01*
X217299000Y-54360000D02*
X211524000Y-54360000D01*
X217804000Y-53855000D02*
X217299000Y-54360000D01*
X218404000Y-53855000D02*
X217804000Y-53855000D01*
X219129000Y-54580000D02*
X218404000Y-53855000D01*
X219284000Y-54580000D02*
X219129000Y-54580000D01*
D32*
X211524000Y-54360000D02*
X211304000Y-54580000D01*
X101423300Y-67100100D02*
X101423300Y-67650000D01*
X101208300Y-66885100D02*
X101423300Y-67100100D01*
X102500000Y-102650000D02*
X101423300Y-102650000D01*
X101423300Y-102612900D02*
X101218600Y-102408200D01*
X101423300Y-102650000D02*
X101423300Y-102612900D01*
X102500000Y-50150000D02*
X102500000Y-48644500D01*
X101423300Y-66670100D02*
X101208300Y-66885100D01*
X101423300Y-50150000D02*
X101423300Y-66670100D01*
X102500000Y-50150000D02*
X101423300Y-50150000D01*
X102500000Y-67650000D02*
X101961700Y-67650000D01*
X101961700Y-67650000D02*
X101423300Y-67650000D01*
X102500000Y-85150000D02*
X101961700Y-85150000D01*
X101961700Y-85150000D02*
X101423300Y-85150000D01*
X101196800Y-68414900D02*
X101196800Y-84633200D01*
X101961700Y-67650000D02*
X101196800Y-68414900D01*
X101423300Y-84859700D02*
X101423300Y-85150000D01*
X101196800Y-84633200D02*
X101423300Y-84859700D01*
X101961700Y-100399200D02*
X101961700Y-85150000D01*
X101218600Y-101142300D02*
X101961700Y-100399200D01*
X101218600Y-102408200D02*
X101218600Y-101142300D01*
%TD*%
M02*
