%TF.GenerationSoftware,KiCad,Pcbnew,8.0.7*%
%TF.CreationDate,2025-02-11T23:53:50-03:00*%
%TF.ProjectId,souffle_wireless,736f7566-666c-4655-9f77-6972656c6573,0.1*%
%TF.SameCoordinates,Original*%
%TF.FileFunction,Soldermask,Top*%
%TF.FilePolarity,Negative*%
%FSLAX46Y46*%
G04 Gerber Fmt 4.6, Leading zero omitted, Abs format (unit mm)*
G04 Created by KiCad (PCBNEW 8.0.7) date 2025-02-11 23:53:50*
%MOMM*%
%LPD*%
G01*
G04 APERTURE LIST*
G04 Aperture macros list*
%AMRoundRect*
0 Rectangle with rounded corners*
0 $1 Rounding radius*
0 $2 $3 $4 $5 $6 $7 $8 $9 X,Y pos of 4 corners*
0 Add a 4 corners polygon primitive as box body*
4,1,4,$2,$3,$4,$5,$6,$7,$8,$9,$2,$3,0*
0 Add four circle primitives for the rounded corners*
1,1,$1+$1,$2,$3*
1,1,$1+$1,$4,$5*
1,1,$1+$1,$6,$7*
1,1,$1+$1,$8,$9*
0 Add four rect primitives between the rounded corners*
20,1,$1+$1,$2,$3,$4,$5,0*
20,1,$1+$1,$4,$5,$6,$7,0*
20,1,$1+$1,$6,$7,$8,$9,0*
20,1,$1+$1,$8,$9,$2,$3,0*%
%AMFreePoly0*
4,1,14,0.035355,0.435355,0.635355,-0.164645,0.650000,-0.200000,0.650000,-0.400000,0.635355,-0.435355,0.600000,-0.450000,-0.600000,-0.450000,-0.635355,-0.435355,-0.650000,-0.400000,-0.650000,-0.200000,-0.635355,-0.164645,-0.035355,0.435355,0.000000,0.450000,0.035355,0.435355,0.035355,0.435355,$1*%
%AMFreePoly1*
4,1,16,0.635355,0.285355,0.650000,0.250000,0.650000,-1.000000,0.635355,-1.035355,0.600000,-1.050000,0.564645,-1.035355,0.000000,-0.470710,-0.564645,-1.035355,-0.600000,-1.050000,-0.635355,-1.035355,-0.650000,-1.000000,-0.650000,0.250000,-0.635355,0.285355,-0.600000,0.300000,0.600000,0.300000,0.635355,0.285355,0.635355,0.285355,$1*%
G04 Aperture macros list end*
%ADD10C,4.400000*%
%ADD11RoundRect,0.050000X-0.775000X-1.000000X0.775000X-1.000000X0.775000X1.000000X-0.775000X1.000000X0*%
%ADD12RoundRect,0.050000X-1.000000X-1.000000X1.000000X-1.000000X1.000000X1.000000X-1.000000X1.000000X0*%
%ADD13RoundRect,0.050000X-1.007412X-0.765341X0.489773X-1.166511X1.007412X0.765341X-0.489773X1.166511X0*%
%ADD14RoundRect,0.050000X-1.224745X-0.707107X0.707107X-1.224745X1.224745X0.707107X-0.707107X1.224745X0*%
%ADD15RoundRect,0.050000X-1.171170X-0.478525X0.171170X-1.253525X1.171170X0.478525X-0.171170X1.253525X0*%
%ADD16RoundRect,0.050000X-1.366025X-0.366025X0.366025X-1.366025X1.366025X0.366025X-0.366025X1.366025X0*%
%ADD17RoundRect,0.050000X0.600000X-0.450000X0.600000X0.450000X-0.600000X0.450000X-0.600000X-0.450000X0*%
%ADD18RoundRect,0.050000X0.463087X-0.589958X0.696024X0.279375X-0.463087X0.589958X-0.696024X-0.279375X0*%
%ADD19RoundRect,0.050000X0.294615X-0.689711X0.744615X0.089711X-0.294615X0.689711X-0.744615X-0.089711X0*%
%ADD20C,1.800000*%
%ADD21C,0.900000*%
%ADD22RoundRect,0.050000X-0.300000X-0.600000X0.300000X-0.600000X0.300000X0.600000X-0.300000X0.600000X0*%
%ADD23RoundRect,0.050000X0.600000X-0.300000X0.600000X0.300000X-0.600000X0.300000X-0.600000X-0.300000X0*%
%ADD24O,1.800000X1.800000*%
%ADD25RoundRect,0.050000X0.400000X-0.500000X0.400000X0.500000X-0.400000X0.500000X-0.400000X-0.500000X0*%
%ADD26RoundRect,0.050000X0.750000X-0.350000X0.750000X0.350000X-0.750000X0.350000X-0.750000X-0.350000X0*%
%ADD27C,1.000000*%
%ADD28C,0.850000*%
%ADD29RoundRect,0.050000X0.775000X0.500000X-0.775000X0.500000X-0.775000X-0.500000X0.775000X-0.500000X0*%
%ADD30O,1.850000X1.300000*%
%ADD31FreePoly0,270.000000*%
%ADD32FreePoly1,270.000000*%
G04 APERTURE END LIST*
D10*
%TO.C,MH1*%
X109500000Y-56250000D03*
%TD*%
%TO.C,MH2*%
X109500000Y-91250000D03*
%TD*%
%TO.C,MH3*%
X185068000Y-51823500D03*
%TD*%
%TO.C,MH4*%
X185068000Y-86823500D03*
%TD*%
%TO.C,MH5*%
X120357000Y-111365000D03*
%TD*%
D11*
%TO.C,S30*%
X97500000Y-102650000D03*
X102500000Y-102650000D03*
D12*
X93650000Y-94000000D03*
X93650000Y-106000000D03*
X106350000Y-94000000D03*
X106350000Y-106000000D03*
%TD*%
D11*
%TO.C,S31*%
X97500000Y-85150000D03*
X102500000Y-85150000D03*
D12*
X93650000Y-76500000D03*
X93650000Y-88500000D03*
X106350000Y-76500000D03*
X106350000Y-88500000D03*
%TD*%
D11*
%TO.C,S32*%
X97500000Y-67650000D03*
X102500000Y-67650000D03*
D12*
X93650000Y-59000000D03*
X93650000Y-71000000D03*
X106350000Y-59000000D03*
X106350000Y-71000000D03*
%TD*%
D11*
%TO.C,S33*%
X97500000Y-50150000D03*
X102500000Y-50150000D03*
D12*
X93650000Y-41500000D03*
X93650000Y-53500000D03*
X106350000Y-41500000D03*
X106350000Y-53500000D03*
%TD*%
D11*
%TO.C,S34*%
X116500000Y-102650000D03*
X121500000Y-102650000D03*
D12*
X112650000Y-94000000D03*
X112650000Y-106000000D03*
X125350000Y-94000000D03*
X125350000Y-106000000D03*
%TD*%
D11*
%TO.C,S35*%
X116500000Y-85150000D03*
X121500000Y-85150000D03*
D12*
X112650000Y-76500000D03*
X112650000Y-88500000D03*
X125350000Y-76500000D03*
X125350000Y-88500000D03*
%TD*%
D11*
%TO.C,S36*%
X116500000Y-67650000D03*
X121500000Y-67650000D03*
D12*
X112650000Y-59000000D03*
X112650000Y-71000000D03*
X125350000Y-59000000D03*
X125350000Y-71000000D03*
%TD*%
D11*
%TO.C,S37*%
X116500000Y-50150000D03*
X121500000Y-50150000D03*
D12*
X112650000Y-41500000D03*
X112650000Y-53500000D03*
X125350000Y-41500000D03*
X125350000Y-53500000D03*
%TD*%
D11*
%TO.C,S38*%
X135500000Y-98275000D03*
X140500000Y-98275000D03*
D12*
X131650000Y-89625000D03*
X131650000Y-101625000D03*
X144350000Y-89625000D03*
X144350000Y-101625000D03*
%TD*%
D11*
%TO.C,S39*%
X135500000Y-80775000D03*
X140500000Y-80775000D03*
D12*
X131650000Y-72125000D03*
X131650000Y-84125000D03*
X144350000Y-72125000D03*
X144350000Y-84125000D03*
%TD*%
D11*
%TO.C,S40*%
X135500000Y-63275000D03*
X140500000Y-63275000D03*
D12*
X131650000Y-54625000D03*
X131650000Y-66625000D03*
X144350000Y-54625000D03*
X144350000Y-66625000D03*
%TD*%
D11*
%TO.C,S41*%
X135500000Y-45775000D03*
X140500000Y-45775000D03*
D12*
X131650000Y-37125000D03*
X131650000Y-49125000D03*
X144350000Y-37125000D03*
X144350000Y-49125000D03*
%TD*%
D11*
%TO.C,S42*%
X154500000Y-96087500D03*
X159500000Y-96087500D03*
D12*
X150650000Y-87437500D03*
X150650000Y-99437500D03*
X163350000Y-87437500D03*
X163350000Y-99437500D03*
%TD*%
D11*
%TO.C,S43*%
X154500000Y-78587500D03*
X159500000Y-78587500D03*
D12*
X150650000Y-69937500D03*
X150650000Y-81937500D03*
X163350000Y-69937500D03*
X163350000Y-81937500D03*
%TD*%
D11*
%TO.C,S44*%
X154500000Y-61087500D03*
X159500000Y-61087500D03*
D12*
X150650000Y-52437500D03*
X150650000Y-64437500D03*
X163350000Y-52437500D03*
X163350000Y-64437500D03*
%TD*%
D11*
%TO.C,S45*%
X154500000Y-43587500D03*
X159500000Y-43587500D03*
D12*
X150650000Y-34937500D03*
X150650000Y-46937500D03*
X163350000Y-34937500D03*
X163350000Y-46937500D03*
%TD*%
D11*
%TO.C,S46*%
X173500000Y-98275000D03*
X178500000Y-98275000D03*
D12*
X169650000Y-89625000D03*
X169650000Y-101625000D03*
X182350000Y-89625000D03*
X182350000Y-101625000D03*
%TD*%
D11*
%TO.C,S47*%
X173500000Y-80775000D03*
X178500000Y-80775000D03*
D12*
X169650000Y-72125000D03*
X169650000Y-84125000D03*
X182350000Y-72125000D03*
X182350000Y-84125000D03*
%TD*%
D11*
%TO.C,S48*%
X173500000Y-63275000D03*
X178500000Y-63275000D03*
D12*
X169650000Y-54625000D03*
X169650000Y-66625000D03*
X182350000Y-54625000D03*
X182350000Y-66625000D03*
%TD*%
D11*
%TO.C,S49*%
X173500000Y-45775000D03*
X178500000Y-45775000D03*
D12*
X169650000Y-37125000D03*
X169650000Y-49125000D03*
X182350000Y-37125000D03*
X182350000Y-49125000D03*
%TD*%
D11*
%TO.C,S50*%
X192500000Y-100462500D03*
X197500000Y-100462500D03*
D12*
X188650000Y-91812500D03*
X188650000Y-103812500D03*
X201350000Y-91812500D03*
X201350000Y-103812500D03*
%TD*%
D11*
%TO.C,S51*%
X192500000Y-82962500D03*
X197500000Y-82962500D03*
D12*
X188650000Y-74312500D03*
X188650000Y-86312500D03*
X201350000Y-74312500D03*
X201350000Y-86312500D03*
%TD*%
D11*
%TO.C,S52*%
X192500000Y-65462500D03*
X197500000Y-65462500D03*
D12*
X188650000Y-56812500D03*
X188650000Y-68812500D03*
X201350000Y-56812500D03*
X201350000Y-68812500D03*
%TD*%
D11*
%TO.C,S53*%
X192500000Y-47962500D03*
X197500000Y-47962500D03*
D12*
X188650000Y-39312500D03*
X188650000Y-51312500D03*
X201350000Y-39312500D03*
X201350000Y-51312500D03*
%TD*%
D11*
%TO.C,S54*%
X131700000Y-120587500D03*
X136700000Y-120587500D03*
D12*
X127850000Y-111937500D03*
X127850000Y-123937500D03*
X140550000Y-111937500D03*
X140550000Y-123937500D03*
%TD*%
D11*
%TO.C,S55*%
X150700000Y-117087500D03*
X155700000Y-117087500D03*
D12*
X146850000Y-108437500D03*
X146850000Y-120437500D03*
X159550000Y-108437500D03*
X159550000Y-120437500D03*
%TD*%
D11*
%TO.C,S56*%
X169700000Y-117087500D03*
X174700000Y-117087500D03*
D12*
X165850000Y-108437500D03*
X165850000Y-120437500D03*
X178550000Y-108437500D03*
X178550000Y-120437500D03*
%TD*%
D13*
%TO.C,S57*%
X188228815Y-122366656D03*
X193058444Y-123660751D03*
D14*
X186748785Y-113014944D03*
X183642957Y-124606054D03*
X199016043Y-116301946D03*
X195910215Y-127893056D03*
%TD*%
D15*
%TO.C,S58*%
X206467036Y-129481167D03*
X210797164Y-131981167D03*
D16*
X207457839Y-120065048D03*
X201457839Y-130457352D03*
X218456361Y-126415048D03*
X212456361Y-136807352D03*
%TD*%
D17*
%TO.C,D30*%
X107750000Y-100150000D03*
X107750000Y-96850000D03*
%TD*%
%TO.C,D31*%
X107750000Y-82650000D03*
X107750000Y-79350000D03*
%TD*%
%TO.C,D32*%
X107750000Y-65150000D03*
X107750000Y-61850000D03*
%TD*%
%TO.C,D33*%
X107750000Y-47650000D03*
X107750000Y-44350000D03*
%TD*%
%TO.C,D34*%
X126750000Y-100150000D03*
X126750000Y-96850000D03*
%TD*%
%TO.C,D35*%
X126750000Y-82650000D03*
X126750000Y-79350000D03*
%TD*%
%TO.C,D36*%
X126750000Y-65150000D03*
X126750000Y-61850000D03*
%TD*%
%TO.C,D37*%
X126750000Y-47650000D03*
X126750000Y-44350000D03*
%TD*%
%TO.C,D38*%
X145750000Y-95775000D03*
X145750000Y-92475000D03*
%TD*%
%TO.C,D39*%
X145750000Y-78275000D03*
X145750000Y-74975000D03*
%TD*%
%TO.C,D40*%
X145750000Y-60775000D03*
X145750000Y-57475000D03*
%TD*%
%TO.C,D41*%
X145750000Y-43275000D03*
X145750000Y-39975000D03*
%TD*%
%TO.C,D42*%
X164750000Y-93587500D03*
X164750000Y-90287500D03*
%TD*%
%TO.C,D43*%
X164750000Y-76087500D03*
X164750000Y-72787500D03*
%TD*%
%TO.C,D44*%
X164750000Y-58587500D03*
X164750000Y-55287500D03*
%TD*%
%TO.C,D45*%
X164750000Y-41087500D03*
X164750000Y-37787500D03*
%TD*%
%TO.C,D46*%
X183750000Y-95775000D03*
X183750000Y-92475000D03*
%TD*%
%TO.C,D47*%
X183750000Y-78275000D03*
X183750000Y-74975000D03*
%TD*%
%TO.C,D48*%
X183750000Y-60775000D03*
X183750000Y-57475000D03*
%TD*%
%TO.C,D49*%
X183750000Y-43275000D03*
X183750000Y-39975000D03*
%TD*%
%TO.C,D50*%
X202750000Y-97962500D03*
X202750000Y-94662500D03*
%TD*%
%TO.C,D51*%
X202750000Y-80462500D03*
X202750000Y-77162500D03*
%TD*%
%TO.C,D52*%
X202750000Y-62962500D03*
X202750000Y-59662500D03*
%TD*%
%TO.C,D53*%
X202750000Y-45462500D03*
X202750000Y-42162500D03*
%TD*%
%TO.C,D54*%
X141950000Y-118087500D03*
X141950000Y-114787500D03*
%TD*%
%TO.C,D55*%
X160950000Y-114587500D03*
X160950000Y-111287500D03*
%TD*%
%TO.C,D56*%
X179950000Y-114587500D03*
X179950000Y-111287500D03*
%TD*%
D18*
%TO.C,D57*%
X198776549Y-122604678D03*
X199630651Y-119417122D03*
%TD*%
D19*
%TO.C,D58*%
X216593800Y-132441042D03*
X218243800Y-129583158D03*
%TD*%
D20*
%TO.C,MCU1*%
X207084000Y-44420000D03*
X222324000Y-44420000D03*
D21*
X211304000Y-44420000D03*
X218104000Y-44420000D03*
D22*
X209224000Y-44420000D03*
X210124000Y-44420000D03*
X219284000Y-44420000D03*
X220184000Y-44420000D03*
D20*
X207084000Y-46960000D03*
X222324000Y-46960000D03*
D21*
X211304000Y-46960000D03*
X218104000Y-46960000D03*
D22*
X209224000Y-46960000D03*
X210124000Y-46960000D03*
X219284000Y-46960000D03*
X220184000Y-46960000D03*
D20*
X207084000Y-49500000D03*
X222324000Y-49500000D03*
D21*
X211304000Y-49500000D03*
X218104000Y-49500000D03*
D22*
X209224000Y-49500000D03*
X210124000Y-49500000D03*
X219284000Y-49500000D03*
X220184000Y-49500000D03*
D20*
X207084000Y-52040000D03*
X222324000Y-52040000D03*
D21*
X211304000Y-52040000D03*
X218104000Y-52040000D03*
D22*
X209224000Y-52040000D03*
X210124000Y-52040000D03*
X219284000Y-52040000D03*
X220184000Y-52040000D03*
D20*
X207084000Y-54580000D03*
X222324000Y-54580000D03*
D21*
X211304000Y-54580000D03*
X218104000Y-54580000D03*
D22*
X209224000Y-54580000D03*
X210124000Y-54580000D03*
X219284000Y-54580000D03*
X220184000Y-54580000D03*
D20*
X207084000Y-57120000D03*
X222324000Y-57120000D03*
D21*
X211304000Y-57120000D03*
X218104000Y-57120000D03*
D22*
X209224000Y-57120000D03*
X210124000Y-57120000D03*
X219284000Y-57120000D03*
X220184000Y-57120000D03*
D20*
X207084000Y-59660000D03*
X222324000Y-59660000D03*
D21*
X211304000Y-59660000D03*
X218104000Y-59660000D03*
D22*
X209224000Y-59660000D03*
X210124000Y-59660000D03*
X219284000Y-59660000D03*
X220184000Y-59660000D03*
D20*
X207084000Y-62200000D03*
X222324000Y-62200000D03*
D21*
X211304000Y-62200000D03*
X218104000Y-62200000D03*
D22*
X209224000Y-62200000D03*
X210124000Y-62200000D03*
X219284000Y-62200000D03*
X220184000Y-62200000D03*
D20*
X207084000Y-64740000D03*
X222324000Y-64740000D03*
D21*
X211304000Y-64740000D03*
X218104000Y-64740000D03*
D22*
X209224000Y-64740000D03*
X210124000Y-64740000D03*
X219284000Y-64740000D03*
X220184000Y-64740000D03*
D20*
X207084000Y-67280000D03*
X222324000Y-67280000D03*
D21*
X211304000Y-67280000D03*
X218104000Y-67280000D03*
D22*
X209224000Y-67280000D03*
X210124000Y-67280000D03*
X219284000Y-67280000D03*
X220184000Y-67280000D03*
D20*
X207084000Y-69820000D03*
X222324000Y-69820000D03*
D21*
X211304000Y-69820000D03*
X218104000Y-69820000D03*
D22*
X209224000Y-69820000D03*
X210124000Y-69820000D03*
X219284000Y-69820000D03*
X220184000Y-69820000D03*
D20*
X207084000Y-72360000D03*
X222324000Y-72360000D03*
D21*
X211304000Y-72360000D03*
X218104000Y-72360000D03*
D22*
X209224000Y-72360000D03*
X210124000Y-72360000D03*
X219284000Y-72360000D03*
X220184000Y-72360000D03*
%TD*%
D23*
%TO.C,DISP1*%
X209567000Y-77950000D03*
X212107000Y-77950000D03*
X217187000Y-77950000D03*
X219727000Y-77950000D03*
X209567000Y-78850000D03*
X212107000Y-78850000D03*
X217187000Y-78850000D03*
X219727000Y-78850000D03*
D24*
X209567000Y-76200000D03*
X212107000Y-76200000D03*
X214647000Y-76200000D03*
X217187000Y-76200000D03*
D20*
X219727000Y-76200000D03*
%TD*%
D25*
%TO.C,PWR1*%
X224125000Y-80600000D03*
X221915000Y-80600000D03*
X221915000Y-87900000D03*
X224125000Y-87900000D03*
D26*
X221265000Y-86500000D03*
X221265000Y-83500000D03*
X221265000Y-82000000D03*
D27*
X223025000Y-82750000D03*
X223025000Y-85750000D03*
%TD*%
D28*
%TO.C,RST1*%
X214704000Y-39837500D03*
X214704000Y-42587500D03*
D29*
X217329000Y-40362500D03*
X217329000Y-42062500D03*
X212079000Y-40362500D03*
X212079000Y-42062500D03*
%TD*%
D30*
%TO.C,JST1*%
X211750000Y-85000000D03*
X211750000Y-83000000D03*
D31*
X213550000Y-85000000D03*
X213550000Y-83000000D03*
D32*
X214566000Y-85000000D03*
X214566000Y-83000000D03*
%TD*%
M02*
