%TF.GenerationSoftware,KiCad,Pcbnew,8.0.7*%
%TF.CreationDate,2025-02-11T23:53:49-03:00*%
%TF.ProjectId,souffle_wireless,736f7566-666c-4655-9f77-6972656c6573,0.1*%
%TF.SameCoordinates,Original*%
%TF.FileFunction,Paste,Bot*%
%TF.FilePolarity,Positive*%
%FSLAX46Y46*%
G04 Gerber Fmt 4.6, Leading zero omitted, Abs format (unit mm)*
G04 Created by KiCad (PCBNEW 8.0.7) date 2025-02-11 23:53:49*
%MOMM*%
%LPD*%
G01*
G04 APERTURE LIST*
G04 Aperture macros list*
%AMRotRect*
0 Rectangle, with rotation*
0 The origin of the aperture is its center*
0 $1 length*
0 $2 width*
0 $3 Rotation angle, in degrees counterclockwise*
0 Add horizontal line*
21,1,$1,$2,0,0,$3*%
%AMFreePoly0*
4,1,6,0.600000,-0.200000,0.600000,-0.400000,-0.600000,-0.400000,-0.600000,-0.200000,0.000000,0.400000,0.600000,-0.200000,0.600000,-0.200000,$1*%
%AMFreePoly1*
4,1,6,0.600000,-1.000000,0.000000,-0.400000,-0.600000,-1.000000,-0.600000,0.250000,0.600000,0.250000,0.600000,-1.000000,0.600000,-1.000000,$1*%
G04 Aperture macros list end*
%ADD10R,1.550000X2.000000*%
%ADD11R,2.000000X2.000000*%
%ADD12RotRect,1.550000X2.000000X345.000000*%
%ADD13RotRect,2.000000X2.000000X345.000000*%
%ADD14RotRect,1.550000X2.000000X330.000000*%
%ADD15RotRect,2.000000X2.000000X330.000000*%
%ADD16R,1.200000X0.900000*%
%ADD17RotRect,0.900000X1.200000X75.000000*%
%ADD18RotRect,0.900000X1.200000X60.000000*%
%ADD19R,0.600000X1.200000*%
%ADD20R,1.200000X0.600000*%
%ADD21R,0.800000X1.000000*%
%ADD22R,1.500000X0.700000*%
%ADD23R,1.550000X1.000000*%
%ADD24FreePoly0,270.000000*%
%ADD25FreePoly1,270.000000*%
G04 APERTURE END LIST*
D10*
%TO.C,S1*%
X97500000Y-102650000D03*
X102500000Y-102650000D03*
D11*
X93650000Y-94000000D03*
X93650000Y-106000000D03*
X106350000Y-94000000D03*
X106350000Y-106000000D03*
%TD*%
D10*
%TO.C,S2*%
X97500000Y-85150000D03*
X102500000Y-85150000D03*
D11*
X93650000Y-76500000D03*
X93650000Y-88500000D03*
X106350000Y-76500000D03*
X106350000Y-88500000D03*
%TD*%
D10*
%TO.C,S3*%
X97500000Y-67650000D03*
X102500000Y-67650000D03*
D11*
X93650000Y-59000000D03*
X93650000Y-71000000D03*
X106350000Y-59000000D03*
X106350000Y-71000000D03*
%TD*%
D10*
%TO.C,S4*%
X97500000Y-50150000D03*
X102500000Y-50150000D03*
D11*
X93650000Y-41500000D03*
X93650000Y-53500000D03*
X106350000Y-41500000D03*
X106350000Y-53500000D03*
%TD*%
D10*
%TO.C,S5*%
X116500000Y-102650000D03*
X121500000Y-102650000D03*
D11*
X112650000Y-94000000D03*
X112650000Y-106000000D03*
X125350000Y-94000000D03*
X125350000Y-106000000D03*
%TD*%
D10*
%TO.C,S6*%
X116500000Y-85150000D03*
X121500000Y-85150000D03*
D11*
X112650000Y-76500000D03*
X112650000Y-88500000D03*
X125350000Y-76500000D03*
X125350000Y-88500000D03*
%TD*%
D10*
%TO.C,S7*%
X116500000Y-67650000D03*
X121500000Y-67650000D03*
D11*
X112650000Y-59000000D03*
X112650000Y-71000000D03*
X125350000Y-59000000D03*
X125350000Y-71000000D03*
%TD*%
D10*
%TO.C,S8*%
X116500000Y-50150000D03*
X121500000Y-50150000D03*
D11*
X112650000Y-41500000D03*
X112650000Y-53500000D03*
X125350000Y-41500000D03*
X125350000Y-53500000D03*
%TD*%
D10*
%TO.C,S9*%
X135500000Y-98275000D03*
X140500000Y-98275000D03*
D11*
X131650000Y-89625000D03*
X131650000Y-101625000D03*
X144350000Y-89625000D03*
X144350000Y-101625000D03*
%TD*%
D10*
%TO.C,S10*%
X135500000Y-80775000D03*
X140500000Y-80775000D03*
D11*
X131650000Y-72125000D03*
X131650000Y-84125000D03*
X144350000Y-72125000D03*
X144350000Y-84125000D03*
%TD*%
D10*
%TO.C,S11*%
X135500000Y-63275000D03*
X140500000Y-63275000D03*
D11*
X131650000Y-54625000D03*
X131650000Y-66625000D03*
X144350000Y-54625000D03*
X144350000Y-66625000D03*
%TD*%
D10*
%TO.C,S12*%
X135500000Y-45775000D03*
X140500000Y-45775000D03*
D11*
X131650000Y-37125000D03*
X131650000Y-49125000D03*
X144350000Y-37125000D03*
X144350000Y-49125000D03*
%TD*%
D10*
%TO.C,S13*%
X154500000Y-96087500D03*
X159500000Y-96087500D03*
D11*
X150650000Y-87437500D03*
X150650000Y-99437500D03*
X163350000Y-87437500D03*
X163350000Y-99437500D03*
%TD*%
D10*
%TO.C,S14*%
X154500000Y-78587500D03*
X159500000Y-78587500D03*
D11*
X150650000Y-69937500D03*
X150650000Y-81937500D03*
X163350000Y-69937500D03*
X163350000Y-81937500D03*
%TD*%
D10*
%TO.C,S15*%
X154500000Y-61087500D03*
X159500000Y-61087500D03*
D11*
X150650000Y-52437500D03*
X150650000Y-64437500D03*
X163350000Y-52437500D03*
X163350000Y-64437500D03*
%TD*%
D10*
%TO.C,S16*%
X154500000Y-43587500D03*
X159500000Y-43587500D03*
D11*
X150650000Y-34937500D03*
X150650000Y-46937500D03*
X163350000Y-34937500D03*
X163350000Y-46937500D03*
%TD*%
D10*
%TO.C,S17*%
X173500000Y-98275000D03*
X178500000Y-98275000D03*
D11*
X169650000Y-89625000D03*
X169650000Y-101625000D03*
X182350000Y-89625000D03*
X182350000Y-101625000D03*
%TD*%
D10*
%TO.C,S18*%
X173500000Y-80775000D03*
X178500000Y-80775000D03*
D11*
X169650000Y-72125000D03*
X169650000Y-84125000D03*
X182350000Y-72125000D03*
X182350000Y-84125000D03*
%TD*%
D10*
%TO.C,S19*%
X173500000Y-63275000D03*
X178500000Y-63275000D03*
D11*
X169650000Y-54625000D03*
X169650000Y-66625000D03*
X182350000Y-54625000D03*
X182350000Y-66625000D03*
%TD*%
D10*
%TO.C,S20*%
X173500000Y-45775000D03*
X178500000Y-45775000D03*
D11*
X169650000Y-37125000D03*
X169650000Y-49125000D03*
X182350000Y-37125000D03*
X182350000Y-49125000D03*
%TD*%
D10*
%TO.C,S21*%
X192500000Y-100462500D03*
X197500000Y-100462500D03*
D11*
X188650000Y-91812500D03*
X188650000Y-103812500D03*
X201350000Y-91812500D03*
X201350000Y-103812500D03*
%TD*%
D10*
%TO.C,S22*%
X192500000Y-82962500D03*
X197500000Y-82962500D03*
D11*
X188650000Y-74312500D03*
X188650000Y-86312500D03*
X201350000Y-74312500D03*
X201350000Y-86312500D03*
%TD*%
D10*
%TO.C,S23*%
X192500000Y-65462500D03*
X197500000Y-65462500D03*
D11*
X188650000Y-56812500D03*
X188650000Y-68812500D03*
X201350000Y-56812500D03*
X201350000Y-68812500D03*
%TD*%
D10*
%TO.C,S24*%
X192500000Y-47962500D03*
X197500000Y-47962500D03*
D11*
X188650000Y-39312500D03*
X188650000Y-51312500D03*
X201350000Y-39312500D03*
X201350000Y-51312500D03*
%TD*%
D10*
%TO.C,S25*%
X131700000Y-120587500D03*
X136700000Y-120587500D03*
D11*
X127850000Y-111937500D03*
X127850000Y-123937500D03*
X140550000Y-111937500D03*
X140550000Y-123937500D03*
%TD*%
D10*
%TO.C,S26*%
X150700000Y-117087500D03*
X155700000Y-117087500D03*
D11*
X146850000Y-108437500D03*
X146850000Y-120437500D03*
X159550000Y-108437500D03*
X159550000Y-120437500D03*
%TD*%
D10*
%TO.C,S27*%
X169700000Y-117087500D03*
X174700000Y-117087500D03*
D11*
X165850000Y-108437500D03*
X165850000Y-120437500D03*
X178550000Y-108437500D03*
X178550000Y-120437500D03*
%TD*%
D12*
%TO.C,S28*%
X188228815Y-122366656D03*
X193058444Y-123660751D03*
D13*
X186748785Y-113014944D03*
X183642957Y-124606054D03*
X199016043Y-116301946D03*
X195910215Y-127893056D03*
%TD*%
D14*
%TO.C,S29*%
X206467036Y-129481167D03*
X210797164Y-131981167D03*
D15*
X207457839Y-120065048D03*
X201457839Y-130457352D03*
X218456361Y-126415048D03*
X212456361Y-136807352D03*
%TD*%
D16*
%TO.C,D1*%
X92250000Y-96850000D03*
X92250000Y-100150000D03*
%TD*%
%TO.C,D2*%
X92250000Y-79350000D03*
X92250000Y-82650000D03*
%TD*%
%TO.C,D3*%
X92250000Y-61850000D03*
X92250000Y-65150000D03*
%TD*%
%TO.C,D4*%
X92250000Y-44350000D03*
X92250000Y-47650000D03*
%TD*%
%TO.C,D5*%
X111250000Y-96850000D03*
X111250000Y-100150000D03*
%TD*%
%TO.C,D6*%
X111250000Y-79350000D03*
X111250000Y-82650000D03*
%TD*%
%TO.C,D7*%
X111250000Y-61850000D03*
X111250000Y-65150000D03*
%TD*%
%TO.C,D8*%
X111250000Y-44350000D03*
X111250000Y-47650000D03*
%TD*%
%TO.C,D9*%
X130250000Y-92475000D03*
X130250000Y-95775000D03*
%TD*%
%TO.C,D10*%
X130250000Y-74975000D03*
X130250000Y-78275000D03*
%TD*%
%TO.C,D11*%
X130250000Y-57475000D03*
X130250000Y-60775000D03*
%TD*%
%TO.C,D12*%
X130250000Y-39975000D03*
X130250000Y-43275000D03*
%TD*%
%TO.C,D13*%
X149250000Y-90287500D03*
X149250000Y-93587500D03*
%TD*%
%TO.C,D14*%
X149250000Y-72787500D03*
X149250000Y-76087500D03*
%TD*%
%TO.C,D15*%
X149250000Y-55287500D03*
X149250000Y-58587500D03*
%TD*%
%TO.C,D16*%
X149250000Y-37787500D03*
X149250000Y-41087500D03*
%TD*%
%TO.C,D17*%
X168250000Y-92475000D03*
X168250000Y-95775000D03*
%TD*%
%TO.C,D18*%
X168250000Y-74975000D03*
X168250000Y-78275000D03*
%TD*%
%TO.C,D19*%
X168250000Y-57475000D03*
X168250000Y-60775000D03*
%TD*%
%TO.C,D20*%
X168250000Y-39975000D03*
X168250000Y-43275000D03*
%TD*%
%TO.C,D21*%
X187250000Y-94662500D03*
X187250000Y-97962500D03*
%TD*%
%TO.C,D22*%
X187250000Y-77162500D03*
X187250000Y-80462500D03*
%TD*%
%TO.C,D23*%
X187250000Y-59662500D03*
X187250000Y-62962500D03*
%TD*%
%TO.C,D24*%
X187250000Y-42162500D03*
X187250000Y-45462500D03*
%TD*%
%TO.C,D25*%
X126450000Y-114787500D03*
X126450000Y-118087500D03*
%TD*%
%TO.C,D26*%
X145450000Y-111287500D03*
X145450000Y-114587500D03*
%TD*%
%TO.C,D27*%
X164450000Y-111287500D03*
X164450000Y-114587500D03*
%TD*%
D17*
%TO.C,D28*%
X184658851Y-115405522D03*
X183804749Y-118593078D03*
%TD*%
D18*
%TO.C,D29*%
X204820400Y-121833158D03*
X203170400Y-124691042D03*
%TD*%
D19*
%TO.C,MCU1*%
X209224000Y-44420000D03*
X210124000Y-44420000D03*
X219284000Y-44420000D03*
X220184000Y-44420000D03*
X209224000Y-46960000D03*
X210124000Y-46960000D03*
X219284000Y-46960000D03*
X220184000Y-46960000D03*
X209224000Y-49500000D03*
X210124000Y-49500000D03*
X219284000Y-49500000D03*
X220184000Y-49500000D03*
X209224000Y-52040000D03*
X210124000Y-52040000D03*
X219284000Y-52040000D03*
X220184000Y-52040000D03*
X209224000Y-54580000D03*
X210124000Y-54580000D03*
X219284000Y-54580000D03*
X220184000Y-54580000D03*
X209224000Y-57120000D03*
X210124000Y-57120000D03*
X219284000Y-57120000D03*
X220184000Y-57120000D03*
X209224000Y-59660000D03*
X210124000Y-59660000D03*
X219284000Y-59660000D03*
X220184000Y-59660000D03*
X209224000Y-62200000D03*
X210124000Y-62200000D03*
X219284000Y-62200000D03*
X220184000Y-62200000D03*
X209224000Y-64740000D03*
X210124000Y-64740000D03*
X219284000Y-64740000D03*
X220184000Y-64740000D03*
X209224000Y-67280000D03*
X210124000Y-67280000D03*
X219284000Y-67280000D03*
X220184000Y-67280000D03*
X209224000Y-69820000D03*
X210124000Y-69820000D03*
X219284000Y-69820000D03*
X220184000Y-69820000D03*
X209224000Y-72360000D03*
X210124000Y-72360000D03*
X219284000Y-72360000D03*
X220184000Y-72360000D03*
%TD*%
D20*
%TO.C,DISP1*%
X219727000Y-77950000D03*
X217187000Y-77950000D03*
X212107000Y-77950000D03*
X209567000Y-77950000D03*
X219727000Y-78850000D03*
X217187000Y-78850000D03*
X212107000Y-78850000D03*
X209567000Y-78850000D03*
%TD*%
D21*
%TO.C,PWR1*%
X221915000Y-80600000D03*
X224125000Y-80600000D03*
X221915000Y-87900000D03*
X224125000Y-87900000D03*
D22*
X221265000Y-82000000D03*
X221265000Y-85000000D03*
X221265000Y-86500000D03*
%TD*%
D23*
%TO.C,RST1*%
X212079000Y-40362500D03*
X212079000Y-42062500D03*
X217329000Y-40362500D03*
X217329000Y-42062500D03*
%TD*%
D24*
%TO.C,JST1*%
X213550000Y-85000000D03*
X213550000Y-83000000D03*
D25*
X214566000Y-83000000D03*
X214566000Y-85000000D03*
%TD*%
M02*
