%TF.GenerationSoftware,KiCad,Pcbnew,8.0.7*%
%TF.CreationDate,2025-02-11T23:53:50-03:00*%
%TF.ProjectId,souffle_wireless,736f7566-666c-4655-9f77-6972656c6573,0.1*%
%TF.SameCoordinates,Original*%
%TF.FileFunction,Legend,Bot*%
%TF.FilePolarity,Positive*%
%FSLAX46Y46*%
G04 Gerber Fmt 4.6, Leading zero omitted, Abs format (unit mm)*
G04 Created by KiCad (PCBNEW 8.0.7) date 2025-02-11 23:53:50*
%MOMM*%
%LPD*%
G01*
G04 APERTURE LIST*
%ADD10C,0.150000*%
%ADD11C,0.100000*%
%ADD12C,0.120000*%
G04 APERTURE END LIST*
D10*
X142619048Y-106454819D02*
X142619048Y-107169104D01*
X142619048Y-107169104D02*
X142666667Y-107311961D01*
X142666667Y-107311961D02*
X142761905Y-107407200D01*
X142761905Y-107407200D02*
X142904762Y-107454819D01*
X142904762Y-107454819D02*
X143000000Y-107454819D01*
X141666667Y-107454819D02*
X142142857Y-107454819D01*
X142142857Y-107454819D02*
X142142857Y-106454819D01*
X140761905Y-107359580D02*
X140809524Y-107407200D01*
X140809524Y-107407200D02*
X140952381Y-107454819D01*
X140952381Y-107454819D02*
X141047619Y-107454819D01*
X141047619Y-107454819D02*
X141190476Y-107407200D01*
X141190476Y-107407200D02*
X141285714Y-107311961D01*
X141285714Y-107311961D02*
X141333333Y-107216723D01*
X141333333Y-107216723D02*
X141380952Y-107026247D01*
X141380952Y-107026247D02*
X141380952Y-106883390D01*
X141380952Y-106883390D02*
X141333333Y-106692914D01*
X141333333Y-106692914D02*
X141285714Y-106597676D01*
X141285714Y-106597676D02*
X141190476Y-106502438D01*
X141190476Y-106502438D02*
X141047619Y-106454819D01*
X141047619Y-106454819D02*
X140952381Y-106454819D01*
X140952381Y-106454819D02*
X140809524Y-106502438D01*
X140809524Y-106502438D02*
X140761905Y-106550057D01*
X140047619Y-106454819D02*
X140047619Y-107169104D01*
X140047619Y-107169104D02*
X140095238Y-107311961D01*
X140095238Y-107311961D02*
X140190476Y-107407200D01*
X140190476Y-107407200D02*
X140333333Y-107454819D01*
X140333333Y-107454819D02*
X140428571Y-107454819D01*
X139095238Y-107454819D02*
X139571428Y-107454819D01*
X139571428Y-107454819D02*
X139571428Y-106454819D01*
X138190476Y-107359580D02*
X138238095Y-107407200D01*
X138238095Y-107407200D02*
X138380952Y-107454819D01*
X138380952Y-107454819D02*
X138476190Y-107454819D01*
X138476190Y-107454819D02*
X138619047Y-107407200D01*
X138619047Y-107407200D02*
X138714285Y-107311961D01*
X138714285Y-107311961D02*
X138761904Y-107216723D01*
X138761904Y-107216723D02*
X138809523Y-107026247D01*
X138809523Y-107026247D02*
X138809523Y-106883390D01*
X138809523Y-106883390D02*
X138761904Y-106692914D01*
X138761904Y-106692914D02*
X138714285Y-106597676D01*
X138714285Y-106597676D02*
X138619047Y-106502438D01*
X138619047Y-106502438D02*
X138476190Y-106454819D01*
X138476190Y-106454819D02*
X138380952Y-106454819D01*
X138380952Y-106454819D02*
X138238095Y-106502438D01*
X138238095Y-106502438D02*
X138190476Y-106550057D01*
X137476190Y-106454819D02*
X137476190Y-107169104D01*
X137476190Y-107169104D02*
X137523809Y-107311961D01*
X137523809Y-107311961D02*
X137619047Y-107407200D01*
X137619047Y-107407200D02*
X137761904Y-107454819D01*
X137761904Y-107454819D02*
X137857142Y-107454819D01*
X136523809Y-107454819D02*
X136999999Y-107454819D01*
X136999999Y-107454819D02*
X136999999Y-106454819D01*
X135619047Y-107359580D02*
X135666666Y-107407200D01*
X135666666Y-107407200D02*
X135809523Y-107454819D01*
X135809523Y-107454819D02*
X135904761Y-107454819D01*
X135904761Y-107454819D02*
X136047618Y-107407200D01*
X136047618Y-107407200D02*
X136142856Y-107311961D01*
X136142856Y-107311961D02*
X136190475Y-107216723D01*
X136190475Y-107216723D02*
X136238094Y-107026247D01*
X136238094Y-107026247D02*
X136238094Y-106883390D01*
X136238094Y-106883390D02*
X136190475Y-106692914D01*
X136190475Y-106692914D02*
X136142856Y-106597676D01*
X136142856Y-106597676D02*
X136047618Y-106502438D01*
X136047618Y-106502438D02*
X135904761Y-106454819D01*
X135904761Y-106454819D02*
X135809523Y-106454819D01*
X135809523Y-106454819D02*
X135666666Y-106502438D01*
X135666666Y-106502438D02*
X135619047Y-106550057D01*
X134904761Y-106454819D02*
X134904761Y-107169104D01*
X134904761Y-107169104D02*
X134952380Y-107311961D01*
X134952380Y-107311961D02*
X135047618Y-107407200D01*
X135047618Y-107407200D02*
X135190475Y-107454819D01*
X135190475Y-107454819D02*
X135285713Y-107454819D01*
X133952380Y-107454819D02*
X134428570Y-107454819D01*
X134428570Y-107454819D02*
X134428570Y-106454819D01*
X133047618Y-107359580D02*
X133095237Y-107407200D01*
X133095237Y-107407200D02*
X133238094Y-107454819D01*
X133238094Y-107454819D02*
X133333332Y-107454819D01*
X133333332Y-107454819D02*
X133476189Y-107407200D01*
X133476189Y-107407200D02*
X133571427Y-107311961D01*
X133571427Y-107311961D02*
X133619046Y-107216723D01*
X133619046Y-107216723D02*
X133666665Y-107026247D01*
X133666665Y-107026247D02*
X133666665Y-106883390D01*
X133666665Y-106883390D02*
X133619046Y-106692914D01*
X133619046Y-106692914D02*
X133571427Y-106597676D01*
X133571427Y-106597676D02*
X133476189Y-106502438D01*
X133476189Y-106502438D02*
X133333332Y-106454819D01*
X133333332Y-106454819D02*
X133238094Y-106454819D01*
X133238094Y-106454819D02*
X133095237Y-106502438D01*
X133095237Y-106502438D02*
X133047618Y-106550057D01*
X213896857Y-44874819D02*
X214373047Y-44874819D01*
X214373047Y-44874819D02*
X214373047Y-43874819D01*
X213563523Y-44351009D02*
X213230190Y-44351009D01*
X213087333Y-44874819D02*
X213563523Y-44874819D01*
X213563523Y-44874819D02*
X213563523Y-43874819D01*
X213563523Y-43874819D02*
X213087333Y-43874819D01*
X212658761Y-44874819D02*
X212658761Y-43874819D01*
X212658761Y-43874819D02*
X212420666Y-43874819D01*
X212420666Y-43874819D02*
X212277809Y-43922438D01*
X212277809Y-43922438D02*
X212182571Y-44017676D01*
X212182571Y-44017676D02*
X212134952Y-44112914D01*
X212134952Y-44112914D02*
X212087333Y-44303390D01*
X212087333Y-44303390D02*
X212087333Y-44446247D01*
X212087333Y-44446247D02*
X212134952Y-44636723D01*
X212134952Y-44636723D02*
X212182571Y-44731961D01*
X212182571Y-44731961D02*
X212277809Y-44827200D01*
X212277809Y-44827200D02*
X212420666Y-44874819D01*
X212420666Y-44874819D02*
X212658761Y-44874819D01*
X216844476Y-44874819D02*
X217177809Y-44398628D01*
X217415904Y-44874819D02*
X217415904Y-43874819D01*
X217415904Y-43874819D02*
X217034952Y-43874819D01*
X217034952Y-43874819D02*
X216939714Y-43922438D01*
X216939714Y-43922438D02*
X216892095Y-43970057D01*
X216892095Y-43970057D02*
X216844476Y-44065295D01*
X216844476Y-44065295D02*
X216844476Y-44208152D01*
X216844476Y-44208152D02*
X216892095Y-44303390D01*
X216892095Y-44303390D02*
X216939714Y-44351009D01*
X216939714Y-44351009D02*
X217034952Y-44398628D01*
X217034952Y-44398628D02*
X217415904Y-44398628D01*
X216463523Y-44589104D02*
X215987333Y-44589104D01*
X216558761Y-44874819D02*
X216225428Y-43874819D01*
X216225428Y-43874819D02*
X215892095Y-44874819D01*
X215653999Y-43874819D02*
X215415904Y-44874819D01*
X215415904Y-44874819D02*
X215225428Y-44160533D01*
X215225428Y-44160533D02*
X215034952Y-44874819D01*
X215034952Y-44874819D02*
X214796857Y-43874819D01*
X214325428Y-47414819D02*
X214325428Y-46414819D01*
X214325428Y-46414819D02*
X214087333Y-46414819D01*
X214087333Y-46414819D02*
X213944476Y-46462438D01*
X213944476Y-46462438D02*
X213849238Y-46557676D01*
X213849238Y-46557676D02*
X213801619Y-46652914D01*
X213801619Y-46652914D02*
X213754000Y-46843390D01*
X213754000Y-46843390D02*
X213754000Y-46986247D01*
X213754000Y-46986247D02*
X213801619Y-47176723D01*
X213801619Y-47176723D02*
X213849238Y-47271961D01*
X213849238Y-47271961D02*
X213944476Y-47367200D01*
X213944476Y-47367200D02*
X214087333Y-47414819D01*
X214087333Y-47414819D02*
X214325428Y-47414819D01*
X213373047Y-47129104D02*
X212896857Y-47129104D01*
X213468285Y-47414819D02*
X213134952Y-46414819D01*
X213134952Y-46414819D02*
X212801619Y-47414819D01*
X212611142Y-46414819D02*
X212039714Y-46414819D01*
X212325428Y-47414819D02*
X212325428Y-46414819D01*
X216915904Y-46462438D02*
X217011142Y-46414819D01*
X217011142Y-46414819D02*
X217153999Y-46414819D01*
X217153999Y-46414819D02*
X217296856Y-46462438D01*
X217296856Y-46462438D02*
X217392094Y-46557676D01*
X217392094Y-46557676D02*
X217439713Y-46652914D01*
X217439713Y-46652914D02*
X217487332Y-46843390D01*
X217487332Y-46843390D02*
X217487332Y-46986247D01*
X217487332Y-46986247D02*
X217439713Y-47176723D01*
X217439713Y-47176723D02*
X217392094Y-47271961D01*
X217392094Y-47271961D02*
X217296856Y-47367200D01*
X217296856Y-47367200D02*
X217153999Y-47414819D01*
X217153999Y-47414819D02*
X217058761Y-47414819D01*
X217058761Y-47414819D02*
X216915904Y-47367200D01*
X216915904Y-47367200D02*
X216868285Y-47319580D01*
X216868285Y-47319580D02*
X216868285Y-46986247D01*
X216868285Y-46986247D02*
X217058761Y-46986247D01*
X216439713Y-47414819D02*
X216439713Y-46414819D01*
X216439713Y-46414819D02*
X215868285Y-47414819D01*
X215868285Y-47414819D02*
X215868285Y-46414819D01*
X215392094Y-47414819D02*
X215392094Y-46414819D01*
X215392094Y-46414819D02*
X215153999Y-46414819D01*
X215153999Y-46414819D02*
X215011142Y-46462438D01*
X215011142Y-46462438D02*
X214915904Y-46557676D01*
X214915904Y-46557676D02*
X214868285Y-46652914D01*
X214868285Y-46652914D02*
X214820666Y-46843390D01*
X214820666Y-46843390D02*
X214820666Y-46986247D01*
X214820666Y-46986247D02*
X214868285Y-47176723D01*
X214868285Y-47176723D02*
X214915904Y-47271961D01*
X214915904Y-47271961D02*
X215011142Y-47367200D01*
X215011142Y-47367200D02*
X215153999Y-47414819D01*
X215153999Y-47414819D02*
X215392094Y-47414819D01*
X214015904Y-49002438D02*
X214111142Y-48954819D01*
X214111142Y-48954819D02*
X214253999Y-48954819D01*
X214253999Y-48954819D02*
X214396856Y-49002438D01*
X214396856Y-49002438D02*
X214492094Y-49097676D01*
X214492094Y-49097676D02*
X214539713Y-49192914D01*
X214539713Y-49192914D02*
X214587332Y-49383390D01*
X214587332Y-49383390D02*
X214587332Y-49526247D01*
X214587332Y-49526247D02*
X214539713Y-49716723D01*
X214539713Y-49716723D02*
X214492094Y-49811961D01*
X214492094Y-49811961D02*
X214396856Y-49907200D01*
X214396856Y-49907200D02*
X214253999Y-49954819D01*
X214253999Y-49954819D02*
X214158761Y-49954819D01*
X214158761Y-49954819D02*
X214015904Y-49907200D01*
X214015904Y-49907200D02*
X213968285Y-49859580D01*
X213968285Y-49859580D02*
X213968285Y-49526247D01*
X213968285Y-49526247D02*
X214158761Y-49526247D01*
X213539713Y-49954819D02*
X213539713Y-48954819D01*
X213539713Y-48954819D02*
X212968285Y-49954819D01*
X212968285Y-49954819D02*
X212968285Y-48954819D01*
X212492094Y-49954819D02*
X212492094Y-48954819D01*
X212492094Y-48954819D02*
X212253999Y-48954819D01*
X212253999Y-48954819D02*
X212111142Y-49002438D01*
X212111142Y-49002438D02*
X212015904Y-49097676D01*
X212015904Y-49097676D02*
X211968285Y-49192914D01*
X211968285Y-49192914D02*
X211920666Y-49383390D01*
X211920666Y-49383390D02*
X211920666Y-49526247D01*
X211920666Y-49526247D02*
X211968285Y-49716723D01*
X211968285Y-49716723D02*
X212015904Y-49811961D01*
X212015904Y-49811961D02*
X212111142Y-49907200D01*
X212111142Y-49907200D02*
X212253999Y-49954819D01*
X212253999Y-49954819D02*
X212492094Y-49954819D01*
X216701619Y-49954819D02*
X217034952Y-49478628D01*
X217273047Y-49954819D02*
X217273047Y-48954819D01*
X217273047Y-48954819D02*
X216892095Y-48954819D01*
X216892095Y-48954819D02*
X216796857Y-49002438D01*
X216796857Y-49002438D02*
X216749238Y-49050057D01*
X216749238Y-49050057D02*
X216701619Y-49145295D01*
X216701619Y-49145295D02*
X216701619Y-49288152D01*
X216701619Y-49288152D02*
X216749238Y-49383390D01*
X216749238Y-49383390D02*
X216796857Y-49431009D01*
X216796857Y-49431009D02*
X216892095Y-49478628D01*
X216892095Y-49478628D02*
X217273047Y-49478628D01*
X216320666Y-49907200D02*
X216177809Y-49954819D01*
X216177809Y-49954819D02*
X215939714Y-49954819D01*
X215939714Y-49954819D02*
X215844476Y-49907200D01*
X215844476Y-49907200D02*
X215796857Y-49859580D01*
X215796857Y-49859580D02*
X215749238Y-49764342D01*
X215749238Y-49764342D02*
X215749238Y-49669104D01*
X215749238Y-49669104D02*
X215796857Y-49573866D01*
X215796857Y-49573866D02*
X215844476Y-49526247D01*
X215844476Y-49526247D02*
X215939714Y-49478628D01*
X215939714Y-49478628D02*
X216130190Y-49431009D01*
X216130190Y-49431009D02*
X216225428Y-49383390D01*
X216225428Y-49383390D02*
X216273047Y-49335771D01*
X216273047Y-49335771D02*
X216320666Y-49240533D01*
X216320666Y-49240533D02*
X216320666Y-49145295D01*
X216320666Y-49145295D02*
X216273047Y-49050057D01*
X216273047Y-49050057D02*
X216225428Y-49002438D01*
X216225428Y-49002438D02*
X216130190Y-48954819D01*
X216130190Y-48954819D02*
X215892095Y-48954819D01*
X215892095Y-48954819D02*
X215749238Y-49002438D01*
X215463523Y-48954819D02*
X214892095Y-48954819D01*
X215177809Y-49954819D02*
X215177809Y-48954819D01*
X214015904Y-51542438D02*
X214111142Y-51494819D01*
X214111142Y-51494819D02*
X214253999Y-51494819D01*
X214253999Y-51494819D02*
X214396856Y-51542438D01*
X214396856Y-51542438D02*
X214492094Y-51637676D01*
X214492094Y-51637676D02*
X214539713Y-51732914D01*
X214539713Y-51732914D02*
X214587332Y-51923390D01*
X214587332Y-51923390D02*
X214587332Y-52066247D01*
X214587332Y-52066247D02*
X214539713Y-52256723D01*
X214539713Y-52256723D02*
X214492094Y-52351961D01*
X214492094Y-52351961D02*
X214396856Y-52447200D01*
X214396856Y-52447200D02*
X214253999Y-52494819D01*
X214253999Y-52494819D02*
X214158761Y-52494819D01*
X214158761Y-52494819D02*
X214015904Y-52447200D01*
X214015904Y-52447200D02*
X213968285Y-52399580D01*
X213968285Y-52399580D02*
X213968285Y-52066247D01*
X213968285Y-52066247D02*
X214158761Y-52066247D01*
X213539713Y-52494819D02*
X213539713Y-51494819D01*
X213539713Y-51494819D02*
X212968285Y-52494819D01*
X212968285Y-52494819D02*
X212968285Y-51494819D01*
X212492094Y-52494819D02*
X212492094Y-51494819D01*
X212492094Y-51494819D02*
X212253999Y-51494819D01*
X212253999Y-51494819D02*
X212111142Y-51542438D01*
X212111142Y-51542438D02*
X212015904Y-51637676D01*
X212015904Y-51637676D02*
X211968285Y-51732914D01*
X211968285Y-51732914D02*
X211920666Y-51923390D01*
X211920666Y-51923390D02*
X211920666Y-52066247D01*
X211920666Y-52066247D02*
X211968285Y-52256723D01*
X211968285Y-52256723D02*
X212015904Y-52351961D01*
X212015904Y-52351961D02*
X212111142Y-52447200D01*
X212111142Y-52447200D02*
X212253999Y-52494819D01*
X212253999Y-52494819D02*
X212492094Y-52494819D01*
X217487332Y-51494819D02*
X217153999Y-52494819D01*
X217153999Y-52494819D02*
X216820666Y-51494819D01*
X215915904Y-52399580D02*
X215963523Y-52447200D01*
X215963523Y-52447200D02*
X216106380Y-52494819D01*
X216106380Y-52494819D02*
X216201618Y-52494819D01*
X216201618Y-52494819D02*
X216344475Y-52447200D01*
X216344475Y-52447200D02*
X216439713Y-52351961D01*
X216439713Y-52351961D02*
X216487332Y-52256723D01*
X216487332Y-52256723D02*
X216534951Y-52066247D01*
X216534951Y-52066247D02*
X216534951Y-51923390D01*
X216534951Y-51923390D02*
X216487332Y-51732914D01*
X216487332Y-51732914D02*
X216439713Y-51637676D01*
X216439713Y-51637676D02*
X216344475Y-51542438D01*
X216344475Y-51542438D02*
X216201618Y-51494819D01*
X216201618Y-51494819D02*
X216106380Y-51494819D01*
X216106380Y-51494819D02*
X215963523Y-51542438D01*
X215963523Y-51542438D02*
X215915904Y-51590057D01*
X214915904Y-52399580D02*
X214963523Y-52447200D01*
X214963523Y-52447200D02*
X215106380Y-52494819D01*
X215106380Y-52494819D02*
X215201618Y-52494819D01*
X215201618Y-52494819D02*
X215344475Y-52447200D01*
X215344475Y-52447200D02*
X215439713Y-52351961D01*
X215439713Y-52351961D02*
X215487332Y-52256723D01*
X215487332Y-52256723D02*
X215534951Y-52066247D01*
X215534951Y-52066247D02*
X215534951Y-51923390D01*
X215534951Y-51923390D02*
X215487332Y-51732914D01*
X215487332Y-51732914D02*
X215439713Y-51637676D01*
X215439713Y-51637676D02*
X215344475Y-51542438D01*
X215344475Y-51542438D02*
X215201618Y-51494819D01*
X215201618Y-51494819D02*
X215106380Y-51494819D01*
X215106380Y-51494819D02*
X214963523Y-51542438D01*
X214963523Y-51542438D02*
X214915904Y-51590057D01*
X214468285Y-54987200D02*
X214325428Y-55034819D01*
X214325428Y-55034819D02*
X214087333Y-55034819D01*
X214087333Y-55034819D02*
X213992095Y-54987200D01*
X213992095Y-54987200D02*
X213944476Y-54939580D01*
X213944476Y-54939580D02*
X213896857Y-54844342D01*
X213896857Y-54844342D02*
X213896857Y-54749104D01*
X213896857Y-54749104D02*
X213944476Y-54653866D01*
X213944476Y-54653866D02*
X213992095Y-54606247D01*
X213992095Y-54606247D02*
X214087333Y-54558628D01*
X214087333Y-54558628D02*
X214277809Y-54511009D01*
X214277809Y-54511009D02*
X214373047Y-54463390D01*
X214373047Y-54463390D02*
X214420666Y-54415771D01*
X214420666Y-54415771D02*
X214468285Y-54320533D01*
X214468285Y-54320533D02*
X214468285Y-54225295D01*
X214468285Y-54225295D02*
X214420666Y-54130057D01*
X214420666Y-54130057D02*
X214373047Y-54082438D01*
X214373047Y-54082438D02*
X214277809Y-54034819D01*
X214277809Y-54034819D02*
X214039714Y-54034819D01*
X214039714Y-54034819D02*
X213896857Y-54082438D01*
X213468285Y-55034819D02*
X213468285Y-54034819D01*
X213468285Y-54034819D02*
X213230190Y-54034819D01*
X213230190Y-54034819D02*
X213087333Y-54082438D01*
X213087333Y-54082438D02*
X212992095Y-54177676D01*
X212992095Y-54177676D02*
X212944476Y-54272914D01*
X212944476Y-54272914D02*
X212896857Y-54463390D01*
X212896857Y-54463390D02*
X212896857Y-54606247D01*
X212896857Y-54606247D02*
X212944476Y-54796723D01*
X212944476Y-54796723D02*
X212992095Y-54891961D01*
X212992095Y-54891961D02*
X213087333Y-54987200D01*
X213087333Y-54987200D02*
X213230190Y-55034819D01*
X213230190Y-55034819D02*
X213468285Y-55034819D01*
X212515904Y-54749104D02*
X212039714Y-54749104D01*
X212611142Y-55034819D02*
X212277809Y-54034819D01*
X212277809Y-54034819D02*
X211944476Y-55034819D01*
X216910666Y-54939580D02*
X216958285Y-54987200D01*
X216958285Y-54987200D02*
X217101142Y-55034819D01*
X217101142Y-55034819D02*
X217196380Y-55034819D01*
X217196380Y-55034819D02*
X217339237Y-54987200D01*
X217339237Y-54987200D02*
X217434475Y-54891961D01*
X217434475Y-54891961D02*
X217482094Y-54796723D01*
X217482094Y-54796723D02*
X217529713Y-54606247D01*
X217529713Y-54606247D02*
X217529713Y-54463390D01*
X217529713Y-54463390D02*
X217482094Y-54272914D01*
X217482094Y-54272914D02*
X217434475Y-54177676D01*
X217434475Y-54177676D02*
X217339237Y-54082438D01*
X217339237Y-54082438D02*
X217196380Y-54034819D01*
X217196380Y-54034819D02*
X217101142Y-54034819D01*
X217101142Y-54034819D02*
X216958285Y-54082438D01*
X216958285Y-54082438D02*
X216910666Y-54130057D01*
X216291618Y-54034819D02*
X216196380Y-54034819D01*
X216196380Y-54034819D02*
X216101142Y-54082438D01*
X216101142Y-54082438D02*
X216053523Y-54130057D01*
X216053523Y-54130057D02*
X216005904Y-54225295D01*
X216005904Y-54225295D02*
X215958285Y-54415771D01*
X215958285Y-54415771D02*
X215958285Y-54653866D01*
X215958285Y-54653866D02*
X216005904Y-54844342D01*
X216005904Y-54844342D02*
X216053523Y-54939580D01*
X216053523Y-54939580D02*
X216101142Y-54987200D01*
X216101142Y-54987200D02*
X216196380Y-55034819D01*
X216196380Y-55034819D02*
X216291618Y-55034819D01*
X216291618Y-55034819D02*
X216386856Y-54987200D01*
X216386856Y-54987200D02*
X216434475Y-54939580D01*
X216434475Y-54939580D02*
X216482094Y-54844342D01*
X216482094Y-54844342D02*
X216529713Y-54653866D01*
X216529713Y-54653866D02*
X216529713Y-54415771D01*
X216529713Y-54415771D02*
X216482094Y-54225295D01*
X216482094Y-54225295D02*
X216434475Y-54130057D01*
X216434475Y-54130057D02*
X216386856Y-54082438D01*
X216386856Y-54082438D02*
X216291618Y-54034819D01*
X214444475Y-57527200D02*
X214301618Y-57574819D01*
X214301618Y-57574819D02*
X214063523Y-57574819D01*
X214063523Y-57574819D02*
X213968285Y-57527200D01*
X213968285Y-57527200D02*
X213920666Y-57479580D01*
X213920666Y-57479580D02*
X213873047Y-57384342D01*
X213873047Y-57384342D02*
X213873047Y-57289104D01*
X213873047Y-57289104D02*
X213920666Y-57193866D01*
X213920666Y-57193866D02*
X213968285Y-57146247D01*
X213968285Y-57146247D02*
X214063523Y-57098628D01*
X214063523Y-57098628D02*
X214253999Y-57051009D01*
X214253999Y-57051009D02*
X214349237Y-57003390D01*
X214349237Y-57003390D02*
X214396856Y-56955771D01*
X214396856Y-56955771D02*
X214444475Y-56860533D01*
X214444475Y-56860533D02*
X214444475Y-56765295D01*
X214444475Y-56765295D02*
X214396856Y-56670057D01*
X214396856Y-56670057D02*
X214349237Y-56622438D01*
X214349237Y-56622438D02*
X214253999Y-56574819D01*
X214253999Y-56574819D02*
X214015904Y-56574819D01*
X214015904Y-56574819D02*
X213873047Y-56622438D01*
X212873047Y-57479580D02*
X212920666Y-57527200D01*
X212920666Y-57527200D02*
X213063523Y-57574819D01*
X213063523Y-57574819D02*
X213158761Y-57574819D01*
X213158761Y-57574819D02*
X213301618Y-57527200D01*
X213301618Y-57527200D02*
X213396856Y-57431961D01*
X213396856Y-57431961D02*
X213444475Y-57336723D01*
X213444475Y-57336723D02*
X213492094Y-57146247D01*
X213492094Y-57146247D02*
X213492094Y-57003390D01*
X213492094Y-57003390D02*
X213444475Y-56812914D01*
X213444475Y-56812914D02*
X213396856Y-56717676D01*
X213396856Y-56717676D02*
X213301618Y-56622438D01*
X213301618Y-56622438D02*
X213158761Y-56574819D01*
X213158761Y-56574819D02*
X213063523Y-56574819D01*
X213063523Y-56574819D02*
X212920666Y-56622438D01*
X212920666Y-56622438D02*
X212873047Y-56670057D01*
X211968285Y-57574819D02*
X212444475Y-57574819D01*
X212444475Y-57574819D02*
X212444475Y-56574819D01*
X216910666Y-57479580D02*
X216958285Y-57527200D01*
X216958285Y-57527200D02*
X217101142Y-57574819D01*
X217101142Y-57574819D02*
X217196380Y-57574819D01*
X217196380Y-57574819D02*
X217339237Y-57527200D01*
X217339237Y-57527200D02*
X217434475Y-57431961D01*
X217434475Y-57431961D02*
X217482094Y-57336723D01*
X217482094Y-57336723D02*
X217529713Y-57146247D01*
X217529713Y-57146247D02*
X217529713Y-57003390D01*
X217529713Y-57003390D02*
X217482094Y-56812914D01*
X217482094Y-56812914D02*
X217434475Y-56717676D01*
X217434475Y-56717676D02*
X217339237Y-56622438D01*
X217339237Y-56622438D02*
X217196380Y-56574819D01*
X217196380Y-56574819D02*
X217101142Y-56574819D01*
X217101142Y-56574819D02*
X216958285Y-56622438D01*
X216958285Y-56622438D02*
X216910666Y-56670057D01*
X215958285Y-57574819D02*
X216529713Y-57574819D01*
X216243999Y-57574819D02*
X216243999Y-56574819D01*
X216243999Y-56574819D02*
X216339237Y-56717676D01*
X216339237Y-56717676D02*
X216434475Y-56812914D01*
X216434475Y-56812914D02*
X216529713Y-56860533D01*
X212830666Y-60019580D02*
X212878285Y-60067200D01*
X212878285Y-60067200D02*
X213021142Y-60114819D01*
X213021142Y-60114819D02*
X213116380Y-60114819D01*
X213116380Y-60114819D02*
X213259237Y-60067200D01*
X213259237Y-60067200D02*
X213354475Y-59971961D01*
X213354475Y-59971961D02*
X213402094Y-59876723D01*
X213402094Y-59876723D02*
X213449713Y-59686247D01*
X213449713Y-59686247D02*
X213449713Y-59543390D01*
X213449713Y-59543390D02*
X213402094Y-59352914D01*
X213402094Y-59352914D02*
X213354475Y-59257676D01*
X213354475Y-59257676D02*
X213259237Y-59162438D01*
X213259237Y-59162438D02*
X213116380Y-59114819D01*
X213116380Y-59114819D02*
X213021142Y-59114819D01*
X213021142Y-59114819D02*
X212878285Y-59162438D01*
X212878285Y-59162438D02*
X212830666Y-59210057D01*
X212449713Y-60067200D02*
X212306856Y-60114819D01*
X212306856Y-60114819D02*
X212068761Y-60114819D01*
X212068761Y-60114819D02*
X211973523Y-60067200D01*
X211973523Y-60067200D02*
X211925904Y-60019580D01*
X211925904Y-60019580D02*
X211878285Y-59924342D01*
X211878285Y-59924342D02*
X211878285Y-59829104D01*
X211878285Y-59829104D02*
X211925904Y-59733866D01*
X211925904Y-59733866D02*
X211973523Y-59686247D01*
X211973523Y-59686247D02*
X212068761Y-59638628D01*
X212068761Y-59638628D02*
X212259237Y-59591009D01*
X212259237Y-59591009D02*
X212354475Y-59543390D01*
X212354475Y-59543390D02*
X212402094Y-59495771D01*
X212402094Y-59495771D02*
X212449713Y-59400533D01*
X212449713Y-59400533D02*
X212449713Y-59305295D01*
X212449713Y-59305295D02*
X212402094Y-59210057D01*
X212402094Y-59210057D02*
X212354475Y-59162438D01*
X212354475Y-59162438D02*
X212259237Y-59114819D01*
X212259237Y-59114819D02*
X212021142Y-59114819D01*
X212021142Y-59114819D02*
X211878285Y-59162438D01*
X216910666Y-60019580D02*
X216958285Y-60067200D01*
X216958285Y-60067200D02*
X217101142Y-60114819D01*
X217101142Y-60114819D02*
X217196380Y-60114819D01*
X217196380Y-60114819D02*
X217339237Y-60067200D01*
X217339237Y-60067200D02*
X217434475Y-59971961D01*
X217434475Y-59971961D02*
X217482094Y-59876723D01*
X217482094Y-59876723D02*
X217529713Y-59686247D01*
X217529713Y-59686247D02*
X217529713Y-59543390D01*
X217529713Y-59543390D02*
X217482094Y-59352914D01*
X217482094Y-59352914D02*
X217434475Y-59257676D01*
X217434475Y-59257676D02*
X217339237Y-59162438D01*
X217339237Y-59162438D02*
X217196380Y-59114819D01*
X217196380Y-59114819D02*
X217101142Y-59114819D01*
X217101142Y-59114819D02*
X216958285Y-59162438D01*
X216958285Y-59162438D02*
X216910666Y-59210057D01*
X216529713Y-59210057D02*
X216482094Y-59162438D01*
X216482094Y-59162438D02*
X216386856Y-59114819D01*
X216386856Y-59114819D02*
X216148761Y-59114819D01*
X216148761Y-59114819D02*
X216053523Y-59162438D01*
X216053523Y-59162438D02*
X216005904Y-59210057D01*
X216005904Y-59210057D02*
X215958285Y-59305295D01*
X215958285Y-59305295D02*
X215958285Y-59400533D01*
X215958285Y-59400533D02*
X216005904Y-59543390D01*
X216005904Y-59543390D02*
X216577332Y-60114819D01*
X216577332Y-60114819D02*
X215958285Y-60114819D01*
X212830666Y-62654819D02*
X213163999Y-62178628D01*
X213402094Y-62654819D02*
X213402094Y-61654819D01*
X213402094Y-61654819D02*
X213021142Y-61654819D01*
X213021142Y-61654819D02*
X212925904Y-61702438D01*
X212925904Y-61702438D02*
X212878285Y-61750057D01*
X212878285Y-61750057D02*
X212830666Y-61845295D01*
X212830666Y-61845295D02*
X212830666Y-61988152D01*
X212830666Y-61988152D02*
X212878285Y-62083390D01*
X212878285Y-62083390D02*
X212925904Y-62131009D01*
X212925904Y-62131009D02*
X213021142Y-62178628D01*
X213021142Y-62178628D02*
X213402094Y-62178628D01*
X212211618Y-61654819D02*
X212116380Y-61654819D01*
X212116380Y-61654819D02*
X212021142Y-61702438D01*
X212021142Y-61702438D02*
X211973523Y-61750057D01*
X211973523Y-61750057D02*
X211925904Y-61845295D01*
X211925904Y-61845295D02*
X211878285Y-62035771D01*
X211878285Y-62035771D02*
X211878285Y-62273866D01*
X211878285Y-62273866D02*
X211925904Y-62464342D01*
X211925904Y-62464342D02*
X211973523Y-62559580D01*
X211973523Y-62559580D02*
X212021142Y-62607200D01*
X212021142Y-62607200D02*
X212116380Y-62654819D01*
X212116380Y-62654819D02*
X212211618Y-62654819D01*
X212211618Y-62654819D02*
X212306856Y-62607200D01*
X212306856Y-62607200D02*
X212354475Y-62559580D01*
X212354475Y-62559580D02*
X212402094Y-62464342D01*
X212402094Y-62464342D02*
X212449713Y-62273866D01*
X212449713Y-62273866D02*
X212449713Y-62035771D01*
X212449713Y-62035771D02*
X212402094Y-61845295D01*
X212402094Y-61845295D02*
X212354475Y-61750057D01*
X212354475Y-61750057D02*
X212306856Y-61702438D01*
X212306856Y-61702438D02*
X212211618Y-61654819D01*
X216910666Y-62559580D02*
X216958285Y-62607200D01*
X216958285Y-62607200D02*
X217101142Y-62654819D01*
X217101142Y-62654819D02*
X217196380Y-62654819D01*
X217196380Y-62654819D02*
X217339237Y-62607200D01*
X217339237Y-62607200D02*
X217434475Y-62511961D01*
X217434475Y-62511961D02*
X217482094Y-62416723D01*
X217482094Y-62416723D02*
X217529713Y-62226247D01*
X217529713Y-62226247D02*
X217529713Y-62083390D01*
X217529713Y-62083390D02*
X217482094Y-61892914D01*
X217482094Y-61892914D02*
X217434475Y-61797676D01*
X217434475Y-61797676D02*
X217339237Y-61702438D01*
X217339237Y-61702438D02*
X217196380Y-61654819D01*
X217196380Y-61654819D02*
X217101142Y-61654819D01*
X217101142Y-61654819D02*
X216958285Y-61702438D01*
X216958285Y-61702438D02*
X216910666Y-61750057D01*
X216577332Y-61654819D02*
X215958285Y-61654819D01*
X215958285Y-61654819D02*
X216291618Y-62035771D01*
X216291618Y-62035771D02*
X216148761Y-62035771D01*
X216148761Y-62035771D02*
X216053523Y-62083390D01*
X216053523Y-62083390D02*
X216005904Y-62131009D01*
X216005904Y-62131009D02*
X215958285Y-62226247D01*
X215958285Y-62226247D02*
X215958285Y-62464342D01*
X215958285Y-62464342D02*
X216005904Y-62559580D01*
X216005904Y-62559580D02*
X216053523Y-62607200D01*
X216053523Y-62607200D02*
X216148761Y-62654819D01*
X216148761Y-62654819D02*
X216434475Y-62654819D01*
X216434475Y-62654819D02*
X216529713Y-62607200D01*
X216529713Y-62607200D02*
X216577332Y-62559580D01*
X212830666Y-65194819D02*
X213163999Y-64718628D01*
X213402094Y-65194819D02*
X213402094Y-64194819D01*
X213402094Y-64194819D02*
X213021142Y-64194819D01*
X213021142Y-64194819D02*
X212925904Y-64242438D01*
X212925904Y-64242438D02*
X212878285Y-64290057D01*
X212878285Y-64290057D02*
X212830666Y-64385295D01*
X212830666Y-64385295D02*
X212830666Y-64528152D01*
X212830666Y-64528152D02*
X212878285Y-64623390D01*
X212878285Y-64623390D02*
X212925904Y-64671009D01*
X212925904Y-64671009D02*
X213021142Y-64718628D01*
X213021142Y-64718628D02*
X213402094Y-64718628D01*
X211878285Y-65194819D02*
X212449713Y-65194819D01*
X212163999Y-65194819D02*
X212163999Y-64194819D01*
X212163999Y-64194819D02*
X212259237Y-64337676D01*
X212259237Y-64337676D02*
X212354475Y-64432914D01*
X212354475Y-64432914D02*
X212449713Y-64480533D01*
X216910666Y-65099580D02*
X216958285Y-65147200D01*
X216958285Y-65147200D02*
X217101142Y-65194819D01*
X217101142Y-65194819D02*
X217196380Y-65194819D01*
X217196380Y-65194819D02*
X217339237Y-65147200D01*
X217339237Y-65147200D02*
X217434475Y-65051961D01*
X217434475Y-65051961D02*
X217482094Y-64956723D01*
X217482094Y-64956723D02*
X217529713Y-64766247D01*
X217529713Y-64766247D02*
X217529713Y-64623390D01*
X217529713Y-64623390D02*
X217482094Y-64432914D01*
X217482094Y-64432914D02*
X217434475Y-64337676D01*
X217434475Y-64337676D02*
X217339237Y-64242438D01*
X217339237Y-64242438D02*
X217196380Y-64194819D01*
X217196380Y-64194819D02*
X217101142Y-64194819D01*
X217101142Y-64194819D02*
X216958285Y-64242438D01*
X216958285Y-64242438D02*
X216910666Y-64290057D01*
X216053523Y-64528152D02*
X216053523Y-65194819D01*
X216291618Y-64147200D02*
X216529713Y-64861485D01*
X216529713Y-64861485D02*
X215910666Y-64861485D01*
X212830666Y-67734819D02*
X213163999Y-67258628D01*
X213402094Y-67734819D02*
X213402094Y-66734819D01*
X213402094Y-66734819D02*
X213021142Y-66734819D01*
X213021142Y-66734819D02*
X212925904Y-66782438D01*
X212925904Y-66782438D02*
X212878285Y-66830057D01*
X212878285Y-66830057D02*
X212830666Y-66925295D01*
X212830666Y-66925295D02*
X212830666Y-67068152D01*
X212830666Y-67068152D02*
X212878285Y-67163390D01*
X212878285Y-67163390D02*
X212925904Y-67211009D01*
X212925904Y-67211009D02*
X213021142Y-67258628D01*
X213021142Y-67258628D02*
X213402094Y-67258628D01*
X212449713Y-66830057D02*
X212402094Y-66782438D01*
X212402094Y-66782438D02*
X212306856Y-66734819D01*
X212306856Y-66734819D02*
X212068761Y-66734819D01*
X212068761Y-66734819D02*
X211973523Y-66782438D01*
X211973523Y-66782438D02*
X211925904Y-66830057D01*
X211925904Y-66830057D02*
X211878285Y-66925295D01*
X211878285Y-66925295D02*
X211878285Y-67020533D01*
X211878285Y-67020533D02*
X211925904Y-67163390D01*
X211925904Y-67163390D02*
X212497332Y-67734819D01*
X212497332Y-67734819D02*
X211878285Y-67734819D01*
X216910666Y-67639580D02*
X216958285Y-67687200D01*
X216958285Y-67687200D02*
X217101142Y-67734819D01*
X217101142Y-67734819D02*
X217196380Y-67734819D01*
X217196380Y-67734819D02*
X217339237Y-67687200D01*
X217339237Y-67687200D02*
X217434475Y-67591961D01*
X217434475Y-67591961D02*
X217482094Y-67496723D01*
X217482094Y-67496723D02*
X217529713Y-67306247D01*
X217529713Y-67306247D02*
X217529713Y-67163390D01*
X217529713Y-67163390D02*
X217482094Y-66972914D01*
X217482094Y-66972914D02*
X217434475Y-66877676D01*
X217434475Y-66877676D02*
X217339237Y-66782438D01*
X217339237Y-66782438D02*
X217196380Y-66734819D01*
X217196380Y-66734819D02*
X217101142Y-66734819D01*
X217101142Y-66734819D02*
X216958285Y-66782438D01*
X216958285Y-66782438D02*
X216910666Y-66830057D01*
X216005904Y-66734819D02*
X216482094Y-66734819D01*
X216482094Y-66734819D02*
X216529713Y-67211009D01*
X216529713Y-67211009D02*
X216482094Y-67163390D01*
X216482094Y-67163390D02*
X216386856Y-67115771D01*
X216386856Y-67115771D02*
X216148761Y-67115771D01*
X216148761Y-67115771D02*
X216053523Y-67163390D01*
X216053523Y-67163390D02*
X216005904Y-67211009D01*
X216005904Y-67211009D02*
X215958285Y-67306247D01*
X215958285Y-67306247D02*
X215958285Y-67544342D01*
X215958285Y-67544342D02*
X216005904Y-67639580D01*
X216005904Y-67639580D02*
X216053523Y-67687200D01*
X216053523Y-67687200D02*
X216148761Y-67734819D01*
X216148761Y-67734819D02*
X216386856Y-67734819D01*
X216386856Y-67734819D02*
X216482094Y-67687200D01*
X216482094Y-67687200D02*
X216529713Y-67639580D01*
X212830666Y-70274819D02*
X213163999Y-69798628D01*
X213402094Y-70274819D02*
X213402094Y-69274819D01*
X213402094Y-69274819D02*
X213021142Y-69274819D01*
X213021142Y-69274819D02*
X212925904Y-69322438D01*
X212925904Y-69322438D02*
X212878285Y-69370057D01*
X212878285Y-69370057D02*
X212830666Y-69465295D01*
X212830666Y-69465295D02*
X212830666Y-69608152D01*
X212830666Y-69608152D02*
X212878285Y-69703390D01*
X212878285Y-69703390D02*
X212925904Y-69751009D01*
X212925904Y-69751009D02*
X213021142Y-69798628D01*
X213021142Y-69798628D02*
X213402094Y-69798628D01*
X212497332Y-69274819D02*
X211878285Y-69274819D01*
X211878285Y-69274819D02*
X212211618Y-69655771D01*
X212211618Y-69655771D02*
X212068761Y-69655771D01*
X212068761Y-69655771D02*
X211973523Y-69703390D01*
X211973523Y-69703390D02*
X211925904Y-69751009D01*
X211925904Y-69751009D02*
X211878285Y-69846247D01*
X211878285Y-69846247D02*
X211878285Y-70084342D01*
X211878285Y-70084342D02*
X211925904Y-70179580D01*
X211925904Y-70179580D02*
X211973523Y-70227200D01*
X211973523Y-70227200D02*
X212068761Y-70274819D01*
X212068761Y-70274819D02*
X212354475Y-70274819D01*
X212354475Y-70274819D02*
X212449713Y-70227200D01*
X212449713Y-70227200D02*
X212497332Y-70179580D01*
X217368285Y-70274819D02*
X217368285Y-69274819D01*
X217368285Y-69274819D02*
X216987333Y-69274819D01*
X216987333Y-69274819D02*
X216892095Y-69322438D01*
X216892095Y-69322438D02*
X216844476Y-69370057D01*
X216844476Y-69370057D02*
X216796857Y-69465295D01*
X216796857Y-69465295D02*
X216796857Y-69608152D01*
X216796857Y-69608152D02*
X216844476Y-69703390D01*
X216844476Y-69703390D02*
X216892095Y-69751009D01*
X216892095Y-69751009D02*
X216987333Y-69798628D01*
X216987333Y-69798628D02*
X217368285Y-69798628D01*
X215844476Y-70274819D02*
X216415904Y-70274819D01*
X216130190Y-70274819D02*
X216130190Y-69274819D01*
X216130190Y-69274819D02*
X216225428Y-69417676D01*
X216225428Y-69417676D02*
X216320666Y-69512914D01*
X216320666Y-69512914D02*
X216415904Y-69560533D01*
X214987333Y-69274819D02*
X215177809Y-69274819D01*
X215177809Y-69274819D02*
X215273047Y-69322438D01*
X215273047Y-69322438D02*
X215320666Y-69370057D01*
X215320666Y-69370057D02*
X215415904Y-69512914D01*
X215415904Y-69512914D02*
X215463523Y-69703390D01*
X215463523Y-69703390D02*
X215463523Y-70084342D01*
X215463523Y-70084342D02*
X215415904Y-70179580D01*
X215415904Y-70179580D02*
X215368285Y-70227200D01*
X215368285Y-70227200D02*
X215273047Y-70274819D01*
X215273047Y-70274819D02*
X215082571Y-70274819D01*
X215082571Y-70274819D02*
X214987333Y-70227200D01*
X214987333Y-70227200D02*
X214939714Y-70179580D01*
X214939714Y-70179580D02*
X214892095Y-70084342D01*
X214892095Y-70084342D02*
X214892095Y-69846247D01*
X214892095Y-69846247D02*
X214939714Y-69751009D01*
X214939714Y-69751009D02*
X214987333Y-69703390D01*
X214987333Y-69703390D02*
X215082571Y-69655771D01*
X215082571Y-69655771D02*
X215273047Y-69655771D01*
X215273047Y-69655771D02*
X215368285Y-69703390D01*
X215368285Y-69703390D02*
X215415904Y-69751009D01*
X215415904Y-69751009D02*
X215463523Y-69846247D01*
X212830666Y-72814819D02*
X213163999Y-72338628D01*
X213402094Y-72814819D02*
X213402094Y-71814819D01*
X213402094Y-71814819D02*
X213021142Y-71814819D01*
X213021142Y-71814819D02*
X212925904Y-71862438D01*
X212925904Y-71862438D02*
X212878285Y-71910057D01*
X212878285Y-71910057D02*
X212830666Y-72005295D01*
X212830666Y-72005295D02*
X212830666Y-72148152D01*
X212830666Y-72148152D02*
X212878285Y-72243390D01*
X212878285Y-72243390D02*
X212925904Y-72291009D01*
X212925904Y-72291009D02*
X213021142Y-72338628D01*
X213021142Y-72338628D02*
X213402094Y-72338628D01*
X211973523Y-72148152D02*
X211973523Y-72814819D01*
X212211618Y-71767200D02*
X212449713Y-72481485D01*
X212449713Y-72481485D02*
X211830666Y-72481485D01*
X217368285Y-72814819D02*
X217368285Y-71814819D01*
X217368285Y-71814819D02*
X216987333Y-71814819D01*
X216987333Y-71814819D02*
X216892095Y-71862438D01*
X216892095Y-71862438D02*
X216844476Y-71910057D01*
X216844476Y-71910057D02*
X216796857Y-72005295D01*
X216796857Y-72005295D02*
X216796857Y-72148152D01*
X216796857Y-72148152D02*
X216844476Y-72243390D01*
X216844476Y-72243390D02*
X216892095Y-72291009D01*
X216892095Y-72291009D02*
X216987333Y-72338628D01*
X216987333Y-72338628D02*
X217368285Y-72338628D01*
X215844476Y-72814819D02*
X216415904Y-72814819D01*
X216130190Y-72814819D02*
X216130190Y-71814819D01*
X216130190Y-71814819D02*
X216225428Y-71957676D01*
X216225428Y-71957676D02*
X216320666Y-72052914D01*
X216320666Y-72052914D02*
X216415904Y-72100533D01*
X215225428Y-71814819D02*
X215130190Y-71814819D01*
X215130190Y-71814819D02*
X215034952Y-71862438D01*
X215034952Y-71862438D02*
X214987333Y-71910057D01*
X214987333Y-71910057D02*
X214939714Y-72005295D01*
X214939714Y-72005295D02*
X214892095Y-72195771D01*
X214892095Y-72195771D02*
X214892095Y-72433866D01*
X214892095Y-72433866D02*
X214939714Y-72624342D01*
X214939714Y-72624342D02*
X214987333Y-72719580D01*
X214987333Y-72719580D02*
X215034952Y-72767200D01*
X215034952Y-72767200D02*
X215130190Y-72814819D01*
X215130190Y-72814819D02*
X215225428Y-72814819D01*
X215225428Y-72814819D02*
X215320666Y-72767200D01*
X215320666Y-72767200D02*
X215368285Y-72719580D01*
X215368285Y-72719580D02*
X215415904Y-72624342D01*
X215415904Y-72624342D02*
X215463523Y-72433866D01*
X215463523Y-72433866D02*
X215463523Y-72195771D01*
X215463523Y-72195771D02*
X215415904Y-72005295D01*
X215415904Y-72005295D02*
X215368285Y-71910057D01*
X215368285Y-71910057D02*
X215320666Y-71862438D01*
X215320666Y-71862438D02*
X215225428Y-71814819D01*
X223619047Y-78704819D02*
X223428571Y-78704819D01*
X223428571Y-78704819D02*
X223333333Y-78752438D01*
X223333333Y-78752438D02*
X223238095Y-78847676D01*
X223238095Y-78847676D02*
X223190476Y-79038152D01*
X223190476Y-79038152D02*
X223190476Y-79371485D01*
X223190476Y-79371485D02*
X223238095Y-79561961D01*
X223238095Y-79561961D02*
X223333333Y-79657200D01*
X223333333Y-79657200D02*
X223428571Y-79704819D01*
X223428571Y-79704819D02*
X223619047Y-79704819D01*
X223619047Y-79704819D02*
X223714285Y-79657200D01*
X223714285Y-79657200D02*
X223809523Y-79561961D01*
X223809523Y-79561961D02*
X223857142Y-79371485D01*
X223857142Y-79371485D02*
X223857142Y-79038152D01*
X223857142Y-79038152D02*
X223809523Y-78847676D01*
X223809523Y-78847676D02*
X223714285Y-78752438D01*
X223714285Y-78752438D02*
X223619047Y-78704819D01*
X222761904Y-79704819D02*
X222761904Y-78704819D01*
X222761904Y-78704819D02*
X222190476Y-79704819D01*
X222190476Y-79704819D02*
X222190476Y-78704819D01*
X223952380Y-88704819D02*
X223761904Y-88704819D01*
X223761904Y-88704819D02*
X223666666Y-88752438D01*
X223666666Y-88752438D02*
X223571428Y-88847676D01*
X223571428Y-88847676D02*
X223523809Y-89038152D01*
X223523809Y-89038152D02*
X223523809Y-89371485D01*
X223523809Y-89371485D02*
X223571428Y-89561961D01*
X223571428Y-89561961D02*
X223666666Y-89657200D01*
X223666666Y-89657200D02*
X223761904Y-89704819D01*
X223761904Y-89704819D02*
X223952380Y-89704819D01*
X223952380Y-89704819D02*
X224047618Y-89657200D01*
X224047618Y-89657200D02*
X224142856Y-89561961D01*
X224142856Y-89561961D02*
X224190475Y-89371485D01*
X224190475Y-89371485D02*
X224190475Y-89038152D01*
X224190475Y-89038152D02*
X224142856Y-88847676D01*
X224142856Y-88847676D02*
X224047618Y-88752438D01*
X224047618Y-88752438D02*
X223952380Y-88704819D01*
X222761904Y-89181009D02*
X223095237Y-89181009D01*
X223095237Y-89704819D02*
X223095237Y-88704819D01*
X223095237Y-88704819D02*
X222619047Y-88704819D01*
X221904761Y-89181009D02*
X222238094Y-89181009D01*
X222238094Y-89704819D02*
X222238094Y-88704819D01*
X222238094Y-88704819D02*
X221761904Y-88704819D01*
D11*
%TO.C,D1*%
X92250000Y-98250000D02*
X92250000Y-97750000D01*
X92650000Y-98250000D02*
X92250000Y-98850000D01*
X91850000Y-98250000D02*
X92650000Y-98250000D01*
X92250000Y-98850000D02*
X91850000Y-98250000D01*
X92250000Y-98850000D02*
X92800000Y-98850000D01*
X92250000Y-98850000D02*
X91700000Y-98850000D01*
X92250000Y-99250000D02*
X92250000Y-98850000D01*
%TO.C,D2*%
X92250000Y-80750000D02*
X92250000Y-80250000D01*
X92650000Y-80750000D02*
X92250000Y-81350000D01*
X91850000Y-80750000D02*
X92650000Y-80750000D01*
X92250000Y-81350000D02*
X91850000Y-80750000D01*
X92250000Y-81350000D02*
X92800000Y-81350000D01*
X92250000Y-81350000D02*
X91700000Y-81350000D01*
X92250000Y-81750000D02*
X92250000Y-81350000D01*
%TO.C,D3*%
X92250000Y-63250000D02*
X92250000Y-62750000D01*
X92650000Y-63250000D02*
X92250000Y-63850000D01*
X91850000Y-63250000D02*
X92650000Y-63250000D01*
X92250000Y-63850000D02*
X91850000Y-63250000D01*
X92250000Y-63850000D02*
X92800000Y-63850000D01*
X92250000Y-63850000D02*
X91700000Y-63850000D01*
X92250000Y-64250000D02*
X92250000Y-63850000D01*
%TO.C,D4*%
X92250000Y-45750000D02*
X92250000Y-45250000D01*
X92650000Y-45750000D02*
X92250000Y-46350000D01*
X91850000Y-45750000D02*
X92650000Y-45750000D01*
X92250000Y-46350000D02*
X91850000Y-45750000D01*
X92250000Y-46350000D02*
X92800000Y-46350000D01*
X92250000Y-46350000D02*
X91700000Y-46350000D01*
X92250000Y-46750000D02*
X92250000Y-46350000D01*
%TO.C,D5*%
X111250000Y-98250000D02*
X111250000Y-97750000D01*
X111650000Y-98250000D02*
X111250000Y-98850000D01*
X110850000Y-98250000D02*
X111650000Y-98250000D01*
X111250000Y-98850000D02*
X110850000Y-98250000D01*
X111250000Y-98850000D02*
X111800000Y-98850000D01*
X111250000Y-98850000D02*
X110700000Y-98850000D01*
X111250000Y-99250000D02*
X111250000Y-98850000D01*
%TO.C,D6*%
X111250000Y-80750000D02*
X111250000Y-80250000D01*
X111650000Y-80750000D02*
X111250000Y-81350000D01*
X110850000Y-80750000D02*
X111650000Y-80750000D01*
X111250000Y-81350000D02*
X110850000Y-80750000D01*
X111250000Y-81350000D02*
X111800000Y-81350000D01*
X111250000Y-81350000D02*
X110700000Y-81350000D01*
X111250000Y-81750000D02*
X111250000Y-81350000D01*
%TO.C,D7*%
X111250000Y-63250000D02*
X111250000Y-62750000D01*
X111650000Y-63250000D02*
X111250000Y-63850000D01*
X110850000Y-63250000D02*
X111650000Y-63250000D01*
X111250000Y-63850000D02*
X110850000Y-63250000D01*
X111250000Y-63850000D02*
X111800000Y-63850000D01*
X111250000Y-63850000D02*
X110700000Y-63850000D01*
X111250000Y-64250000D02*
X111250000Y-63850000D01*
%TO.C,D8*%
X111250000Y-45750000D02*
X111250000Y-45250000D01*
X111650000Y-45750000D02*
X111250000Y-46350000D01*
X110850000Y-45750000D02*
X111650000Y-45750000D01*
X111250000Y-46350000D02*
X110850000Y-45750000D01*
X111250000Y-46350000D02*
X111800000Y-46350000D01*
X111250000Y-46350000D02*
X110700000Y-46350000D01*
X111250000Y-46750000D02*
X111250000Y-46350000D01*
%TO.C,D9*%
X130250000Y-93875000D02*
X130250000Y-93375000D01*
X130650000Y-93875000D02*
X130250000Y-94475000D01*
X129850000Y-93875000D02*
X130650000Y-93875000D01*
X130250000Y-94475000D02*
X129850000Y-93875000D01*
X130250000Y-94475000D02*
X130800000Y-94475000D01*
X130250000Y-94475000D02*
X129700000Y-94475000D01*
X130250000Y-94875000D02*
X130250000Y-94475000D01*
%TO.C,D10*%
X130250000Y-76375000D02*
X130250000Y-75875000D01*
X130650000Y-76375000D02*
X130250000Y-76975000D01*
X129850000Y-76375000D02*
X130650000Y-76375000D01*
X130250000Y-76975000D02*
X129850000Y-76375000D01*
X130250000Y-76975000D02*
X130800000Y-76975000D01*
X130250000Y-76975000D02*
X129700000Y-76975000D01*
X130250000Y-77375000D02*
X130250000Y-76975000D01*
%TO.C,D11*%
X130250000Y-58875000D02*
X130250000Y-58375000D01*
X130650000Y-58875000D02*
X130250000Y-59475000D01*
X129850000Y-58875000D02*
X130650000Y-58875000D01*
X130250000Y-59475000D02*
X129850000Y-58875000D01*
X130250000Y-59475000D02*
X130800000Y-59475000D01*
X130250000Y-59475000D02*
X129700000Y-59475000D01*
X130250000Y-59875000D02*
X130250000Y-59475000D01*
%TO.C,D12*%
X130250000Y-41375000D02*
X130250000Y-40875000D01*
X130650000Y-41375000D02*
X130250000Y-41975000D01*
X129850000Y-41375000D02*
X130650000Y-41375000D01*
X130250000Y-41975000D02*
X129850000Y-41375000D01*
X130250000Y-41975000D02*
X130800000Y-41975000D01*
X130250000Y-41975000D02*
X129700000Y-41975000D01*
X130250000Y-42375000D02*
X130250000Y-41975000D01*
%TO.C,D13*%
X149250000Y-91687500D02*
X149250000Y-91187500D01*
X149650000Y-91687500D02*
X149250000Y-92287500D01*
X148850000Y-91687500D02*
X149650000Y-91687500D01*
X149250000Y-92287500D02*
X148850000Y-91687500D01*
X149250000Y-92287500D02*
X149800000Y-92287500D01*
X149250000Y-92287500D02*
X148700000Y-92287500D01*
X149250000Y-92687500D02*
X149250000Y-92287500D01*
%TO.C,D14*%
X149250000Y-74187500D02*
X149250000Y-73687500D01*
X149650000Y-74187500D02*
X149250000Y-74787500D01*
X148850000Y-74187500D02*
X149650000Y-74187500D01*
X149250000Y-74787500D02*
X148850000Y-74187500D01*
X149250000Y-74787500D02*
X149800000Y-74787500D01*
X149250000Y-74787500D02*
X148700000Y-74787500D01*
X149250000Y-75187500D02*
X149250000Y-74787500D01*
%TO.C,D15*%
X149250000Y-56687500D02*
X149250000Y-56187500D01*
X149650000Y-56687500D02*
X149250000Y-57287500D01*
X148850000Y-56687500D02*
X149650000Y-56687500D01*
X149250000Y-57287500D02*
X148850000Y-56687500D01*
X149250000Y-57287500D02*
X149800000Y-57287500D01*
X149250000Y-57287500D02*
X148700000Y-57287500D01*
X149250000Y-57687500D02*
X149250000Y-57287500D01*
%TO.C,D16*%
X149250000Y-39187500D02*
X149250000Y-38687500D01*
X149650000Y-39187500D02*
X149250000Y-39787500D01*
X148850000Y-39187500D02*
X149650000Y-39187500D01*
X149250000Y-39787500D02*
X148850000Y-39187500D01*
X149250000Y-39787500D02*
X149800000Y-39787500D01*
X149250000Y-39787500D02*
X148700000Y-39787500D01*
X149250000Y-40187500D02*
X149250000Y-39787500D01*
%TO.C,D17*%
X168250000Y-93875000D02*
X168250000Y-93375000D01*
X168650000Y-93875000D02*
X168250000Y-94475000D01*
X167850000Y-93875000D02*
X168650000Y-93875000D01*
X168250000Y-94475000D02*
X167850000Y-93875000D01*
X168250000Y-94475000D02*
X168800000Y-94475000D01*
X168250000Y-94475000D02*
X167700000Y-94475000D01*
X168250000Y-94875000D02*
X168250000Y-94475000D01*
%TO.C,D18*%
X168250000Y-76375000D02*
X168250000Y-75875000D01*
X168650000Y-76375000D02*
X168250000Y-76975000D01*
X167850000Y-76375000D02*
X168650000Y-76375000D01*
X168250000Y-76975000D02*
X167850000Y-76375000D01*
X168250000Y-76975000D02*
X168800000Y-76975000D01*
X168250000Y-76975000D02*
X167700000Y-76975000D01*
X168250000Y-77375000D02*
X168250000Y-76975000D01*
%TO.C,D19*%
X168250000Y-58875000D02*
X168250000Y-58375000D01*
X168650000Y-58875000D02*
X168250000Y-59475000D01*
X167850000Y-58875000D02*
X168650000Y-58875000D01*
X168250000Y-59475000D02*
X167850000Y-58875000D01*
X168250000Y-59475000D02*
X168800000Y-59475000D01*
X168250000Y-59475000D02*
X167700000Y-59475000D01*
X168250000Y-59875000D02*
X168250000Y-59475000D01*
%TO.C,D20*%
X168250000Y-41375000D02*
X168250000Y-40875000D01*
X168650000Y-41375000D02*
X168250000Y-41975000D01*
X167850000Y-41375000D02*
X168650000Y-41375000D01*
X168250000Y-41975000D02*
X167850000Y-41375000D01*
X168250000Y-41975000D02*
X168800000Y-41975000D01*
X168250000Y-41975000D02*
X167700000Y-41975000D01*
X168250000Y-42375000D02*
X168250000Y-41975000D01*
%TO.C,D21*%
X187250000Y-96062500D02*
X187250000Y-95562500D01*
X187650000Y-96062500D02*
X187250000Y-96662500D01*
X186850000Y-96062500D02*
X187650000Y-96062500D01*
X187250000Y-96662500D02*
X186850000Y-96062500D01*
X187250000Y-96662500D02*
X187800000Y-96662500D01*
X187250000Y-96662500D02*
X186700000Y-96662500D01*
X187250000Y-97062500D02*
X187250000Y-96662500D01*
%TO.C,D22*%
X187250000Y-78562500D02*
X187250000Y-78062500D01*
X187650000Y-78562500D02*
X187250000Y-79162500D01*
X186850000Y-78562500D02*
X187650000Y-78562500D01*
X187250000Y-79162500D02*
X186850000Y-78562500D01*
X187250000Y-79162500D02*
X187800000Y-79162500D01*
X187250000Y-79162500D02*
X186700000Y-79162500D01*
X187250000Y-79562500D02*
X187250000Y-79162500D01*
%TO.C,D23*%
X187250000Y-61062500D02*
X187250000Y-60562500D01*
X187650000Y-61062500D02*
X187250000Y-61662500D01*
X186850000Y-61062500D02*
X187650000Y-61062500D01*
X187250000Y-61662500D02*
X186850000Y-61062500D01*
X187250000Y-61662500D02*
X187800000Y-61662500D01*
X187250000Y-61662500D02*
X186700000Y-61662500D01*
X187250000Y-62062500D02*
X187250000Y-61662500D01*
%TO.C,D24*%
X187250000Y-43562500D02*
X187250000Y-43062500D01*
X187650000Y-43562500D02*
X187250000Y-44162500D01*
X186850000Y-43562500D02*
X187650000Y-43562500D01*
X187250000Y-44162500D02*
X186850000Y-43562500D01*
X187250000Y-44162500D02*
X187800000Y-44162500D01*
X187250000Y-44162500D02*
X186700000Y-44162500D01*
X187250000Y-44562500D02*
X187250000Y-44162500D01*
%TO.C,D25*%
X126450000Y-116187500D02*
X126450000Y-115687500D01*
X126850000Y-116187500D02*
X126450000Y-116787500D01*
X126050000Y-116187500D02*
X126850000Y-116187500D01*
X126450000Y-116787500D02*
X126050000Y-116187500D01*
X126450000Y-116787500D02*
X127000000Y-116787500D01*
X126450000Y-116787500D02*
X125900000Y-116787500D01*
X126450000Y-117187500D02*
X126450000Y-116787500D01*
%TO.C,D26*%
X145450000Y-112687500D02*
X145450000Y-112187500D01*
X145850000Y-112687500D02*
X145450000Y-113287500D01*
X145050000Y-112687500D02*
X145850000Y-112687500D01*
X145450000Y-113287500D02*
X145050000Y-112687500D01*
X145450000Y-113287500D02*
X146000000Y-113287500D01*
X145450000Y-113287500D02*
X144900000Y-113287500D01*
X145450000Y-113687500D02*
X145450000Y-113287500D01*
%TO.C,D27*%
X164450000Y-112687500D02*
X164450000Y-112187500D01*
X164850000Y-112687500D02*
X164450000Y-113287500D01*
X164050000Y-112687500D02*
X164850000Y-112687500D01*
X164450000Y-113287500D02*
X164050000Y-112687500D01*
X164450000Y-113287500D02*
X165000000Y-113287500D01*
X164450000Y-113287500D02*
X163900000Y-113287500D01*
X164450000Y-113687500D02*
X164450000Y-113287500D01*
%TO.C,D28*%
X184296505Y-116757819D02*
X184425914Y-116274856D01*
X184682875Y-116861346D02*
X184141213Y-117337374D01*
X183910134Y-116654291D02*
X184682875Y-116861346D01*
X184141213Y-117337374D02*
X183910134Y-116654291D01*
X184141213Y-117337374D02*
X184672473Y-117479725D01*
X184141213Y-117337374D02*
X183609954Y-117195024D01*
X184037686Y-117723744D02*
X184141213Y-117337374D01*
%TO.C,D29*%
X204120400Y-123045594D02*
X204370400Y-122612581D01*
X204466810Y-123245594D02*
X203820400Y-123565209D01*
X203773990Y-122845594D02*
X204466810Y-123245594D01*
X203820400Y-123565209D02*
X203773990Y-122845594D01*
X203820400Y-123565209D02*
X204296714Y-123840209D01*
X203820400Y-123565209D02*
X203344086Y-123290209D01*
X203620400Y-123911619D02*
X203820400Y-123565209D01*
D12*
%TO.C,MCU1*%
X208414000Y-43090000D02*
X205754000Y-43090000D01*
X208414000Y-43090000D02*
X208414000Y-73690000D01*
X208414000Y-73690000D02*
X205754000Y-73690000D01*
X205754000Y-43090000D02*
X205754000Y-73690000D01*
X223654000Y-43090000D02*
X220994000Y-43090000D01*
X223654000Y-43090000D02*
X223654000Y-73690000D01*
X223654000Y-73690000D02*
X220994000Y-73690000D01*
X220994000Y-43090000D02*
X220994000Y-73690000D01*
X205754000Y-45690000D02*
X208414000Y-45690000D01*
%TO.C,DISP1*%
X221057000Y-74870000D02*
X221057000Y-77530000D01*
X221057000Y-74870000D02*
X208237000Y-74870000D01*
X221057000Y-77530000D02*
X208237000Y-77530000D01*
X208237000Y-74870000D02*
X208237000Y-77530000D01*
%TO.C,PWR1*%
X221575000Y-85650000D02*
X221575000Y-85850000D01*
X223415000Y-87700000D02*
X222625000Y-87700000D01*
X222625000Y-80800000D02*
X223415000Y-80800000D01*
X221575000Y-82650000D02*
X221575000Y-84350000D01*
X224425000Y-81400000D02*
X224425000Y-87100000D01*
D11*
%TO.C,RST1*%
X212354000Y-39712500D02*
X212354000Y-39462500D01*
X212354000Y-42712500D02*
X212354000Y-42962500D01*
X212604000Y-39462500D02*
X212354000Y-39462500D01*
X212604000Y-42962500D02*
X212354000Y-42962500D01*
X216804000Y-39462500D02*
X217054000Y-39462500D01*
X216804000Y-42962500D02*
X217054000Y-42962500D01*
X217054000Y-39712500D02*
X217054000Y-39462500D01*
X217054000Y-42712500D02*
X217054000Y-42962500D01*
%TO.C,JST1*%
X219150000Y-82500000D02*
X219150000Y-83500000D01*
X219150000Y-85500000D02*
X219150000Y-84500000D01*
X218650000Y-85000000D02*
X219650000Y-85000000D01*
D12*
X210290000Y-86060000D02*
X210290000Y-87060000D01*
X210290000Y-87060000D02*
X211290000Y-87060000D01*
X210290000Y-81860000D02*
X210290000Y-80940000D01*
X210290000Y-80940000D02*
X211290000Y-80940000D01*
X218110000Y-86140000D02*
X218110000Y-87060000D01*
X218110000Y-87060000D02*
X217110000Y-87060000D01*
X218110000Y-81860000D02*
X218110000Y-80940000D01*
X218110000Y-80940000D02*
X217110000Y-80940000D01*
%TD*%
M02*
