M48
; DRILL file {KiCad 8.0.7} date 2025-02-11T23:53:43-0300
; FORMAT={-:-/ absolute / inch / decimal}
; #@! TF.CreationDate,2025-02-11T23:53:43-03:00
; #@! TF.GenerationSoftware,Kicad,Pcbnew,8.0.7
; #@! TF.FileFunction,Plated,1,2,PTH
FMAT,2
INCH
; #@! TA.AperFunction,Plated,PTH,ViaDrill
T1C0.0118
; #@! TA.AperFunction,Plated,PTH,ComponentDrill
T2C0.0157
; #@! TA.AperFunction,Plated,PTH,ComponentDrill
T3C0.0295
; #@! TA.AperFunction,Plated,PTH,ComponentDrill
T4C0.0394
%
G90
G05
T1
X3.6319Y-3.4036
X3.6762Y-1.876
X3.9687Y-2.5862
X3.9727Y-3.9608
X3.9841Y-3.332
X3.9846Y-2.6333
X3.985Y-4.0318
X4.0354Y-1.9151
X4.3314Y-1.8813
X4.3335Y-3.9472
X4.3344Y-2.5581
X4.3352Y-3.2539
X4.7221Y-1.7461
X4.7221Y-1.9523
X4.7835Y-1.9142
X4.8339Y-2.6273
X4.834Y-3.3274
X4.8341Y-4.0275
X5.0038Y-3.9048
X5.0223Y-4.6491
X5.0596Y-1.876
X5.0596Y-3.9209
X5.0844Y-2.394
X5.1641Y-3.2323
X5.4327Y-4.7276
X5.4806Y-3.8957
X5.481Y-1.8106
X5.481Y-2.4911
X5.481Y-3.2012
X5.7704Y-4.5028
X5.8405Y-1.6761
X5.8405Y-3.0817
X5.8405Y-3.7855
X5.8673Y-2.394
X6.0796Y-4.6097
X6.3299Y-1.6915
X6.3299Y-3.0848
X6.3299Y-2.3902
X6.3302Y-3.783
X6.4302Y-4.5113
X6.4408Y-2.3816
X6.5758Y-1.6939
X6.5798Y-3.7742
X6.624Y-3.0104
X6.9291Y-4.6097
X7.0402Y-2.7612
X7.078Y-1.8022
X7.078Y-2.4911
X7.078Y-3.1801
X7.078Y-3.8691
X7.0846Y-4.4738
X7.2364Y-4.8217
X7.3143Y-3.0669
X7.372Y-3.7942
X7.4155Y-2.4788
X7.4175Y-1.7899
X7.4838Y-2.524
X7.5099Y-2.3949
X7.6412Y-4.8102
X7.7249Y-3.915
X7.7253Y-1.9261
X7.7495Y-3.2062
X7.7569Y-2.6366
X7.951Y-4.827
X8.001Y-2.7988
X8.001Y-3.8189
X8.0881Y-3.0506
X8.1122Y-3.2108
X8.1878Y-2.0054
X8.2313Y-2.902
X8.2983Y-1.6649
X8.2992Y-1.5977
X8.3073Y-2.7988
X8.3461Y-5.2343
X8.3597Y-3.1472
X8.3944Y-3.0996
X8.4774Y-3.2976
X8.5075Y-3.1247
X8.5152Y-3.2108
X8.6152Y-3.1734
X8.6381Y-3.2418
X8.6614Y-3.2874
X8.8015Y-2.476
T2
X8.3191Y-1.7488
X8.3191Y-1.8488
X8.3191Y-1.9488
X8.3191Y-2.0488
X8.3191Y-2.1488
X8.3191Y-2.2488
X8.3191Y-2.3488
X8.3191Y-2.4488
X8.3191Y-2.5488
X8.3191Y-2.6488
X8.3191Y-2.7488
X8.3191Y-2.8488
X8.5868Y-1.7488
X8.5868Y-1.8488
X8.5868Y-1.9488
X8.5868Y-2.0488
X8.5868Y-2.1488
X8.5868Y-2.2488
X8.5868Y-2.3488
X8.5868Y-2.4488
X8.5868Y-2.5488
X8.5868Y-2.6488
X8.5868Y-2.7488
X8.5868Y-2.8488
T3
X8.3366Y-3.2677
X8.3366Y-3.3465
T4
X8.1529Y-1.7488
X8.1529Y-1.8488
X8.1529Y-1.9488
X8.1529Y-2.0488
X8.1529Y-2.1488
X8.1529Y-2.2488
X8.1529Y-2.3488
X8.1529Y-2.4488
X8.1529Y-2.5488
X8.1529Y-2.6488
X8.1529Y-2.7488
X8.1529Y-2.8488
X8.2507Y-3.0
X8.3507Y-3.0
X8.4507Y-3.0
X8.5507Y-3.0
X8.6507Y-3.0
X8.7529Y-1.7488
X8.7529Y-1.8488
X8.7529Y-1.9488
X8.7529Y-2.0488
X8.7529Y-2.1488
X8.7529Y-2.2488
X8.7529Y-2.3488
X8.7529Y-2.4488
X8.7529Y-2.5488
X8.7529Y-2.6488
X8.7529Y-2.7488
X8.7529Y-2.8488
M30
