0
SECTION
2
HEADER
9
$INSUNITS
70
4
0
ENDSEC
0
SECTION
2
TABLES
0
TABLE
2
LTYPE
0
LTYPE
72
65
70
64
2
CONTINUOUS
3
______
73
0
40
0
0
ENDTAB
0
TABLE
2
LAYER
0
ENDTAB
0
ENDSEC
0
SECTION
2
ENTITIES
0
LINE
8
0
10
97.75
20
-127
11
107
21
-127
0
LINE
8
0
10
107
20
-127
11
107
21
-113
0
LINE
8
0
10
107
20
-113
11
93
21
-113
0
LINE
8
0
10
93
20
-113
11
93
21
-124.25
0
LINE
8
0
10
93
20
-108.5
11
107
21
-108.5
0
LINE
8
0
10
107
20
-108.5
11
107
21
-94.5
0
LINE
8
0
10
107
20
-94.5
11
93
21
-94.5
0
LINE
8
0
10
93
20
-94.5
11
93
21
-108.5
0
LINE
8
0
10
93
20
-90
11
107
21
-90
0
LINE
8
0
10
107
20
-90
11
107
21
-76
0
LINE
8
0
10
107
20
-76
11
93
21
-76
0
LINE
8
0
10
93
20
-76
11
93
21
-90
0
LINE
8
0
10
93
20
-71.5
11
107
21
-71.5
0
LINE
8
0
10
107
20
-71.5
11
107
21
-57.5
0
LINE
8
0
10
107
20
-57.5
11
93
21
-57.5
0
LINE
8
0
10
93
20
-57.5
11
93
21
-71.5
0
LINE
8
0
10
111.5
20
-127
11
125.5
21
-127
0
LINE
8
0
10
125.5
20
-127
11
125.5
21
-113
0
LINE
8
0
10
125.5
20
-113
11
111.5
21
-113
0
LINE
8
0
10
111.5
20
-113
11
111.5
21
-127
0
LINE
8
0
10
111.5
20
-108.5
11
125.5
21
-108.5
0
LINE
8
0
10
125.5
20
-108.5
11
125.5
21
-94.5
0
LINE
8
0
10
125.5
20
-94.5
11
111.5
21
-94.5
0
LINE
8
0
10
111.5
20
-94.5
11
111.5
21
-108.5
0
LINE
8
0
10
111.5
20
-90
11
125.5
21
-90
0
LINE
8
0
10
125.5
20
-90
11
125.5
21
-76
0
LINE
8
0
10
125.5
20
-76
11
111.5
21
-76
0
LINE
8
0
10
111.5
20
-76
11
111.5
21
-90
0
LINE
8
0
10
111.5
20
-71.5
11
125.5
21
-71.5
0
LINE
8
0
10
125.5
20
-71.5
11
125.5
21
-57.5
0
LINE
8
0
10
125.5
20
-57.5
11
111.5
21
-57.5
0
LINE
8
0
10
111.5
20
-57.5
11
111.5
21
-71.5
0
LINE
8
0
10
130
20
-122.375
11
144
21
-122.375
0
LINE
8
0
10
144
20
-122.375
11
144
21
-108.375
0
LINE
8
0
10
144
20
-108.375
11
130
21
-108.375
0
LINE
8
0
10
130
20
-108.375
11
130
21
-122.375
0
LINE
8
0
10
130
20
-103.875
11
144
21
-103.875
0
LINE
8
0
10
144
20
-103.875
11
144
21
-89.875
0
LINE
8
0
10
144
20
-89.875
11
130
21
-89.875
0
LINE
8
0
10
130
20
-89.875
11
130
21
-103.875
0
LINE
8
0
10
130
20
-85.375
11
144
21
-85.375
0
LINE
8
0
10
144
20
-85.375
11
144
21
-71.375
0
LINE
8
0
10
144
20
-71.375
11
130
21
-71.375
0
LINE
8
0
10
130
20
-71.375
11
130
21
-85.375
0
LINE
8
0
10
130
20
-66.875
11
144
21
-66.875
0
LINE
8
0
10
144
20
-66.875
11
144
21
-52.875
0
LINE
8
0
10
144
20
-52.875
11
130
21
-52.875
0
LINE
8
0
10
130
20
-52.875
11
130
21
-66.875
0
LINE
8
0
10
148.5
20
-120.0625
11
162.5
21
-120.0625
0
LINE
8
0
10
162.5
20
-120.0625
11
162.5
21
-106.0625
0
LINE
8
0
10
162.5
20
-106.0625
11
148.5
21
-106.0625
0
LINE
8
0
10
148.5
20
-106.0625
11
148.5
21
-120.0625
0
LINE
8
0
10
148.5
20
-101.5625
11
162.5
21
-101.5625
0
LINE
8
0
10
162.5
20
-101.5625
11
162.5
21
-87.5625
0
LINE
8
0
10
162.5
20
-87.5625
11
148.5
21
-87.5625
0
LINE
8
0
10
148.5
20
-87.5625
11
148.5
21
-101.5625
0
LINE
8
0
10
148.5
20
-83.0625
11
162.5
21
-83.0625
0
LINE
8
0
10
162.5
20
-83.0625
11
162.5
21
-69.0625
0
LINE
8
0
10
162.5
20
-69.0625
11
148.5
21
-69.0625
0
LINE
8
0
10
148.5
20
-69.0625
11
148.5
21
-83.0625
0
LINE
8
0
10
148.5
20
-64.5625
11
162.5
21
-64.5625
0
LINE
8
0
10
162.5
20
-64.5625
11
162.5
21
-50.5625
0
LINE
8
0
10
162.5
20
-50.5625
11
148.5
21
-50.5625
0
LINE
8
0
10
148.5
20
-50.5625
11
148.5
21
-64.5625
0
LINE
8
0
10
167
20
-122.375
11
181
21
-122.375
0
LINE
8
0
10
181
20
-122.375
11
181
21
-108.375
0
LINE
8
0
10
181
20
-108.375
11
167
21
-108.375
0
LINE
8
0
10
167
20
-108.375
11
167
21
-122.375
0
LINE
8
0
10
167
20
-103.875
11
181
21
-103.875
0
LINE
8
0
10
181
20
-103.875
11
181
21
-89.875
0
LINE
8
0
10
181
20
-89.875
11
167
21
-89.875
0
LINE
8
0
10
167
20
-89.875
11
167
21
-103.875
0
LINE
8
0
10
167
20
-85.375
11
181
21
-85.375
0
LINE
8
0
10
181
20
-85.375
11
181
21
-71.375
0
LINE
8
0
10
181
20
-71.375
11
167
21
-71.375
0
LINE
8
0
10
167
20
-71.375
11
167
21
-85.375
0
LINE
8
0
10
167
20
-66.875
11
181
21
-66.875
0
LINE
8
0
10
181
20
-66.875
11
181
21
-52.875
0
LINE
8
0
10
181
20
-52.875
11
167
21
-52.875
0
LINE
8
0
10
167
20
-52.875
11
167
21
-66.875
0
LINE
8
0
10
185.5
20
-124.6875
11
196.75
21
-124.6875
0
LINE
8
0
10
199.5
20
-119.9375
11
199.5
21
-110.6875
0
LINE
8
0
10
199.5
20
-110.6875
11
185.5
21
-110.6875
0
LINE
8
0
10
185.5
20
-110.6875
11
185.5
21
-124.6875
0
LINE
8
0
10
185.5
20
-106.1875
11
199.5
21
-106.1875
0
LINE
8
0
10
199.5
20
-106.1875
11
199.5
21
-92.1875
0
LINE
8
0
10
199.5
20
-92.1875
11
185.5
21
-92.1875
0
LINE
8
0
10
185.5
20
-92.1875
11
185.5
21
-106.1875
0
LINE
8
0
10
185.5
20
-87.6875
11
199.5
21
-87.6875
0
LINE
8
0
10
199.5
20
-87.6875
11
199.5
21
-73.6875
0
LINE
8
0
10
199.5
20
-73.6875
11
185.5
21
-73.6875
0
LINE
8
0
10
185.5
20
-73.6875
11
185.5
21
-87.6875
0
LINE
8
0
10
185.5
20
-69.1875
11
199.5
21
-69.1875
0
LINE
8
0
10
199.5
20
-69.1875
11
199.5
21
-56.775
0
LINE
8
0
10
195
20
-55.1875
11
185.5
21
-55.1875
0
LINE
8
0
10
185.5
20
-55.1875
11
185.5
21
-69.1875
0
LINE
8
0
10
157.75
20
-142.725
11
171.75
21
-142.725
0
LINE
8
0
10
171.75
20
-142.725
11
171.75
21
-128.725
0
LINE
8
0
10
171.75
20
-128.725
11
157.75
21
-128.725
0
LINE
8
0
10
157.75
20
-128.725
11
157.75
21
-142.725
0
LINE
8
0
10
175.2656764
20
-142.7428756
11
189.1459045
21
-144.5702423
0
LINE
8
0
10
189.1459045
20
-144.5702423
11
190.9732712
21
-130.6900142
0
LINE
8
0
10
190.9732712
20
-130.6900142
11
177.0930431
21
-128.8626475
0
LINE
8
0
10
177.0930431
20
-128.8626475
11
175.2656764
21
-142.7428756
0
LINE
8
0
10
192.5008777
20
-145.0213338
11
206.0238393
21
-148.6448004
0
LINE
8
0
10
206.0238393
20
-148.6448004
11
209.6473059
21
-135.1218388
0
LINE
8
0
10
209.6473059
20
-135.1218388
11
205.2272933
21
-133.9375
0
LINE
8
0
10
196.75
20
-131.6660161
11
196.1243443
21
-131.4983722
0
LINE
8
0
10
196.1243443
20
-131.4983722
11
192.5008777
21
-145.0213338
0
LINE
8
0
10
99
20
-48.4
11
113
21
-48.4
0
LINE
8
0
10
113
20
-48.4
11
113
21
-34.4
0
LINE
8
0
10
113
20
-34.4
11
99
21
-34.4
0
LINE
8
0
10
99
20
-34.4
11
99
21
-48.4
0
LINE
8
0
10
180
20
-46.775
11
194
21
-46.775
0
LINE
8
0
10
194
20
-46.775
11
194
21
-32.775
0
LINE
8
0
10
194
20
-32.775
11
180
21
-32.775
0
LINE
8
0
10
180
20
-32.775
11
180
21
-46.775
0
LINE
8
0
10
120.7
20
-43.4
11
134.7
21
-43.4
0
LINE
8
0
10
134.7
20
-43.4
11
134.7
21
-29.4
0
LINE
8
0
10
134.7
20
-29.4
11
120.7
21
-29.4
0
LINE
8
0
10
120.7
20
-29.4
11
120.7
21
-43.4
0
LINE
8
0
10
199.5
20
-56.775
11
209
21
-56.775
0
LINE
8
0
10
209
20
-56.775
11
209
21
-42.775
0
LINE
8
0
10
209
20
-42.775
11
195
21
-42.775
0
LINE
8
0
10
195
20
-42.775
11
195
21
-55.1875
0
LINE
8
0
10
83.75
20
-138.25
11
97.75
21
-138.25
0
LINE
8
0
10
97.75
20
-138.25
11
97.75
21
-127
0
LINE
8
0
10
93
20
-124.25
11
83.75
21
-124.25
0
LINE
8
0
10
83.75
20
-124.25
11
83.75
21
-138.25
0
LINE
8
0
10
205.2272933
20
-133.9375
11
210.75
21
-133.9375
0
LINE
8
0
10
210.75
20
-133.9375
11
210.75
21
-119.9375
0
LINE
8
0
10
210.75
20
-119.9375
11
199.5
21
-119.9375
0
LINE
8
0
10
196.75
20
-124.6875
11
196.75
21
-131.6660161
0
LINE
8
0
10
358
20
-127
11
367.25
21
-127
0
LINE
8
0
10
372
20
-124.25
11
372
21
-113
0
LINE
8
0
10
372
20
-113
11
358
21
-113
0
LINE
8
0
10
358
20
-113
11
358
21
-127
0
LINE
8
0
10
358
20
-108.5
11
372
21
-108.5
0
LINE
8
0
10
372
20
-108.5
11
372
21
-94.5
0
LINE
8
0
10
372
20
-94.5
11
358
21
-94.5
0
LINE
8
0
10
358
20
-94.5
11
358
21
-108.5
0
LINE
8
0
10
358
20
-90
11
372
21
-90
0
LINE
8
0
10
372
20
-90
11
372
21
-76
0
LINE
8
0
10
372
20
-76
11
358
21
-76
0
LINE
8
0
10
358
20
-76
11
358
21
-90
0
LINE
8
0
10
358
20
-71.5
11
372
21
-71.5
0
LINE
8
0
10
372
20
-71.5
11
372
21
-57.5
0
LINE
8
0
10
372
20
-57.5
11
358
21
-57.5
0
LINE
8
0
10
358
20
-57.5
11
358
21
-71.5
0
LINE
8
0
10
339.5
20
-127
11
353.5
21
-127
0
LINE
8
0
10
353.5
20
-127
11
353.5
21
-113
0
LINE
8
0
10
353.5
20
-113
11
339.5
21
-113
0
LINE
8
0
10
339.5
20
-113
11
339.5
21
-127
0
LINE
8
0
10
339.5
20
-108.5
11
353.5
21
-108.5
0
LINE
8
0
10
353.5
20
-108.5
11
353.5
21
-94.5
0
LINE
8
0
10
353.5
20
-94.5
11
339.5
21
-94.5
0
LINE
8
0
10
339.5
20
-94.5
11
339.5
21
-108.5
0
LINE
8
0
10
339.5
20
-90
11
353.5
21
-90
0
LINE
8
0
10
353.5
20
-90
11
353.5
21
-76
0
LINE
8
0
10
353.5
20
-76
11
339.5
21
-76
0
LINE
8
0
10
339.5
20
-76
11
339.5
21
-90
0
LINE
8
0
10
339.5
20
-71.5
11
353.5
21
-71.5
0
LINE
8
0
10
353.5
20
-71.5
11
353.5
21
-57.5
0
LINE
8
0
10
353.5
20
-57.5
11
339.5
21
-57.5
0
LINE
8
0
10
339.5
20
-57.5
11
339.5
21
-71.5
0
LINE
8
0
10
321
20
-122.375
11
335
21
-122.375
0
LINE
8
0
10
335
20
-122.375
11
335
21
-108.375
0
LINE
8
0
10
335
20
-108.375
11
321
21
-108.375
0
LINE
8
0
10
321
20
-108.375
11
321
21
-122.375
0
LINE
8
0
10
321
20
-103.875
11
335
21
-103.875
0
LINE
8
0
10
335
20
-103.875
11
335
21
-89.875
0
LINE
8
0
10
335
20
-89.875
11
321
21
-89.875
0
LINE
8
0
10
321
20
-89.875
11
321
21
-103.875
0
LINE
8
0
10
321
20
-85.375
11
335
21
-85.375
0
LINE
8
0
10
335
20
-85.375
11
335
21
-71.375
0
LINE
8
0
10
335
20
-71.375
11
321
21
-71.375
0
LINE
8
0
10
321
20
-71.375
11
321
21
-85.375
0
LINE
8
0
10
321
20
-66.875
11
335
21
-66.875
0
LINE
8
0
10
335
20
-66.875
11
335
21
-52.875
0
LINE
8
0
10
335
20
-52.875
11
321
21
-52.875
0
LINE
8
0
10
321
20
-52.875
11
321
21
-66.875
0
LINE
8
0
10
302.5
20
-120.0625
11
316.5
21
-120.0625
0
LINE
8
0
10
316.5
20
-120.0625
11
316.5
21
-106.0625
0
LINE
8
0
10
316.5
20
-106.0625
11
302.5
21
-106.0625
0
LINE
8
0
10
302.5
20
-106.0625
11
302.5
21
-120.0625
0
LINE
8
0
10
302.5
20
-101.5625
11
316.5
21
-101.5625
0
LINE
8
0
10
316.5
20
-101.5625
11
316.5
21
-87.5625
0
LINE
8
0
10
316.5
20
-87.5625
11
302.5
21
-87.5625
0
LINE
8
0
10
302.5
20
-87.5625
11
302.5
21
-101.5625
0
LINE
8
0
10
302.5
20
-83.0625
11
316.5
21
-83.0625
0
LINE
8
0
10
316.5
20
-83.0625
11
316.5
21
-69.0625
0
LINE
8
0
10
316.5
20
-69.0625
11
302.5
21
-69.0625
0
LINE
8
0
10
302.5
20
-69.0625
11
302.5
21
-83.0625
0
LINE
8
0
10
302.5
20
-64.5625
11
316.5
21
-64.5625
0
LINE
8
0
10
316.5
20
-64.5625
11
316.5
21
-50.5625
0
LINE
8
0
10
316.5
20
-50.5625
11
302.5
21
-50.5625
0
LINE
8
0
10
302.5
20
-50.5625
11
302.5
21
-64.5625
0
LINE
8
0
10
284
20
-122.375
11
298
21
-122.375
0
LINE
8
0
10
298
20
-122.375
11
298
21
-108.375
0
LINE
8
0
10
298
20
-108.375
11
284
21
-108.375
0
LINE
8
0
10
284
20
-108.375
11
284
21
-122.375
0
LINE
8
0
10
284
20
-103.875
11
298
21
-103.875
0
LINE
8
0
10
298
20
-103.875
11
298
21
-89.875
0
LINE
8
0
10
298
20
-89.875
11
284
21
-89.875
0
LINE
8
0
10
284
20
-89.875
11
284
21
-103.875
0
LINE
8
0
10
284
20
-85.375
11
298
21
-85.375
0
LINE
8
0
10
298
20
-85.375
11
298
21
-71.375
0
LINE
8
0
10
298
20
-71.375
11
284
21
-71.375
0
LINE
8
0
10
284
20
-71.375
11
284
21
-85.375
0
LINE
8
0
10
284
20
-66.875
11
298
21
-66.875
0
LINE
8
0
10
298
20
-66.875
11
298
21
-52.875
0
LINE
8
0
10
298
20
-52.875
11
284
21
-52.875
0
LINE
8
0
10
284
20
-52.875
11
284
21
-66.875
0
LINE
8
0
10
268.25
20
-124.6875
11
279.5
21
-124.6875
0
LINE
8
0
10
279.5
20
-124.6875
11
279.5
21
-110.6875
0
LINE
8
0
10
279.5
20
-110.6875
11
265.5
21
-110.6875
0
LINE
8
0
10
265.5
20
-110.6875
11
265.5
21
-119.9375
0
LINE
8
0
10
265.5
20
-106.1875
11
279.5
21
-106.1875
0
LINE
8
0
10
279.5
20
-106.1875
11
279.5
21
-92.1875
0
LINE
8
0
10
279.5
20
-92.1875
11
265.5
21
-92.1875
0
LINE
8
0
10
265.5
20
-92.1875
11
265.5
21
-106.1875
0
LINE
8
0
10
265.5
20
-87.6875
11
279.5
21
-87.6875
0
LINE
8
0
10
279.5
20
-87.6875
11
279.5
21
-73.6875
0
LINE
8
0
10
279.5
20
-73.6875
11
265.5
21
-73.6875
0
LINE
8
0
10
265.5
20
-73.6875
11
265.5
21
-87.6875
0
LINE
8
0
10
265.5
20
-69.1875
11
279.5
21
-69.1875
0
LINE
8
0
10
279.5
20
-69.1875
11
279.5
21
-55.1875
0
LINE
8
0
10
279.5
20
-55.1875
11
270
21
-55.1875
0
LINE
8
0
10
265.5
20
-56.775
11
265.5
21
-69.1875
0
LINE
8
0
10
293.25
20
-142.725
11
307.25
21
-142.725
0
LINE
8
0
10
307.25
20
-142.725
11
307.25
21
-128.725
0
LINE
8
0
10
307.25
20
-128.725
11
293.25
21
-128.725
0
LINE
8
0
10
293.25
20
-128.725
11
293.25
21
-142.725
0
LINE
8
0
10
275.8540955
20
-144.5702423
11
289.7343236
21
-142.7428756
0
LINE
8
0
10
289.7343236
20
-142.7428756
11
287.9069569
21
-128.8626475
0
LINE
8
0
10
287.9069569
20
-128.8626475
11
274.0267288
21
-130.6900142
0
LINE
8
0
10
274.0267288
20
-130.6900142
11
275.8540955
21
-144.5702423
0
LINE
8
0
10
258.9761607
20
-148.6448004
11
272.4991223
21
-145.0213338
0
LINE
8
0
10
272.4991223
20
-145.0213338
11
268.8756557
21
-131.4983722
0
LINE
8
0
10
268.8756557
20
-131.4983722
11
268.25
21
-131.6660161
0
LINE
8
0
10
259.7727067
20
-133.9375
11
255.3526941
21
-135.1218388
0
LINE
8
0
10
255.3526941
20
-135.1218388
11
258.9761607
21
-148.6448004
0
LINE
8
0
10
352
20
-48.4
11
366
21
-48.4
0
LINE
8
0
10
366
20
-48.4
11
366
21
-34.4
0
LINE
8
0
10
366
20
-34.4
11
352
21
-34.4
0
LINE
8
0
10
352
20
-34.4
11
352
21
-48.4
0
LINE
8
0
10
271
20
-46.775
11
285
21
-46.775
0
LINE
8
0
10
285
20
-46.775
11
285
21
-32.775
0
LINE
8
0
10
285
20
-32.775
11
271
21
-32.775
0
LINE
8
0
10
271
20
-32.775
11
271
21
-46.775
0
LINE
8
0
10
330.3
20
-43.4
11
344.3
21
-43.4
0
LINE
8
0
10
344.3
20
-43.4
11
344.3
21
-29.4
0
LINE
8
0
10
344.3
20
-29.4
11
330.3
21
-29.4
0
LINE
8
0
10
330.3
20
-29.4
11
330.3
21
-43.4
0
LINE
8
0
10
256
20
-56.775
11
265.5
21
-56.775
0
LINE
8
0
10
270
20
-55.1875
11
270
21
-42.775
0
LINE
8
0
10
270
20
-42.775
11
256
21
-42.775
0
LINE
8
0
10
256
20
-42.775
11
256
21
-56.775
0
LINE
8
0
10
367.25
20
-138.25
11
381.25
21
-138.25
0
LINE
8
0
10
381.25
20
-138.25
11
381.25
21
-124.25
0
LINE
8
0
10
381.25
20
-124.25
11
372
21
-124.25
0
LINE
8
0
10
367.25
20
-127
11
367.25
21
-138.25
0
LINE
8
0
10
254.25
20
-133.9375
11
259.7727067
21
-133.9375
0
LINE
8
0
10
268.25
20
-131.6660161
11
268.25
21
-124.6875
0
LINE
8
0
10
265.5
20
-119.9375
11
254.25
21
-119.9375
0
LINE
8
0
10
254.25
20
-119.9375
11
254.25
21
-133.9375
0
ENDSEC
0
EOF