0
SECTION
2
HEADER
9
$INSUNITS
70
4
0
ENDSEC
0
SECTION
2
TABLES
0
TABLE
2
LTYPE
0
LTYPE
72
65
70
64
2
CONTINUOUS
3
______
73
0
40
0
0
ENDTAB
0
TABLE
2
LAYER
0
ENDTAB
0
ENDSEC
0
SECTION
2
ENTITIES
0
LINE
8
0
10
91.2502787
20
-111.9368
11
91.3145555
21
-39.7020416
0
LINE
8
0
10
91.8145418
20
-39.2024865
11
127.8150135
21
-39.2015135
0
LINE
8
0
10
128.315
20
-38.7015135
11
128.315
21
-35.3275
0
LINE
8
0
10
128.815
20
-34.8275
11
146.315
21
-34.8275
0
LINE
8
0
10
146.815
20
-34.3275
11
146.815
21
-33.2525
0
LINE
8
0
10
147.315
20
-32.7525
11
163.843
21
-32.7525
0
LINE
8
0
10
164.343
20
-33.2525
11
164.343
21
-34.3275
0
LINE
8
0
10
164.843
20
-34.8275
11
182.343
21
-34.8275
0
LINE
8
0
10
182.843
20
-35.3275
11
182.843
21
-36.6231216
0
LINE
8
0
10
183.3428784
20
-37.1231216
11
200.8424828
21
-37.1273783
0
LINE
8
0
10
201.3423608
20
-37.6280168
11
201.3186394
21
-56.2018615
0
LINE
8
0
10
221.6070712
20
-104.9663416
11
226.0923282
21
-115.635915
0
LINE
8
0
10
226.0654764
20
-116.0778269
11
211.0915606
21
-142.2712534
0
LINE
8
0
10
210.4413642
20
-142.4739855
11
176.6016749
21
-126.2536595
0
LINE
8
0
10
176.4280429
20
-126.2063475
11
161.6230199
21
-124.9437274
0
LINE
8
0
10
161.4782637
20
-124.9524897
11
144.8505883
21
-128.4269293
0
LINE
8
0
10
144.7483196
20
-128.4375
11
124.665089
21
-128.4375
0
LINE
8
0
10
124.4464927
20
-128.3871839
11
91.5316822
21
-112.3869288
0
LINE
8
0
10
201.818639
20
-56.7025
11
221.068
21
-56.7025
0
LINE
8
0
10
221.568
20
-57.2025
11
221.568
21
-104.7725771
0
ARC
8
0
10
91.8145553
20
-39.7024865
40
0.5
50
90.001547
51
179.9490182
0
ARC
8
0
10
127.815
20
-38.7015135
40
0.5
50
270.001547
51
0
0
ARC
8
0
10
128.815
20
-35.3275
40
0.5
50
90
51
180
0
ARC
8
0
10
146.315
20
-34.3275
40
0.5
50
270
51
0
0
ARC
8
0
10
147.315
20
-33.2525
40
0.5
50
90
51
180
0
ARC
8
0
10
163.843
20
-33.2525
40
0.5
50
0
51
90
0
ARC
8
0
10
164.843
20
-34.3275
40
0.5
50
180
51
270
0
ARC
8
0
10
182.343
20
-35.3275
40
0.5
50
0
51
90
0
ARC
8
0
10
183.343
20
-36.6231216
40
0.5
50
180
51
269.9860657
0
ARC
8
0
10
200.8423612
20
-37.6273783
40
0.5
50
359.9268275
51
89.9860657
0
ARC
8
0
10
201.818639
20
-56.2025
40
0.5
50
179.9268275
51
270
0
ARC
8
0
10
221.068
20
-57.2025
40
0.5
50
0
51
90
0
ARC
8
0
10
222.068
20
-104.7725771
40
0.5
50
180
51
202.8008265
0
ARC
8
0
10
225.6313994
20
-115.8296794
40
0.5
50
330.2448261
51
22.8008265
0
ARC
8
0
10
210.6574836
20
-142.0231059
40
0.5
50
244.3902763
51
330.2448261
0
ARC
8
0
10
176.3855555
20
-126.7045391
40
0.5
50
64.3902763
51
85.1254242
0
ARC
8
0
10
161.5805325
20
-125.441919
40
0.5
50
85.1254242
51
101.802432
0
ARC
8
0
10
144.7483196
20
-127.9375
40
0.5
50
270
51
281.802432
0
ARC
8
0
10
124.665089
20
-127.9375
40
0.5
50
244.0751
51
270
0
ARC
8
0
10
91.7502785
20
-111.9372449
40
0.5
50
179.9490182
51
244.0751
0
CIRCLE
8
0
10
109.25
20
-73.75
40
1.1
0
CIRCLE
8
0
10
109.25
20
-91.25
40
1.1
0
CIRCLE
8
0
10
183.218
20
-70.4235
40
1.1
0
CIRCLE
8
0
10
119.707
20
-111.365
40
1.1
0
CIRCLE
8
0
10
191.871694
20
-109.4866677
40
1.1
0
ENDSEC
0
EOF