0
SECTION
2
HEADER
9
$INSUNITS
70
4
0
ENDSEC
0
SECTION
2
TABLES
0
TABLE
2
LTYPE
0
LTYPE
72
65
70
64
2
CONTINUOUS
3
______
73
0
40
0
0
ENDTAB
0
TABLE
2
LAYER
0
ENDTAB
0
ENDSEC
0
SECTION
2
ENTITIES
0
LINE
8
0
10
91.0819822
20
-89.7400178
11
91.0800178
21
-34.4900046
0
LINE
8
0
10
91.5800046
20
-33.9899868
11
128.5800131
21
-33.9890132
0
LINE
8
0
10
129.08
20
-33.4890132
11
129.08
21
-29.74
0
LINE
8
0
10
129.58
20
-29.24
11
147.58
21
-29.24
0
LINE
8
0
10
148.08
20
-28.74
11
148.08
21
-27.488
0
LINE
8
0
10
148.58
20
-26.988
11
165.582
21
-26.988
0
LINE
8
0
10
166.082
20
-27.488
11
166.082
21
-28.74
0
LINE
8
0
10
166.582
20
-29.24
11
184.582
21
-29.24
0
LINE
8
0
10
185.082
20
-29.74
11
185.082
21
-31.238
0
LINE
8
0
10
185.582
20
-31.738
11
203.5822219
21
-31.738
0
LINE
8
0
10
204.0822219
20
-32.237778
11
204.0827781
21
-33.490222
0
LINE
8
0
10
224.203
20
-94.451
11
151.4334385
21
-115.0914795
0
LINE
8
0
10
150.797
20
-114.6104551
11
150.797
21
-97.7615284
0
LINE
8
0
10
150.2048034
20
-97.2701021
11
128.3874815
21
-101.3632528
0
LINE
8
0
10
128.0568154
20
-100.4323583
11
145.1086829
21
-91.1794682
0
LINE
8
0
10
144.8702134
20
-90.24
11
91.5819822
21
-90.24
0
LINE
8
0
10
204.5827781
20
-33.99
11
224.333
21
-33.99
0
LINE
8
0
10
224.833
20
-34.49
11
224.833
21
-93.951
0
LINE
8
0
10
224.333
20
-94.451
11
224.203
21
-94.451
0
ARC
8
0
10
91.5800178
20
-34.4899868
40
0.5
50
90.0015069
51
180.0020398
0
ARC
8
0
10
128.58
20
-33.4890132
40
0.5
50
270.0015069
51
0
0
ARC
8
0
10
129.58
20
-29.74
40
0.5
50
90
51
180
0
ARC
8
0
10
147.58
20
-28.74
40
0.5
50
270
51
0
0
ARC
8
0
10
148.58
20
-27.488
40
0.5
50
90
51
180
0
ARC
8
0
10
165.582
20
-27.488
40
0.5
50
0
51
90
0
ARC
8
0
10
166.582
20
-28.74
40
0.5
50
180
51
270
0
ARC
8
0
10
184.582
20
-29.74
40
0.5
50
0
51
90
0
ARC
8
0
10
185.582
20
-31.238
40
0.5
50
180
51
270
0
ARC
8
0
10
203.5822219
20
-32.238
40
0.5
50
0.0254393
51
90
0
ARC
8
0
10
204.5827781
20
-33.49
40
0.5
50
180.0254393
51
270
0
ARC
8
0
10
224.333
20
-34.49
40
0.5
50
0
51
90
0
ARC
8
0
10
224.333
20
-93.951
40
0.5
50
270
51
0
0
ARC
8
0
10
151.297
20
-114.6104551
40
0.5
50
180
51
285.8355431
0
ARC
8
0
10
150.297
20
-97.7615284
40
0.5
50
0
51
100.6257506
0
ARC
8
0
10
128.2952849
20
-100.8718265
40
0.5
50
118.4856783
51
280.6257506
0
ARC
8
0
10
144.8702134
20
-90.74
40
0.5
50
298.4856783
51
90
0
ARC
8
0
10
91.5819822
20
-89.74
40
0.5
50
180.0020397
51
270
0
CIRCLE
8
0
10
109.5
20
-52.5
40
1.1
0
CIRCLE
8
0
10
109.5
20
-71.5
40
1.1
0
CIRCLE
8
0
10
185.468
20
-48.986
40
1.1
0
CIRCLE
8
0
10
120.357
20
-85.74
40
1.1
0
CIRCLE
8
0
10
164.6
20
-94.044
40
1.1
0
ENDSEC
0
EOF