0
SECTION
2
HEADER
9
$INSUNITS
70
4
0
ENDSEC
0
SECTION
2
TABLES
0
TABLE
2
LTYPE
0
LTYPE
72
65
70
64
2
CONTINUOUS
3
______
73
0
40
0
0
ENDTAB
0
TABLE
2
LAYER
0
ENDTAB
0
ENDSEC
0
SECTION
2
ENTITIES
0
LINE
8
0
10
91.0819822
20
-89.7400178
11
91.0800178
21
-34.4900046
0
LINE
8
0
10
91.5800046
20
-33.9899868
11
128.5800131
21
-33.9890132
0
LINE
8
0
10
129.08
20
-33.4890132
11
129.08
21
-29.74
0
LINE
8
0
10
129.58
20
-29.24
11
147.58
21
-29.24
0
LINE
8
0
10
148.08
20
-28.74
11
148.08
21
-27.488
0
LINE
8
0
10
148.58
20
-26.988
11
165.582
21
-26.988
0
LINE
8
0
10
166.082
20
-27.488
11
166.082
21
-28.74
0
LINE
8
0
10
166.582
20
-29.24
11
184.582
21
-29.24
0
LINE
8
0
10
185.082
20
-29.74
11
185.082
21
-31.238
0
LINE
8
0
10
185.582
20
-31.738
11
203.5822219
21
-31.738
0
LINE
8
0
10
204.0822219
20
-32.237778
11
204.083
21
-33.99
0
LINE
8
0
10
204.083
20
-33.990222
11
204.083
21
-93.951
0
LINE
8
0
10
204.583
20
-94.451
11
220.6078862
21
-94.451
0
LINE
8
0
10
220.7443247
20
-95.4320244
11
202
21
-100.7486959
0
LINE
8
0
10
188.3337985
20
-104.625
11
171.6
21
-109.3714025
0
LINE
8
0
10
158.1901311
20
-113.175
11
151.4334385
21
-115.0914795
0
LINE
8
0
10
150.797
20
-114.6104551
11
150.797
21
-107.475
0
LINE
8
0
10
131
20
-100.8731178
11
128.3874815
21
-101.3632528
0
LINE
8
0
10
128.0568154
20
-100.4323583
11
129.0839539
21
-99.875
0
LINE
8
0
10
127.2
20
-90.24
11
91.5819822
21
-90.24
0
ARC
8
0
10
91.5800178
20
-34.4899868
40
0.5
50
90.0015069
51
180.0020398
0
ARC
8
0
10
128.58
20
-33.4890132
40
0.5
50
270.0015069
51
0
0
ARC
8
0
10
129.58
20
-29.74
40
0.5
50
90
51
180
0
ARC
8
0
10
147.58
20
-28.74
40
0.5
50
270
51
0
0
ARC
8
0
10
148.58
20
-27.488
40
0.5
50
90
51
180
0
ARC
8
0
10
165.582
20
-27.488
40
0.5
50
0
51
90
0
ARC
8
0
10
166.582
20
-28.74
40
0.5
50
180
51
270
0
ARC
8
0
10
184.582
20
-29.74
40
0.5
50
0
51
90
0
ARC
8
0
10
185.582
20
-31.238
40
0.5
50
180
51
270
0
ARC
8
0
10
203.5822219
20
-32.238
40
0.5
50
0.0254393
51
90
0
ARC
8
0
10
203.583
20
-33.990222
40
0.5
50
0
51
0.0254393
0
ARC
8
0
10
204.583
20
-93.951
40
0.5
50
180
51
270
0
ARC
8
0
10
220.6078862
20
-94.951
40
0.5
50
285.8355431
51
90
0
ARC
8
0
10
151.297
20
-114.6104551
40
0.5
50
180
51
285.8355431
0
ARC
8
0
10
128.2952849
20
-100.8718265
40
0.5
50
118.4856783
51
280.6257506
0
ARC
8
0
10
91.5819822
20
-89.74
40
0.5
50
180.0020397
51
270
0
LINE
8
0
10
93
20
-88
11
107
21
-88
0
LINE
8
0
10
107
20
-88
11
107
21
-74
0
LINE
8
0
10
107
20
-74
11
93
21
-74
0
LINE
8
0
10
93
20
-74
11
93
21
-88
0
LINE
8
0
10
93
20
-69
11
107
21
-69
0
LINE
8
0
10
107
20
-69
11
107
21
-55
0
LINE
8
0
10
107
20
-55
11
93
21
-55
0
LINE
8
0
10
93
20
-55
11
93
21
-69
0
LINE
8
0
10
93
20
-50
11
107
21
-50
0
LINE
8
0
10
107
20
-50
11
107
21
-36
0
LINE
8
0
10
107
20
-36
11
93
21
-36
0
LINE
8
0
10
93
20
-36
11
93
21
-50
0
LINE
8
0
10
112
20
-88
11
126
21
-88
0
LINE
8
0
10
126
20
-88
11
126
21
-74
0
LINE
8
0
10
126
20
-74
11
112
21
-74
0
LINE
8
0
10
112
20
-74
11
112
21
-88
0
LINE
8
0
10
112
20
-69
11
126
21
-69
0
LINE
8
0
10
126
20
-69
11
126
21
-55
0
LINE
8
0
10
126
20
-55
11
112
21
-55
0
LINE
8
0
10
112
20
-55
11
112
21
-69
0
LINE
8
0
10
112
20
-50
11
126
21
-50
0
LINE
8
0
10
126
20
-50
11
126
21
-36
0
LINE
8
0
10
126
20
-36
11
112
21
-36
0
LINE
8
0
10
112
20
-36
11
112
21
-50
0
LINE
8
0
10
131
20
-99.875
11
131
21
-100.8731178
0
LINE
8
0
10
131
20
-83.25
11
145
21
-83.25
0
LINE
8
0
10
145
20
-83.25
11
145
21
-69.25
0
LINE
8
0
10
145
20
-69.25
11
131
21
-69.25
0
LINE
8
0
10
131
20
-69.25
11
131
21
-83.25
0
LINE
8
0
10
131
20
-64.25
11
145
21
-64.25
0
LINE
8
0
10
145
20
-64.25
11
145
21
-50.25
0
LINE
8
0
10
145
20
-50.25
11
131
21
-50.25
0
LINE
8
0
10
131
20
-50.25
11
131
21
-64.25
0
LINE
8
0
10
131
20
-45.25
11
145
21
-45.25
0
LINE
8
0
10
145
20
-45.25
11
145
21
-31.25
0
LINE
8
0
10
145
20
-31.25
11
131
21
-31.25
0
LINE
8
0
10
131
20
-31.25
11
131
21
-45.25
0
LINE
8
0
10
164
20
-99.175
11
164
21
-94.9659544
0
LINE
8
0
10
164
20
-93.1220456
11
164
21
-85.875
0
LINE
8
0
10
164
20
-85.875
11
150
21
-85.875
0
LINE
8
0
10
150
20
-85.875
11
150
21
-87.775
0
LINE
8
0
10
150
20
-80.875
11
164
21
-80.875
0
LINE
8
0
10
164
20
-80.875
11
164
21
-66.875
0
LINE
8
0
10
164
20
-66.875
11
150
21
-66.875
0
LINE
8
0
10
150
20
-66.875
11
150
21
-80.875
0
LINE
8
0
10
150
20
-61.875
11
164
21
-61.875
0
LINE
8
0
10
164
20
-61.875
11
164
21
-47.875
0
LINE
8
0
10
164
20
-47.875
11
150
21
-47.875
0
LINE
8
0
10
150
20
-47.875
11
150
21
-61.875
0
LINE
8
0
10
150
20
-42.875
11
164
21
-42.875
0
LINE
8
0
10
164
20
-42.875
11
164
21
-28.875
0
LINE
8
0
10
164
20
-28.875
11
150
21
-28.875
0
LINE
8
0
10
150
20
-28.875
11
150
21
-42.875
0
LINE
8
0
10
171.6
20
-102.25
11
183
21
-102.25
0
LINE
8
0
10
183
20
-102.25
11
183
21
-88.25
0
LINE
8
0
10
183
20
-88.25
11
169
21
-88.25
0
LINE
8
0
10
169
20
-88.25
11
169
21
-99.175
0
LINE
8
0
10
169
20
-83.25
11
183
21
-83.25
0
LINE
8
0
10
183
20
-83.25
11
183
21
-69.25
0
LINE
8
0
10
183
20
-69.25
11
169
21
-69.25
0
LINE
8
0
10
169
20
-69.25
11
169
21
-83.25
0
LINE
8
0
10
169
20
-64.25
11
183
21
-64.25
0
LINE
8
0
10
183
20
-64.25
11
183
21
-50.25
0
LINE
8
0
10
183
20
-50.25
11
169
21
-50.25
0
LINE
8
0
10
169
20
-50.25
11
169
21
-64.25
0
LINE
8
0
10
169
20
-45.25
11
183
21
-45.25
0
LINE
8
0
10
183
20
-45.25
11
183
21
-31.25
0
LINE
8
0
10
183
20
-31.25
11
169
21
-31.25
0
LINE
8
0
10
169
20
-31.25
11
169
21
-45.25
0
LINE
8
0
10
188
20
-104.625
11
188.3337985
21
-104.625
0
LINE
8
0
10
202
20
-100.7486959
11
202
21
-90.625
0
LINE
8
0
10
202
20
-90.625
11
188
21
-90.625
0
LINE
8
0
10
188
20
-90.625
11
188
21
-104.625
0
LINE
8
0
10
188
20
-85.625
11
202
21
-85.625
0
LINE
8
0
10
202
20
-85.625
11
202
21
-71.625
0
LINE
8
0
10
202
20
-71.625
11
188
21
-71.625
0
LINE
8
0
10
188
20
-71.625
11
188
21
-85.625
0
LINE
8
0
10
188
20
-66.625
11
202
21
-66.625
0
LINE
8
0
10
202
20
-66.625
11
202
21
-52.625
0
LINE
8
0
10
202
20
-52.625
11
188
21
-52.625
0
LINE
8
0
10
188
20
-52.625
11
188
21
-66.625
0
LINE
8
0
10
188
20
-47.625
11
202
21
-47.625
0
LINE
8
0
10
202
20
-47.625
11
202
21
-33.625
0
LINE
8
0
10
202
20
-33.625
11
188
21
-33.625
0
LINE
8
0
10
188
20
-33.625
11
188
21
-47.625
0
LINE
8
0
10
129.0839539
20
-99.875
11
131
21
-99.875
0
LINE
8
0
10
141.2
20
-87.775
11
141.2
21
-85.875
0
LINE
8
0
10
141.2
20
-85.875
11
127.2
21
-85.875
0
LINE
8
0
10
127.2
20
-85.875
11
127.2
21
-90.24
0
LINE
8
0
10
150
20
-87.775
11
141.2
21
-87.775
0
LINE
8
0
10
150.797
20
-107.475
11
157.6
21
-107.475
0
LINE
8
0
10
157.6
20
-113.175
11
158.1901311
21
-113.175
0
LINE
8
0
10
171.6
20
-109.3714025
11
171.6
21
-102.25
0
LINE
8
0
10
169
20
-99.175
11
164
21
-99.175
0
LINE
8
0
10
157.6
20
-107.475
11
157.6
21
-113.175
0
CIRCLE
8
0
10
109.5
20
-52.5
40
1.1
0
CIRCLE
8
0
10
109.5
20
-71.5
40
1.1
0
CIRCLE
8
0
10
185.468
20
-48.986
40
1.1
0
ARC
8
0
10
164.6
20
-94.044
40
1.1
50
236.9442675
51
483.0557325
0
ENDSEC
0
EOF