0
SECTION
2
HEADER
9
$INSUNITS
70
4
0
ENDSEC
0
SECTION
2
TABLES
0
TABLE
2
LTYPE
0
LTYPE
72
65
70
64
2
CONTINUOUS
3
______
73
0
40
0
0
ENDTAB
0
TABLE
2
LAYER
0
ENDTAB
0
ENDSEC
0
SECTION
2
ENTITIES
0
LINE
8
0
10
110.5082665
20
-109.9252765
11
106.9
21
-96.6296436
0
LINE
8
0
10
105.9420994
20
-93.1
11
104.9379662
21
-89.4
0
LINE
8
0
10
101.1928209
20
-75.6
11
100.1886877
21
-71.9
0
LINE
8
0
10
96.4435423
20
-58.1
11
95.4394092
21
-54.4
0
LINE
8
0
10
93.1
20
-45.7798148
11
91.4862289
21
-39.8334391
0
LINE
8
0
10
91.9687611
20
-39.2024823
11
127.8150135
21
-39.2015135
0
LINE
8
0
10
128.315
20
-38.7015135
11
128.315
21
-35.3275
0
LINE
8
0
10
128.815
20
-34.8275
11
146.315
21
-34.8275
0
LINE
8
0
10
146.815
20
-34.3275
11
146.815
21
-33.2525
0
LINE
8
0
10
147.315
20
-32.7525
11
163.843
21
-32.7525
0
LINE
8
0
10
164.343
20
-33.2525
11
164.343
21
-34.3275
0
LINE
8
0
10
164.843
20
-34.8275
11
182.343
21
-34.8275
0
LINE
8
0
10
182.843
20
-35.3275
11
182.843
21
-36.6231216
0
LINE
8
0
10
183.3428784
20
-37.1231216
11
200.8424828
21
-37.1273783
0
LINE
8
0
10
201.3423608
20
-37.6280168
11
201.3180004
21
-56.7021868
0
LINE
8
0
10
201.318
20
-56.7028254
11
201.318
21
-111.8635
0
LINE
8
0
10
201.818
20
-112.3635
11
220.3923003
21
-112.3635
0
LINE
8
0
10
220.890394
20
-112.9071192
11
219.657526
21
-126.9853942
0
LINE
8
0
10
219.0811472
20
-127.4356084
11
215.8023844
21
-126.9158418
0
LINE
8
0
10
126.4
20
-112.7433083
11
120.6993432
21
-111.8396103
0
LINE
8
0
10
118.6165232
20
-111.5094308
11
110.9125271
21
-110.2881531
0
LINE
8
0
10
144.9
20
-115.676025
11
140.2
21
-114.9309565
0
LINE
8
0
10
163.4
20
-118.6087418
11
158.7
21
-117.8636732
0
LINE
8
0
10
181.5145879
20
-121.480361
11
177.2
21
-120.7963899
0
LINE
8
0
10
201.2036592
20
-124.6015755
11
195.2192694
21
-123.6528987
0
ARC
8
0
10
91.9687746
20
-39.7024823
40
0.5
50
90.001547
51
195.1836391
0
ARC
8
0
10
127.815
20
-38.7015135
40
0.5
50
270.001547
51
0
0
ARC
8
0
10
128.815
20
-35.3275
40
0.5
50
90
51
180
0
ARC
8
0
10
146.315
20
-34.3275
40
0.5
50
270
51
0
0
ARC
8
0
10
147.315
20
-33.2525
40
0.5
50
90
51
180
0
ARC
8
0
10
163.843
20
-33.2525
40
0.5
50
0
51
90
0
ARC
8
0
10
164.843
20
-34.3275
40
0.5
50
180
51
270
0
ARC
8
0
10
182.343
20
-35.3275
40
0.5
50
0
51
90
0
ARC
8
0
10
183.343
20
-36.6231216
40
0.5
50
180
51
269.9860657
0
ARC
8
0
10
200.8423612
20
-37.6273783
40
0.5
50
359.9268275
51
89.9860657
0
ARC
8
0
10
201.818
20
-56.7028254
40
0.5
50
179.9268275
51
180
0
ARC
8
0
10
201.818
20
-111.8635
40
0.5
50
180
51
270
0
ARC
8
0
10
220.3923003
20
-112.8635
40
0.5
50
354.9952405
51
90
0
ARC
8
0
10
219.1594323
20
-126.941775
40
0.5
50
260.9921313
51
354.9952405
0
ARC
8
0
10
110.9908122
20
-109.7943197
40
0.5
50
195.1836391
51
260.9921313
0
LINE
8
0
10
106.9
20
-96.6296436
11
106.9
21
-93.1
0
LINE
8
0
10
106.9
20
-93.1
11
105.9420994
21
-93.1
0
LINE
8
0
10
104.9379662
20
-89.4
11
106.9
21
-89.4
0
LINE
8
0
10
106.9
20
-89.4
11
106.9
21
-75.6
0
LINE
8
0
10
106.9
20
-75.6
11
101.1928209
21
-75.6
0
LINE
8
0
10
100.1886877
20
-71.9
11
106.9
21
-71.9
0
LINE
8
0
10
106.9
20
-71.9
11
106.9
21
-58.1
0
LINE
8
0
10
106.9
20
-58.1
11
96.4435423
21
-58.1
0
LINE
8
0
10
95.4394092
20
-54.4
11
106.9
21
-54.4
0
LINE
8
0
10
106.9
20
-54.4
11
106.9
21
-40.6
0
LINE
8
0
10
106.9
20
-40.6
11
93.1
21
-40.6
0
LINE
8
0
10
93.1
20
-40.6
11
93.1
21
-45.7798148
0
LINE
8
0
10
111.6
20
-106.9
11
125.4
21
-106.9
0
LINE
8
0
10
125.4
20
-106.9
11
125.4
21
-93.1
0
LINE
8
0
10
125.4
20
-93.1
11
111.6
21
-93.1
0
LINE
8
0
10
111.6
20
-93.1
11
111.6
21
-106.9
0
LINE
8
0
10
111.6
20
-89.4
11
125.4
21
-89.4
0
LINE
8
0
10
125.4
20
-89.4
11
125.4
21
-75.6
0
LINE
8
0
10
125.4
20
-75.6
11
111.6
21
-75.6
0
LINE
8
0
10
111.6
20
-75.6
11
111.6
21
-89.4
0
LINE
8
0
10
111.6
20
-71.9
11
125.4
21
-71.9
0
LINE
8
0
10
125.4
20
-71.9
11
125.4
21
-58.1
0
LINE
8
0
10
125.4
20
-58.1
11
111.6
21
-58.1
0
LINE
8
0
10
111.6
20
-58.1
11
111.6
21
-71.9
0
LINE
8
0
10
111.6
20
-54.4
11
125.4
21
-54.4
0
LINE
8
0
10
125.4
20
-54.4
11
125.4
21
-40.6
0
LINE
8
0
10
125.4
20
-40.6
11
111.6
21
-40.6
0
LINE
8
0
10
111.6
20
-40.6
11
111.6
21
-54.4
0
LINE
8
0
10
130.1
20
-102.525
11
143.9
21
-102.525
0
LINE
8
0
10
143.9
20
-102.525
11
143.9
21
-88.725
0
LINE
8
0
10
143.9
20
-88.725
11
130.1
21
-88.725
0
LINE
8
0
10
130.1
20
-88.725
11
130.1
21
-102.525
0
LINE
8
0
10
130.1
20
-85.025
11
143.9
21
-85.025
0
LINE
8
0
10
143.9
20
-85.025
11
143.9
21
-71.225
0
LINE
8
0
10
143.9
20
-71.225
11
130.1
21
-71.225
0
LINE
8
0
10
130.1
20
-71.225
11
130.1
21
-85.025
0
LINE
8
0
10
130.1
20
-67.525
11
143.9
21
-67.525
0
LINE
8
0
10
143.9
20
-67.525
11
143.9
21
-53.725
0
LINE
8
0
10
143.9
20
-53.725
11
130.1
21
-53.725
0
LINE
8
0
10
130.1
20
-53.725
11
130.1
21
-67.525
0
LINE
8
0
10
130.1
20
-50.025
11
143.9
21
-50.025
0
LINE
8
0
10
143.9
20
-50.025
11
143.9
21
-36.225
0
LINE
8
0
10
143.9
20
-36.225
11
130.1
21
-36.225
0
LINE
8
0
10
130.1
20
-36.225
11
130.1
21
-50.025
0
LINE
8
0
10
148.6
20
-100.3375
11
162.4
21
-100.3375
0
LINE
8
0
10
162.4
20
-100.3375
11
162.4
21
-86.5375
0
LINE
8
0
10
162.4
20
-86.5375
11
148.6
21
-86.5375
0
LINE
8
0
10
148.6
20
-86.5375
11
148.6
21
-100.3375
0
LINE
8
0
10
148.6
20
-82.8375
11
162.4
21
-82.8375
0
LINE
8
0
10
162.4
20
-82.8375
11
162.4
21
-69.0375
0
LINE
8
0
10
162.4
20
-69.0375
11
148.6
21
-69.0375
0
LINE
8
0
10
148.6
20
-69.0375
11
148.6
21
-82.8375
0
LINE
8
0
10
148.6
20
-65.3375
11
162.4
21
-65.3375
0
LINE
8
0
10
162.4
20
-65.3375
11
162.4
21
-51.5375
0
LINE
8
0
10
162.4
20
-51.5375
11
148.6
21
-51.5375
0
LINE
8
0
10
148.6
20
-51.5375
11
148.6
21
-65.3375
0
LINE
8
0
10
148.6
20
-47.8375
11
162.4
21
-47.8375
0
LINE
8
0
10
162.4
20
-47.8375
11
162.4
21
-34.0375
0
LINE
8
0
10
162.4
20
-34.0375
11
148.6
21
-34.0375
0
LINE
8
0
10
148.6
20
-34.0375
11
148.6
21
-47.8375
0
LINE
8
0
10
167.1
20
-102.525
11
180.9
21
-102.525
0
LINE
8
0
10
180.9
20
-102.525
11
180.9
21
-88.725
0
LINE
8
0
10
180.9
20
-88.725
11
167.1
21
-88.725
0
LINE
8
0
10
167.1
20
-88.725
11
167.1
21
-102.525
0
LINE
8
0
10
167.1
20
-85.025
11
180.9
21
-85.025
0
LINE
8
0
10
180.9
20
-85.025
11
180.9
21
-71.225
0
LINE
8
0
10
180.9
20
-71.225
11
167.1
21
-71.225
0
LINE
8
0
10
167.1
20
-71.225
11
167.1
21
-85.025
0
LINE
8
0
10
167.1
20
-67.525
11
180.9
21
-67.525
0
LINE
8
0
10
180.9
20
-67.525
11
180.9
21
-53.725
0
LINE
8
0
10
180.9
20
-53.725
11
167.1
21
-53.725
0
LINE
8
0
10
167.1
20
-53.725
11
167.1
21
-67.525
0
LINE
8
0
10
167.1
20
-50.025
11
180.9
21
-50.025
0
LINE
8
0
10
180.9
20
-50.025
11
180.9
21
-36.225
0
LINE
8
0
10
180.9
20
-36.225
11
167.1
21
-36.225
0
LINE
8
0
10
167.1
20
-36.225
11
167.1
21
-50.025
0
LINE
8
0
10
185.6
20
-104.7125
11
199.4
21
-104.7125
0
LINE
8
0
10
199.4
20
-104.7125
11
199.4
21
-90.9125
0
LINE
8
0
10
199.4
20
-90.9125
11
185.6
21
-90.9125
0
LINE
8
0
10
185.6
20
-90.9125
11
185.6
21
-104.7125
0
LINE
8
0
10
185.6
20
-87.2125
11
199.4
21
-87.2125
0
LINE
8
0
10
199.4
20
-87.2125
11
199.4
21
-73.4125
0
LINE
8
0
10
199.4
20
-73.4125
11
185.6
21
-73.4125
0
LINE
8
0
10
185.6
20
-73.4125
11
185.6
21
-87.2125
0
LINE
8
0
10
185.6
20
-69.7125
11
199.4
21
-69.7125
0
LINE
8
0
10
199.4
20
-69.7125
11
199.4
21
-55.9125
0
LINE
8
0
10
199.4
20
-55.9125
11
185.6
21
-55.9125
0
LINE
8
0
10
185.6
20
-55.9125
11
185.6
21
-69.7125
0
LINE
8
0
10
185.6
20
-52.2125
11
199.4
21
-52.2125
0
LINE
8
0
10
199.4
20
-52.2125
11
199.4
21
-38.4125
0
LINE
8
0
10
199.4
20
-38.4125
11
185.6
21
-38.4125
0
LINE
8
0
10
185.6
20
-38.4125
11
185.6
21
-52.2125
0
LINE
8
0
10
140.2
20
-114.9309565
11
140.2
21
-111.0375
0
LINE
8
0
10
140.2
20
-111.0375
11
126.4
21
-111.0375
0
LINE
8
0
10
126.4
20
-111.0375
11
126.4
21
-112.7433083
0
LINE
8
0
10
158.7
20
-117.8636732
11
158.7
21
-107.5375
0
LINE
8
0
10
158.7
20
-107.5375
11
144.9
21
-107.5375
0
LINE
8
0
10
144.9
20
-107.5375
11
144.9
21
-115.676025
0
LINE
8
0
10
177.2
20
-120.7963899
11
177.2
21
-107.5375
0
LINE
8
0
10
177.2
20
-107.5375
11
163.4
21
-107.5375
0
LINE
8
0
10
163.4
20
-107.5375
11
163.4
21
-118.6087418
0
LINE
8
0
10
195.2192694
20
-123.6528987
11
197.376814
21
-115.6008327
0
LINE
8
0
10
197.376814
20
-115.6008327
11
184.0470376
21
-112.0291299
0
LINE
8
0
10
184.0470376
20
-112.0291299
11
181.5145879
21
-121.480361
0
LINE
8
0
10
215.8023844
20
-126.9158418
11
216.4430561
21
-125.8061659
0
LINE
8
0
10
216.4430561
20
-125.8061659
11
204.4919055
21
-118.9061659
0
LINE
8
0
10
204.4919055
20
-118.9061659
11
201.2036592
21
-124.6015755
0
CIRCLE
8
0
10
109.25
20
-73.75
40
1.1
0
CIRCLE
8
0
10
109.25
20
-91.25
40
1.1
0
CIRCLE
8
0
10
183.218
20
-70.4235
40
1.1
0
ARC
8
0
10
119.707
20
-111.365
40
1.1
50
334.4395002
51
547.5447631
0
CIRCLE
8
0
10
191.871694
20
-109.4866677
40
1.1
0
ENDSEC
0
EOF