0
SECTION
2
HEADER
9
$INSUNITS
70
4
0
ENDSEC
0
SECTION
2
TABLES
0
TABLE
2
LTYPE
0
LTYPE
72
65
70
64
2
CONTINUOUS
3
______
73
0
40
0
0
ENDTAB
0
TABLE
2
LAYER
0
ENDTAB
0
ENDSEC
0
SECTION
2
ENTITIES
0
LINE
8
0
10
91.2502787
20
-111.9368
11
91.3145555
21
-39.7020416
0
LINE
8
0
10
91.8145418
20
-39.2024865
11
127.8150135
21
-39.2015135
0
LINE
8
0
10
128.315
20
-38.7015135
11
128.315
21
-35.3275
0
LINE
8
0
10
128.815
20
-34.8275
11
146.315
21
-34.8275
0
LINE
8
0
10
146.815
20
-34.3275
11
146.815
21
-33.2525
0
LINE
8
0
10
147.315
20
-32.7525
11
163.843
21
-32.7525
0
LINE
8
0
10
164.343
20
-33.2525
11
164.343
21
-34.3275
0
LINE
8
0
10
164.843
20
-34.8275
11
182.343
21
-34.8275
0
LINE
8
0
10
182.843
20
-35.3275
11
182.843
21
-36.6231216
0
LINE
8
0
10
183.3428784
20
-37.1231216
11
200.8424828
21
-37.1273783
0
LINE
8
0
10
201.3423608
20
-37.6280168
11
201.3181292
21
-56.6013463
0
LINE
8
0
10
201.3572
20
-56.7957493
11
226.0923282
21
-115.635915
0
LINE
8
0
10
226.0654764
20
-116.0778269
11
211.0915606
21
-142.2712534
0
LINE
8
0
10
210.4413642
20
-142.4739855
11
176.6016749
21
-126.2536595
0
LINE
8
0
10
176.4280429
20
-126.2063475
11
161.6230199
21
-124.9437274
0
LINE
8
0
10
161.4782637
20
-124.9524897
11
144.8505883
21
-128.4269293
0
LINE
8
0
10
144.7483196
20
-128.4375
11
124.665089
21
-128.4375
0
LINE
8
0
10
124.4464927
20
-128.3871839
11
91.5316822
21
-112.3869288
0
ARC
8
0
10
91.8145553
20
-39.7024865
40
0.5
50
90.001547
51
179.9490182
0
ARC
8
0
10
127.815
20
-38.7015135
40
0.5
50
270.001547
51
0
0
ARC
8
0
10
128.815
20
-35.3275
40
0.5
50
90
51
180
0
ARC
8
0
10
146.315
20
-34.3275
40
0.5
50
270
51
0
0
ARC
8
0
10
147.315
20
-33.2525
40
0.5
50
90
51
180
0
ARC
8
0
10
163.843
20
-33.2525
40
0.5
50
0
51
90
0
ARC
8
0
10
164.843
20
-34.3275
40
0.5
50
180
51
270
0
ARC
8
0
10
182.343
20
-35.3275
40
0.5
50
0
51
90
0
ARC
8
0
10
183.343
20
-36.6231216
40
0.5
50
180
51
269.9860657
0
ARC
8
0
10
200.8423612
20
-37.6273783
40
0.5
50
359.9268275
51
89.9860657
0
ARC
8
0
10
201.8181288
20
-56.6019848
40
0.5
50
179.9268275
51
202.8008265
0
ARC
8
0
10
225.6313994
20
-115.8296794
40
0.5
50
330.2448261
51
22.8008265
0
ARC
8
0
10
210.6574836
20
-142.0231059
40
0.5
50
244.3902763
51
330.2448261
0
ARC
8
0
10
176.3855555
20
-126.7045391
40
0.5
50
64.3902763
51
85.1254242
0
ARC
8
0
10
161.5805325
20
-125.441919
40
0.5
50
85.1254242
51
101.802432
0
ARC
8
0
10
144.7483196
20
-127.9375
40
0.5
50
270
51
281.802432
0
ARC
8
0
10
124.665089
20
-127.9375
40
0.5
50
244.0751
51
270
0
ARC
8
0
10
91.7502785
20
-111.9372449
40
0.5
50
179.9490182
51
244.0751
0
LINE
8
0
10
93.1
20
-106.9
11
106.9
21
-106.9
0
LINE
8
0
10
106.9
20
-106.9
11
106.9
21
-93.1
0
LINE
8
0
10
106.9
20
-93.1
11
93.1
21
-93.1
0
LINE
8
0
10
93.1
20
-93.1
11
93.1
21
-106.9
0
LINE
8
0
10
93.1
20
-89.4
11
106.9
21
-89.4
0
LINE
8
0
10
106.9
20
-89.4
11
106.9
21
-75.6
0
LINE
8
0
10
106.9
20
-75.6
11
93.1
21
-75.6
0
LINE
8
0
10
93.1
20
-75.6
11
93.1
21
-89.4
0
LINE
8
0
10
93.1
20
-71.9
11
106.9
21
-71.9
0
LINE
8
0
10
106.9
20
-71.9
11
106.9
21
-58.1
0
LINE
8
0
10
106.9
20
-58.1
11
93.1
21
-58.1
0
LINE
8
0
10
93.1
20
-58.1
11
93.1
21
-71.9
0
LINE
8
0
10
93.1
20
-54.4
11
106.9
21
-54.4
0
LINE
8
0
10
106.9
20
-54.4
11
106.9
21
-40.6
0
LINE
8
0
10
106.9
20
-40.6
11
93.1
21
-40.6
0
LINE
8
0
10
93.1
20
-40.6
11
93.1
21
-54.4
0
LINE
8
0
10
111.6
20
-106.9
11
125.4
21
-106.9
0
LINE
8
0
10
125.4
20
-106.9
11
125.4
21
-93.1
0
LINE
8
0
10
125.4
20
-93.1
11
111.6
21
-93.1
0
LINE
8
0
10
111.6
20
-93.1
11
111.6
21
-106.9
0
LINE
8
0
10
111.6
20
-89.4
11
125.4
21
-89.4
0
LINE
8
0
10
125.4
20
-89.4
11
125.4
21
-75.6
0
LINE
8
0
10
125.4
20
-75.6
11
111.6
21
-75.6
0
LINE
8
0
10
111.6
20
-75.6
11
111.6
21
-89.4
0
LINE
8
0
10
111.6
20
-71.9
11
125.4
21
-71.9
0
LINE
8
0
10
125.4
20
-71.9
11
125.4
21
-58.1
0
LINE
8
0
10
125.4
20
-58.1
11
111.6
21
-58.1
0
LINE
8
0
10
111.6
20
-58.1
11
111.6
21
-71.9
0
LINE
8
0
10
111.6
20
-54.4
11
125.4
21
-54.4
0
LINE
8
0
10
125.4
20
-54.4
11
125.4
21
-40.6
0
LINE
8
0
10
125.4
20
-40.6
11
111.6
21
-40.6
0
LINE
8
0
10
111.6
20
-40.6
11
111.6
21
-54.4
0
LINE
8
0
10
130.1
20
-102.525
11
143.9
21
-102.525
0
LINE
8
0
10
143.9
20
-102.525
11
143.9
21
-88.725
0
LINE
8
0
10
143.9
20
-88.725
11
130.1
21
-88.725
0
LINE
8
0
10
130.1
20
-88.725
11
130.1
21
-102.525
0
LINE
8
0
10
130.1
20
-85.025
11
143.9
21
-85.025
0
LINE
8
0
10
143.9
20
-85.025
11
143.9
21
-71.225
0
LINE
8
0
10
143.9
20
-71.225
11
130.1
21
-71.225
0
LINE
8
0
10
130.1
20
-71.225
11
130.1
21
-85.025
0
LINE
8
0
10
130.1
20
-67.525
11
143.9
21
-67.525
0
LINE
8
0
10
143.9
20
-67.525
11
143.9
21
-53.725
0
LINE
8
0
10
143.9
20
-53.725
11
130.1
21
-53.725
0
LINE
8
0
10
130.1
20
-53.725
11
130.1
21
-67.525
0
LINE
8
0
10
130.1
20
-50.025
11
143.9
21
-50.025
0
LINE
8
0
10
143.9
20
-50.025
11
143.9
21
-36.225
0
LINE
8
0
10
143.9
20
-36.225
11
130.1
21
-36.225
0
LINE
8
0
10
130.1
20
-36.225
11
130.1
21
-50.025
0
LINE
8
0
10
148.6
20
-100.3375
11
162.4
21
-100.3375
0
LINE
8
0
10
162.4
20
-100.3375
11
162.4
21
-86.5375
0
LINE
8
0
10
162.4
20
-86.5375
11
148.6
21
-86.5375
0
LINE
8
0
10
148.6
20
-86.5375
11
148.6
21
-100.3375
0
LINE
8
0
10
148.6
20
-82.8375
11
162.4
21
-82.8375
0
LINE
8
0
10
162.4
20
-82.8375
11
162.4
21
-69.0375
0
LINE
8
0
10
162.4
20
-69.0375
11
148.6
21
-69.0375
0
LINE
8
0
10
148.6
20
-69.0375
11
148.6
21
-82.8375
0
LINE
8
0
10
148.6
20
-65.3375
11
162.4
21
-65.3375
0
LINE
8
0
10
162.4
20
-65.3375
11
162.4
21
-51.5375
0
LINE
8
0
10
162.4
20
-51.5375
11
148.6
21
-51.5375
0
LINE
8
0
10
148.6
20
-51.5375
11
148.6
21
-65.3375
0
LINE
8
0
10
148.6
20
-47.8375
11
162.4
21
-47.8375
0
LINE
8
0
10
162.4
20
-47.8375
11
162.4
21
-34.0375
0
LINE
8
0
10
162.4
20
-34.0375
11
148.6
21
-34.0375
0
LINE
8
0
10
148.6
20
-34.0375
11
148.6
21
-47.8375
0
LINE
8
0
10
167.1
20
-102.525
11
180.9
21
-102.525
0
LINE
8
0
10
180.9
20
-102.525
11
180.9
21
-88.725
0
LINE
8
0
10
180.9
20
-88.725
11
167.1
21
-88.725
0
LINE
8
0
10
167.1
20
-88.725
11
167.1
21
-102.525
0
LINE
8
0
10
167.1
20
-85.025
11
180.9
21
-85.025
0
LINE
8
0
10
180.9
20
-85.025
11
180.9
21
-71.225
0
LINE
8
0
10
180.9
20
-71.225
11
167.1
21
-71.225
0
LINE
8
0
10
167.1
20
-71.225
11
167.1
21
-85.025
0
LINE
8
0
10
167.1
20
-67.525
11
180.9
21
-67.525
0
LINE
8
0
10
180.9
20
-67.525
11
180.9
21
-53.725
0
LINE
8
0
10
180.9
20
-53.725
11
167.1
21
-53.725
0
LINE
8
0
10
167.1
20
-53.725
11
167.1
21
-67.525
0
LINE
8
0
10
167.1
20
-50.025
11
180.9
21
-50.025
0
LINE
8
0
10
180.9
20
-50.025
11
180.9
21
-36.225
0
LINE
8
0
10
180.9
20
-36.225
11
167.1
21
-36.225
0
LINE
8
0
10
167.1
20
-36.225
11
167.1
21
-50.025
0
LINE
8
0
10
185.6
20
-104.7125
11
199.4
21
-104.7125
0
LINE
8
0
10
199.4
20
-104.7125
11
199.4
21
-90.9125
0
LINE
8
0
10
199.4
20
-90.9125
11
185.6
21
-90.9125
0
LINE
8
0
10
185.6
20
-90.9125
11
185.6
21
-104.7125
0
LINE
8
0
10
185.6
20
-87.2125
11
199.4
21
-87.2125
0
LINE
8
0
10
199.4
20
-87.2125
11
199.4
21
-73.4125
0
LINE
8
0
10
199.4
20
-73.4125
11
185.6
21
-73.4125
0
LINE
8
0
10
185.6
20
-73.4125
11
185.6
21
-87.2125
0
LINE
8
0
10
185.6
20
-69.7125
11
199.4
21
-69.7125
0
LINE
8
0
10
199.4
20
-69.7125
11
199.4
21
-55.9125
0
LINE
8
0
10
199.4
20
-55.9125
11
185.6
21
-55.9125
0
LINE
8
0
10
185.6
20
-55.9125
11
185.6
21
-69.7125
0
LINE
8
0
10
185.6
20
-52.2125
11
199.4
21
-52.2125
0
LINE
8
0
10
199.4
20
-52.2125
11
199.4
21
-38.4125
0
LINE
8
0
10
199.4
20
-38.4125
11
185.6
21
-38.4125
0
LINE
8
0
10
185.6
20
-38.4125
11
185.6
21
-52.2125
0
LINE
8
0
10
126.4
20
-124.8375
11
140.2
21
-124.8375
0
LINE
8
0
10
140.2
20
-124.8375
11
140.2
21
-111.0375
0
LINE
8
0
10
140.2
20
-111.0375
11
126.4
21
-111.0375
0
LINE
8
0
10
126.4
20
-111.0375
11
126.4
21
-124.8375
0
LINE
8
0
10
144.9
20
-121.3375
11
158.7
21
-121.3375
0
LINE
8
0
10
158.7
20
-121.3375
11
158.7
21
-107.5375
0
LINE
8
0
10
158.7
20
-107.5375
11
144.9
21
-107.5375
0
LINE
8
0
10
144.9
20
-107.5375
11
144.9
21
-121.3375
0
LINE
8
0
10
163.4
20
-121.3375
11
177.2
21
-121.3375
0
LINE
8
0
10
177.2
20
-121.3375
11
177.2
21
-107.5375
0
LINE
8
0
10
177.2
20
-107.5375
11
163.4
21
-107.5375
0
LINE
8
0
10
163.4
20
-107.5375
11
163.4
21
-121.3375
0
LINE
8
0
10
180.4753348
20
-125.3589063
11
193.8051112
21
-128.9306091
0
LINE
8
0
10
193.8051112
20
-128.9306091
11
197.376814
21
-115.6008327
0
LINE
8
0
10
197.376814
20
-115.6008327
11
184.0470376
21
-112.0291299
0
LINE
8
0
10
184.0470376
20
-112.0291299
11
180.4753348
21
-125.3589063
0
LINE
8
0
10
197.5919055
20
-130.8573165
11
209.5430561
21
-137.7573165
0
LINE
8
0
10
209.5430561
20
-137.7573165
11
216.4430561
21
-125.8061659
0
LINE
8
0
10
216.4430561
20
-125.8061659
11
204.4919055
21
-118.9061659
0
LINE
8
0
10
204.4919055
20
-118.9061659
11
197.5919055
21
-130.8573165
0
CIRCLE
8
0
10
109.25
20
-73.75
40
1.1
0
CIRCLE
8
0
10
109.25
20
-91.25
40
1.1
0
CIRCLE
8
0
10
183.218
20
-70.4235
40
1.1
0
CIRCLE
8
0
10
119.707
20
-111.365
40
1.1
0
CIRCLE
8
0
10
191.871694
20
-109.4866677
40
1.1
0
ENDSEC
0
EOF