0
SECTION
2
HEADER
9
$INSUNITS
70
4
0
ENDSEC
0
SECTION
2
TABLES
0
TABLE
2
LTYPE
0
LTYPE
72
65
70
64
2
CONTINUOUS
3
______
73
0
40
0
0
ENDTAB
0
TABLE
2
LAYER
0
ENDTAB
0
ENDSEC
0
SECTION
2
ENTITIES
0
LINE
8
0
10
91.3169807
20
-90.5124502
11
91.3150193
21
-39.7025058
0
LINE
8
0
10
91.8150058
20
-39.2024865
11
127.8150135
21
-39.2015135
0
LINE
8
0
10
128.315
20
-38.7015135
11
128.315
21
-35.3275
0
LINE
8
0
10
128.815
20
-34.8275
11
146.315
21
-34.8275
0
LINE
8
0
10
146.815
20
-34.3275
11
146.815
21
-33.2525
0
LINE
8
0
10
147.315
20
-32.7525
11
163.843
21
-32.7525
0
LINE
8
0
10
164.343
20
-33.2525
11
164.343
21
-34.3275
0
LINE
8
0
10
164.843
20
-34.8275
11
182.343
21
-34.8275
0
LINE
8
0
10
182.843
20
-35.3275
11
182.843
21
-36.6231216
0
LINE
8
0
10
183.3428784
20
-37.1231216
11
200.8370627
21
-37.1273769
0
LINE
8
0
10
201.3369048
20
-37.6334006
11
201.3180363
21
-39.1994871
0
LINE
8
0
10
201.318
20
-39.2055108
11
201.318
21
-94.3635
0
LINE
8
0
10
201.818
20
-94.8635
11
219.2313516
21
-94.8635
0
LINE
8
0
10
219.5011647
20
-95.7844523
11
191.1764269
21
-113.939444
0
LINE
8
0
10
181.9507042
20
-119.8527527
11
174.8623381
21
-124.3961038
0
LINE
8
0
10
174.1095621
20
-123.845742
11
174.7816435
21
-121.3375
0
LINE
8
0
10
177.2
20
-112.3120707
11
177.8546125
21
-109.8690235
0
LINE
8
0
10
177.2176486
20
-109.2639211
11
177.2
21
-109.2696346
0
LINE
8
0
10
129.112508
20
-124.8375
11
125.8574105
21
-125.8913067
0
LINE
8
0
10
144.9
20
-119.7264506
11
140.2
21
-121.2480306
0
LINE
8
0
10
163.4
20
-113.7372526
11
158.7
21
-115.2588326
0
LINE
8
0
10
125.2737822
20
-125.1598398
11
126.4
21
-123.2681154
0
LINE
8
0
10
143.9
20
-93.8731124
11
145.1574857
21
-91.7608955
0
LINE
8
0
10
133.6813658
20
-111.0375
11
138.7491915
21
-102.525
0
LINE
8
0
10
144.7277893
20
-91.0051215
11
143.9
21
-91.0052359
0
LINE
8
0
10
130.1
20
-91.0071423
11
91.8170497
21
-91.0124309
0
ARC
8
0
10
91.8150193
20
-39.7024865
40
0.5
50
90.001547
51
180.0022116
0
ARC
8
0
10
127.815
20
-38.7015135
40
0.5
50
270.001547
51
0
0
ARC
8
0
10
128.815
20
-35.3275
40
0.5
50
90
51
180
0
ARC
8
0
10
146.315
20
-34.3275
40
0.5
50
270
51
0
0
ARC
8
0
10
147.315
20
-33.2525
40
0.5
50
90
51
180
0
ARC
8
0
10
163.843
20
-33.2525
40
0.5
50
0
51
90
0
ARC
8
0
10
164.843
20
-34.3275
40
0.5
50
180
51
270
0
ARC
8
0
10
182.343
20
-35.3275
40
0.5
50
0
51
90
0
ARC
8
0
10
183.343
20
-36.6231216
40
0.5
50
180
51
269.9860657
0
ARC
8
0
10
200.8369411
20
-37.6273769
40
0.5
50
359.3097238
51
89.9860657
0
ARC
8
0
10
201.818
20
-39.2055108
40
0.5
50
179.3097238
51
180
0
ARC
8
0
10
201.818
20
-94.3635
40
0.5
50
180
51
270
0
ARC
8
0
10
219.2313516
20
-95.3635
40
0.5
50
302.6582019
51
90
0
ARC
8
0
10
174.592525
20
-123.9751515
40
0.5
50
165.0000021
51
302.6582019
0
ARC
8
0
10
177.3716496
20
-109.739614
40
0.5
50
345.0000021
51
107.9388631
0
ARC
8
0
10
125.7034095
20
-125.4156138
40
0.5
50
149.2329986
51
287.9388631
0
ARC
8
0
10
144.7278584
20
-91.5051215
40
0.5
50
329.2329986
51
90.0079125
0
ARC
8
0
10
91.8169807
20
-90.5124309
40
0.5
50
180.0022116
51
270.0079125
0
LINE
8
0
10
93.1
20
-89.4
11
106.9
21
-89.4
0
LINE
8
0
10
106.9
20
-89.4
11
106.9
21
-75.6
0
LINE
8
0
10
106.9
20
-75.6
11
93.1
21
-75.6
0
LINE
8
0
10
93.1
20
-75.6
11
93.1
21
-89.4
0
LINE
8
0
10
93.1
20
-71.9
11
106.9
21
-71.9
0
LINE
8
0
10
106.9
20
-71.9
11
106.9
21
-58.1
0
LINE
8
0
10
106.9
20
-58.1
11
93.1
21
-58.1
0
LINE
8
0
10
93.1
20
-58.1
11
93.1
21
-71.9
0
LINE
8
0
10
93.1
20
-54.4
11
106.9
21
-54.4
0
LINE
8
0
10
106.9
20
-54.4
11
106.9
21
-40.6
0
LINE
8
0
10
106.9
20
-40.6
11
93.1
21
-40.6
0
LINE
8
0
10
93.1
20
-40.6
11
93.1
21
-54.4
0
LINE
8
0
10
111.6
20
-89.4
11
125.4
21
-89.4
0
LINE
8
0
10
125.4
20
-89.4
11
125.4
21
-75.6
0
LINE
8
0
10
125.4
20
-75.6
11
111.6
21
-75.6
0
LINE
8
0
10
111.6
20
-75.6
11
111.6
21
-89.4
0
LINE
8
0
10
111.6
20
-71.9
11
125.4
21
-71.9
0
LINE
8
0
10
125.4
20
-71.9
11
125.4
21
-58.1
0
LINE
8
0
10
125.4
20
-58.1
11
111.6
21
-58.1
0
LINE
8
0
10
111.6
20
-58.1
11
111.6
21
-71.9
0
LINE
8
0
10
111.6
20
-54.4
11
125.4
21
-54.4
0
LINE
8
0
10
125.4
20
-54.4
11
125.4
21
-40.6
0
LINE
8
0
10
125.4
20
-40.6
11
111.6
21
-40.6
0
LINE
8
0
10
111.6
20
-40.6
11
111.6
21
-54.4
0
LINE
8
0
10
138.7491915
20
-102.525
11
143.9
21
-102.525
0
LINE
8
0
10
143.9
20
-102.525
11
143.9
21
-93.8731124
0
LINE
8
0
10
143.9
20
-91.0052359
11
143.9
21
-88.725
0
LINE
8
0
10
143.9
20
-88.725
11
130.1
21
-88.725
0
LINE
8
0
10
130.1
20
-88.725
11
130.1
21
-91.0071423
0
LINE
8
0
10
130.1
20
-85.025
11
143.9
21
-85.025
0
LINE
8
0
10
143.9
20
-85.025
11
143.9
21
-71.225
0
LINE
8
0
10
143.9
20
-71.225
11
130.1
21
-71.225
0
LINE
8
0
10
130.1
20
-71.225
11
130.1
21
-85.025
0
LINE
8
0
10
130.1
20
-67.525
11
143.9
21
-67.525
0
LINE
8
0
10
143.9
20
-67.525
11
143.9
21
-53.725
0
LINE
8
0
10
143.9
20
-53.725
11
130.1
21
-53.725
0
LINE
8
0
10
130.1
20
-53.725
11
130.1
21
-67.525
0
LINE
8
0
10
130.1
20
-50.025
11
143.9
21
-50.025
0
LINE
8
0
10
143.9
20
-50.025
11
143.9
21
-36.225
0
LINE
8
0
10
143.9
20
-36.225
11
130.1
21
-36.225
0
LINE
8
0
10
130.1
20
-36.225
11
130.1
21
-50.025
0
LINE
8
0
10
148.6
20
-100.3375
11
162.4
21
-100.3375
0
LINE
8
0
10
162.4
20
-100.3375
11
162.4
21
-86.5375
0
LINE
8
0
10
162.4
20
-86.5375
11
148.6
21
-86.5375
0
LINE
8
0
10
148.6
20
-86.5375
11
148.6
21
-100.3375
0
LINE
8
0
10
148.6
20
-82.8375
11
162.4
21
-82.8375
0
LINE
8
0
10
162.4
20
-82.8375
11
162.4
21
-69.0375
0
LINE
8
0
10
162.4
20
-69.0375
11
148.6
21
-69.0375
0
LINE
8
0
10
148.6
20
-69.0375
11
148.6
21
-82.8375
0
LINE
8
0
10
148.6
20
-65.3375
11
162.4
21
-65.3375
0
LINE
8
0
10
162.4
20
-65.3375
11
162.4
21
-51.5375
0
LINE
8
0
10
162.4
20
-51.5375
11
148.6
21
-51.5375
0
LINE
8
0
10
148.6
20
-51.5375
11
148.6
21
-65.3375
0
LINE
8
0
10
148.6
20
-47.8375
11
162.4
21
-47.8375
0
LINE
8
0
10
162.4
20
-47.8375
11
162.4
21
-34.0375
0
LINE
8
0
10
162.4
20
-34.0375
11
148.6
21
-34.0375
0
LINE
8
0
10
148.6
20
-34.0375
11
148.6
21
-47.8375
0
LINE
8
0
10
167.1
20
-102.525
11
180.9
21
-102.525
0
LINE
8
0
10
180.9
20
-102.525
11
180.9
21
-88.725
0
LINE
8
0
10
180.9
20
-88.725
11
167.1
21
-88.725
0
LINE
8
0
10
167.1
20
-88.725
11
167.1
21
-102.525
0
LINE
8
0
10
167.1
20
-85.025
11
180.9
21
-85.025
0
LINE
8
0
10
180.9
20
-85.025
11
180.9
21
-71.225
0
LINE
8
0
10
180.9
20
-71.225
11
167.1
21
-71.225
0
LINE
8
0
10
167.1
20
-71.225
11
167.1
21
-85.025
0
LINE
8
0
10
167.1
20
-67.525
11
180.9
21
-67.525
0
LINE
8
0
10
180.9
20
-67.525
11
180.9
21
-53.725
0
LINE
8
0
10
180.9
20
-53.725
11
167.1
21
-53.725
0
LINE
8
0
10
167.1
20
-53.725
11
167.1
21
-67.525
0
LINE
8
0
10
167.1
20
-50.025
11
180.9
21
-50.025
0
LINE
8
0
10
180.9
20
-50.025
11
180.9
21
-36.225
0
LINE
8
0
10
180.9
20
-36.225
11
167.1
21
-36.225
0
LINE
8
0
10
167.1
20
-36.225
11
167.1
21
-50.025
0
LINE
8
0
10
185.6
20
-104.7125
11
199.4
21
-104.7125
0
LINE
8
0
10
199.4
20
-104.7125
11
199.4
21
-90.9125
0
LINE
8
0
10
199.4
20
-90.9125
11
185.6
21
-90.9125
0
LINE
8
0
10
185.6
20
-90.9125
11
185.6
21
-104.7125
0
LINE
8
0
10
185.6
20
-87.2125
11
199.4
21
-87.2125
0
LINE
8
0
10
199.4
20
-87.2125
11
199.4
21
-73.4125
0
LINE
8
0
10
199.4
20
-73.4125
11
185.6
21
-73.4125
0
LINE
8
0
10
185.6
20
-73.4125
11
185.6
21
-87.2125
0
LINE
8
0
10
185.6
20
-69.7125
11
199.4
21
-69.7125
0
LINE
8
0
10
199.4
20
-69.7125
11
199.4
21
-55.9125
0
LINE
8
0
10
199.4
20
-55.9125
11
185.6
21
-55.9125
0
LINE
8
0
10
185.6
20
-55.9125
11
185.6
21
-69.7125
0
LINE
8
0
10
185.6
20
-52.2125
11
199.4
21
-52.2125
0
LINE
8
0
10
199.4
20
-52.2125
11
199.4
21
-38.4125
0
LINE
8
0
10
199.4
20
-38.4125
11
185.6
21
-38.4125
0
LINE
8
0
10
185.6
20
-38.4125
11
185.6
21
-52.2125
0
LINE
8
0
10
126.4
20
-124.8375
11
129.112508
21
-124.8375
0
LINE
8
0
10
140.2
20
-121.2480306
11
140.2
21
-111.0375
0
LINE
8
0
10
140.2
20
-111.0375
11
133.6813658
21
-111.0375
0
LINE
8
0
10
126.4
20
-123.2681154
11
126.4
21
-124.8375
0
LINE
8
0
10
158.7
20
-115.2588326
11
158.7
21
-107.5375
0
LINE
8
0
10
158.7
20
-107.5375
11
144.9
21
-107.5375
0
LINE
8
0
10
144.9
20
-107.5375
11
144.9
21
-119.7264506
0
LINE
8
0
10
174.7816435
20
-121.3375
11
177.2
21
-121.3375
0
LINE
8
0
10
177.2
20
-121.3375
11
177.2
21
-112.3120707
0
LINE
8
0
10
177.2
20
-109.2696346
11
177.2
21
-107.5375
0
LINE
8
0
10
177.2
20
-107.5375
11
163.4
21
-107.5375
0
LINE
8
0
10
163.4
20
-107.5375
11
163.4
21
-113.7372526
0
LINE
8
0
10
191.1764269
20
-113.939444
11
184.0470376
21
-112.0291299
0
LINE
8
0
10
184.0470376
20
-112.0291299
11
181.9507042
21
-119.8527527
0
CIRCLE
8
0
10
109.25
20
-56.25
40
1.1
0
CIRCLE
8
0
10
109.25
20
-73.75
40
1.1
0
CIRCLE
8
0
10
183.218
20
-52.9235
40
1.1
0
CIRCLE
8
0
10
191.871694
20
-109.4866677
40
1.1
0
ENDSEC
0
EOF