0
SECTION
2
HEADER
9
$INSUNITS
70
4
0
ENDSEC
0
SECTION
2
TABLES
0
TABLE
2
LTYPE
0
LTYPE
72
65
70
64
2
CONTINUOUS
3
______
73
0
40
0
0
ENDTAB
0
TABLE
2
LAYER
0
ENDTAB
0
ENDSEC
0
SECTION
2
ENTITIES
0
LINE
8
0
10
93
20
-107
11
107
21
-107
0
LINE
8
0
10
107
20
-107
11
107
21
-93
0
LINE
8
0
10
107
20
-93
11
93
21
-93
0
LINE
8
0
10
93
20
-93
11
93
21
-107
0
LINE
8
0
10
93
20
-89.5
11
107
21
-89.5
0
LINE
8
0
10
107
20
-89.5
11
107
21
-75.5
0
LINE
8
0
10
107
20
-75.5
11
93
21
-75.5
0
LINE
8
0
10
93
20
-75.5
11
93
21
-89.5
0
LINE
8
0
10
93
20
-72
11
107
21
-72
0
LINE
8
0
10
107
20
-72
11
107
21
-58
0
LINE
8
0
10
107
20
-58
11
93
21
-58
0
LINE
8
0
10
93
20
-58
11
93
21
-72
0
LINE
8
0
10
93
20
-54.5
11
107
21
-54.5
0
LINE
8
0
10
107
20
-54.5
11
107
21
-40.5
0
LINE
8
0
10
107
20
-40.5
11
93
21
-40.5
0
LINE
8
0
10
93
20
-40.5
11
93
21
-54.5
0
LINE
8
0
10
111.5
20
-107
11
125.5
21
-107
0
LINE
8
0
10
125.5
20
-107
11
125.5
21
-93
0
LINE
8
0
10
125.5
20
-93
11
111.5
21
-93
0
LINE
8
0
10
111.5
20
-93
11
111.5
21
-107
0
LINE
8
0
10
111.5
20
-89.5
11
125.5
21
-89.5
0
LINE
8
0
10
125.5
20
-89.5
11
125.5
21
-75.5
0
LINE
8
0
10
125.5
20
-75.5
11
111.5
21
-75.5
0
LINE
8
0
10
111.5
20
-75.5
11
111.5
21
-89.5
0
LINE
8
0
10
111.5
20
-72
11
125.5
21
-72
0
LINE
8
0
10
125.5
20
-72
11
125.5
21
-58
0
LINE
8
0
10
125.5
20
-58
11
111.5
21
-58
0
LINE
8
0
10
111.5
20
-58
11
111.5
21
-72
0
LINE
8
0
10
111.5
20
-54.5
11
125.5
21
-54.5
0
LINE
8
0
10
125.5
20
-54.5
11
125.5
21
-40.5
0
LINE
8
0
10
125.5
20
-40.5
11
111.5
21
-40.5
0
LINE
8
0
10
111.5
20
-40.5
11
111.5
21
-54.5
0
LINE
8
0
10
130
20
-102.625
11
144
21
-102.625
0
LINE
8
0
10
144
20
-102.625
11
144
21
-88.625
0
LINE
8
0
10
144
20
-88.625
11
130
21
-88.625
0
LINE
8
0
10
130
20
-88.625
11
130
21
-102.625
0
LINE
8
0
10
130
20
-85.125
11
144
21
-85.125
0
LINE
8
0
10
144
20
-85.125
11
144
21
-71.125
0
LINE
8
0
10
144
20
-71.125
11
130
21
-71.125
0
LINE
8
0
10
130
20
-71.125
11
130
21
-85.125
0
LINE
8
0
10
130
20
-67.625
11
144
21
-67.625
0
LINE
8
0
10
144
20
-67.625
11
144
21
-53.625
0
LINE
8
0
10
144
20
-53.625
11
130
21
-53.625
0
LINE
8
0
10
130
20
-53.625
11
130
21
-67.625
0
LINE
8
0
10
130
20
-50.125
11
144
21
-50.125
0
LINE
8
0
10
144
20
-50.125
11
144
21
-36.125
0
LINE
8
0
10
144
20
-36.125
11
130
21
-36.125
0
LINE
8
0
10
130
20
-36.125
11
130
21
-50.125
0
LINE
8
0
10
148.5
20
-100.4375
11
162.5
21
-100.4375
0
LINE
8
0
10
162.5
20
-100.4375
11
162.5
21
-86.4375
0
LINE
8
0
10
162.5
20
-86.4375
11
148.5
21
-86.4375
0
LINE
8
0
10
148.5
20
-86.4375
11
148.5
21
-100.4375
0
LINE
8
0
10
148.5
20
-82.9375
11
162.5
21
-82.9375
0
LINE
8
0
10
162.5
20
-82.9375
11
162.5
21
-68.9375
0
LINE
8
0
10
162.5
20
-68.9375
11
148.5
21
-68.9375
0
LINE
8
0
10
148.5
20
-68.9375
11
148.5
21
-82.9375
0
LINE
8
0
10
148.5
20
-65.4375
11
162.5
21
-65.4375
0
LINE
8
0
10
162.5
20
-65.4375
11
162.5
21
-51.4375
0
LINE
8
0
10
162.5
20
-51.4375
11
148.5
21
-51.4375
0
LINE
8
0
10
148.5
20
-51.4375
11
148.5
21
-65.4375
0
LINE
8
0
10
148.5
20
-47.9375
11
162.5
21
-47.9375
0
LINE
8
0
10
162.5
20
-47.9375
11
162.5
21
-33.9375
0
LINE
8
0
10
162.5
20
-33.9375
11
148.5
21
-33.9375
0
LINE
8
0
10
148.5
20
-33.9375
11
148.5
21
-47.9375
0
LINE
8
0
10
167
20
-102.625
11
181
21
-102.625
0
LINE
8
0
10
181
20
-102.625
11
181
21
-88.625
0
LINE
8
0
10
181
20
-88.625
11
167
21
-88.625
0
LINE
8
0
10
167
20
-88.625
11
167
21
-102.625
0
LINE
8
0
10
167
20
-85.125
11
181
21
-85.125
0
LINE
8
0
10
181
20
-85.125
11
181
21
-71.125
0
LINE
8
0
10
181
20
-71.125
11
167
21
-71.125
0
LINE
8
0
10
167
20
-71.125
11
167
21
-85.125
0
LINE
8
0
10
167
20
-67.625
11
181
21
-67.625
0
LINE
8
0
10
181
20
-67.625
11
181
21
-53.625
0
LINE
8
0
10
181
20
-53.625
11
167
21
-53.625
0
LINE
8
0
10
167
20
-53.625
11
167
21
-67.625
0
LINE
8
0
10
167
20
-50.125
11
181
21
-50.125
0
LINE
8
0
10
181
20
-50.125
11
181
21
-36.125
0
LINE
8
0
10
181
20
-36.125
11
167
21
-36.125
0
LINE
8
0
10
167
20
-36.125
11
167
21
-50.125
0
LINE
8
0
10
185.5
20
-104.8125
11
199.5
21
-104.8125
0
LINE
8
0
10
199.5
20
-104.8125
11
199.5
21
-90.8125
0
LINE
8
0
10
199.5
20
-90.8125
11
185.5
21
-90.8125
0
LINE
8
0
10
185.5
20
-90.8125
11
185.5
21
-104.8125
0
LINE
8
0
10
185.5
20
-87.3125
11
199.5
21
-87.3125
0
LINE
8
0
10
199.5
20
-87.3125
11
199.5
21
-73.3125
0
LINE
8
0
10
199.5
20
-73.3125
11
185.5
21
-73.3125
0
LINE
8
0
10
185.5
20
-73.3125
11
185.5
21
-87.3125
0
LINE
8
0
10
185.5
20
-69.8125
11
199.5
21
-69.8125
0
LINE
8
0
10
199.5
20
-69.8125
11
199.5
21
-55.8125
0
LINE
8
0
10
199.5
20
-55.8125
11
185.5
21
-55.8125
0
LINE
8
0
10
185.5
20
-55.8125
11
185.5
21
-69.8125
0
LINE
8
0
10
185.5
20
-52.3125
11
199.5
21
-52.3125
0
LINE
8
0
10
199.5
20
-52.3125
11
199.5
21
-38.3125
0
LINE
8
0
10
199.5
20
-38.3125
11
185.5
21
-38.3125
0
LINE
8
0
10
185.5
20
-38.3125
11
185.5
21
-52.3125
0
LINE
8
0
10
148.5
20
-123.1875
11
162.5
21
-123.1875
0
LINE
8
0
10
162.5
20
-123.1875
11
162.5
21
-109.1875
0
LINE
8
0
10
162.5
20
-109.1875
11
148.5
21
-109.1875
0
LINE
8
0
10
148.5
20
-109.1875
11
148.5
21
-123.1875
0
LINE
8
0
10
167
20
-123.1875
11
181
21
-123.1875
0
LINE
8
0
10
181
20
-123.1875
11
181
21
-109.1875
0
LINE
8
0
10
181
20
-109.1875
11
167
21
-109.1875
0
LINE
8
0
10
167
20
-109.1875
11
167
21
-123.1875
0
LINE
8
0
10
185.5
20
-123.1875
11
199.5
21
-123.1875
0
LINE
8
0
10
199.5
20
-123.1875
11
199.5
21
-109.1875
0
LINE
8
0
10
199.5
20
-109.1875
11
185.5
21
-109.1875
0
LINE
8
0
10
185.5
20
-109.1875
11
185.5
21
-123.1875
0
LINE
8
0
10
358
20
-107
11
372
21
-107
0
LINE
8
0
10
372
20
-107
11
372
21
-93
0
LINE
8
0
10
372
20
-93
11
358
21
-93
0
LINE
8
0
10
358
20
-93
11
358
21
-107
0
LINE
8
0
10
358
20
-89.5
11
372
21
-89.5
0
LINE
8
0
10
372
20
-89.5
11
372
21
-75.5
0
LINE
8
0
10
372
20
-75.5
11
358
21
-75.5
0
LINE
8
0
10
358
20
-75.5
11
358
21
-89.5
0
LINE
8
0
10
358
20
-72
11
372
21
-72
0
LINE
8
0
10
372
20
-72
11
372
21
-58
0
LINE
8
0
10
372
20
-58
11
358
21
-58
0
LINE
8
0
10
358
20
-58
11
358
21
-72
0
LINE
8
0
10
358
20
-54.5
11
372
21
-54.5
0
LINE
8
0
10
372
20
-54.5
11
372
21
-40.5
0
LINE
8
0
10
372
20
-40.5
11
358
21
-40.5
0
LINE
8
0
10
358
20
-40.5
11
358
21
-54.5
0
LINE
8
0
10
339.5
20
-107
11
353.5
21
-107
0
LINE
8
0
10
353.5
20
-107
11
353.5
21
-93
0
LINE
8
0
10
353.5
20
-93
11
339.5
21
-93
0
LINE
8
0
10
339.5
20
-93
11
339.5
21
-107
0
LINE
8
0
10
339.5
20
-89.5
11
353.5
21
-89.5
0
LINE
8
0
10
353.5
20
-89.5
11
353.5
21
-75.5
0
LINE
8
0
10
353.5
20
-75.5
11
339.5
21
-75.5
0
LINE
8
0
10
339.5
20
-75.5
11
339.5
21
-89.5
0
LINE
8
0
10
339.5
20
-72
11
353.5
21
-72
0
LINE
8
0
10
353.5
20
-72
11
353.5
21
-58
0
LINE
8
0
10
353.5
20
-58
11
339.5
21
-58
0
LINE
8
0
10
339.5
20
-58
11
339.5
21
-72
0
LINE
8
0
10
339.5
20
-54.5
11
353.5
21
-54.5
0
LINE
8
0
10
353.5
20
-54.5
11
353.5
21
-40.5
0
LINE
8
0
10
353.5
20
-40.5
11
339.5
21
-40.5
0
LINE
8
0
10
339.5
20
-40.5
11
339.5
21
-54.5
0
LINE
8
0
10
321
20
-102.625
11
335
21
-102.625
0
LINE
8
0
10
335
20
-102.625
11
335
21
-88.625
0
LINE
8
0
10
335
20
-88.625
11
321
21
-88.625
0
LINE
8
0
10
321
20
-88.625
11
321
21
-102.625
0
LINE
8
0
10
321
20
-85.125
11
335
21
-85.125
0
LINE
8
0
10
335
20
-85.125
11
335
21
-71.125
0
LINE
8
0
10
335
20
-71.125
11
321
21
-71.125
0
LINE
8
0
10
321
20
-71.125
11
321
21
-85.125
0
LINE
8
0
10
321
20
-67.625
11
335
21
-67.625
0
LINE
8
0
10
335
20
-67.625
11
335
21
-53.625
0
LINE
8
0
10
335
20
-53.625
11
321
21
-53.625
0
LINE
8
0
10
321
20
-53.625
11
321
21
-67.625
0
LINE
8
0
10
321
20
-50.125
11
335
21
-50.125
0
LINE
8
0
10
335
20
-50.125
11
335
21
-36.125
0
LINE
8
0
10
335
20
-36.125
11
321
21
-36.125
0
LINE
8
0
10
321
20
-36.125
11
321
21
-50.125
0
LINE
8
0
10
302.5
20
-100.4375
11
316.5
21
-100.4375
0
LINE
8
0
10
316.5
20
-100.4375
11
316.5
21
-86.4375
0
LINE
8
0
10
316.5
20
-86.4375
11
302.5
21
-86.4375
0
LINE
8
0
10
302.5
20
-86.4375
11
302.5
21
-100.4375
0
LINE
8
0
10
302.5
20
-82.9375
11
316.5
21
-82.9375
0
LINE
8
0
10
316.5
20
-82.9375
11
316.5
21
-68.9375
0
LINE
8
0
10
316.5
20
-68.9375
11
302.5
21
-68.9375
0
LINE
8
0
10
302.5
20
-68.9375
11
302.5
21
-82.9375
0
LINE
8
0
10
302.5
20
-65.4375
11
316.5
21
-65.4375
0
LINE
8
0
10
316.5
20
-65.4375
11
316.5
21
-51.4375
0
LINE
8
0
10
316.5
20
-51.4375
11
302.5
21
-51.4375
0
LINE
8
0
10
302.5
20
-51.4375
11
302.5
21
-65.4375
0
LINE
8
0
10
302.5
20
-47.9375
11
316.5
21
-47.9375
0
LINE
8
0
10
316.5
20
-47.9375
11
316.5
21
-33.9375
0
LINE
8
0
10
316.5
20
-33.9375
11
302.5
21
-33.9375
0
LINE
8
0
10
302.5
20
-33.9375
11
302.5
21
-47.9375
0
LINE
8
0
10
284
20
-102.625
11
298
21
-102.625
0
LINE
8
0
10
298
20
-102.625
11
298
21
-88.625
0
LINE
8
0
10
298
20
-88.625
11
284
21
-88.625
0
LINE
8
0
10
284
20
-88.625
11
284
21
-102.625
0
LINE
8
0
10
284
20
-85.125
11
298
21
-85.125
0
LINE
8
0
10
298
20
-85.125
11
298
21
-71.125
0
LINE
8
0
10
298
20
-71.125
11
284
21
-71.125
0
LINE
8
0
10
284
20
-71.125
11
284
21
-85.125
0
LINE
8
0
10
284
20
-67.625
11
298
21
-67.625
0
LINE
8
0
10
298
20
-67.625
11
298
21
-53.625
0
LINE
8
0
10
298
20
-53.625
11
284
21
-53.625
0
LINE
8
0
10
284
20
-53.625
11
284
21
-67.625
0
LINE
8
0
10
284
20
-50.125
11
298
21
-50.125
0
LINE
8
0
10
298
20
-50.125
11
298
21
-36.125
0
LINE
8
0
10
298
20
-36.125
11
284
21
-36.125
0
LINE
8
0
10
284
20
-36.125
11
284
21
-50.125
0
LINE
8
0
10
265.5
20
-104.8125
11
279.5
21
-104.8125
0
LINE
8
0
10
279.5
20
-104.8125
11
279.5
21
-90.8125
0
LINE
8
0
10
279.5
20
-90.8125
11
265.5
21
-90.8125
0
LINE
8
0
10
265.5
20
-90.8125
11
265.5
21
-104.8125
0
LINE
8
0
10
265.5
20
-87.3125
11
279.5
21
-87.3125
0
LINE
8
0
10
279.5
20
-87.3125
11
279.5
21
-73.3125
0
LINE
8
0
10
279.5
20
-73.3125
11
265.5
21
-73.3125
0
LINE
8
0
10
265.5
20
-73.3125
11
265.5
21
-87.3125
0
LINE
8
0
10
265.5
20
-69.8125
11
279.5
21
-69.8125
0
LINE
8
0
10
279.5
20
-69.8125
11
279.5
21
-55.8125
0
LINE
8
0
10
279.5
20
-55.8125
11
265.5
21
-55.8125
0
LINE
8
0
10
265.5
20
-55.8125
11
265.5
21
-69.8125
0
LINE
8
0
10
265.5
20
-52.3125
11
279.5
21
-52.3125
0
LINE
8
0
10
279.5
20
-52.3125
11
279.5
21
-38.3125
0
LINE
8
0
10
279.5
20
-38.3125
11
265.5
21
-38.3125
0
LINE
8
0
10
265.5
20
-38.3125
11
265.5
21
-52.3125
0
LINE
8
0
10
302.5
20
-123.1875
11
316.5
21
-123.1875
0
LINE
8
0
10
316.5
20
-123.1875
11
316.5
21
-109.1875
0
LINE
8
0
10
316.5
20
-109.1875
11
302.5
21
-109.1875
0
LINE
8
0
10
302.5
20
-109.1875
11
302.5
21
-123.1875
0
LINE
8
0
10
284
20
-123.1875
11
298
21
-123.1875
0
LINE
8
0
10
298
20
-123.1875
11
298
21
-109.1875
0
LINE
8
0
10
298
20
-109.1875
11
284
21
-109.1875
0
LINE
8
0
10
284
20
-109.1875
11
284
21
-123.1875
0
LINE
8
0
10
265.5
20
-123.1875
11
279.5
21
-123.1875
0
LINE
8
0
10
279.5
20
-123.1875
11
279.5
21
-109.1875
0
LINE
8
0
10
279.5
20
-109.1875
11
265.5
21
-109.1875
0
LINE
8
0
10
265.5
20
-109.1875
11
265.5
21
-123.1875
0
ENDSEC
0
EOF