0
SECTION
2
HEADER
9
$INSUNITS
70
4
0
ENDSEC
0
SECTION
2
TABLES
0
TABLE
2
LTYPE
0
LTYPE
72
65
70
64
2
CONTINUOUS
3
______
73
0
40
0
0
ENDTAB
0
TABLE
2
LAYER
0
ENDTAB
0
ENDSEC
0
SECTION
2
ENTITIES
0
LINE
8
0
10
93
20
-107
11
107
21
-107
0
LINE
8
0
10
107
20
-107
11
107
21
-93
0
LINE
8
0
10
107
20
-93
11
93
21
-93
0
LINE
8
0
10
93
20
-93
11
93
21
-107
0
LINE
8
0
10
93
20
-90
11
107
21
-90
0
LINE
8
0
10
107
20
-90
11
107
21
-76
0
LINE
8
0
10
107
20
-76
11
93
21
-76
0
LINE
8
0
10
93
20
-76
11
93
21
-90
0
LINE
8
0
10
93
20
-73
11
107
21
-73
0
LINE
8
0
10
107
20
-73
11
107
21
-59
0
LINE
8
0
10
107
20
-59
11
93
21
-59
0
LINE
8
0
10
93
20
-59
11
93
21
-73
0
LINE
8
0
10
93
20
-56
11
107
21
-56
0
LINE
8
0
10
107
20
-56
11
107
21
-42
0
LINE
8
0
10
107
20
-42
11
93
21
-42
0
LINE
8
0
10
93
20
-42
11
93
21
-56
0
LINE
8
0
10
110
20
-107
11
124
21
-107
0
LINE
8
0
10
124
20
-107
11
124
21
-93
0
LINE
8
0
10
124
20
-93
11
110
21
-93
0
LINE
8
0
10
110
20
-93
11
110
21
-107
0
LINE
8
0
10
110
20
-90
11
124
21
-90
0
LINE
8
0
10
124
20
-90
11
124
21
-76
0
LINE
8
0
10
124
20
-76
11
110
21
-76
0
LINE
8
0
10
110
20
-76
11
110
21
-90
0
LINE
8
0
10
110
20
-73
11
124
21
-73
0
LINE
8
0
10
124
20
-73
11
124
21
-59
0
LINE
8
0
10
124
20
-59
11
110
21
-59
0
LINE
8
0
10
110
20
-59
11
110
21
-73
0
LINE
8
0
10
110
20
-56
11
124
21
-56
0
LINE
8
0
10
124
20
-56
11
124
21
-42
0
LINE
8
0
10
124
20
-42
11
110
21
-42
0
LINE
8
0
10
110
20
-42
11
110
21
-56
0
LINE
8
0
10
127
20
-102.75
11
141
21
-102.75
0
LINE
8
0
10
141
20
-102.75
11
141
21
-88.75
0
LINE
8
0
10
141
20
-88.75
11
127
21
-88.75
0
LINE
8
0
10
127
20
-88.75
11
127
21
-102.75
0
LINE
8
0
10
127
20
-85.75
11
141
21
-85.75
0
LINE
8
0
10
141
20
-85.75
11
141
21
-71.75
0
LINE
8
0
10
141
20
-71.75
11
127
21
-71.75
0
LINE
8
0
10
127
20
-71.75
11
127
21
-85.75
0
LINE
8
0
10
127
20
-68.75
11
141
21
-68.75
0
LINE
8
0
10
141
20
-68.75
11
141
21
-54.75
0
LINE
8
0
10
141
20
-54.75
11
127
21
-54.75
0
LINE
8
0
10
127
20
-54.75
11
127
21
-68.75
0
LINE
8
0
10
127
20
-51.75
11
141
21
-51.75
0
LINE
8
0
10
141
20
-51.75
11
141
21
-37.75
0
LINE
8
0
10
141
20
-37.75
11
127
21
-37.75
0
LINE
8
0
10
127
20
-37.75
11
127
21
-51.75
0
LINE
8
0
10
144
20
-100.625
11
158
21
-100.625
0
LINE
8
0
10
158
20
-100.625
11
158
21
-86.625
0
LINE
8
0
10
158
20
-86.625
11
144
21
-86.625
0
LINE
8
0
10
144
20
-86.625
11
144
21
-100.625
0
LINE
8
0
10
144
20
-83.625
11
158
21
-83.625
0
LINE
8
0
10
158
20
-83.625
11
158
21
-69.625
0
LINE
8
0
10
158
20
-69.625
11
144
21
-69.625
0
LINE
8
0
10
144
20
-69.625
11
144
21
-83.625
0
LINE
8
0
10
144
20
-66.625
11
158
21
-66.625
0
LINE
8
0
10
158
20
-66.625
11
158
21
-52.625
0
LINE
8
0
10
158
20
-52.625
11
144
21
-52.625
0
LINE
8
0
10
144
20
-52.625
11
144
21
-66.625
0
LINE
8
0
10
144
20
-49.625
11
158
21
-49.625
0
LINE
8
0
10
158
20
-49.625
11
158
21
-35.625
0
LINE
8
0
10
158
20
-35.625
11
144
21
-35.625
0
LINE
8
0
10
144
20
-35.625
11
144
21
-49.625
0
LINE
8
0
10
161
20
-102.75
11
175
21
-102.75
0
LINE
8
0
10
175
20
-102.75
11
175
21
-88.75
0
LINE
8
0
10
175
20
-88.75
11
161
21
-88.75
0
LINE
8
0
10
161
20
-88.75
11
161
21
-102.75
0
LINE
8
0
10
161
20
-85.75
11
175
21
-85.75
0
LINE
8
0
10
175
20
-85.75
11
175
21
-71.75
0
LINE
8
0
10
175
20
-71.75
11
161
21
-71.75
0
LINE
8
0
10
161
20
-71.75
11
161
21
-85.75
0
LINE
8
0
10
161
20
-68.75
11
175
21
-68.75
0
LINE
8
0
10
175
20
-68.75
11
175
21
-54.75
0
LINE
8
0
10
175
20
-54.75
11
161
21
-54.75
0
LINE
8
0
10
161
20
-54.75
11
161
21
-68.75
0
LINE
8
0
10
161
20
-51.75
11
175
21
-51.75
0
LINE
8
0
10
175
20
-51.75
11
175
21
-37.75
0
LINE
8
0
10
175
20
-37.75
11
161
21
-37.75
0
LINE
8
0
10
161
20
-37.75
11
161
21
-51.75
0
LINE
8
0
10
178
20
-104.875
11
192
21
-104.875
0
LINE
8
0
10
192
20
-104.875
11
192
21
-90.875
0
LINE
8
0
10
192
20
-90.875
11
178
21
-90.875
0
LINE
8
0
10
178
20
-90.875
11
178
21
-104.875
0
LINE
8
0
10
178
20
-87.875
11
192
21
-87.875
0
LINE
8
0
10
192
20
-87.875
11
192
21
-73.875
0
LINE
8
0
10
192
20
-73.875
11
178
21
-73.875
0
LINE
8
0
10
178
20
-73.875
11
178
21
-87.875
0
LINE
8
0
10
178
20
-70.875
11
192
21
-70.875
0
LINE
8
0
10
192
20
-70.875
11
192
21
-64.94
0
LINE
8
0
10
187.053
20
-56.875
11
178
21
-56.875
0
LINE
8
0
10
178
20
-56.875
11
178
21
-70.875
0
LINE
8
0
10
178
20
-53.875
11
187.053
21
-53.875
0
LINE
8
0
10
192
20
-50.94
11
192
21
-39.875
0
LINE
8
0
10
192
20
-39.875
11
178
21
-39.875
0
LINE
8
0
10
178
20
-39.875
11
178
21
-53.875
0
LINE
8
0
10
144
20
-122.725
11
158
21
-122.725
0
LINE
8
0
10
158
20
-122.725
11
158
21
-108.725
0
LINE
8
0
10
158
20
-108.725
11
144
21
-108.725
0
LINE
8
0
10
144
20
-108.725
11
144
21
-122.725
0
LINE
8
0
10
161
20
-122.725
11
175
21
-122.725
0
LINE
8
0
10
175
20
-122.725
11
175
21
-108.725
0
LINE
8
0
10
175
20
-108.725
11
161
21
-108.725
0
LINE
8
0
10
161
20
-108.725
11
161
21
-122.725
0
LINE
8
0
10
178
20
-122.725
11
192
21
-122.725
0
LINE
8
0
10
192
20
-122.725
11
192
21
-108.725
0
LINE
8
0
10
192
20
-108.725
11
178
21
-108.725
0
LINE
8
0
10
178
20
-108.725
11
178
21
-122.725
0
LINE
8
0
10
192
20
-64.94
11
201.053
21
-64.94
0
LINE
8
0
10
201.053
20
-64.94
11
201.053
21
-50.94
0
LINE
8
0
10
201.053
20
-50.94
11
192
21
-50.94
0
LINE
8
0
10
187.053
20
-53.875
11
187.053
21
-56.875
0
LINE
8
0
10
204.773
20
-64.94
11
218.773
21
-64.94
0
LINE
8
0
10
218.773
20
-64.94
11
218.773
21
-50.94
0
LINE
8
0
10
218.773
20
-50.94
11
204.773
21
-50.94
0
LINE
8
0
10
204.773
20
-50.94
11
204.773
21
-64.94
0
LINE
8
0
10
204.773
20
-119.001
11
218.773
21
-119.001
0
LINE
8
0
10
218.773
20
-119.001
11
218.773
21
-105.001
0
LINE
8
0
10
218.773
20
-105.001
11
204.773
21
-105.001
0
LINE
8
0
10
204.773
20
-105.001
11
204.773
21
-119.001
0
ENDSEC
0
EOF