0
SECTION
2
HEADER
9
$INSUNITS
70
4
0
ENDSEC
0
SECTION
2
TABLES
0
TABLE
2
LTYPE
0
LTYPE
72
65
70
64
2
CONTINUOUS
3
______
73
0
40
0
0
ENDTAB
0
TABLE
2
LAYER
0
ENDTAB
0
ENDSEC
0
SECTION
2
ENTITIES
0
LINE
8
0
10
88.75
20
-108.75
11
88.75
21
-38.75
0
ARC
8
0
10
90.75
20
-38.75
40
2
50
90
51
180
0
LINE
8
0
10
90.75
20
-36.75
11
125.75
21
-36.75
0
LINE
8
0
10
125.75
20
-36.75
11
125.75
21
-34.375
0
ARC
8
0
10
127.75
20
-34.375
40
2
50
90
51
180
0
LINE
8
0
10
127.75
20
-32.375
11
144.25
21
-32.375
0
LINE
8
0
10
144.25
20
-32.375
11
144.25
21
-32.1875
0
ARC
8
0
10
146.25
20
-32.1875
40
2
50
90
51
180
0
LINE
8
0
10
146.25
20
-30.1875
11
164.75
21
-30.1875
0
ARC
8
0
10
164.75
20
-32.1875
40
2
50
0
51
90
0
LINE
8
0
10
166.75
20
-32.1875
11
166.75
21
-32.375
0
LINE
8
0
10
166.75
20
-32.375
11
183.25
21
-32.375
0
ARC
8
0
10
183.25
20
-34.375
40
2
50
0
51
90
0
LINE
8
0
10
185.25
20
-34.375
11
185.25
21
-34.5625
0
LINE
8
0
10
185.25
20
-34.5625
11
201.75
21
-34.5625
0
ARC
8
0
10
201.75
20
-36.5625
40
2
50
0
51
90
0
LINE
8
0
10
203.75
20
-36.5625
11
203.75
21
-37.3375
0
LINE
8
0
10
225.8
20
-37.3375
11
203.75
21
-37.3375
0
ARC
8
0
10
225.8
20
-38.3375
40
1
50
0
51
90
0
LINE
8
0
10
226.8
20
-90.8375
11
226.8
21
-38.3375
0
ARC
8
0
10
225.8
20
-90.8375
40
1
50
270
51
360
0
LINE
8
0
10
203.75
20
-91.8375
11
225.8
21
-91.8375
0
LINE
8
0
10
203.75
20
-91.8375
11
203.75
21
-106.5625
0
ARC
8
0
10
201.75
20
-106.5625
40
2
50
358.6324491
51
360
0
LINE
8
0
10
203.7494304
20
-106.610232
11
203.6165112
21
-112.1780459
0
LINE
8
0
10
200.64442
20
-133.1224762
11
182.9520096
21
-128.3818091
0
LINE
8
0
10
182.9520096
20
-128.3818091
11
164.6711168
21
-126.9375
0
LINE
8
0
10
164.6711168
20
-126.9375
11
146.25
21
-126.9375
0
ARC
8
0
10
146.25
20
-124.9375
40
2
50
253.7397953
51
270
0
LINE
8
0
10
145.69
20
-126.8575
11
90.19
21
-110.67
0
ARC
8
0
10
90.75
20
-108.75
40
2
50
180
51
253.7397953
0
LINE
8
0
10
218.4724043
20
-145.7934512
11
225.2664042
21
-120.4378983
0
ARC
8
0
10
223.3345525
20
-119.9202602
40
2
50
345
51
435.0000001
0
LINE
8
0
10
223.8521906
20
-117.9884085
11
207.9144145
21
-113.7178942
0
ARC
8
0
10
207.3967764
20
-115.6497459
40
2
50
74.9999998
51
105.6664894
0
ARC
8
0
10
205.0790189
20
-114.6404761
40
2
50
387.2719817
51
435.0000001
0
LINE
8
0
10
205.596657
20
-112.7086244
11
203.6165112
21
-112.1780459
0
LINE
8
0
10
200.64442
20
-133.1224763
11
198.6709248
21
-140.4876607
0
ARC
8
0
10
200.6027765
20
-141.0052988
40
2
50
165
51
255.0000001
0
LINE
8
0
10
200.0851384
20
-142.9371505
11
216.0229145
21
-147.2076648
0
ARC
8
0
10
216.5405526
20
-145.2758131
40
2
50
255.0000001
51
345
0
ENDSEC
0
EOF