0
SECTION
2
HEADER
9
$INSUNITS
70
4
0
ENDSEC
0
SECTION
2
TABLES
0
TABLE
2
LTYPE
0
LTYPE
72
65
70
64
2
CONTINUOUS
3
______
73
0
40
0
0
ENDTAB
0
TABLE
2
LAYER
0
ENDTAB
0
ENDSEC
0
SECTION
2
ENTITIES
0
LINE
8
0
10
89.5
20
-108.5
11
89.5
21
-40.5
0
ARC
8
0
10
91.5
20
-40.5
40
2
50
90
51
180
0
LINE
8
0
10
91.5
20
-38.5
11
123.5
21
-38.5
0
LINE
8
0
10
123.5
20
-38.5
11
123.5
21
-36.25
0
ARC
8
0
10
125.5
20
-36.25
40
2
50
90
51
180
0
LINE
8
0
10
125.5
20
-34.25
11
140.5
21
-34.25
0
LINE
8
0
10
140.5
20
-34.25
11
140.5
21
-34.125
0
ARC
8
0
10
142.5
20
-34.125
40
2
50
90
51
180
0
LINE
8
0
10
142.5
20
-32.125
11
159.5
21
-32.125
0
ARC
8
0
10
159.5
20
-34.125
40
2
50
360
51
90
0
LINE
8
0
10
161.5
20
-34.125
11
161.5
21
-34.25
0
LINE
8
0
10
161.5
20
-34.25
11
176.5
21
-34.25
0
ARC
8
0
10
176.5
20
-36.25
40
2
50
360
51
90
0
LINE
8
0
10
178.5
20
-36.25
11
178.5
21
-36.375
0
LINE
8
0
10
178.5
20
-36.375
11
193.5
21
-36.375
0
ARC
8
0
10
193.5
20
-38.375
40
2
50
360
51
90
0
LINE
8
0
10
195.5
20
-38.375
11
195.5
21
-103.6449667
0
LINE
8
0
10
195.5
20
-103.6449667
11
199.4917811
21
-102.3827159
0
ARC
8
0
10
200.0947772
20
-104.2896495
40
2
50
435.0000001
51
107.5476016
0
LINE
8
0
10
200.6124153
20
-102.3577978
11
217.0331543
21
-106.7577216
0
ARC
8
0
10
216.5155162
20
-108.6895733
40
2
50
345.0000001
51
74.9999999
0
LINE
8
0
10
218.4473679
20
-109.2072114
11
214.0474441
21
-125.6279504
0
ARC
8
0
10
212.1155924
20
-125.1103123
40
2
50
255.0000001
51
344.9999999
0
LINE
8
0
10
211.5979543
20
-127.042164
11
195.6121521
21
-122.7587812
0
LINE
8
0
10
195.6121521
20
-122.7587812
11
176.860215
21
-126.1922939
0
ARC
8
0
10
176.5
20
-124.225
40
2
50
270
51
280.3760207
0
LINE
8
0
10
142.5
20
-126.225
11
176.5
21
-126.225
0
ARC
8
0
10
142.5
20
-124.225
40
2
50
252.8637246
51
270
0
LINE
8
0
10
141.9107092
20
-126.1362133
11
90.9107092
21
-110.4112133
0
ARC
8
0
10
91.5
20
-108.5
40
2
50
180
51
252.8637246
0
ENDSEC
0
EOF