0
SECTION
2
HEADER
9
$INSUNITS
70
4
0
ENDSEC
0
SECTION
2
TABLES
0
TABLE
2
LTYPE
0
LTYPE
72
65
70
64
2
CONTINUOUS
3
______
73
0
40
0
0
ENDTAB
0
TABLE
2
LAYER
0
ENDTAB
0
ENDSEC
0
SECTION
2
ENTITIES
0
LINE
8
0
10
93.1
20
-126.9
11
106.9
21
-126.9
0
LINE
8
0
10
106.9
20
-126.9
11
106.9
21
-113.1
0
LINE
8
0
10
106.9
20
-113.1
11
93.1
21
-113.1
0
LINE
8
0
10
93.1
20
-113.1
11
93.1
21
-126.9
0
LINE
8
0
10
93.1
20
-108.4
11
106.9
21
-108.4
0
LINE
8
0
10
106.9
20
-108.4
11
106.9
21
-94.6
0
LINE
8
0
10
106.9
20
-94.6
11
93.1
21
-94.6
0
LINE
8
0
10
93.1
20
-94.6
11
93.1
21
-108.4
0
LINE
8
0
10
93.1
20
-89.9
11
106.9
21
-89.9
0
LINE
8
0
10
106.9
20
-89.9
11
106.9
21
-76.1
0
LINE
8
0
10
106.9
20
-76.1
11
93.1
21
-76.1
0
LINE
8
0
10
93.1
20
-76.1
11
93.1
21
-89.9
0
LINE
8
0
10
93.1
20
-71.4
11
106.9
21
-71.4
0
LINE
8
0
10
106.9
20
-71.4
11
106.9
21
-57.6
0
LINE
8
0
10
106.9
20
-57.6
11
93.1
21
-57.6
0
LINE
8
0
10
93.1
20
-57.6
11
93.1
21
-71.4
0
LINE
8
0
10
111.6
20
-126.9
11
125.4
21
-126.9
0
LINE
8
0
10
125.4
20
-126.9
11
125.4
21
-113.1
0
LINE
8
0
10
125.4
20
-113.1
11
111.6
21
-113.1
0
LINE
8
0
10
111.6
20
-113.1
11
111.6
21
-126.9
0
LINE
8
0
10
111.6
20
-108.4
11
125.4
21
-108.4
0
LINE
8
0
10
125.4
20
-108.4
11
125.4
21
-94.6
0
LINE
8
0
10
125.4
20
-94.6
11
111.6
21
-94.6
0
LINE
8
0
10
111.6
20
-94.6
11
111.6
21
-108.4
0
LINE
8
0
10
111.6
20
-89.9
11
125.4
21
-89.9
0
LINE
8
0
10
125.4
20
-89.9
11
125.4
21
-76.1
0
LINE
8
0
10
125.4
20
-76.1
11
111.6
21
-76.1
0
LINE
8
0
10
111.6
20
-76.1
11
111.6
21
-89.9
0
LINE
8
0
10
111.6
20
-71.4
11
125.4
21
-71.4
0
LINE
8
0
10
125.4
20
-71.4
11
125.4
21
-57.6
0
LINE
8
0
10
125.4
20
-57.6
11
111.6
21
-57.6
0
LINE
8
0
10
111.6
20
-57.6
11
111.6
21
-71.4
0
LINE
8
0
10
130.1
20
-122.275
11
143.9
21
-122.275
0
LINE
8
0
10
143.9
20
-122.275
11
143.9
21
-108.475
0
LINE
8
0
10
143.9
20
-108.475
11
130.1
21
-108.475
0
LINE
8
0
10
130.1
20
-108.475
11
130.1
21
-122.275
0
LINE
8
0
10
130.1
20
-103.775
11
143.9
21
-103.775
0
LINE
8
0
10
143.9
20
-103.775
11
143.9
21
-89.975
0
LINE
8
0
10
143.9
20
-89.975
11
130.1
21
-89.975
0
LINE
8
0
10
130.1
20
-89.975
11
130.1
21
-103.775
0
LINE
8
0
10
130.1
20
-85.275
11
143.9
21
-85.275
0
LINE
8
0
10
143.9
20
-85.275
11
143.9
21
-71.475
0
LINE
8
0
10
143.9
20
-71.475
11
130.1
21
-71.475
0
LINE
8
0
10
130.1
20
-71.475
11
130.1
21
-85.275
0
LINE
8
0
10
130.1
20
-66.775
11
143.9
21
-66.775
0
LINE
8
0
10
143.9
20
-66.775
11
143.9
21
-52.975
0
LINE
8
0
10
143.9
20
-52.975
11
130.1
21
-52.975
0
LINE
8
0
10
130.1
20
-52.975
11
130.1
21
-66.775
0
LINE
8
0
10
148.6
20
-119.9625
11
162.4
21
-119.9625
0
LINE
8
0
10
162.4
20
-119.9625
11
162.4
21
-106.1625
0
LINE
8
0
10
162.4
20
-106.1625
11
148.6
21
-106.1625
0
LINE
8
0
10
148.6
20
-106.1625
11
148.6
21
-119.9625
0
LINE
8
0
10
148.6
20
-101.4625
11
162.4
21
-101.4625
0
LINE
8
0
10
162.4
20
-101.4625
11
162.4
21
-87.6625
0
LINE
8
0
10
162.4
20
-87.6625
11
148.6
21
-87.6625
0
LINE
8
0
10
148.6
20
-87.6625
11
148.6
21
-101.4625
0
LINE
8
0
10
148.6
20
-82.9625
11
162.4
21
-82.9625
0
LINE
8
0
10
162.4
20
-82.9625
11
162.4
21
-69.1625
0
LINE
8
0
10
162.4
20
-69.1625
11
148.6
21
-69.1625
0
LINE
8
0
10
148.6
20
-69.1625
11
148.6
21
-82.9625
0
LINE
8
0
10
148.6
20
-64.4625
11
162.4
21
-64.4625
0
LINE
8
0
10
162.4
20
-64.4625
11
162.4
21
-50.6625
0
LINE
8
0
10
162.4
20
-50.6625
11
148.6
21
-50.6625
0
LINE
8
0
10
148.6
20
-50.6625
11
148.6
21
-64.4625
0
LINE
8
0
10
167.1
20
-122.275
11
180.9
21
-122.275
0
LINE
8
0
10
180.9
20
-122.275
11
180.9
21
-108.475
0
LINE
8
0
10
180.9
20
-108.475
11
167.1
21
-108.475
0
LINE
8
0
10
167.1
20
-108.475
11
167.1
21
-122.275
0
LINE
8
0
10
167.1
20
-103.775
11
180.9
21
-103.775
0
LINE
8
0
10
180.9
20
-103.775
11
180.9
21
-89.975
0
LINE
8
0
10
180.9
20
-89.975
11
167.1
21
-89.975
0
LINE
8
0
10
167.1
20
-89.975
11
167.1
21
-103.775
0
LINE
8
0
10
167.1
20
-85.275
11
180.9
21
-85.275
0
LINE
8
0
10
180.9
20
-85.275
11
180.9
21
-71.475
0
LINE
8
0
10
180.9
20
-71.475
11
167.1
21
-71.475
0
LINE
8
0
10
167.1
20
-71.475
11
167.1
21
-85.275
0
LINE
8
0
10
167.1
20
-66.775
11
180.9
21
-66.775
0
LINE
8
0
10
180.9
20
-66.775
11
180.9
21
-52.975
0
LINE
8
0
10
180.9
20
-52.975
11
167.1
21
-52.975
0
LINE
8
0
10
167.1
20
-52.975
11
167.1
21
-66.775
0
LINE
8
0
10
185.6
20
-124.5875
11
199.4
21
-124.5875
0
LINE
8
0
10
199.4
20
-124.5875
11
199.4
21
-110.7875
0
LINE
8
0
10
199.4
20
-110.7875
11
185.6
21
-110.7875
0
LINE
8
0
10
185.6
20
-110.7875
11
185.6
21
-124.5875
0
LINE
8
0
10
185.6
20
-106.0875
11
199.4
21
-106.0875
0
LINE
8
0
10
199.4
20
-106.0875
11
199.4
21
-92.2875
0
LINE
8
0
10
199.4
20
-92.2875
11
185.6
21
-92.2875
0
LINE
8
0
10
185.6
20
-92.2875
11
185.6
21
-106.0875
0
LINE
8
0
10
185.6
20
-87.5875
11
199.4
21
-87.5875
0
LINE
8
0
10
199.4
20
-87.5875
11
199.4
21
-73.7875
0
LINE
8
0
10
199.4
20
-73.7875
11
185.6
21
-73.7875
0
LINE
8
0
10
185.6
20
-73.7875
11
185.6
21
-87.5875
0
LINE
8
0
10
185.6
20
-69.0875
11
199.4
21
-69.0875
0
LINE
8
0
10
199.4
20
-69.0875
11
199.4
21
-55.2875
0
LINE
8
0
10
199.4
20
-55.2875
11
185.6
21
-55.2875
0
LINE
8
0
10
185.6
20
-55.2875
11
185.6
21
-69.0875
0
LINE
8
0
10
157.85
20
-142.625
11
171.65
21
-142.625
0
LINE
8
0
10
171.65
20
-142.625
11
171.65
21
-128.825
0
LINE
8
0
10
171.65
20
-128.825
11
157.85
21
-128.825
0
LINE
8
0
10
157.85
20
-128.825
11
157.85
21
-142.625
0
LINE
8
0
10
175.3778735
20
-142.6567837
11
189.0598126
21
-144.4580452
0
LINE
8
0
10
189.0598126
20
-144.4580452
11
190.8610741
21
-130.7761061
0
LINE
8
0
10
190.8610741
20
-130.7761061
11
177.179135
21
-128.9748446
0
LINE
8
0
10
177.179135
20
-128.9748446
11
175.3778735
21
-142.6567837
0
LINE
8
0
10
192.6233522
20
-144.9506231
11
205.9531286
21
-148.5223259
0
LINE
8
0
10
205.9531286
20
-148.5223259
11
209.5248314
21
-135.1925495
0
LINE
8
0
10
209.5248314
20
-135.1925495
11
196.195055
21
-131.6208467
0
LINE
8
0
10
196.195055
20
-131.6208467
11
192.6233522
21
-144.9506231
0
ENDSEC
0
EOF