0
SECTION
2
HEADER
9
$INSUNITS
70
4
0
ENDSEC
0
SECTION
2
TABLES
0
TABLE
2
LTYPE
0
LTYPE
72
65
70
64
2
CONTINUOUS
3
______
73
0
40
0
0
ENDTAB
0
TABLE
2
LAYER
0
ENDTAB
0
ENDSEC
0
SECTION
2
ENTITIES
0
LINE
8
0
10
88.75
20
-108.75
11
88.75
21
-38.75
0
ARC
8
0
10
90.75
20
-38.75
40
2
50
90
51
180
0
LINE
8
0
10
90.75
20
-36.75
11
125.75
21
-36.75
0
LINE
8
0
10
125.75
20
-36.75
11
125.75
21
-34.375
0
ARC
8
0
10
127.75
20
-34.375
40
2
50
90
51
180
0
LINE
8
0
10
127.75
20
-32.375
11
144.25
21
-32.375
0
LINE
8
0
10
144.25
20
-32.375
11
144.25
21
-32.1875
0
ARC
8
0
10
146.25
20
-32.1875
40
2
50
90
51
180
0
LINE
8
0
10
146.25
20
-30.1875
11
164.75
21
-30.1875
0
ARC
8
0
10
164.75
20
-32.1875
40
2
50
0
51
90
0
LINE
8
0
10
166.75
20
-32.1875
11
166.75
21
-32.375
0
LINE
8
0
10
166.75
20
-32.375
11
183.25
21
-32.375
0
ARC
8
0
10
183.25
20
-34.375
40
2
50
0
51
90
0
LINE
8
0
10
185.25
20
-34.375
11
185.25
21
-34.5625
0
LINE
8
0
10
185.25
20
-34.5625
11
201.75
21
-34.5625
0
ARC
8
0
10
201.75
20
-36.5625
40
2
50
0
51
90
0
LINE
8
0
10
203.75
20
-37.3625
11
203.75
21
-36.5625
0
LINE
8
0
10
225.8
20
-37.3625
11
203.75
21
-37.3625
0
ARC
8
0
10
225.8
20
-38.3625
40
1
50
0
51
90
0
LINE
8
0
10
226.8
20
-114.3625
11
226.8
21
-112.5061839
0
LINE
8
0
10
226.8
20
-102.575045
11
226.8
21
-38.3625
0
ARC
8
0
10
225.8
20
-114.3625
40
1
50
284.0436543
51
360
0
LINE
8
0
10
203.75
20
-115.3625
11
204.8114906
21
-115.3625
0
LINE
8
0
10
203.75
20
-119.324037
11
203.75
21
-115.3625
0
ARC
8
0
10
201.75
20
-124.9375
40
2
50
270
51
289.5655478
0
LINE
8
0
10
146.25
20
-126.9375
11
201.75
21
-126.9375
0
ARC
8
0
10
146.25
20
-124.9375
40
2
50
253.7397953
51
270
0
LINE
8
0
10
145.69
20
-126.8575
11
90.19
21
-110.67
0
ARC
8
0
10
90.75
20
-108.75
40
2
50
180
51
253.7397953
0
LINE
8
0
10
221.9711467
20
-130.5277098
11
226.0426611
21
-115.3326111
0
LINE
8
0
10
226.8
20
-112.5061839
11
228.7651466
21
-105.1721569
0
ARC
8
0
10
226.8332949
20
-104.6545188
40
2
50
345
51
435.0000001
0
LINE
8
0
10
227.350933
20
-102.7226671
11
226.8
21
-102.575045
0
LINE
8
0
10
204.8114906
20
-115.3625
11
203.75
21
-119.324037
0
ARC
8
0
10
204.1015189
20
-125.7395574
40
2
50
212.7674301
51
255.0000001
0
LINE
8
0
10
203.5838808
20
-127.6714091
11
219.5216569
21
-131.9419234
0
ARC
8
0
10
220.039295
20
-130.0100717
40
2
50
255.0000001
51
345
0
ENDSEC
0
EOF