0
SECTION
2
HEADER
9
$INSUNITS
70
4
0
ENDSEC
0
SECTION
2
TABLES
0
TABLE
2
LTYPE
0
LTYPE
72
65
70
64
2
CONTINUOUS
3
______
73
0
40
0
0
ENDTAB
0
TABLE
2
LAYER
0
ENDTAB
0
ENDSEC
0
SECTION
2
ENTITIES
0
LINE
8
0
10
122.669238
20
-150
11
177.5865015
21
-150
0
LINE
8
0
10
207.9225
20
-126.0075007
11
207.9225
21
-48
0
LINE
8
0
10
205.9225
20
-46
11
90.9225
21
-46
0
LINE
8
0
10
88.9225
20
-48
11
88.9225
21
-129.8971841
0
ARC
8
0
10
205.9225
20
-48
40
2
50
0
51
90
0
ARC
8
0
10
90.9225
20
-48
40
2
50
90
51
180
0
LINE
8
0
10
89.9317976
20
-131.6345698
11
121.6785356
21
-149.7373856
0
LINE
8
0
10
177.8475539
20
-150.0171103
11
190.9578143
21
-151.7431089
0
LINE
8
0
10
191.2143999
20
-151.7941468
11
208.9533468
21
-156.5472833
0
LINE
8
0
10
211.4028365
20
-155.1330696
11
217.5497888
21
-132.1923313
0
LINE
8
0
10
216.1355751
20
-129.7428416
11
209.404862
21
-127.9393524
0
ARC
8
0
10
177.5865015
20
-152
40
2
50
82.4999998
51
90
0
ARC
8
0
10
190.6967619
20
-153.7259986
40
2
50
75.0000021
51
82.4999998
0
ARC
8
0
10
209.4709848
20
-154.6154316
40
2
50
255.0000021
51
345.0000021
0
ARC
8
0
10
215.6179371
20
-131.6746933
40
2
50
345.0000021
51
75.0000021
0
ARC
8
0
10
209.9225
20
-126.0075007
40
2
50
180
51
255.0000021
0
ARC
8
0
10
90.9225
20
-129.8971841
40
2
50
180
51
240.3070883
0
ARC
8
0
10
122.669238
20
-148
40
2
50
240.3070883
51
270
0
ENDSEC
0
EOF