0
SECTION
2
HEADER
9
$INSUNITS
70
4
0
ENDSEC
0
SECTION
2
TABLES
0
TABLE
2
LTYPE
0
LTYPE
72
65
70
64
2
CONTINUOUS
3
______
73
0
40
0
0
ENDTAB
0
TABLE
2
LAYER
0
ENDTAB
0
ENDSEC
0
SECTION
2
ENTITIES
0
LINE
8
0
10
190.7432494
20
-145.8444739
11
211.6166111
21
-151.4374743
0
LINE
8
0
10
211.6166111
20
-151.4374743
11
215.8871254
21
-135.4996982
0
LINE
8
0
10
215.8871254
20
-135.4996982
11
190.5315725
21
-128.7056983
0
LINE
8
0
10
190.5315725
20
-128.7056983
11
190.3593597
21
-129.3484051
0
LINE
8
0
10
173.3674902
20
-143.7537608
11
190.7177753
21
-146.0379692
0
LINE
8
0
10
190.7177753
20
-146.0379692
11
190.7432494
21
-145.8444739
0
LINE
8
0
10
190.3593597
20
-129.3484051
11
175.5211723
21
-127.3949206
0
LINE
8
0
10
175.5211723
20
-127.3949206
11
173.3674902
21
-143.7537608
0
ENDSEC
0
EOF