0
SECTION
2
HEADER
9
$INSUNITS
70
4
0
ENDSEC
0
SECTION
2
TABLES
0
TABLE
2
LTYPE
0
LTYPE
72
65
70
64
2
CONTINUOUS
3
______
73
0
40
0
0
ENDTAB
0
TABLE
2
LAYER
0
ENDTAB
0
ENDSEC
0
SECTION
2
ENTITIES
0
LINE
8
0
10
90.75
20
-129.25
11
90.75
21
-55.25
0
LINE
8
0
10
90.75
20
-55.25
11
127.75
21
-55.25
0
LINE
8
0
10
127.75
20
-55.25
11
127.75
21
-50.625
0
LINE
8
0
10
127.75
20
-50.625
11
146.25
21
-50.625
0
LINE
8
0
10
146.25
20
-50.625
11
146.25
21
-48.3125
0
LINE
8
0
10
146.25
20
-48.3125
11
164.75
21
-48.3125
0
LINE
8
0
10
164.75
20
-48.3125
11
164.75
21
-50.625
0
LINE
8
0
10
164.75
20
-50.625
11
183.25
21
-50.625
0
LINE
8
0
10
183.25
20
-50.625
11
183.25
21
-52.9375
0
LINE
8
0
10
183.25
20
-52.9375
11
201.75
21
-52.9375
0
LINE
8
0
10
201.75
20
-52.9375
11
201.75
21
-126.9375
0
LINE
8
0
10
201.75
20
-126.9375
11
194.5333541
21
-128.7426962
0
LINE
8
0
10
194.5333541
20
-128.7426962
11
212.4029819
21
-133.5308486
0
LINE
8
0
10
212.4029819
20
-133.5308486
11
207.6148295
21
-151.4004764
0
LINE
8
0
10
207.6148295
20
-151.4004764
11
189.7452017
21
-146.612324
0
LINE
8
0
10
189.7452017
20
-146.612324
11
191.0829715
21
-147.0946771
0
LINE
8
0
10
191.0829715
20
-147.0946771
11
172.7412416
21
-144.6799426
0
LINE
8
0
10
172.7412416
20
-144.6799426
11
155.5
21
-144.975
0
LINE
8
0
10
155.5
20
-144.975
11
90.75
21
-129.25
0
ENDSEC
0
EOF