0
SECTION
2
HEADER
9
$INSUNITS
70
4
0
ENDSEC
0
SECTION
2
TABLES
0
TABLE
2
LTYPE
0
LTYPE
72
65
70
64
2
CONTINUOUS
3
______
73
0
40
0
0
ENDTAB
0
TABLE
2
LAYER
0
ENDTAB
0
ENDSEC
0
SECTION
2
ENTITIES
0
LINE
8
0
10
89.5
20
-108.5
11
89.5
21
-40.5
0
ARC
8
0
10
91.5
20
-40.5
40
2
50
90
51
180
0
LINE
8
0
10
91.5
20
-38.5
11
123.5
21
-38.5
0
LINE
8
0
10
123.5
20
-38.5
11
123.5
21
-36.25
0
ARC
8
0
10
125.5
20
-36.25
40
2
50
90
51
180
0
LINE
8
0
10
125.5
20
-34.25
11
140.5
21
-34.25
0
LINE
8
0
10
140.5
20
-34.25
11
140.5
21
-34.125
0
ARC
8
0
10
142.5
20
-34.125
40
2
50
90
51
180
0
LINE
8
0
10
142.5
20
-32.125
11
159.5
21
-32.125
0
ARC
8
0
10
159.5
20
-34.125
40
2
50
0
51
90
0
LINE
8
0
10
161.5
20
-34.125
11
161.5
21
-34.25
0
LINE
8
0
10
161.5
20
-34.25
11
176.5
21
-34.25
0
ARC
8
0
10
176.5
20
-36.25
40
2
50
0
51
90
0
LINE
8
0
10
178.5
20
-36.25
11
178.5
21
-36.375
0
LINE
8
0
10
178.5
20
-36.375
11
193.5
21
-36.375
0
ARC
8
0
10
193.5
20
-38.375
40
2
50
0
51
90
0
LINE
8
0
10
195.5
20
-39.175
11
195.5
21
-38.375
0
LINE
8
0
10
215.6
20
-39.175
11
195.5
21
-39.175
0
ARC
8
0
10
215.6
20
-40.175
40
1
50
0
51
90
0
LINE
8
0
10
216.6
20
-101.8535059
11
216.6
21
-40.175
0
LINE
8
0
10
142.5
20
-126.225
11
192.9972594
21
-126.225
0
ARC
8
0
10
142.5
20
-124.225
40
2
50
252.8637255
51
270
0
LINE
8
0
10
141.9107092
20
-126.1362134
11
90.9107092
21
-110.4112134
0
ARC
8
0
10
91.5
20
-108.5
40
2
50
180
51
252.8637255
0
LINE
8
0
10
212.6089246
20
-130.0306526
11
219.4029245
21
-104.6750997
0
ARC
8
0
10
217.4710728
20
-104.1574616
40
2
50
345
51
435.0000001
0
LINE
8
0
10
217.9887109
20
-102.2256099
11
216.6
21
-101.8535059
0
ARC
8
0
10
194.7392968
20
-125.2425002
40
2
50
209.4227664
51
255.0000001
0
LINE
8
0
10
194.2216587
20
-127.1743519
11
210.1594348
21
-131.4448662
0
ARC
8
0
10
210.6770729
20
-129.5130145
40
2
50
255.0000001
51
345
0
ENDSEC
0
EOF