0
SECTION
2
HEADER
9
$INSUNITS
70
4
0
ENDSEC
0
SECTION
2
TABLES
0
TABLE
2
LTYPE
0
LTYPE
72
65
70
64
2
CONTINUOUS
3
______
73
0
40
0
0
ENDTAB
0
TABLE
2
LAYER
0
ENDTAB
0
ENDSEC
0
SECTION
2
ENTITIES
0
LINE
8
0
10
150.875
20
-149.6
11
174.6792867
21
-149.6
0
LINE
8
0
10
178.625
20
-122.1300094
11
178.625
21
-121.85
0
LINE
8
0
10
178.625
20
-121.85
11
176.4981178
21
-121.85
0
LINE
8
0
10
171.0819516
20
-121.85
11
150.875
21
-121.85
0
LINE
8
0
10
150.875
20
-121.85
11
150.875
21
-149.6
0
LINE
8
0
10
174.6792867
20
-149.6
11
191.0877803
21
-151.7602192
0
LINE
8
0
10
198.6491473
20
-125.0573674
11
198.6868222
21
-124.7711984
0
LINE
8
0
10
198.6868222
20
-124.7711984
11
196.513153
21
-124.4850294
0
LINE
8
0
10
191.0777793
20
-123.7694489
11
178.625
21
-122.1300094
0
LINE
8
0
10
176.4981178
20
-121.85
11
171.1742273
21
-121.1490965
0
LINE
8
0
10
171.1742273
20
-121.1490965
11
171.0819516
21
-121.85
0
LINE
8
0
10
191.0877803
20
-151.7602192
11
210.8851984
21
-157.0649214
0
LINE
8
0
10
210.8851984
20
-157.0649214
11
218.0674269
21
-130.2604797
0
LINE
8
0
10
218.0674269
20
-130.2604797
11
198.6491473
21
-125.0573674
0
LINE
8
0
10
196.513153
20
-124.4850294
11
191.2629852
21
-123.0782512
0
LINE
8
0
10
191.2629852
20
-123.0782512
11
191.0777793
21
-123.7694489
0
ENDSEC
0
EOF