0
SECTION
2
HEADER
9
$INSUNITS
70
4
0
ENDSEC
0
SECTION
2
TABLES
0
TABLE
2
LTYPE
0
LTYPE
72
65
70
64
2
CONTINUOUS
3
______
73
0
40
0
0
ENDTAB
0
TABLE
2
LAYER
0
ENDTAB
0
ENDSEC
0
SECTION
2
ENTITIES
0
LINE
8
0
10
89.75
20
-108.75
11
89.75
21
-38.75
0
ARC
8
0
10
90.75
20
-38.75
40
1
50
90
51
180
0
LINE
8
0
10
90.75
20
-37.75
11
126.75
21
-37.75
0
LINE
8
0
10
126.75
20
-37.75
11
126.75
21
-34.375
0
ARC
8
0
10
127.75
20
-34.375
40
1
50
90
51
180
0
LINE
8
0
10
127.75
20
-33.375
11
145.25
21
-33.375
0
LINE
8
0
10
145.25
20
-33.375
11
145.25
21
-32.1875
0
ARC
8
0
10
146.25
20
-32.1875
40
1
50
90
51
180
0
LINE
8
0
10
146.25
20
-31.1875
11
164.75
21
-31.1875
0
ARC
8
0
10
164.75
20
-32.1875
40
1
50
360
51
90
0
LINE
8
0
10
165.75
20
-32.1875
11
165.75
21
-33.375
0
LINE
8
0
10
165.75
20
-33.375
11
183.25
21
-33.375
0
ARC
8
0
10
183.25
20
-34.375
40
1
50
360
51
90
0
LINE
8
0
10
184.25
20
-34.375
11
184.25
21
-35.5625
0
LINE
8
0
10
184.25
20
-35.5625
11
201.75
21
-35.5625
0
ARC
8
0
10
201.75
20
-36.5625
40
1
50
360
51
90
0
LINE
8
0
10
202.75
20
-36.5625
11
202.75
21
-106.5625
0
ARC
8
0
10
201.75
20
-106.5625
40
1
50
358.6324491
51
0
0
LINE
8
0
10
202.7497152
20
-106.586366
11
202.6225841
21
-111.911724
0
LINE
8
0
10
182.3713053
20
-127.3328136
11
164.7105585
21
-125.9375
0
LINE
8
0
10
164.7105585
20
-125.9375
11
146.25
21
-125.9375
0
ARC
8
0
10
146.25
20
-124.9375
40
1
50
253.7397953
51
270
0
LINE
8
0
10
145.97
20
-125.8975
11
90.47
21
-109.71
0
ARC
8
0
10
90.75
20
-108.75
40
1
50
180
51
253.7397953
0
LINE
8
0
10
218.4724043
20
-145.7934512
11
225.2664042
21
-120.4378983
0
ARC
8
0
10
223.3345525
20
-119.9202602
40
2
50
345
51
435.0000001
0
LINE
8
0
10
223.8521906
20
-117.9884085
11
207.9144145
21
-113.7178942
0
ARC
8
0
10
207.3967764
20
-115.6497459
40
2
50
74.9999998
51
105.6664894
0
ARC
8
0
10
205.0790189
20
-114.6404761
40
2
50
387.2719817
51
435.0000001
0
LINE
8
0
10
205.596657
20
-112.7086244
11
202.6225841
21
-111.911724
0
ARC
8
0
10
183.9048027
20
-126.0489189
40
2
50
219.937183
51
255
0
LINE
8
0
10
183.3871646
20
-127.9807706
11
200.2908666
21
-132.5101039
0
ARC
8
0
10
200.8085047
20
-130.5782522
40
2
50
255
51
269.4775125
0
LINE
8
0
10
200.7902667
20
-132.578169
11
198.6709248
21
-140.4876607
0
ARC
8
0
10
200.6027765
20
-141.0052988
40
2
50
165
51
255.0000001
0
LINE
8
0
10
200.0851384
20
-142.9371505
11
216.0229145
21
-147.2076648
0
ARC
8
0
10
216.5405526
20
-145.2758131
40
2
50
255.0000001
51
345
0
ENDSEC
0
EOF