0
SECTION
2
HEADER
9
$INSUNITS
70
4
0
ENDSEC
0
SECTION
2
TABLES
0
TABLE
2
LTYPE
0
LTYPE
72
65
70
64
2
CONTINUOUS
3
______
73
0
40
0
0
ENDTAB
0
TABLE
2
LAYER
0
ENDTAB
0
ENDSEC
0
SECTION
2
ENTITIES
0
LINE
8
0
10
110.5082665
20
-109.9252765
11
91.4862289
21
-39.8334391
0
LINE
8
0
10
91.9687611
20
-39.2024823
11
127.8150135
21
-39.2015135
0
LINE
8
0
10
128.315
20
-38.7015135
11
128.315
21
-35.3275
0
LINE
8
0
10
128.815
20
-34.8275
11
146.315
21
-34.8275
0
LINE
8
0
10
146.815
20
-34.3275
11
146.815
21
-33.2525
0
LINE
8
0
10
147.315
20
-32.7525
11
163.843
21
-32.7525
0
LINE
8
0
10
164.343
20
-33.2525
11
164.343
21
-34.3275
0
LINE
8
0
10
164.843
20
-34.8275
11
182.343
21
-34.8275
0
LINE
8
0
10
182.843
20
-35.3275
11
182.843
21
-36.6231216
0
LINE
8
0
10
183.3428784
20
-37.1231216
11
200.8424828
21
-37.1273783
0
LINE
8
0
10
201.3423608
20
-37.6280168
11
201.3186394
21
-56.2018615
0
LINE
8
0
10
220.938
20
-112.3635
11
219.657526
21
-126.9853942
0
LINE
8
0
10
219.0811472
20
-127.4356084
11
121.7587378
21
-112.0075511
0
LINE
8
0
10
117.5571285
20
-111.34149
11
110.9125271
21
-110.2881531
0
LINE
8
0
10
201.818639
20
-56.7025
11
221.068
21
-56.7025
0
LINE
8
0
10
221.568
20
-57.2025
11
221.568
21
-111.8635
0
LINE
8
0
10
221.068
20
-112.3635
11
220.938
21
-112.3635
0
ARC
8
0
10
91.9687746
20
-39.7024823
40
0.5
50
90.001547
51
195.1836391
0
ARC
8
0
10
127.815
20
-38.7015135
40
0.5
50
270.001547
51
0
0
ARC
8
0
10
128.815
20
-35.3275
40
0.5
50
90
51
180
0
ARC
8
0
10
146.315
20
-34.3275
40
0.5
50
270
51
0
0
ARC
8
0
10
147.315
20
-33.2525
40
0.5
50
90
51
180
0
ARC
8
0
10
163.843
20
-33.2525
40
0.5
50
0
51
90
0
ARC
8
0
10
164.843
20
-34.3275
40
0.5
50
180
51
270
0
ARC
8
0
10
182.343
20
-35.3275
40
0.5
50
0
51
90
0
ARC
8
0
10
183.343
20
-36.6231216
40
0.5
50
180
51
269.9860657
0
ARC
8
0
10
200.8423612
20
-37.6273783
40
0.5
50
359.9268275
51
89.9860657
0
ARC
8
0
10
201.818639
20
-56.2025
40
0.5
50
179.9268275
51
270
0
ARC
8
0
10
221.068
20
-57.2025
40
0.5
50
0
51
90
0
ARC
8
0
10
221.068
20
-111.8635
40
0.5
50
270
51
0
0
ARC
8
0
10
219.1594323
20
-126.941775
40
0.5
50
260.9921313
51
354.9952405
0
ARC
8
0
10
110.9908122
20
-109.7943197
40
0.5
50
195.1836391
51
260.9921313
0
CIRCLE
8
0
10
109.25
20
-73.75
40
2.15
0
CIRCLE
8
0
10
109.25
20
-91.25
40
2.15
0
CIRCLE
8
0
10
183.218
20
-70.4235
40
2.15
0
ARC
8
0
10
119.707
20
-111.365
40
2.15
50
342.6107962
51
539.3734648
0
CIRCLE
8
0
10
191.871694
20
-109.4866677
40
2.15
0
CIRCLE
8
0
10
204.927
20
-100.4385
40
1.1
0
CIRCLE
8
0
10
218.969
20
-108.8825
40
1.1
0
ENDSEC
0
EOF