0
SECTION
2
HEADER
9
$INSUNITS
70
4
0
ENDSEC
0
SECTION
2
TABLES
0
TABLE
2
LTYPE
0
LTYPE
72
65
70
64
2
CONTINUOUS
3
______
73
0
40
0
0
ENDTAB
0
TABLE
2
LAYER
0
ENDTAB
0
ENDSEC
0
SECTION
2
ENTITIES
0
LINE
8
0
10
91.3169807
20
-90.5124502
11
91.3150193
21
-39.7025058
0
LINE
8
0
10
91.8150058
20
-39.2024865
11
127.8150135
21
-39.2015135
0
LINE
8
0
10
128.315
20
-38.7015135
11
128.315
21
-35.3275
0
LINE
8
0
10
128.815
20
-34.8275
11
146.315
21
-34.8275
0
LINE
8
0
10
146.815
20
-34.3275
11
146.815
21
-33.2525
0
LINE
8
0
10
147.315
20
-32.7525
11
163.843
21
-32.7525
0
LINE
8
0
10
164.343
20
-33.2525
11
164.343
21
-34.3275
0
LINE
8
0
10
164.843
20
-34.8275
11
182.343
21
-34.8275
0
LINE
8
0
10
182.843
20
-35.3275
11
182.843
21
-36.6231216
0
LINE
8
0
10
183.3428784
20
-37.1231216
11
200.8370627
21
-37.1273769
0
LINE
8
0
10
201.3369048
20
-37.6334006
11
201.3240967
21
-38.6964763
0
LINE
8
0
10
220.938
20
-94.8635
11
174.8623381
21
-124.3961038
0
LINE
8
0
10
174.1095621
20
-123.845742
11
177.8546125
21
-109.8690235
0
LINE
8
0
10
177.2176486
20
-109.2639211
11
125.8574105
21
-125.8913067
0
LINE
8
0
10
125.2737822
20
-125.1598398
11
145.1574857
21
-91.7608955
0
LINE
8
0
10
144.7277893
20
-91.0051215
11
91.8170497
21
-91.0124309
0
LINE
8
0
10
201.8240604
20
-39.2025
11
221.068
21
-39.2025
0
LINE
8
0
10
221.568
20
-39.7025
11
221.568
21
-94.3635
0
LINE
8
0
10
221.068
20
-94.8635
11
220.938
21
-94.8635
0
ARC
8
0
10
91.8150193
20
-39.7024865
40
0.5
50
90.001547
51
180.0022116
0
ARC
8
0
10
127.815
20
-38.7015135
40
0.5
50
270.001547
51
0
0
ARC
8
0
10
128.815
20
-35.3275
40
0.5
50
90
51
180
0
ARC
8
0
10
146.315
20
-34.3275
40
0.5
50
270
51
0
0
ARC
8
0
10
147.315
20
-33.2525
40
0.5
50
90
51
180
0
ARC
8
0
10
163.843
20
-33.2525
40
0.5
50
0
51
90
0
ARC
8
0
10
164.843
20
-34.3275
40
0.5
50
180
51
270
0
ARC
8
0
10
182.343
20
-35.3275
40
0.5
50
0
51
90
0
ARC
8
0
10
183.343
20
-36.6231216
40
0.5
50
180
51
269.9860657
0
ARC
8
0
10
200.8369411
20
-37.6273769
40
0.5
50
359.3097238
51
89.9860657
0
ARC
8
0
10
201.8240604
20
-38.7025
40
0.5
50
179.3097238
51
270
0
ARC
8
0
10
221.068
20
-39.7025
40
0.5
50
0
51
90
0
ARC
8
0
10
221.068
20
-94.3635
40
0.5
50
270
51
0
0
ARC
8
0
10
174.592525
20
-123.9751515
40
0.5
50
165.0000021
51
302.6582019
0
ARC
8
0
10
177.3716496
20
-109.739614
40
0.5
50
345.0000021
51
107.9388631
0
ARC
8
0
10
125.7034095
20
-125.4156138
40
0.5
50
149.2329986
51
287.9388631
0
ARC
8
0
10
144.7278584
20
-91.5051215
40
0.5
50
329.2329986
51
90.0079125
0
ARC
8
0
10
91.8169807
20
-90.5124309
40
0.5
50
180.0022116
51
270.0079125
0
CIRCLE
8
0
10
109.25
20
-56.25
40
2.15
0
CIRCLE
8
0
10
109.25
20
-73.75
40
2.15
0
CIRCLE
8
0
10
183.218
20
-52.9235
40
2.15
0
CIRCLE
8
0
10
191.871694
20
-109.4866677
40
2.15
0
CIRCLE
8
0
10
204.927
20
-82.9385
40
1.1
0
CIRCLE
8
0
10
218.969
20
-91.3825
40
1.1
0
ENDSEC
0
EOF