0
SECTION
2
HEADER
9
$INSUNITS
70
4
0
ENDSEC
0
SECTION
2
TABLES
0
TABLE
2
LTYPE
0
LTYPE
72
65
70
64
2
CONTINUOUS
3
______
73
0
40
0
0
ENDTAB
0
TABLE
2
LAYER
0
ENDTAB
0
ENDSEC
0
SECTION
2
ENTITIES
0
LINE
8
0
10
91.0800178
20
-34.4900046
11
91.0819822
21
-89.7400178
0
LINE
8
0
10
91.5800046
20
-33.9899868
11
128.5800131
21
-33.9890132
0
LINE
8
0
10
129.08
20
-33.4890132
11
129.08
21
-29.74
0
LINE
8
0
10
129.58
20
-29.24
11
147.58
21
-29.24
0
LINE
8
0
10
148.08
20
-28.74
11
148.08
21
-27.488
0
LINE
8
0
10
148.58
20
-26.988
11
165.582
21
-26.988
0
LINE
8
0
10
166.082
20
-28.74
11
166.082
21
-27.488
0
LINE
8
0
10
166.582
20
-29.24
11
184.582
21
-29.24
0
LINE
8
0
10
185.082
20
-31.238
11
185.082
21
-29.74
0
LINE
8
0
10
185.582
20
-31.738
11
203.5822219
21
-31.738
0
LINE
8
0
10
204.0822219
20
-32.237778
11
204.083
21
-33.99
0
LINE
8
0
10
151.4334385
20
-115.0914795
11
224.203
21
-94.451
0
LINE
8
0
10
150.797
20
-114.6104551
11
150.797
21
-97.7615284
0
LINE
8
0
10
128.3874815
20
-101.3632528
11
150.2048034
21
-97.2701021
0
LINE
8
0
10
128.0568154
20
-100.4323583
11
145.1086829
21
-91.1794682
0
LINE
8
0
10
91.5819822
20
-90.24
11
144.8702134
21
-90.24
0
LINE
8
0
10
204.5827781
20
-33.99
11
224.333
21
-33.99
0
LINE
8
0
10
224.833
20
-93.951
11
224.833
21
-34.49
0
LINE
8
0
10
204.583
20
-94.451
11
224.333
21
-94.451
0
ARC
8
0
10
91.5800178
20
-34.4899868
40
0.5
50
90.0015069
51
450.0015069
0
ARC
8
0
10
128.58
20
-33.4890132
40
0.5
50
270.0015069
51
630.0015069
0
ARC
8
0
10
129.58
20
-29.74
40
0.5
50
90
51
450
0
ARC
8
0
10
147.58
20
-28.74
40
0.5
50
270
51
630
0
ARC
8
0
10
148.58
20
-27.488
40
0.5
50
90
51
450
0
ARC
8
0
10
165.582
20
-27.488
40
0.5
50
0
51
360
0
ARC
8
0
10
166.582
20
-28.74
40
0.5
50
180
51
540
0
ARC
8
0
10
184.582
20
-29.74
40
0.5
50
0
51
360
0
ARC
8
0
10
185.582
20
-31.238
40
0.5
50
180
51
540
0
ARC
8
0
10
203.5822219
20
-32.238
40
0.5
50
0.0254393
51
360.0254393
0
ARC
8
0
10
204.5827781
20
-33.49
40
0.5
50
180.0254393
51
540.0254393
0
ARC
8
0
10
224.333
20
-34.49
40
0.5
50
0
51
360
0
ARC
8
0
10
224.333
20
-93.951
40
0.5
50
270
51
630
0
ARC
8
0
10
151.297
20
-114.6104551
40
0.5
50
180
51
540
0
ARC
8
0
10
150.297
20
-97.7615284
40
0.5
50
0
51
360
0
ARC
8
0
10
128.2952849
20
-100.8718265
40
0.5
50
118.4856783
51
478.4856783
0
ARC
8
0
10
144.8702134
20
-90.74
40
0.5
50
298.4856783
51
658.4856783
0
ARC
8
0
10
91.5819822
20
-89.74
40
0.5
50
180.0020397
51
540.0020397
0
CIRCLE
8
0
10
109.5
20
-52.5
40
1.1
0
CIRCLE
8
0
10
109.5
20
-71.5
40
1.1
0
CIRCLE
8
0
10
185.468
20
-48.986
40
1.1
0
CIRCLE
8
0
10
120.357
20
-85.74
40
1.1
0
CIRCLE
8
0
10
164.6
20
-94.044
40
1.1
0
CIRCLE
8
0
10
109.5
20
-52.5
40
2.15
0
CIRCLE
8
0
10
109.5
20
-71.5
40
2.15
0
CIRCLE
8
0
10
185.468
20
-48.986
40
2.15
0
CIRCLE
8
0
10
120.357
20
-85.74
40
2.15
0
CIRCLE
8
0
10
164.6
20
-94.044
40
2.15
0
CIRCLE
8
0
10
207.762
20
-81.476
40
1.1
0
CIRCLE
8
0
10
222.194
20
-89.995
40
1.1
0
LINE
8
0
10
204.083
20
-33.990222
11
204.083
21
-93.951
0
ARC
8
0
10
203.583
20
-33.990222
40
0.5
50
0
51
0.0254393
0
ARC
8
0
10
204.583
20
-93.951
40
0.5
50
180
51
270
0
ARC
8
0
10
220.6078862
20
-94.951
40
0.5
50
285.8355431
51
90
0
LINE
8
0
10
93
20
-88
11
107
21
-88
0
LINE
8
0
10
107
20
-88
11
107
21
-74
0
LINE
8
0
10
107
20
-74
11
93
21
-74
0
LINE
8
0
10
93
20
-74
11
93
21
-88
0
LINE
8
0
10
93
20
-69
11
107
21
-69
0
LINE
8
0
10
107
20
-69
11
107
21
-55
0
LINE
8
0
10
107
20
-55
11
93
21
-55
0
LINE
8
0
10
93
20
-55
11
93
21
-69
0
LINE
8
0
10
93
20
-50
11
107
21
-50
0
LINE
8
0
10
107
20
-50
11
107
21
-36
0
LINE
8
0
10
107
20
-36
11
93
21
-36
0
LINE
8
0
10
93
20
-36
11
93
21
-50
0
LINE
8
0
10
112
20
-88
11
126
21
-88
0
LINE
8
0
10
126
20
-88
11
126
21
-74
0
LINE
8
0
10
126
20
-74
11
112
21
-74
0
LINE
8
0
10
112
20
-74
11
112
21
-88
0
LINE
8
0
10
112
20
-69
11
126
21
-69
0
LINE
8
0
10
126
20
-69
11
126
21
-55
0
LINE
8
0
10
126
20
-55
11
112
21
-55
0
LINE
8
0
10
112
20
-55
11
112
21
-69
0
LINE
8
0
10
112
20
-50
11
126
21
-50
0
LINE
8
0
10
126
20
-50
11
126
21
-36
0
LINE
8
0
10
126
20
-36
11
112
21
-36
0
LINE
8
0
10
112
20
-36
11
112
21
-50
0
LINE
8
0
10
131
20
-99.875
11
131
21
-100.8731178
0
LINE
8
0
10
131
20
-83.25
11
145
21
-83.25
0
LINE
8
0
10
145
20
-83.25
11
145
21
-69.25
0
LINE
8
0
10
145
20
-69.25
11
131
21
-69.25
0
LINE
8
0
10
131
20
-69.25
11
131
21
-83.25
0
LINE
8
0
10
131
20
-64.25
11
145
21
-64.25
0
LINE
8
0
10
145
20
-64.25
11
145
21
-50.25
0
LINE
8
0
10
145
20
-50.25
11
131
21
-50.25
0
LINE
8
0
10
131
20
-50.25
11
131
21
-64.25
0
LINE
8
0
10
131
20
-45.25
11
145
21
-45.25
0
LINE
8
0
10
145
20
-45.25
11
145
21
-31.25
0
LINE
8
0
10
145
20
-31.25
11
131
21
-31.25
0
LINE
8
0
10
131
20
-31.25
11
131
21
-45.25
0
LINE
8
0
10
164
20
-99.175
11
164
21
-94.9659544
0
LINE
8
0
10
164
20
-93.1220456
11
164
21
-85.875
0
LINE
8
0
10
164
20
-85.875
11
150
21
-85.875
0
LINE
8
0
10
150
20
-85.875
11
150
21
-87.775
0
LINE
8
0
10
150
20
-80.875
11
164
21
-80.875
0
LINE
8
0
10
164
20
-80.875
11
164
21
-66.875
0
LINE
8
0
10
164
20
-66.875
11
150
21
-66.875
0
LINE
8
0
10
150
20
-66.875
11
150
21
-80.875
0
LINE
8
0
10
150
20
-61.875
11
164
21
-61.875
0
LINE
8
0
10
164
20
-61.875
11
164
21
-47.875
0
LINE
8
0
10
164
20
-47.875
11
150
21
-47.875
0
LINE
8
0
10
150
20
-47.875
11
150
21
-61.875
0
LINE
8
0
10
150
20
-42.875
11
164
21
-42.875
0
LINE
8
0
10
164
20
-42.875
11
164
21
-28.875
0
LINE
8
0
10
164
20
-28.875
11
150
21
-28.875
0
LINE
8
0
10
150
20
-28.875
11
150
21
-42.875
0
LINE
8
0
10
171.6
20
-102.25
11
183
21
-102.25
0
LINE
8
0
10
183
20
-102.25
11
183
21
-88.25
0
LINE
8
0
10
183
20
-88.25
11
169
21
-88.25
0
LINE
8
0
10
169
20
-88.25
11
169
21
-99.175
0
LINE
8
0
10
169
20
-83.25
11
183
21
-83.25
0
LINE
8
0
10
183
20
-83.25
11
183
21
-69.25
0
LINE
8
0
10
183
20
-69.25
11
169
21
-69.25
0
LINE
8
0
10
169
20
-69.25
11
169
21
-83.25
0
LINE
8
0
10
169
20
-64.25
11
183
21
-64.25
0
LINE
8
0
10
183
20
-64.25
11
183
21
-50.25
0
LINE
8
0
10
183
20
-50.25
11
169
21
-50.25
0
LINE
8
0
10
169
20
-50.25
11
169
21
-64.25
0
LINE
8
0
10
169
20
-45.25
11
183
21
-45.25
0
LINE
8
0
10
183
20
-45.25
11
183
21
-31.25
0
LINE
8
0
10
183
20
-31.25
11
169
21
-31.25
0
LINE
8
0
10
169
20
-31.25
11
169
21
-45.25
0
LINE
8
0
10
188
20
-104.625
11
188.3337985
21
-104.625
0
LINE
8
0
10
202
20
-100.7486959
11
202
21
-90.625
0
LINE
8
0
10
202
20
-90.625
11
188
21
-90.625
0
LINE
8
0
10
188
20
-90.625
11
188
21
-104.625
0
LINE
8
0
10
188
20
-85.625
11
202
21
-85.625
0
LINE
8
0
10
202
20
-85.625
11
202
21
-71.625
0
LINE
8
0
10
202
20
-71.625
11
188
21
-71.625
0
LINE
8
0
10
188
20
-71.625
11
188
21
-85.625
0
LINE
8
0
10
188
20
-66.625
11
202
21
-66.625
0
LINE
8
0
10
202
20
-66.625
11
202
21
-52.625
0
LINE
8
0
10
202
20
-52.625
11
188
21
-52.625
0
LINE
8
0
10
188
20
-52.625
11
188
21
-66.625
0
LINE
8
0
10
188
20
-47.625
11
202
21
-47.625
0
LINE
8
0
10
202
20
-47.625
11
202
21
-33.625
0
LINE
8
0
10
202
20
-33.625
11
188
21
-33.625
0
LINE
8
0
10
188
20
-33.625
11
188
21
-47.625
0
LINE
8
0
10
129.0839539
20
-99.875
11
131
21
-99.875
0
LINE
8
0
10
141.2
20
-87.775
11
141.2
21
-85.875
0
LINE
8
0
10
141.2
20
-85.875
11
127.2
21
-85.875
0
LINE
8
0
10
127.2
20
-85.875
11
127.2
21
-90.24
0
LINE
8
0
10
150
20
-87.775
11
141.2
21
-87.775
0
LINE
8
0
10
150.797
20
-107.475
11
157.6
21
-107.475
0
LINE
8
0
10
157.6
20
-113.175
11
158.1901311
21
-113.175
0
LINE
8
0
10
171.6
20
-109.3714025
11
171.6
21
-102.25
0
LINE
8
0
10
169
20
-99.175
11
164
21
-99.175
0
LINE
8
0
10
157.6
20
-107.475
11
157.6
21
-113.175
0
ARC
8
0
10
164.6
20
-94.044
40
1.1
50
236.9442675
51
483.0557325
0
LINE
8
0
10
205.113
20
-93.951
11
205.113
21
-34.49
0
ARC
8
0
10
205.613
20
-34.49
40
0.5
50
90
51
180
0
ARC
8
0
10
205.613
20
-93.951
40
0.5
50
180
51
270
0
LINE
8
0
10
93
20
-109
11
107
21
-109
0
LINE
8
0
10
109
20
-107
11
109
21
-93
0
LINE
8
0
10
107
20
-91
11
93
21
-91
0
LINE
8
0
10
91
20
-93
11
91
21
-107
0
LINE
8
0
10
93
20
-90
11
107
21
-90
0
LINE
8
0
10
109
20
-88
11
109
21
-74
0
LINE
8
0
10
107
20
-72
11
93
21
-72
0
LINE
8
0
10
91
20
-74
11
91
21
-88
0
LINE
8
0
10
93
20
-71
11
107
21
-71
0
LINE
8
0
10
109
20
-69
11
109
21
-55
0
LINE
8
0
10
107
20
-53
11
93
21
-53
0
LINE
8
0
10
91
20
-55
11
91
21
-69
0
LINE
8
0
10
93
20
-52
11
107
21
-52
0
LINE
8
0
10
109
20
-50
11
109
21
-36
0
LINE
8
0
10
107
20
-34
11
93
21
-34
0
LINE
8
0
10
91
20
-36
11
91
21
-50
0
LINE
8
0
10
112
20
-109
11
126
21
-109
0
LINE
8
0
10
128
20
-107
11
128
21
-101.875
0
LINE
8
0
10
125.2
20
-91
11
112
21
-91
0
LINE
8
0
10
110
20
-93
11
110
21
-107
0
LINE
8
0
10
112
20
-90
11
125.2
21
-90
0
LINE
8
0
10
128
20
-83.875
11
128
21
-74
0
LINE
8
0
10
126
20
-72
11
112
21
-72
0
LINE
8
0
10
110
20
-74
11
110
21
-88
0
LINE
8
0
10
112
20
-71
11
126
21
-71
0
LINE
8
0
10
128
20
-69
11
128
21
-55
0
LINE
8
0
10
126
20
-53
11
112
21
-53
0
LINE
8
0
10
110
20
-55
11
110
21
-69
0
LINE
8
0
10
112
20
-52
11
126
21
-52
0
LINE
8
0
10
128
20
-50
11
128
21
-36
0
LINE
8
0
10
126
20
-34
11
112
21
-34
0
LINE
8
0
10
110
20
-36
11
110
21
-50
0
LINE
8
0
10
131
20
-104.25
11
147
21
-104.25
0
LINE
8
0
10
147
20
-104.25
11
147
21
-103.775
0
LINE
8
0
10
129
20
-101.875
11
129
21
-102.25
0
LINE
8
0
10
143.2
20
-85.25
11
145
21
-85.25
0
LINE
8
0
10
147
20
-83.25
11
147
21
-69.25
0
LINE
8
0
10
145
20
-67.25
11
131
21
-67.25
0
LINE
8
0
10
129
20
-69.25
11
129
21
-83.875
0
LINE
8
0
10
131
20
-66.25
11
145
21
-66.25
0
LINE
8
0
10
147
20
-64.25
11
147
21
-50.25
0
LINE
8
0
10
145
20
-48.25
11
131
21
-48.25
0
LINE
8
0
10
129
20
-50.25
11
129
21
-64.25
0
LINE
8
0
10
131
20
-47.25
11
145
21
-47.25
0
LINE
8
0
10
147
20
-45.25
11
147
21
-31.25
0
LINE
8
0
10
145
20
-29.25
11
131
21
-29.25
0
LINE
8
0
10
129
20
-31.25
11
129
21
-45.25
0
LINE
8
0
10
166
20
-97.175
11
166
21
-85.875
0
LINE
8
0
10
164
20
-83.875
11
148
21
-83.875
0
LINE
8
0
10
148
20
-83.875
11
148
21
-85.775
0
LINE
8
0
10
150
20
-82.875
11
164
21
-82.875
0
LINE
8
0
10
166
20
-80.875
11
166
21
-66.875
0
LINE
8
0
10
164
20
-64.875
11
150
21
-64.875
0
LINE
8
0
10
148
20
-66.875
11
148
21
-80.875
0
LINE
8
0
10
150
20
-63.875
11
164
21
-63.875
0
LINE
8
0
10
166
20
-61.875
11
166
21
-47.875
0
LINE
8
0
10
164
20
-45.875
11
150
21
-45.875
0
LINE
8
0
10
148
20
-47.875
11
148
21
-61.875
0
LINE
8
0
10
150
20
-44.875
11
164
21
-44.875
0
LINE
8
0
10
166
20
-42.875
11
166
21
-28.875
0
LINE
8
0
10
164
20
-26.875
11
150
21
-26.875
0
LINE
8
0
10
148
20
-28.875
11
148
21
-42.875
0
LINE
8
0
10
180.1
20
-104.25
11
183
21
-104.25
0
LINE
8
0
10
185
20
-102.25
11
185
21
-88.25
0
LINE
8
0
10
183
20
-86.25
11
169
21
-86.25
0
LINE
8
0
10
167
20
-88.25
11
167
21
-97.175
0
LINE
8
0
10
169
20
-85.25
11
183
21
-85.25
0
LINE
8
0
10
185
20
-83.25
11
185
21
-69.25
0
LINE
8
0
10
183
20
-67.25
11
169
21
-67.25
0
LINE
8
0
10
167
20
-69.25
11
167
21
-83.25
0
LINE
8
0
10
169
20
-66.25
11
183
21
-66.25
0
LINE
8
0
10
185
20
-64.25
11
185
21
-50.25
0
LINE
8
0
10
183
20
-48.25
11
169
21
-48.25
0
LINE
8
0
10
167
20
-50.25
11
167
21
-64.25
0
LINE
8
0
10
169
20
-47.25
11
183
21
-47.25
0
LINE
8
0
10
185
20
-45.25
11
185
21
-31.25
0
LINE
8
0
10
183
20
-29.25
11
169
21
-29.25
0
LINE
8
0
10
167
20
-31.25
11
167
21
-45.25
0
LINE
8
0
10
188
20
-106.625
11
202
21
-106.625
0
LINE
8
0
10
204
20
-104.625
11
204
21
-90.625
0
LINE
8
0
10
202
20
-88.625
11
188
21
-88.625
0
LINE
8
0
10
186
20
-90.625
11
186
21
-104.625
0
LINE
8
0
10
188
20
-87.625
11
202
21
-87.625
0
LINE
8
0
10
204
20
-85.625
11
204
21
-71.625
0
LINE
8
0
10
202
20
-69.625
11
188
21
-69.625
0
LINE
8
0
10
186
20
-71.625
11
186
21
-85.625
0
LINE
8
0
10
188
20
-68.625
11
202
21
-68.625
0
LINE
8
0
10
204
20
-66.625
11
204
21
-52.625
0
LINE
8
0
10
202
20
-50.625
11
188
21
-50.625
0
LINE
8
0
10
186
20
-52.625
11
186
21
-66.625
0
LINE
8
0
10
188
20
-49.625
11
202
21
-49.625
0
LINE
8
0
10
204
20
-47.625
11
204
21
-33.625
0
LINE
8
0
10
202
20
-31.625
11
188
21
-31.625
0
LINE
8
0
10
186
20
-33.625
11
186
21
-47.625
0
LINE
8
0
10
128
20
-101.875
11
129
21
-101.875
0
LINE
8
0
10
143.2
20
-85.775
11
143.2
21
-85.25
0
LINE
8
0
10
129
20
-83.875
11
128
21
-83.875
0
LINE
8
0
10
125.2
20
-90
11
125.2
21
-91
0
LINE
8
0
10
147
20
-103.775
11
148
21
-103.775
0
LINE
8
0
10
148
20
-85.775
11
143.2
21
-85.775
0
LINE
8
0
10
150
20
-109.475
11
151.1
21
-109.475
0
LINE
8
0
10
148
20
-103.775
11
148
21
-107.475
0
ARC
8
0
10
126
20
-107
40
2
50
270
51
0
0
ARC
8
0
10
131
20
-102.25
40
2
50
180
51
270
0
ARC
8
0
10
150
20
-107.475
40
2
50
180
51
270
0
ARC
8
0
10
164
20
-85.875
40
2
50
0
51
90
0
ARC
8
0
10
145
20
-83.25
40
2
50
270
51
0
0
ARC
8
0
10
145
20
-69.25
40
2
50
0
51
90
0
ARC
8
0
10
131
20
-69.25
40
2
50
90
51
180
0
ARC
8
0
10
126
20
-74
40
2
50
0
51
90
0
ARC
8
0
10
112
20
-74
40
2
50
90
51
180
0
ARC
8
0
10
112
20
-88
40
2
50
180
51
270
0
ARC
8
0
10
112
20
-93
40
2
50
90
51
180
0
ARC
8
0
10
112
20
-107
40
2
50
180
51
270
0
ARC
8
0
10
107
20
-107
40
2
50
270
51
0
0
ARC
8
0
10
107
20
-93
40
2
50
0
51
90
0
ARC
8
0
10
93
20
-93
40
2
50
90
51
180
0
ARC
8
0
10
93
20
-107
40
2
50
180
51
270
0
ARC
8
0
10
107
20
-88
40
2
50
270
51
0
0
ARC
8
0
10
107
20
-74
40
2
50
0
51
90
0
ARC
8
0
10
93
20
-74
40
2
50
90
51
180
0
ARC
8
0
10
93
20
-88
40
2
50
180
51
270
0
ARC
8
0
10
107
20
-69
40
2
50
270
51
0
0
ARC
8
0
10
107
20
-55
40
2
50
0
51
90
0
ARC
8
0
10
93
20
-55
40
2
50
90
51
180
0
ARC
8
0
10
93
20
-69
40
2
50
180
51
270
0
ARC
8
0
10
107
20
-50
40
2
50
270
51
0
0
ARC
8
0
10
107
20
-36
40
2
50
0
51
90
0
ARC
8
0
10
93
20
-36
40
2
50
90
51
180
0
ARC
8
0
10
93
20
-50
40
2
50
180
51
270
0
ARC
8
0
10
126
20
-69
40
2
50
270
51
0
0
ARC
8
0
10
126
20
-55
40
2
50
0
51
90
0
ARC
8
0
10
112
20
-55
40
2
50
90
51
180
0
ARC
8
0
10
112
20
-69
40
2
50
180
51
270
0
ARC
8
0
10
126
20
-50
40
2
50
270
51
0
0
ARC
8
0
10
126
20
-36
40
2
50
0
51
90
0
ARC
8
0
10
112
20
-36
40
2
50
90
51
180
0
ARC
8
0
10
112
20
-50
40
2
50
180
51
270
0
ARC
8
0
10
145
20
-64.25
40
2
50
270
51
0
0
ARC
8
0
10
145
20
-50.25
40
2
50
0
51
90
0
ARC
8
0
10
131
20
-50.25
40
2
50
90
51
180
0
ARC
8
0
10
131
20
-64.25
40
2
50
180
51
270
0
ARC
8
0
10
145
20
-45.25
40
2
50
270
51
0
0
ARC
8
0
10
145
20
-31.25
40
2
50
0
51
90
0
ARC
8
0
10
131
20
-31.25
40
2
50
90
51
180
0
ARC
8
0
10
131
20
-45.25
40
2
50
180
51
270
0
ARC
8
0
10
164
20
-80.875
40
2
50
270
51
0
0
ARC
8
0
10
164
20
-66.875
40
2
50
0
51
90
0
ARC
8
0
10
150
20
-66.875
40
2
50
90
51
180
0
ARC
8
0
10
150
20
-80.875
40
2
50
180
51
270
0
ARC
8
0
10
164
20
-61.875
40
2
50
270
51
0
0
ARC
8
0
10
164
20
-47.875
40
2
50
0
51
90
0
ARC
8
0
10
150
20
-47.875
40
2
50
90
51
180
0
ARC
8
0
10
150
20
-61.875
40
2
50
180
51
270
0
ARC
8
0
10
164
20
-42.875
40
2
50
270
51
0
0
ARC
8
0
10
164
20
-28.875
40
2
50
0
51
90
0
ARC
8
0
10
150
20
-28.875
40
2
50
90
51
180
0
ARC
8
0
10
150
20
-42.875
40
2
50
180
51
270
0
ARC
8
0
10
183
20
-102.25
40
2
50
270
51
0
0
ARC
8
0
10
183
20
-88.25
40
2
50
0
51
90
0
ARC
8
0
10
169
20
-88.25
40
2
50
90
51
180
0
ARC
8
0
10
183
20
-83.25
40
2
50
270
51
0
0
ARC
8
0
10
183
20
-69.25
40
2
50
0
51
90
0
ARC
8
0
10
169
20
-69.25
40
2
50
90
51
180
0
ARC
8
0
10
169
20
-83.25
40
2
50
180
51
270
0
ARC
8
0
10
183
20
-64.25
40
2
50
270
51
0
0
ARC
8
0
10
183
20
-50.25
40
2
50
0
51
90
0
ARC
8
0
10
169
20
-50.25
40
2
50
90
51
180
0
ARC
8
0
10
169
20
-64.25
40
2
50
180
51
270
0
ARC
8
0
10
183
20
-45.25
40
2
50
270
51
0
0
ARC
8
0
10
183
20
-31.25
40
2
50
0
51
90
0
ARC
8
0
10
169
20
-31.25
40
2
50
90
51
180
0
ARC
8
0
10
169
20
-45.25
40
2
50
180
51
270
0
ARC
8
0
10
202
20
-104.625
40
2
50
270
51
0
0
ARC
8
0
10
202
20
-90.625
40
2
50
0
51
90
0
ARC
8
0
10
188
20
-90.625
40
2
50
90
51
180
0
ARC
8
0
10
188
20
-104.625
40
2
50
180
51
270
0
ARC
8
0
10
202
20
-85.625
40
2
50
270
51
0
0
ARC
8
0
10
202
20
-71.625
40
2
50
0
51
90
0
ARC
8
0
10
188
20
-71.625
40
2
50
90
51
180
0
ARC
8
0
10
188
20
-85.625
40
2
50
180
51
270
0
ARC
8
0
10
202
20
-66.625
40
2
50
270
51
0
0
ARC
8
0
10
202
20
-52.625
40
2
50
0
51
90
0
ARC
8
0
10
188
20
-52.625
40
2
50
90
51
180
0
ARC
8
0
10
188
20
-66.625
40
2
50
180
51
270
0
ARC
8
0
10
202
20
-47.625
40
2
50
270
51
0
0
ARC
8
0
10
202
20
-33.625
40
2
50
0
51
90
0
ARC
8
0
10
188
20
-33.625
40
2
50
90
51
180
0
ARC
8
0
10
188
20
-47.625
40
2
50
180
51
270
0
LINE
8
0
10
153.1
20
-115.175
11
176.1
21
-115.175
0
LINE
8
0
10
178.1
20
-113.175
11
178.1
21
-106.25
0
LINE
8
0
10
167
20
-97.175
11
166
21
-97.175
0
LINE
8
0
10
151.1
20
-109.475
11
151.1
21
-113.175
0
ARC
8
0
10
153.1
20
-113.175
40
2
50
180
51
270
0
ARC
8
0
10
176.1
20
-113.175
40
2
50
270
51
0
0
ARC
8
0
10
180.1
20
-106.25
40
2
50
90
51
180
0
LINE
8
0
10
89.63
20
-33.9900516
11
89.632
21
-90.2400516
0
LINE
8
0
10
89.6299662
20
-33.0400428
11
89.63
21
-33.9900516
0
LINE
8
0
10
90.129953
20
-32.540025
11
127.1300131
21
-32.5390513
0
LINE
8
0
10
127.63
20
-32.0390513
11
127.63
21
-28.29
0
LINE
8
0
10
128.13
20
-27.79
11
146.13
21
-27.79
0
LINE
8
0
10
146.63
20
-27.29
11
146.63
21
-26.038
0
LINE
8
0
10
147.13
20
-25.538
11
167.032
21
-25.538
0
LINE
8
0
10
167.532
20
-27.29
11
167.532
21
-26.038
0
LINE
8
0
10
168.032
20
-27.79
11
186.032
21
-27.79
0
LINE
8
0
10
186.532
20
-29.788
11
186.532
21
-28.29
0
LINE
8
0
10
187.032
20
-30.288
11
205.0315782
21
-30.288
0
LINE
8
0
10
205.5315782
20
-30.787778
11
205.5319999
21
-31.7373561
0
LINE
8
0
10
205.5319999
20
-31.7373561
11
205.5321344
21
-32.040222
0
LINE
8
0
10
206.0321344
20
-32.54
11
225.783
21
-32.54
0
LINE
8
0
10
226.283
20
-95.401
11
226.283
21
-33.04
0
LINE
8
0
10
224.4046626
20
-95.901
11
225.783
21
-95.901
0
LINE
8
0
10
149.9834385
20
-117.0099598
11
224.4046626
21
-95.901
0
LINE
8
0
10
149.347
20
-116.5289354
11
149.347
21
-99.5088606
0
LINE
8
0
10
124.7289189
20
-103.5249338
11
148.7548034
21
-99.0174343
0
LINE
8
0
10
123.6217181
20
-101.6698285
11
124.1655641
21
-103.2008691
0
LINE
8
0
10
123.8544069
20
-101.0629987
11
139.3963017
21
-92.6294682
0
LINE
8
0
10
90.1320338
20
-91.69
11
139.1578322
21
-91.69
0
LINE
8
0
10
89.632
20
-90.2400516
11
89.6320338
21
-91.1900178
0
ARC
8
0
10
90.1299662
20
-33.040025
40
0.5
50
90.0015069
51
450.0015069
0
ARC
8
0
10
127.13
20
-32.0390513
40
0.5
50
270.0015069
51
630.0015069
0
ARC
8
0
10
128.13
20
-28.29
40
0.5
50
90
51
450
0
ARC
8
0
10
146.13
20
-27.29
40
0.5
50
270
51
630
0
ARC
8
0
10
147.13
20
-26.038
40
0.5
50
90
51
450
0
ARC
8
0
10
167.032
20
-26.038
40
0.5
50
0
51
360
0
ARC
8
0
10
168.032
20
-27.29
40
0.5
50
180
51
540
0
ARC
8
0
10
186.032
20
-28.29
40
0.5
50
0
51
360
0
ARC
8
0
10
187.032
20
-29.788
40
0.5
50
180
51
540
0
ARC
8
0
10
205.0315782
20
-30.788
40
0.5
50
0.025445
51
360.025445
0
ARC
8
0
10
206.0321344
20
-32.04
40
0.5
50
180.0254393
51
540.0254393
0
ARC
8
0
10
225.783
20
-33.04
40
0.5
50
0
51
360
0
ARC
8
0
10
225.783
20
-95.401
40
0.5
50
270
51
630
0
ARC
8
0
10
149.847
20
-116.5289354
40
0.5
50
180
51
540
0
ARC
8
0
10
148.847
20
-99.5088606
40
0.5
50
0
51
360
0
ARC
8
0
10
124.6367223
20
-103.0335075
40
0.5
50
199.555714
51
559.555714
0
ARC
8
0
10
124.0928764
20
-101.5024669
40
0.5
50
118.4856733
51
478.4856733
0
ARC
8
0
10
139.1578322
20
-92.19
40
0.5
50
298.4856783
51
658.4856783
0
ARC
8
0
10
90.1320338
20
-91.19
40
0.5
50
180.0020398
51
540.0020398
0
LINE
8
0
10
90.832
20
-90.2400089
11
90.83
21
-33.9900089
0
LINE
8
0
10
90.8299911
20
-33.7400066
11
90.83
21
-33.9900089
0
LINE
8
0
10
90.8299911
20
-33.7400066
11
128.3300131
21
-33.7390197
0
LINE
8
0
10
128.83
20
-33.2390197
11
128.83
21
-28.99
0
LINE
8
0
10
128.83
20
-28.99
11
147.33
21
-28.99
0
LINE
8
0
10
147.83
20
-28.49
11
147.83
21
-26.738
0
LINE
8
0
10
147.83
20
-26.738
11
166.332
21
-26.738
0
LINE
8
0
10
166.332
20
-28.49
11
166.332
21
-26.738
0
LINE
8
0
10
166.832
20
-28.99
11
185.332
21
-28.99
0
LINE
8
0
10
185.332
20
-30.988
11
185.332
21
-28.99
0
LINE
8
0
10
185.832
20
-31.488
11
204.331889
21
-31.488
0
LINE
8
0
10
204.332
20
-31.737889
11
204.331889
21
-31.488
0
LINE
8
0
10
204.332
20
-31.737889
11
204.3326671
21
-33.240222
0
LINE
8
0
10
204.8326671
20
-33.74
11
225.083
21
-33.74
0
LINE
8
0
10
225.083
20
-94.701
11
225.083
21
-33.74
0
LINE
8
0
10
224.307308
20
-94.701
11
225.083
21
-94.701
0
LINE
8
0
10
150.547
20
-115.6027725
11
224.1708695
21
-94.7199756
0
LINE
8
0
10
150.547
20
-115.6027725
11
150.547
21
-98.0627925
0
LINE
8
0
10
125.0959796
20
-102.2351335
11
149.9548034
21
-97.5713662
0
LINE
8
0
10
124.9528622
20
-101.8322281
11
125.0959796
21
-102.2351335
0
LINE
8
0
10
124.9528622
20
-101.8322281
11
144.1237895
21
-91.4294682
0
LINE
8
0
10
90.8320089
20
-90.49
11
143.88532
21
-90.49
0
LINE
8
0
10
90.832
20
-90.2400089
11
90.8320089
21
-90.49
0
ARC
8
0
10
128.33
20
-33.2390197
40
0.5
50
270.0015069
51
0
0
ARC
8
0
10
147.33
20
-28.49
40
0.5
50
270
51
0
0
ARC
8
0
10
166.832
20
-28.49
40
0.5
50
180
51
270
0
ARC
8
0
10
185.832
20
-30.988
40
0.5
50
180
51
270
0
ARC
8
0
10
204.8326671
20
-33.24
40
0.5
50
180.0254393
51
270
0
ARC
8
0
10
224.307308
20
-95.201
40
0.5
50
90
51
105.8355431
0
ARC
8
0
10
150.047
20
-98.0627925
40
0.5
50
0
51
100.6257506
0
ARC
8
0
10
143.88532
20
-90.99
40
0.5
50
298.4856783
51
90
0
LINE
8
0
10
93.4818969
20
-87.3400178
11
93.4801031
21
-36.8899415
0
LINE
8
0
10
93.98009
20
-36.3899237
11
130.9800132
21
-36.38895
0
LINE
8
0
10
131.48
20
-35.88895
11
131.48
21
-32.14
0
LINE
8
0
10
131.98
20
-31.64
11
149.8662329
21
-31.64
0
LINE
8
0
10
150.3652813
20
-31.1708333
11
150.4464452
21
-29.8571667
0
LINE
8
0
10
150.9454936
20
-29.388
11
163.2165064
21
-29.388
0
LINE
8
0
10
163.7155548
20
-29.8571667
11
163.7967187
21
-31.1708333
0
LINE
8
0
10
164.2957671
20
-31.64
11
182.682
21
-31.64
0
LINE
8
0
10
182.682
20
-33.638
11
182.682
21
-31.64
0
LINE
8
0
10
183.182
20
-34.138
11
201.2175064
21
-34.138
0
LINE
8
0
10
201.7165548
20
-34.6071667
11
201.7977187
21
-35.9208333
0
LINE
8
0
10
202.2967671
20
-36.39
11
221.933
21
-36.39
0
LINE
8
0
10
222.433
20
-36.89
11
222.433
21
-92.0804668
0
LINE
8
0
10
222.0694385
20
-92.5614912
11
153.8334385
21
-111.9160638
0
LINE
8
0
10
153.197
20
-111.4350394
11
153.197
21
-94.8693923
0
LINE
8
0
10
142.9568488
20
-96.18802
11
152.6048035
21
-94.377966
0
LINE
8
0
10
142.6261827
20
-95.2571255
11
149.2836947
21
-91.644546
0
LINE
8
0
10
148.8026001
20
-88.216984
11
149.5298559
21
-91.0820618
0
LINE
8
0
10
93.9818969
20
-87.84
11
148.3179693
21
-87.84
0
ARC
8
0
10
93.9801031
20
-36.8899237
40
0.5
50
90.0015069
51
180.0020397
0
ARC
8
0
10
130.98
20
-35.88895
40
0.5
50
270.0015069
51
0
0
ARC
8
0
10
131.98
20
-32.14
40
0.5
50
90
51
180
0
ARC
8
0
10
149.8662329
20
-31.14
40
0.5
50
270
51
356.4645209
0
ARC
8
0
10
150.9454936
20
-29.888
40
0.5
50
90
51
176.4645209
0
ARC
8
0
10
163.2165064
20
-29.888
40
0.5
50
3.5354791
51
90
0
ARC
8
0
10
164.2957671
20
-31.14
40
0.5
50
183.5354791
51
270
0
ARC
8
0
10
183.182
20
-33.638
40
0.5
50
180
51
270
0
ARC
8
0
10
201.2175064
20
-34.638
40
0.5
50
3.5354791
51
90
0
ARC
8
0
10
202.2967671
20
-35.89
40
0.5
50
183.5354791
51
270
0
ARC
8
0
10
221.933
20
-36.89
40
0.5
50
0
51
90
0
ARC
8
0
10
221.933
20
-92.0804668
40
0.5
50
285.8355431
51
0
0
ARC
8
0
10
153.697
20
-111.4350394
40
0.5
50
180
51
285.8355431
0
ARC
8
0
10
152.697
20
-94.8693923
40
0.5
50
0
51
100.6257506
0
ARC
8
0
10
142.8646522
20
-95.6965937
40
0.5
50
118.4856783
51
280.6257506
0
ARC
8
0
10
149.0452251
20
-91.2050778
40
0.5
50
298.4856783
51
14.2428356
0
ARC
8
0
10
148.3179693
20
-88.34
40
0.5
50
14.2428356
51
90
0
ARC
8
0
10
93.9818969
20
-87.34
40
0.5
50
180.0020398
51
270
0
ENDSEC
0
EOF