0
SECTION
2
HEADER
9
$INSUNITS
70
4
0
ENDSEC
0
SECTION
2
TABLES
0
TABLE
2
LTYPE
0
LTYPE
72
65
70
64
2
CONTINUOUS
3
______
73
0
40
0
0
ENDTAB
0
TABLE
2
LAYER
0
ENDTAB
0
ENDSEC
0
SECTION
2
ENTITIES
0
LINE
8
0
10
91.0811663
20
-39.7036504
11
91.2492653
21
-111.9342949
0
LINE
8
0
10
91.5811518
20
-39.2024868
11
128.5800132
21
-39.2015132
0
LINE
8
0
10
129.08
20
-38.7015132
11
129.08
21
-35.3275
0
LINE
8
0
10
129.58
20
-34.8275
11
147.58
21
-34.8275
0
LINE
8
0
10
148.08
20
-34.3275
11
148.08
21
-33.2525
0
LINE
8
0
10
148.58
20
-32.7525
11
165.582
21
-32.7525
0
LINE
8
0
10
166.082
20
-34.3275
11
166.082
21
-33.2525
0
LINE
8
0
10
166.582
20
-34.8275
11
184.582
21
-34.8275
0
LINE
8
0
10
185.082
20
-36.6231184
11
185.082
21
-35.3275
0
LINE
8
0
10
185.5818816
20
-37.1231184
11
204.0571232
21
-37.1274941
0
LINE
8
0
10
204.1067543
20
-37.1299753
11
224.3827495
21
-39.1574771
0
LINE
8
0
10
224.833
20
-124.7106236
11
224.833
21
-39.6549959
0
LINE
8
0
10
213.2828548
20
-141.9858107
11
224.7475076
21
-124.9902367
0
LINE
8
0
10
179.0051814
20
-126.2273384
11
212.6543954
21
-142.1581098
0
LINE
8
0
10
163.5204456
20
-124.9431945
11
178.831516
21
-126.1808762
0
LINE
8
0
10
146.2492103
20
-128.4275153
11
163.3807357
21
-124.9515536
0
LINE
8
0
10
125.5623547
20
-128.4375
11
146.1497869
21
-128.4375
0
LINE
8
0
10
91.5353556
20
-112.3850642
11
125.3484465
21
-128.3894328
0
ARC
8
0
10
91.5811649
20
-39.7024868
40
0.5
50
90.0015069
51
450.0015069
0
ARC
8
0
10
128.58
20
-38.7015132
40
0.5
50
270.0015069
51
630.0015069
0
ARC
8
0
10
129.58
20
-35.3275
40
0.5
50
90
51
450
0
ARC
8
0
10
147.58
20
-34.3275
40
0.5
50
270
51
630
0
ARC
8
0
10
148.58
20
-33.2525
40
0.5
50
90
51
450
0
ARC
8
0
10
165.582
20
-33.2525
40
0.5
50
0
51
360
0
ARC
8
0
10
166.582
20
-34.3275
40
0.5
50
180
51
540
0
ARC
8
0
10
184.582
20
-35.3275
40
0.5
50
0
51
360
0
ARC
8
0
10
185.582
20
-36.6231184
40
0.5
50
180
51
540
0
ARC
8
0
10
204.0570048
20
-37.6274941
40
0.5
50
84.2896788
51
444.2896788
0
ARC
8
0
10
224.333
20
-39.6549959
40
0.5
50
0
51
360
0
ARC
8
0
10
224.333
20
-124.7106236
40
0.5
50
325.9976984
51
685.9976984
0
ARC
8
0
10
212.8683472
20
-141.7061976
40
0.5
50
244.6654098
51
604.6654098
0
ARC
8
0
10
178.7912296
20
-126.6792506
40
0.5
50
64.6654098
51
424.6654098
0
ARC
8
0
10
163.4801591
20
-125.4415689
40
0.5
50
85.3785031
51
445.3785031
0
ARC
8
0
10
146.1497869
20
-127.9375
40
0.5
50
270
51
630
0
ARC
8
0
10
125.5623547
20
-127.9375
40
0.5
50
244.6709304
51
604.6709304
0
ARC
8
0
10
91.7492639
20
-111.9331313
40
0.5
50
180.1333389
51
540.1333389
0
CIRCLE
8
0
10
109.5
20
-56.25
40
1.1
0
CIRCLE
8
0
10
109.5
20
-91.25
40
1.1
0
CIRCLE
8
0
10
185.068
20
-51.8235
40
1.1
0
CIRCLE
8
0
10
185.068
20
-86.8235
40
1.1
0
CIRCLE
8
0
10
120.357
20
-111.365
40
1.1
0
CIRCLE
8
0
10
109.5
20
-56.25
40
2.15
0
CIRCLE
8
0
10
109.5
20
-91.25
40
2.15
0
CIRCLE
8
0
10
185.068
20
-51.8235
40
2.15
0
CIRCLE
8
0
10
185.068
20
-86.8235
40
2.15
0
CIRCLE
8
0
10
120.357
20
-111.365
40
2.15
0
LINE
8
0
10
93.1
20
-106.9
11
106.9
21
-106.9
0
LINE
8
0
10
106.9
20
-106.9
11
106.9
21
-93.1
0
LINE
8
0
10
106.9
20
-93.1
11
93.1
21
-93.1
0
LINE
8
0
10
93.1
20
-93.1
11
93.1
21
-106.9
0
LINE
8
0
10
93.1
20
-89.4
11
106.9
21
-89.4
0
LINE
8
0
10
106.9
20
-89.4
11
106.9
21
-75.6
0
LINE
8
0
10
106.9
20
-75.6
11
93.1
21
-75.6
0
LINE
8
0
10
93.1
20
-75.6
11
93.1
21
-89.4
0
LINE
8
0
10
93.1
20
-71.9
11
106.9
21
-71.9
0
LINE
8
0
10
106.9
20
-71.9
11
106.9
21
-58.1
0
LINE
8
0
10
106.9
20
-58.1
11
93.1
21
-58.1
0
LINE
8
0
10
93.1
20
-58.1
11
93.1
21
-71.9
0
LINE
8
0
10
93.1
20
-54.4
11
106.9
21
-54.4
0
LINE
8
0
10
106.9
20
-54.4
11
106.9
21
-40.6
0
LINE
8
0
10
106.9
20
-40.6
11
93.1
21
-40.6
0
LINE
8
0
10
93.1
20
-40.6
11
93.1
21
-54.4
0
LINE
8
0
10
112.1
20
-106.9
11
125.9
21
-106.9
0
LINE
8
0
10
125.9
20
-106.9
11
125.9
21
-93.1
0
LINE
8
0
10
125.9
20
-93.1
11
112.1
21
-93.1
0
LINE
8
0
10
112.1
20
-93.1
11
112.1
21
-106.9
0
LINE
8
0
10
112.1
20
-89.4
11
125.9
21
-89.4
0
LINE
8
0
10
125.9
20
-89.4
11
125.9
21
-75.6
0
LINE
8
0
10
125.9
20
-75.6
11
112.1
21
-75.6
0
LINE
8
0
10
112.1
20
-75.6
11
112.1
21
-89.4
0
LINE
8
0
10
112.1
20
-71.9
11
125.9
21
-71.9
0
LINE
8
0
10
125.9
20
-71.9
11
125.9
21
-58.1
0
LINE
8
0
10
125.9
20
-58.1
11
112.1
21
-58.1
0
LINE
8
0
10
112.1
20
-58.1
11
112.1
21
-71.9
0
LINE
8
0
10
112.1
20
-54.4
11
125.9
21
-54.4
0
LINE
8
0
10
125.9
20
-54.4
11
125.9
21
-40.6
0
LINE
8
0
10
125.9
20
-40.6
11
112.1
21
-40.6
0
LINE
8
0
10
112.1
20
-40.6
11
112.1
21
-54.4
0
LINE
8
0
10
131.1
20
-102.525
11
144.9
21
-102.525
0
LINE
8
0
10
144.9
20
-102.525
11
144.9
21
-88.725
0
LINE
8
0
10
144.9
20
-88.725
11
131.1
21
-88.725
0
LINE
8
0
10
131.1
20
-88.725
11
131.1
21
-102.525
0
LINE
8
0
10
131.1
20
-85.025
11
144.9
21
-85.025
0
LINE
8
0
10
144.9
20
-85.025
11
144.9
21
-71.225
0
LINE
8
0
10
144.9
20
-71.225
11
131.1
21
-71.225
0
LINE
8
0
10
131.1
20
-71.225
11
131.1
21
-85.025
0
LINE
8
0
10
131.1
20
-67.525
11
144.9
21
-67.525
0
LINE
8
0
10
144.9
20
-67.525
11
144.9
21
-53.725
0
LINE
8
0
10
144.9
20
-53.725
11
131.1
21
-53.725
0
LINE
8
0
10
131.1
20
-53.725
11
131.1
21
-67.525
0
LINE
8
0
10
131.1
20
-50.025
11
144.9
21
-50.025
0
LINE
8
0
10
144.9
20
-50.025
11
144.9
21
-36.225
0
LINE
8
0
10
144.9
20
-36.225
11
131.1
21
-36.225
0
LINE
8
0
10
131.1
20
-36.225
11
131.1
21
-50.025
0
LINE
8
0
10
150.1
20
-100.3375
11
163.9
21
-100.3375
0
LINE
8
0
10
163.9
20
-100.3375
11
163.9
21
-86.5375
0
LINE
8
0
10
163.9
20
-86.5375
11
150.1
21
-86.5375
0
LINE
8
0
10
150.1
20
-86.5375
11
150.1
21
-100.3375
0
LINE
8
0
10
150.1
20
-82.8375
11
163.9
21
-82.8375
0
LINE
8
0
10
163.9
20
-82.8375
11
163.9
21
-69.0375
0
LINE
8
0
10
163.9
20
-69.0375
11
150.1
21
-69.0375
0
LINE
8
0
10
150.1
20
-69.0375
11
150.1
21
-82.8375
0
LINE
8
0
10
150.1
20
-65.3375
11
163.9
21
-65.3375
0
LINE
8
0
10
163.9
20
-65.3375
11
163.9
21
-51.5375
0
LINE
8
0
10
163.9
20
-51.5375
11
150.1
21
-51.5375
0
LINE
8
0
10
150.1
20
-51.5375
11
150.1
21
-65.3375
0
LINE
8
0
10
150.1
20
-47.8375
11
163.9
21
-47.8375
0
LINE
8
0
10
163.9
20
-47.8375
11
163.9
21
-34.0375
0
LINE
8
0
10
163.9
20
-34.0375
11
150.1
21
-34.0375
0
LINE
8
0
10
150.1
20
-34.0375
11
150.1
21
-47.8375
0
LINE
8
0
10
169.1
20
-102.525
11
182.9
21
-102.525
0
LINE
8
0
10
182.9
20
-102.525
11
182.9
21
-88.725
0
LINE
8
0
10
182.9
20
-88.725
11
169.1
21
-88.725
0
LINE
8
0
10
169.1
20
-88.725
11
169.1
21
-102.525
0
LINE
8
0
10
169.1
20
-85.025
11
182.9
21
-85.025
0
LINE
8
0
10
182.9
20
-85.025
11
182.9
21
-71.225
0
LINE
8
0
10
182.9
20
-71.225
11
169.1
21
-71.225
0
LINE
8
0
10
169.1
20
-71.225
11
169.1
21
-85.025
0
LINE
8
0
10
169.1
20
-67.525
11
182.9
21
-67.525
0
LINE
8
0
10
182.9
20
-67.525
11
182.9
21
-53.725
0
LINE
8
0
10
182.9
20
-53.725
11
169.1
21
-53.725
0
LINE
8
0
10
169.1
20
-53.725
11
169.1
21
-67.525
0
LINE
8
0
10
169.1
20
-50.025
11
182.9
21
-50.025
0
LINE
8
0
10
182.9
20
-50.025
11
182.9
21
-36.225
0
LINE
8
0
10
182.9
20
-36.225
11
169.1
21
-36.225
0
LINE
8
0
10
169.1
20
-36.225
11
169.1
21
-50.025
0
LINE
8
0
10
188.1
20
-104.7125
11
201.9
21
-104.7125
0
LINE
8
0
10
201.9
20
-104.7125
11
201.9
21
-90.9125
0
LINE
8
0
10
201.9
20
-90.9125
11
188.1
21
-90.9125
0
LINE
8
0
10
188.1
20
-90.9125
11
188.1
21
-104.7125
0
LINE
8
0
10
188.1
20
-87.2125
11
201.9
21
-87.2125
0
LINE
8
0
10
201.9
20
-87.2125
11
201.9
21
-73.4125
0
LINE
8
0
10
201.9
20
-73.4125
11
188.1
21
-73.4125
0
LINE
8
0
10
188.1
20
-73.4125
11
188.1
21
-87.2125
0
LINE
8
0
10
188.1
20
-69.7125
11
201.9
21
-69.7125
0
LINE
8
0
10
201.9
20
-69.7125
11
201.9
21
-55.9125
0
LINE
8
0
10
201.9
20
-55.9125
11
188.1
21
-55.9125
0
LINE
8
0
10
188.1
20
-55.9125
11
188.1
21
-69.7125
0
LINE
8
0
10
188.1
20
-52.2125
11
201.9
21
-52.2125
0
LINE
8
0
10
201.9
20
-52.2125
11
201.9
21
-38.4125
0
LINE
8
0
10
201.9
20
-38.4125
11
188.1
21
-38.4125
0
LINE
8
0
10
188.1
20
-38.4125
11
188.1
21
-52.2125
0
LINE
8
0
10
127.3
20
-124.8375
11
141.1
21
-124.8375
0
LINE
8
0
10
141.1
20
-124.8375
11
141.1
21
-111.0375
0
LINE
8
0
10
141.1
20
-111.0375
11
127.3
21
-111.0375
0
LINE
8
0
10
127.3
20
-111.0375
11
127.3
21
-124.8375
0
LINE
8
0
10
146.3
20
-121.3375
11
160.1
21
-121.3375
0
LINE
8
0
10
160.1
20
-121.3375
11
160.1
21
-107.5375
0
LINE
8
0
10
160.1
20
-107.5375
11
146.3
21
-107.5375
0
LINE
8
0
10
146.3
20
-107.5375
11
146.3
21
-121.3375
0
LINE
8
0
10
165.3
20
-121.3375
11
179.1
21
-121.3375
0
LINE
8
0
10
179.1
20
-121.3375
11
179.1
21
-107.5375
0
LINE
8
0
10
179.1
20
-107.5375
11
165.3
21
-107.5375
0
LINE
8
0
10
165.3
20
-107.5375
11
165.3
21
-121.3375
0
LINE
8
0
10
182.8787423
20
-125.3330244
11
196.2085187
21
-128.9047272
0
LINE
8
0
10
196.2085187
20
-128.9047272
11
199.7802215
21
-115.5749508
0
LINE
8
0
10
199.7802215
20
-115.5749508
11
186.4504451
21
-112.003248
0
LINE
8
0
10
186.4504451
20
-112.003248
11
182.8787423
21
-125.3330244
0
LINE
8
0
10
200.5315671
20
-130.9617261
11
212.4827177
21
-137.8617261
0
LINE
8
0
10
212.4827177
20
-137.8617261
11
219.3827177
21
-125.9105755
0
LINE
8
0
10
219.3827177
20
-125.9105755
11
207.4315671
21
-119.0105755
0
LINE
8
0
10
207.4315671
20
-119.0105755
11
200.5315671
21
-130.9617261
0
LINE
8
0
10
205.113
20
-94.3635
11
205.113
21
-39.7025
0
LINE
8
0
10
205.613
20
-39.2025
11
224.333
21
-39.2025
0
LINE
8
0
10
224.333
20
-94.8635
11
205.613
21
-94.8635
0
ARC
8
0
10
205.613
20
-39.7025
40
0.5
50
90
51
180
0
ARC
8
0
10
224.333
20
-39.7025
40
0.5
50
0
51
90
0
ARC
8
0
10
224.333
20
-94.3635
40
0.5
50
270
51
0
0
ARC
8
0
10
205.613
20
-94.3635
40
0.5
50
180
51
270
0
LINE
8
0
10
93.25
20
-108.25
11
106.75
21
-108.25
0
LINE
8
0
10
108.75
20
-106.25
11
108.75
21
-93.75
0
LINE
8
0
10
106.75
20
-91.75
11
93.25
21
-91.75
0
LINE
8
0
10
91.25
20
-93.75
11
91.25
21
-106.25
0
LINE
8
0
10
93.25
20
-90.75
11
106.75
21
-90.75
0
LINE
8
0
10
108.75
20
-88.75
11
108.75
21
-76.25
0
LINE
8
0
10
106.75
20
-74.25
11
93.25
21
-74.25
0
LINE
8
0
10
91.25
20
-76.25
11
91.25
21
-88.75
0
LINE
8
0
10
93.25
20
-73.25
11
106.75
21
-73.25
0
LINE
8
0
10
108.75
20
-71.25
11
108.75
21
-58.75
0
LINE
8
0
10
106.75
20
-56.75
11
93.25
21
-56.75
0
LINE
8
0
10
91.25
20
-58.75
11
91.25
21
-71.25
0
LINE
8
0
10
93.25
20
-55.75
11
106.75
21
-55.75
0
LINE
8
0
10
108.75
20
-53.75
11
108.75
21
-41.25
0
LINE
8
0
10
106.75
20
-39.25
11
93.25
21
-39.25
0
LINE
8
0
10
91.25
20
-41.25
11
91.25
21
-53.75
0
LINE
8
0
10
112.25
20
-108.25
11
125.75
21
-108.25
0
LINE
8
0
10
127.75
20
-106.25
11
127.75
21
-93.75
0
LINE
8
0
10
125.75
20
-91.75
11
112.25
21
-91.75
0
LINE
8
0
10
110.25
20
-93.75
11
110.25
21
-106.25
0
LINE
8
0
10
112.25
20
-90.75
11
125.75
21
-90.75
0
LINE
8
0
10
127.75
20
-88.75
11
127.75
21
-76.25
0
LINE
8
0
10
125.75
20
-74.25
11
112.25
21
-74.25
0
LINE
8
0
10
110.25
20
-76.25
11
110.25
21
-88.75
0
LINE
8
0
10
112.25
20
-73.25
11
125.75
21
-73.25
0
LINE
8
0
10
127.75
20
-71.25
11
127.75
21
-58.75
0
LINE
8
0
10
125.75
20
-56.75
11
112.25
21
-56.75
0
LINE
8
0
10
110.25
20
-58.75
11
110.25
21
-71.25
0
LINE
8
0
10
112.25
20
-55.75
11
125.75
21
-55.75
0
LINE
8
0
10
127.75
20
-53.75
11
127.75
21
-41.25
0
LINE
8
0
10
125.75
20
-39.25
11
112.25
21
-39.25
0
LINE
8
0
10
110.25
20
-41.25
11
110.25
21
-53.75
0
LINE
8
0
10
131.25
20
-103.875
11
144.75
21
-103.875
0
LINE
8
0
10
146.75
20
-101.875
11
146.75
21
-89.375
0
LINE
8
0
10
144.75
20
-87.375
11
131.25
21
-87.375
0
LINE
8
0
10
129.25
20
-89.375
11
129.25
21
-101.875
0
LINE
8
0
10
131.25
20
-86.375
11
144.75
21
-86.375
0
LINE
8
0
10
146.75
20
-84.375
11
146.75
21
-71.875
0
LINE
8
0
10
144.75
20
-69.875
11
131.25
21
-69.875
0
LINE
8
0
10
129.25
20
-71.875
11
129.25
21
-84.375
0
LINE
8
0
10
131.25
20
-68.875
11
144.75
21
-68.875
0
LINE
8
0
10
146.75
20
-66.875
11
146.75
21
-54.375
0
LINE
8
0
10
144.75
20
-52.375
11
131.25
21
-52.375
0
LINE
8
0
10
129.25
20
-54.375
11
129.25
21
-66.875
0
LINE
8
0
10
131.25
20
-51.375
11
144.75
21
-51.375
0
LINE
8
0
10
146.75
20
-49.375
11
146.75
21
-36.875
0
LINE
8
0
10
144.75
20
-34.875
11
131.25
21
-34.875
0
LINE
8
0
10
129.25
20
-36.875
11
129.25
21
-49.375
0
LINE
8
0
10
150.25
20
-101.6875
11
163.75
21
-101.6875
0
LINE
8
0
10
165.75
20
-99.6875
11
165.75
21
-87.1875
0
LINE
8
0
10
163.75
20
-85.1875
11
150.25
21
-85.1875
0
LINE
8
0
10
148.25
20
-87.1875
11
148.25
21
-99.6875
0
LINE
8
0
10
150.25
20
-84.1875
11
163.75
21
-84.1875
0
LINE
8
0
10
165.75
20
-82.1875
11
165.75
21
-69.6875
0
LINE
8
0
10
163.75
20
-67.6875
11
150.25
21
-67.6875
0
LINE
8
0
10
148.25
20
-69.6875
11
148.25
21
-82.1875
0
LINE
8
0
10
150.25
20
-66.6875
11
163.75
21
-66.6875
0
LINE
8
0
10
165.75
20
-64.6875
11
165.75
21
-52.1875
0
LINE
8
0
10
163.75
20
-50.1875
11
150.25
21
-50.1875
0
LINE
8
0
10
148.25
20
-52.1875
11
148.25
21
-64.6875
0
LINE
8
0
10
150.25
20
-49.1875
11
163.75
21
-49.1875
0
LINE
8
0
10
165.75
20
-47.1875
11
165.75
21
-34.6875
0
LINE
8
0
10
163.75
20
-32.6875
11
150.25
21
-32.6875
0
LINE
8
0
10
148.25
20
-34.6875
11
148.25
21
-47.1875
0
LINE
8
0
10
169.25
20
-103.875
11
182.75
21
-103.875
0
LINE
8
0
10
184.75
20
-101.875
11
184.75
21
-89.375
0
LINE
8
0
10
182.75
20
-87.375
11
169.25
21
-87.375
0
LINE
8
0
10
167.25
20
-89.375
11
167.25
21
-101.875
0
LINE
8
0
10
169.25
20
-86.375
11
182.75
21
-86.375
0
LINE
8
0
10
184.75
20
-84.375
11
184.75
21
-71.875
0
LINE
8
0
10
182.75
20
-69.875
11
169.25
21
-69.875
0
LINE
8
0
10
167.25
20
-71.875
11
167.25
21
-84.375
0
LINE
8
0
10
169.25
20
-68.875
11
182.75
21
-68.875
0
LINE
8
0
10
184.75
20
-66.875
11
184.75
21
-54.375
0
LINE
8
0
10
182.75
20
-52.375
11
169.25
21
-52.375
0
LINE
8
0
10
167.25
20
-54.375
11
167.25
21
-66.875
0
LINE
8
0
10
169.25
20
-51.375
11
182.75
21
-51.375
0
LINE
8
0
10
184.75
20
-49.375
11
184.75
21
-36.875
0
LINE
8
0
10
182.75
20
-34.875
11
169.25
21
-34.875
0
LINE
8
0
10
167.25
20
-36.875
11
167.25
21
-49.375
0
LINE
8
0
10
188.25
20
-106.0625
11
201.75
21
-106.0625
0
LINE
8
0
10
203.75
20
-104.0625
11
203.75
21
-91.5625
0
LINE
8
0
10
201.75
20
-89.5625
11
188.25
21
-89.5625
0
LINE
8
0
10
186.25
20
-91.5625
11
186.25
21
-104.0625
0
LINE
8
0
10
188.25
20
-88.5625
11
201.75
21
-88.5625
0
LINE
8
0
10
203.75
20
-86.5625
11
203.75
21
-74.0625
0
LINE
8
0
10
201.75
20
-72.0625
11
188.25
21
-72.0625
0
LINE
8
0
10
186.25
20
-74.0625
11
186.25
21
-86.5625
0
LINE
8
0
10
188.25
20
-71.0625
11
201.75
21
-71.0625
0
LINE
8
0
10
203.75
20
-69.0625
11
203.75
21
-56.5625
0
LINE
8
0
10
201.75
20
-54.5625
11
188.25
21
-54.5625
0
LINE
8
0
10
186.25
20
-56.5625
11
186.25
21
-69.0625
0
LINE
8
0
10
188.25
20
-53.5625
11
201.75
21
-53.5625
0
LINE
8
0
10
203.75
20
-51.5625
11
203.75
21
-39.0625
0
LINE
8
0
10
201.75
20
-37.0625
11
188.25
21
-37.0625
0
LINE
8
0
10
186.25
20
-39.0625
11
186.25
21
-51.5625
0
LINE
8
0
10
127.45
20
-126.1875
11
140.95
21
-126.1875
0
LINE
8
0
10
142.95
20
-124.1875
11
142.95
21
-111.6875
0
LINE
8
0
10
140.95
20
-109.6875
11
127.45
21
-109.6875
0
LINE
8
0
10
125.45
20
-111.6875
11
125.45
21
-124.1875
0
LINE
8
0
10
146.45
20
-122.6875
11
159.95
21
-122.6875
0
LINE
8
0
10
161.95
20
-120.6875
11
161.95
21
-108.1875
0
LINE
8
0
10
159.95
20
-106.1875
11
146.45
21
-106.1875
0
LINE
8
0
10
144.45
20
-108.1875
11
144.45
21
-120.6875
0
LINE
8
0
10
165.45
20
-122.6875
11
178.95
21
-122.6875
0
LINE
8
0
10
180.95
20
-120.6875
11
180.95
21
-108.1875
0
LINE
8
0
10
178.95
20
-106.1875
11
165.45
21
-106.1875
0
LINE
8
0
10
163.45
20
-108.1875
11
163.45
21
-120.6875
0
LINE
8
0
10
182.6742256
20
-126.6758471
11
195.7142242
21
-130.1699042
0
LINE
8
0
10
201.2350751
20
-117.2932146
11
201.3989519
21
-116.6816178
0
LINE
8
0
10
199.9847382
20
-114.2321281
11
186.9447396
21
-110.738071
0
LINE
8
0
10
184.4952499
20
-112.1522847
11
181.2600119
21
-124.2263574
0
ARC
8
0
10
106.75
20
-106.25
40
2
50
270
51
0
0
ARC
8
0
10
106.75
20
-93.75
40
2
50
0
51
90
0
ARC
8
0
10
93.25
20
-93.75
40
2
50
90
51
180
0
ARC
8
0
10
93.25
20
-106.25
40
2
50
180
51
270
0
ARC
8
0
10
106.75
20
-88.75
40
2
50
270
51
0
0
ARC
8
0
10
106.75
20
-76.25
40
2
50
0
51
90
0
ARC
8
0
10
93.25
20
-76.25
40
2
50
90
51
180
0
ARC
8
0
10
93.25
20
-88.75
40
2
50
180
51
270
0
ARC
8
0
10
106.75
20
-71.25
40
2
50
270
51
0
0
ARC
8
0
10
106.75
20
-58.75
40
2
50
0
51
90
0
ARC
8
0
10
93.25
20
-58.75
40
2
50
90
51
180
0
ARC
8
0
10
93.25
20
-71.25
40
2
50
180
51
270
0
ARC
8
0
10
106.75
20
-53.75
40
2
50
270
51
0
0
ARC
8
0
10
106.75
20
-41.25
40
2
50
0
51
90
0
ARC
8
0
10
93.25
20
-41.25
40
2
50
90
51
180
0
ARC
8
0
10
93.25
20
-53.75
40
2
50
180
51
270
0
ARC
8
0
10
125.75
20
-106.25
40
2
50
270
51
0
0
ARC
8
0
10
125.75
20
-93.75
40
2
50
0
51
90
0
ARC
8
0
10
112.25
20
-93.75
40
2
50
90
51
180
0
ARC
8
0
10
112.25
20
-106.25
40
2
50
180
51
270
0
ARC
8
0
10
125.75
20
-88.75
40
2
50
270
51
0
0
ARC
8
0
10
125.75
20
-76.25
40
2
50
0
51
90
0
ARC
8
0
10
112.25
20
-76.25
40
2
50
90
51
180
0
ARC
8
0
10
112.25
20
-88.75
40
2
50
180
51
270
0
ARC
8
0
10
125.75
20
-71.25
40
2
50
270
51
0
0
ARC
8
0
10
125.75
20
-58.75
40
2
50
0
51
90
0
ARC
8
0
10
112.25
20
-58.75
40
2
50
90
51
180
0
ARC
8
0
10
112.25
20
-71.25
40
2
50
180
51
270
0
ARC
8
0
10
125.75
20
-53.75
40
2
50
270
51
0
0
ARC
8
0
10
125.75
20
-41.25
40
2
50
0
51
90
0
ARC
8
0
10
112.25
20
-41.25
40
2
50
90
51
180
0
ARC
8
0
10
112.25
20
-53.75
40
2
50
180
51
270
0
ARC
8
0
10
144.75
20
-101.875
40
2
50
270
51
0
0
ARC
8
0
10
144.75
20
-89.375
40
2
50
0
51
90
0
ARC
8
0
10
131.25
20
-89.375
40
2
50
90
51
180
0
ARC
8
0
10
131.25
20
-101.875
40
2
50
180
51
270
0
ARC
8
0
10
144.75
20
-84.375
40
2
50
270
51
0
0
ARC
8
0
10
144.75
20
-71.875
40
2
50
0
51
90
0
ARC
8
0
10
131.25
20
-71.875
40
2
50
90
51
180
0
ARC
8
0
10
131.25
20
-84.375
40
2
50
180
51
270
0
ARC
8
0
10
144.75
20
-66.875
40
2
50
270
51
0
0
ARC
8
0
10
144.75
20
-54.375
40
2
50
0
51
90
0
ARC
8
0
10
131.25
20
-54.375
40
2
50
90
51
180
0
ARC
8
0
10
131.25
20
-66.875
40
2
50
180
51
270
0
ARC
8
0
10
144.75
20
-49.375
40
2
50
270
51
0
0
ARC
8
0
10
144.75
20
-36.875
40
2
50
0
51
90
0
ARC
8
0
10
131.25
20
-36.875
40
2
50
90
51
180
0
ARC
8
0
10
131.25
20
-49.375
40
2
50
180
51
270
0
ARC
8
0
10
163.75
20
-99.6875
40
2
50
270
51
0
0
ARC
8
0
10
163.75
20
-87.1875
40
2
50
0
51
90
0
ARC
8
0
10
150.25
20
-87.1875
40
2
50
90
51
180
0
ARC
8
0
10
150.25
20
-99.6875
40
2
50
180
51
270
0
ARC
8
0
10
163.75
20
-82.1875
40
2
50
270
51
0
0
ARC
8
0
10
163.75
20
-69.6875
40
2
50
0
51
90
0
ARC
8
0
10
150.25
20
-69.6875
40
2
50
90
51
180
0
ARC
8
0
10
150.25
20
-82.1875
40
2
50
180
51
270
0
ARC
8
0
10
163.75
20
-64.6875
40
2
50
270
51
0
0
ARC
8
0
10
163.75
20
-52.1875
40
2
50
0
51
90
0
ARC
8
0
10
150.25
20
-52.1875
40
2
50
90
51
180
0
ARC
8
0
10
150.25
20
-64.6875
40
2
50
180
51
270
0
ARC
8
0
10
163.75
20
-47.1875
40
2
50
270
51
0
0
ARC
8
0
10
163.75
20
-34.6875
40
2
50
0
51
90
0
ARC
8
0
10
150.25
20
-34.6875
40
2
50
90
51
180
0
ARC
8
0
10
150.25
20
-47.1875
40
2
50
180
51
270
0
ARC
8
0
10
182.75
20
-101.875
40
2
50
270
51
0
0
ARC
8
0
10
182.75
20
-89.375
40
2
50
0
51
90
0
ARC
8
0
10
169.25
20
-89.375
40
2
50
90
51
180
0
ARC
8
0
10
169.25
20
-101.875
40
2
50
180
51
270
0
ARC
8
0
10
182.75
20
-84.375
40
2
50
270
51
0
0
ARC
8
0
10
182.75
20
-71.875
40
2
50
0
51
90
0
ARC
8
0
10
169.25
20
-71.875
40
2
50
90
51
180
0
ARC
8
0
10
169.25
20
-84.375
40
2
50
180
51
270
0
ARC
8
0
10
182.75
20
-66.875
40
2
50
270
51
0
0
ARC
8
0
10
182.75
20
-54.375
40
2
50
0
51
90
0
ARC
8
0
10
169.25
20
-54.375
40
2
50
90
51
180
0
ARC
8
0
10
169.25
20
-66.875
40
2
50
180
51
270
0
ARC
8
0
10
182.75
20
-49.375
40
2
50
270
51
0
0
ARC
8
0
10
182.75
20
-36.875
40
2
50
0
51
90
0
ARC
8
0
10
169.25
20
-36.875
40
2
50
90
51
180
0
ARC
8
0
10
169.25
20
-49.375
40
2
50
180
51
270
0
ARC
8
0
10
201.75
20
-104.0625
40
2
50
270
51
0
0
ARC
8
0
10
201.75
20
-91.5625
40
2
50
0
51
90
0
ARC
8
0
10
188.25
20
-91.5625
40
2
50
90
51
180
0
ARC
8
0
10
188.25
20
-104.0625
40
2
50
180
51
270
0
ARC
8
0
10
201.75
20
-86.5625
40
2
50
270
51
0
0
ARC
8
0
10
201.75
20
-74.0625
40
2
50
0
51
90
0
ARC
8
0
10
188.25
20
-74.0625
40
2
50
90
51
180
0
ARC
8
0
10
188.25
20
-86.5625
40
2
50
180
51
270
0
ARC
8
0
10
201.75
20
-69.0625
40
2
50
270
51
0
0
ARC
8
0
10
201.75
20
-56.5625
40
2
50
0
51
90
0
ARC
8
0
10
188.25
20
-56.5625
40
2
50
90
51
180
0
ARC
8
0
10
188.25
20
-69.0625
40
2
50
180
51
270
0
ARC
8
0
10
201.75
20
-51.5625
40
2
50
270
51
0
0
ARC
8
0
10
201.75
20
-39.0625
40
2
50
0
51
90
0
ARC
8
0
10
188.25
20
-39.0625
40
2
50
90
51
180
0
ARC
8
0
10
188.25
20
-51.5625
40
2
50
180
51
270
0
ARC
8
0
10
140.95
20
-124.1875
40
2
50
270
51
0
0
ARC
8
0
10
140.95
20
-111.6875
40
2
50
0
51
90
0
ARC
8
0
10
127.45
20
-111.6875
40
2
50
90
51
180
0
ARC
8
0
10
127.45
20
-124.1875
40
2
50
180
51
270
0
ARC
8
0
10
159.95
20
-120.6875
40
2
50
270
51
0
0
ARC
8
0
10
159.95
20
-108.1875
40
2
50
0
51
90
0
ARC
8
0
10
146.45
20
-108.1875
40
2
50
90
51
180
0
ARC
8
0
10
146.45
20
-120.6875
40
2
50
180
51
270
0
ARC
8
0
10
178.95
20
-120.6875
40
2
50
270
51
0
0
ARC
8
0
10
178.95
20
-108.1875
40
2
50
0
51
90
0
ARC
8
0
10
165.45
20
-108.1875
40
2
50
90
51
180
0
ARC
8
0
10
165.45
20
-120.6875
40
2
50
180
51
270
0
ARC
8
0
10
196.2318622
20
-128.2380525
40
2
50
255.0000021
51
278.7889269
0
ARC
8
0
10
199.4671002
20
-116.1639798
40
2
50
345.0000021
51
75.0000021
0
ARC
8
0
10
186.4271016
20
-112.6699227
40
2
50
75.0000021
51
165.0000021
0
ARC
8
0
10
183.1918636
20
-124.7439954
40
2
50
165.0000021
51
255.0000021
0
LINE
8
0
10
196.5374519
20
-130.2145684
11
215.466675
21
-141.1433604
0
LINE
8
0
10
218.1987258
20
-140.4113096
11
224.4487258
21
-129.585992
0
LINE
8
0
10
223.716675
20
-126.8539412
11
204.4476098
21
-115.7289412
0
LINE
8
0
10
201.715559
20
-116.460992
11
201.2350751
21
-117.2932146
0
ARC
8
0
10
216.466675
20
-139.4113096
40
2
50
239.9999999
51
329.9999999
0
ARC
8
0
10
222.716675
20
-128.585992
40
2
50
329.9999999
51
59.9999999
0
ARC
8
0
10
203.4476098
20
-117.460992
40
2
50
59.9999999
51
149.9999999
0
LINE
8
0
10
89.6300039
20
-39.2058745
11
89.8000039
21
-112.2533745
0
LINE
8
0
10
89.6277879
20
-38.2536887
11
89.6300039
21
-39.2058745
0
LINE
8
0
10
90.1277733
20
-37.7525251
11
127.1300132
21
-37.7515513
0
LINE
8
0
10
127.63
20
-37.2515513
11
127.63
21
-33.8775
0
LINE
8
0
10
128.13
20
-33.3775
11
146.13
21
-33.3775
0
LINE
8
0
10
146.63
20
-32.8775
11
146.63
21
-31.8025
0
LINE
8
0
10
147.13
20
-31.3025
11
167.032
21
-31.3025
0
LINE
8
0
10
167.532
20
-32.8775
11
167.532
21
-31.8025
0
LINE
8
0
10
168.032
20
-33.3775
11
186.032
21
-33.3775
0
LINE
8
0
10
186.532
20
-35.1734617
11
186.532
21
-33.8775
0
LINE
8
0
10
187.0318816
20
-35.6734617
11
204.1544875
21
-35.6775171
0
LINE
8
0
10
204.1544875
20
-35.6775171
11
204.2262735
21
-35.6846954
0
LINE
8
0
10
204.2262735
20
-35.6846954
11
225.8327494
21
-37.8452388
0
LINE
8
0
10
226.283
20
-125.3068413
11
226.283
21
-38.3427576
0
LINE
8
0
10
213.7882948
20
-143.8293985
11
226.283
21
-125.3068413
0
LINE
8
0
10
178.6242238
20
-127.6512731
11
213.1598354
21
-144.0016976
0
LINE
8
0
10
163.6079077
20
-126.4049943
11
178.4505584
21
-127.6048109
0
LINE
8
0
10
146.3456179
20
-129.8875
11
163.4681978
21
-126.4133534
0
LINE
8
0
10
125.1241714
20
-129.8875
11
146.3456179
21
-129.8875
0
LINE
8
0
10
90.0874902
20
-113.3039831
11
125.1241714
21
-129.8875
0
LINE
8
0
10
89.8000039
20
-112.2533745
11
89.8013999
21
-112.853214
0
ARC
8
0
10
90.1277865
20
-38.2525251
40
0.5
50
90.0015126
51
450.0015126
0
ARC
8
0
10
127.13
20
-37.2515513
40
0.5
50
270.0015069
51
630.0015069
0
ARC
8
0
10
128.13
20
-33.8775
40
0.5
50
90
51
450
0
ARC
8
0
10
146.13
20
-32.8775
40
0.5
50
270
51
630
0
ARC
8
0
10
147.13
20
-31.8025
40
0.5
50
90
51
450
0
ARC
8
0
10
167.032
20
-31.8025
40
0.5
50
0
51
360
0
ARC
8
0
10
168.032
20
-32.8775
40
0.5
50
180
51
540
0
ARC
8
0
10
186.032
20
-33.8775
40
0.5
50
0
51
360
0
ARC
8
0
10
187.032
20
-35.1734617
40
0.5
50
180
51
540
0
ARC
8
0
10
225.783
20
-38.3427576
40
0.5
50
0
51
360
0
ARC
8
0
10
213.3737872
20
-143.5497854
40
0.5
50
244.6654098
51
604.6654098
0
ARC
8
0
10
178.410272
20
-128.1031853
40
0.5
50
64.6654098
51
424.6654098
0
ARC
8
0
10
163.5676212
20
-126.9033687
40
0.5
50
85.3785031
51
445.3785031
0
ARC
8
0
10
90.3013985
20
-112.8520504
40
0.5
50
180.1333389
51
540.1333389
0
LINE
8
0
10
91.0000007
20
-112.2505818
11
90.8300007
21
-39.2030818
0
LINE
8
0
10
90.8294175
20
-38.9525066
11
90.8300007
21
-39.2030818
0
LINE
8
0
10
90.8294175
20
-38.9525066
11
128.3300132
21
-38.9515197
0
LINE
8
0
10
128.83
20
-38.4515197
11
128.83
21
-34.5775
0
LINE
8
0
10
128.83
20
-34.5775
11
147.33
21
-34.5775
0
LINE
8
0
10
147.83
20
-34.0775
11
147.83
21
-32.5025
0
LINE
8
0
10
147.83
20
-32.5025
11
166.332
21
-32.5025
0
LINE
8
0
10
166.332
20
-34.0775
11
166.332
21
-32.5025
0
LINE
8
0
10
166.832
20
-34.5775
11
185.332
21
-34.5775
0
LINE
8
0
10
185.332
20
-36.3731776
11
185.332
21
-34.5775
0
LINE
8
0
10
185.8318816
20
-36.8731776
11
204.0820592
21
-36.8775
0
LINE
8
0
10
204.0944978
20
-36.877503
11
204.0820592
21
-36.8775
0
LINE
8
0
10
204.1068747
20
-36.8787406
11
204.0944978
21
-36.877503
0
LINE
8
0
10
204.1068747
20
-36.8787406
11
225.083
21
-38.976252
0
LINE
8
0
10
225.083
20
-124.9399382
11
225.083
21
-38.976252
0
LINE
8
0
10
213.1297817
20
-142.6597775
11
225.083
21
-124.9399382
0
LINE
8
0
10
178.9394991
20
-126.4728445
11
213.1297817
21
-142.6597775
0
LINE
8
0
10
178.7658337
20
-126.4263823
11
163.535525
21
-125.195229
0
LINE
8
0
10
146.2251065
20
-128.6875
11
163.3958151
21
-125.2035881
0
LINE
8
0
10
125.3938227
20
-128.6875
11
146.2251065
21
-128.6875
0
LINE
8
0
10
91.000368
20
-112.4084343
11
125.3938227
21
-128.6875
0
LINE
8
0
10
91.0000007
20
-112.2505818
11
91.000368
21
-112.4084343
0
ARC
8
0
10
128.33
20
-38.4515197
40
0.5
50
270.0015069
51
0
0
ARC
8
0
10
147.33
20
-34.0775
40
0.5
50
270
51
0
0
ARC
8
0
10
166.832
20
-34.0775
40
0.5
50
180
51
270
0
ARC
8
0
10
185.832
20
-36.3731776
40
0.5
50
180
51
269.9864324
0
ARC
8
0
10
178.7255473
20
-126.9247567
40
0.5
50
64.6654098
51
85.3785031
0
ARC
8
0
10
163.4952385
20
-125.6936034
40
0.5
50
85.3785031
51
101.469531
0
LINE
8
0
10
93.6457321
20
-110.4133255
11
93.4867581
21
-42.1035871
0
LINE
8
0
10
93.9867435
20
-41.6024235
11
130.9800132
21
-41.60145
0
LINE
8
0
10
131.48
20
-41.10145
11
131.48
21
-37.7275
0
LINE
8
0
10
131.98
20
-37.2275
11
149.7379804
21
-37.2275
0
LINE
8
0
10
150.2333748
20
-36.7952084
11
150.3988093
21
-35.5847916
0
LINE
8
0
10
150.8942037
20
-35.1525
11
163.2677963
21
-35.1525
0
LINE
8
0
10
163.7631907
20
-35.5847916
11
163.9286252
21
-36.7952084
0
LINE
8
0
10
164.4240196
20
-37.2275
11
182.205593
21
-37.2275
0
LINE
8
0
10
182.7051188
20
-37.7057292
11
182.7634595
21
-39.0443401
0
LINE
8
0
10
183.2628669
20
-39.5225692
11
203.9371436
21
-39.5274657
0
LINE
8
0
10
203.9867747
20
-39.5299469
11
221.9827495
21
-41.3294577
0
LINE
8
0
10
222.433
20
-123.9768172
11
222.433
21
-41.8269765
0
LINE
8
0
10
222.3475076
20
-124.2564303
11
212.4462644
21
-138.934355
0
LINE
8
0
10
179.5531443
20
-123.8313811
11
211.817805
21
-139.1066541
0
LINE
8
0
10
163.3052356
20
-122.5179693
11
179.5531443
21
-123.8313811
0
LINE
8
0
10
146.0081877
20
-126.0275153
11
163.3052356
21
-122.5179693
0
LINE
8
0
10
145.9087643
20
-126.0375
11
126.1016574
21
-126.0375
0
LINE
8
0
10
125.8877491
20
-125.9894328
11
93.9318224
21
-110.8640947
0
ARC
8
0
10
93.9867567
20
-42.1024235
40
0.5
50
90.0015069
51
180.1333389
0
ARC
8
0
10
130.98
20
-41.10145
40
0.5
50
270.0015069
51
0
0
ARC
8
0
10
131.98
20
-37.7275
40
0.5
50
90
51
180
0
ARC
8
0
10
149.7379804
20
-36.7275
40
0.5
50
270
51
352.2172834
0
ARC
8
0
10
150.8942037
20
-35.6525
40
0.5
50
90
51
172.2172834
0
ARC
8
0
10
163.2677963
20
-35.6525
40
0.5
50
7.7827166
51
90
0
ARC
8
0
10
164.4240196
20
-36.7275
40
0.5
50
187.7827166
51
270
0
ARC
8
0
10
182.205593
20
-37.7275
40
0.5
50
2.4955446
51
90
0
ARC
8
0
10
183.2629853
20
-39.0225692
40
0.5
50
182.4955446
51
269.9864324
0
ARC
8
0
10
203.9370252
20
-40.0274657
40
0.5
50
84.2896788
51
89.9864324
0
ARC
8
0
10
221.933
20
-41.8269765
40
0.5
50
0
51
84.2896788
0
ARC
8
0
10
221.933
20
-123.9768172
40
0.5
50
325.9976984
51
0
0
ARC
8
0
10
212.0317568
20
-138.6547419
40
0.5
50
244.6654098
51
325.9976984
0
ARC
8
0
10
145.9087643
20
-125.5375
40
0.5
50
270
51
281.469531
0
ARC
8
0
10
126.1016574
20
-125.5375
40
0.5
50
244.6709304
51
270
0
ARC
8
0
10
94.1457307
20
-110.4121619
40
0.5
50
180.1333389
51
244.6709304
0
ENDSEC
0
EOF