0
SECTION
2
HEADER
9
$INSUNITS
70
4
0
ENDSEC
0
SECTION
2
TABLES
0
TABLE
2
LTYPE
0
LTYPE
72
65
70
64
2
CONTINUOUS
3
______
73
0
40
0
0
ENDTAB
0
TABLE
2
LAYER
0
ENDTAB
0
ENDSEC
0
SECTION
2
ENTITIES
0
LINE
8
0
10
91.4862289
20
-39.8334391
11
110.5082665
21
-109.9252765
0
LINE
8
0
10
91.9687611
20
-39.2024823
11
127.8150135
21
-39.2015135
0
LINE
8
0
10
128.315
20
-38.7015135
11
128.315
21
-35.3275
0
LINE
8
0
10
128.815
20
-34.8275
11
146.315
21
-34.8275
0
LINE
8
0
10
146.815
20
-34.3275
11
146.815
21
-33.2525
0
LINE
8
0
10
147.315
20
-32.7525
11
163.843
21
-32.7525
0
LINE
8
0
10
164.343
20
-34.3275
11
164.343
21
-33.2525
0
LINE
8
0
10
164.843
20
-34.8275
11
182.343
21
-34.8275
0
LINE
8
0
10
182.843
20
-36.6231216
11
182.843
21
-35.3275
0
LINE
8
0
10
183.3428784
20
-37.1231216
11
200.8424828
21
-37.1273783
0
LINE
8
0
10
201.3180004
20
-56.7021868
11
201.3423608
21
-37.6280168
0
LINE
8
0
10
219.657526
20
-126.9853942
11
220.938
21
-112.3635
0
LINE
8
0
10
120.6993432
20
-111.8396103
11
219.0811472
21
-127.4356084
0
LINE
8
0
10
110.9125271
20
-110.2881531
11
118.6165232
21
-111.5094308
0
LINE
8
0
10
201.818639
20
-56.7025
11
221.068
21
-56.7025
0
LINE
8
0
10
221.568
20
-111.8635
11
221.568
21
-57.2025
0
LINE
8
0
10
201.818
20
-112.3635
11
221.068
21
-112.3635
0
ARC
8
0
10
91.9687746
20
-39.7024823
40
0.5
50
90.001547
51
450.001547
0
ARC
8
0
10
127.815
20
-38.7015135
40
0.5
50
270.001547
51
630.001547
0
ARC
8
0
10
128.815
20
-35.3275
40
0.5
50
90
51
450
0
ARC
8
0
10
146.315
20
-34.3275
40
0.5
50
270
51
630
0
ARC
8
0
10
147.315
20
-33.2525
40
0.5
50
90
51
450
0
ARC
8
0
10
163.843
20
-33.2525
40
0.5
50
0
51
360
0
ARC
8
0
10
164.843
20
-34.3275
40
0.5
50
180
51
540
0
ARC
8
0
10
182.343
20
-35.3275
40
0.5
50
0
51
360
0
ARC
8
0
10
183.343
20
-36.6231216
40
0.5
50
180
51
540
0
ARC
8
0
10
200.8423612
20
-37.6273783
40
0.5
50
359.9268275
51
719.9268275
0
ARC
8
0
10
201.818639
20
-56.2025
40
0.5
50
179.9268275
51
539.9268275
0
ARC
8
0
10
221.068
20
-57.2025
40
0.5
50
0
51
360
0
ARC
8
0
10
221.068
20
-111.8635
40
0.5
50
270
51
630
0
ARC
8
0
10
219.1594323
20
-126.941775
40
0.5
50
260.9921313
51
620.9921313
0
ARC
8
0
10
110.9908122
20
-109.7943197
40
0.5
50
195.1836391
51
555.1836391
0
CIRCLE
8
0
10
109.25
20
-73.75
40
1.1
0
CIRCLE
8
0
10
109.25
20
-91.25
40
1.1
0
CIRCLE
8
0
10
183.218
20
-70.4235
40
1.1
0
ARC
8
0
10
119.707
20
-111.365
40
1.1
50
334.4395002
51
547.5447631
0
CIRCLE
8
0
10
191.871694
20
-109.4866677
40
1.1
0
CIRCLE
8
0
10
109.25
20
-73.75
40
2.15
0
CIRCLE
8
0
10
109.25
20
-91.25
40
2.15
0
CIRCLE
8
0
10
183.218
20
-70.4235
40
2.15
0
ARC
8
0
10
119.707
20
-111.365
40
2.15
50
342.6107962
51
539.3734648
0
CIRCLE
8
0
10
191.871694
20
-109.4866677
40
2.15
0
CIRCLE
8
0
10
204.927
20
-100.4385
40
1.1
0
CIRCLE
8
0
10
218.969
20
-108.8825
40
1.1
0
LINE
8
0
10
201.318
20
-56.7028254
11
201.318
21
-111.8635
0
ARC
8
0
10
201.818
20
-56.7028254
40
0.5
50
179.9268275
51
180
0
ARC
8
0
10
201.818
20
-111.8635
40
0.5
50
180
51
270
0
ARC
8
0
10
220.3923003
20
-112.8635
40
0.5
50
354.9952405
51
90
0
LINE
8
0
10
106.9
20
-96.6296436
11
106.9
21
-93.1
0
LINE
8
0
10
106.9
20
-93.1
11
105.9420994
21
-93.1
0
LINE
8
0
10
104.9379662
20
-89.4
11
106.9
21
-89.4
0
LINE
8
0
10
106.9
20
-89.4
11
106.9
21
-75.6
0
LINE
8
0
10
106.9
20
-75.6
11
101.1928209
21
-75.6
0
LINE
8
0
10
100.1886877
20
-71.9
11
106.9
21
-71.9
0
LINE
8
0
10
106.9
20
-71.9
11
106.9
21
-58.1
0
LINE
8
0
10
106.9
20
-58.1
11
96.4435423
21
-58.1
0
LINE
8
0
10
95.4394092
20
-54.4
11
106.9
21
-54.4
0
LINE
8
0
10
106.9
20
-54.4
11
106.9
21
-40.6
0
LINE
8
0
10
106.9
20
-40.6
11
93.1
21
-40.6
0
LINE
8
0
10
93.1
20
-40.6
11
93.1
21
-45.7798148
0
LINE
8
0
10
111.6
20
-106.9
11
125.4
21
-106.9
0
LINE
8
0
10
125.4
20
-106.9
11
125.4
21
-93.1
0
LINE
8
0
10
125.4
20
-93.1
11
111.6
21
-93.1
0
LINE
8
0
10
111.6
20
-93.1
11
111.6
21
-106.9
0
LINE
8
0
10
111.6
20
-89.4
11
125.4
21
-89.4
0
LINE
8
0
10
125.4
20
-89.4
11
125.4
21
-75.6
0
LINE
8
0
10
125.4
20
-75.6
11
111.6
21
-75.6
0
LINE
8
0
10
111.6
20
-75.6
11
111.6
21
-89.4
0
LINE
8
0
10
111.6
20
-71.9
11
125.4
21
-71.9
0
LINE
8
0
10
125.4
20
-71.9
11
125.4
21
-58.1
0
LINE
8
0
10
125.4
20
-58.1
11
111.6
21
-58.1
0
LINE
8
0
10
111.6
20
-58.1
11
111.6
21
-71.9
0
LINE
8
0
10
111.6
20
-54.4
11
125.4
21
-54.4
0
LINE
8
0
10
125.4
20
-54.4
11
125.4
21
-40.6
0
LINE
8
0
10
125.4
20
-40.6
11
111.6
21
-40.6
0
LINE
8
0
10
111.6
20
-40.6
11
111.6
21
-54.4
0
LINE
8
0
10
130.1
20
-102.525
11
143.9
21
-102.525
0
LINE
8
0
10
143.9
20
-102.525
11
143.9
21
-88.725
0
LINE
8
0
10
143.9
20
-88.725
11
130.1
21
-88.725
0
LINE
8
0
10
130.1
20
-88.725
11
130.1
21
-102.525
0
LINE
8
0
10
130.1
20
-85.025
11
143.9
21
-85.025
0
LINE
8
0
10
143.9
20
-85.025
11
143.9
21
-71.225
0
LINE
8
0
10
143.9
20
-71.225
11
130.1
21
-71.225
0
LINE
8
0
10
130.1
20
-71.225
11
130.1
21
-85.025
0
LINE
8
0
10
130.1
20
-67.525
11
143.9
21
-67.525
0
LINE
8
0
10
143.9
20
-67.525
11
143.9
21
-53.725
0
LINE
8
0
10
143.9
20
-53.725
11
130.1
21
-53.725
0
LINE
8
0
10
130.1
20
-53.725
11
130.1
21
-67.525
0
LINE
8
0
10
130.1
20
-50.025
11
143.9
21
-50.025
0
LINE
8
0
10
143.9
20
-50.025
11
143.9
21
-36.225
0
LINE
8
0
10
143.9
20
-36.225
11
130.1
21
-36.225
0
LINE
8
0
10
130.1
20
-36.225
11
130.1
21
-50.025
0
LINE
8
0
10
148.6
20
-100.3375
11
162.4
21
-100.3375
0
LINE
8
0
10
162.4
20
-100.3375
11
162.4
21
-86.5375
0
LINE
8
0
10
162.4
20
-86.5375
11
148.6
21
-86.5375
0
LINE
8
0
10
148.6
20
-86.5375
11
148.6
21
-100.3375
0
LINE
8
0
10
148.6
20
-82.8375
11
162.4
21
-82.8375
0
LINE
8
0
10
162.4
20
-82.8375
11
162.4
21
-69.0375
0
LINE
8
0
10
162.4
20
-69.0375
11
148.6
21
-69.0375
0
LINE
8
0
10
148.6
20
-69.0375
11
148.6
21
-82.8375
0
LINE
8
0
10
148.6
20
-65.3375
11
162.4
21
-65.3375
0
LINE
8
0
10
162.4
20
-65.3375
11
162.4
21
-51.5375
0
LINE
8
0
10
162.4
20
-51.5375
11
148.6
21
-51.5375
0
LINE
8
0
10
148.6
20
-51.5375
11
148.6
21
-65.3375
0
LINE
8
0
10
148.6
20
-47.8375
11
162.4
21
-47.8375
0
LINE
8
0
10
162.4
20
-47.8375
11
162.4
21
-34.0375
0
LINE
8
0
10
162.4
20
-34.0375
11
148.6
21
-34.0375
0
LINE
8
0
10
148.6
20
-34.0375
11
148.6
21
-47.8375
0
LINE
8
0
10
167.1
20
-102.525
11
180.9
21
-102.525
0
LINE
8
0
10
180.9
20
-102.525
11
180.9
21
-88.725
0
LINE
8
0
10
180.9
20
-88.725
11
167.1
21
-88.725
0
LINE
8
0
10
167.1
20
-88.725
11
167.1
21
-102.525
0
LINE
8
0
10
167.1
20
-85.025
11
180.9
21
-85.025
0
LINE
8
0
10
180.9
20
-85.025
11
180.9
21
-71.225
0
LINE
8
0
10
180.9
20
-71.225
11
167.1
21
-71.225
0
LINE
8
0
10
167.1
20
-71.225
11
167.1
21
-85.025
0
LINE
8
0
10
167.1
20
-67.525
11
180.9
21
-67.525
0
LINE
8
0
10
180.9
20
-67.525
11
180.9
21
-53.725
0
LINE
8
0
10
180.9
20
-53.725
11
167.1
21
-53.725
0
LINE
8
0
10
167.1
20
-53.725
11
167.1
21
-67.525
0
LINE
8
0
10
167.1
20
-50.025
11
180.9
21
-50.025
0
LINE
8
0
10
180.9
20
-50.025
11
180.9
21
-36.225
0
LINE
8
0
10
180.9
20
-36.225
11
167.1
21
-36.225
0
LINE
8
0
10
167.1
20
-36.225
11
167.1
21
-50.025
0
LINE
8
0
10
185.6
20
-104.7125
11
199.4
21
-104.7125
0
LINE
8
0
10
199.4
20
-104.7125
11
199.4
21
-90.9125
0
LINE
8
0
10
199.4
20
-90.9125
11
185.6
21
-90.9125
0
LINE
8
0
10
185.6
20
-90.9125
11
185.6
21
-104.7125
0
LINE
8
0
10
185.6
20
-87.2125
11
199.4
21
-87.2125
0
LINE
8
0
10
199.4
20
-87.2125
11
199.4
21
-73.4125
0
LINE
8
0
10
199.4
20
-73.4125
11
185.6
21
-73.4125
0
LINE
8
0
10
185.6
20
-73.4125
11
185.6
21
-87.2125
0
LINE
8
0
10
185.6
20
-69.7125
11
199.4
21
-69.7125
0
LINE
8
0
10
199.4
20
-69.7125
11
199.4
21
-55.9125
0
LINE
8
0
10
199.4
20
-55.9125
11
185.6
21
-55.9125
0
LINE
8
0
10
185.6
20
-55.9125
11
185.6
21
-69.7125
0
LINE
8
0
10
185.6
20
-52.2125
11
199.4
21
-52.2125
0
LINE
8
0
10
199.4
20
-52.2125
11
199.4
21
-38.4125
0
LINE
8
0
10
199.4
20
-38.4125
11
185.6
21
-38.4125
0
LINE
8
0
10
185.6
20
-38.4125
11
185.6
21
-52.2125
0
LINE
8
0
10
140.2
20
-114.9309565
11
140.2
21
-111.0375
0
LINE
8
0
10
140.2
20
-111.0375
11
126.4
21
-111.0375
0
LINE
8
0
10
126.4
20
-111.0375
11
126.4
21
-112.7433083
0
LINE
8
0
10
158.7
20
-117.8636732
11
158.7
21
-107.5375
0
LINE
8
0
10
158.7
20
-107.5375
11
144.9
21
-107.5375
0
LINE
8
0
10
144.9
20
-107.5375
11
144.9
21
-115.676025
0
LINE
8
0
10
177.2
20
-120.7963899
11
177.2
21
-107.5375
0
LINE
8
0
10
177.2
20
-107.5375
11
163.4
21
-107.5375
0
LINE
8
0
10
163.4
20
-107.5375
11
163.4
21
-118.6087418
0
LINE
8
0
10
195.2192694
20
-123.6528987
11
197.376814
21
-115.6008327
0
LINE
8
0
10
197.376814
20
-115.6008327
11
184.0470376
21
-112.0291299
0
LINE
8
0
10
184.0470376
20
-112.0291299
11
181.5145879
21
-121.480361
0
LINE
8
0
10
215.8023844
20
-126.9158418
11
216.4430561
21
-125.8061659
0
LINE
8
0
10
216.4430561
20
-125.8061659
11
204.4919055
21
-118.9061659
0
LINE
8
0
10
204.4919055
20
-118.9061659
11
201.2036592
21
-124.6015755
0
LINE
8
0
10
202.348
20
-111.8635
11
202.348
21
-57.2025
0
ARC
8
0
10
202.848
20
-57.2025
40
0.5
50
90
51
180
0
ARC
8
0
10
202.848
20
-111.8635
40
0.5
50
180
51
270
0
LINE
8
0
10
93.25
20
-108.25
11
106.75
21
-108.25
0
LINE
8
0
10
108.75
20
-106.25
11
108.75
21
-93.75
0
LINE
8
0
10
106.75
20
-91.75
11
93.25
21
-91.75
0
LINE
8
0
10
91.25
20
-93.75
11
91.25
21
-106.25
0
LINE
8
0
10
93.25
20
-90.75
11
106.75
21
-90.75
0
LINE
8
0
10
108.75
20
-88.75
11
108.75
21
-76.25
0
LINE
8
0
10
106.75
20
-74.25
11
93.25
21
-74.25
0
LINE
8
0
10
91.25
20
-76.25
11
91.25
21
-88.75
0
LINE
8
0
10
93.25
20
-73.25
11
106.75
21
-73.25
0
LINE
8
0
10
108.75
20
-71.25
11
108.75
21
-58.75
0
LINE
8
0
10
106.75
20
-56.75
11
93.25
21
-56.75
0
LINE
8
0
10
91.25
20
-58.75
11
91.25
21
-71.25
0
LINE
8
0
10
93.25
20
-55.75
11
106.75
21
-55.75
0
LINE
8
0
10
108.75
20
-53.75
11
108.75
21
-41.25
0
LINE
8
0
10
106.75
20
-39.25
11
93.25
21
-39.25
0
LINE
8
0
10
91.25
20
-41.25
11
91.25
21
-53.75
0
LINE
8
0
10
111.75
20
-108.25
11
125.25
21
-108.25
0
LINE
8
0
10
127.25
20
-106.25
11
127.25
21
-93.75
0
LINE
8
0
10
125.25
20
-91.75
11
111.75
21
-91.75
0
LINE
8
0
10
109.75
20
-93.75
11
109.75
21
-106.25
0
LINE
8
0
10
111.75
20
-90.75
11
125.25
21
-90.75
0
LINE
8
0
10
127.25
20
-88.75
11
127.25
21
-76.25
0
LINE
8
0
10
125.25
20
-74.25
11
111.75
21
-74.25
0
LINE
8
0
10
109.75
20
-76.25
11
109.75
21
-88.75
0
LINE
8
0
10
111.75
20
-73.25
11
125.25
21
-73.25
0
LINE
8
0
10
127.25
20
-71.25
11
127.25
21
-58.75
0
LINE
8
0
10
125.25
20
-56.75
11
111.75
21
-56.75
0
LINE
8
0
10
109.75
20
-58.75
11
109.75
21
-71.25
0
LINE
8
0
10
111.75
20
-55.75
11
125.25
21
-55.75
0
LINE
8
0
10
127.25
20
-53.75
11
127.25
21
-41.25
0
LINE
8
0
10
125.25
20
-39.25
11
111.75
21
-39.25
0
LINE
8
0
10
109.75
20
-41.25
11
109.75
21
-53.75
0
LINE
8
0
10
130.25
20
-103.875
11
143.75
21
-103.875
0
LINE
8
0
10
145.75
20
-101.875
11
145.75
21
-89.375
0
LINE
8
0
10
143.75
20
-87.375
11
130.25
21
-87.375
0
LINE
8
0
10
128.25
20
-89.375
11
128.25
21
-101.875
0
LINE
8
0
10
130.25
20
-86.375
11
143.75
21
-86.375
0
LINE
8
0
10
145.75
20
-84.375
11
145.75
21
-71.875
0
LINE
8
0
10
143.75
20
-69.875
11
130.25
21
-69.875
0
LINE
8
0
10
128.25
20
-71.875
11
128.25
21
-84.375
0
LINE
8
0
10
130.25
20
-68.875
11
143.75
21
-68.875
0
LINE
8
0
10
145.75
20
-66.875
11
145.75
21
-54.375
0
LINE
8
0
10
143.75
20
-52.375
11
130.25
21
-52.375
0
LINE
8
0
10
128.25
20
-54.375
11
128.25
21
-66.875
0
LINE
8
0
10
130.25
20
-51.375
11
143.75
21
-51.375
0
LINE
8
0
10
145.75
20
-49.375
11
145.75
21
-36.875
0
LINE
8
0
10
143.75
20
-34.875
11
130.25
21
-34.875
0
LINE
8
0
10
128.25
20
-36.875
11
128.25
21
-49.375
0
LINE
8
0
10
148.75
20
-101.6875
11
162.25
21
-101.6875
0
LINE
8
0
10
164.25
20
-99.6875
11
164.25
21
-87.1875
0
LINE
8
0
10
162.25
20
-85.1875
11
148.75
21
-85.1875
0
LINE
8
0
10
146.75
20
-87.1875
11
146.75
21
-99.6875
0
LINE
8
0
10
148.75
20
-84.1875
11
162.25
21
-84.1875
0
LINE
8
0
10
164.25
20
-82.1875
11
164.25
21
-69.6875
0
LINE
8
0
10
162.25
20
-67.6875
11
148.75
21
-67.6875
0
LINE
8
0
10
146.75
20
-69.6875
11
146.75
21
-82.1875
0
LINE
8
0
10
148.75
20
-66.6875
11
162.25
21
-66.6875
0
LINE
8
0
10
164.25
20
-64.6875
11
164.25
21
-52.1875
0
LINE
8
0
10
162.25
20
-50.1875
11
148.75
21
-50.1875
0
LINE
8
0
10
146.75
20
-52.1875
11
146.75
21
-64.6875
0
LINE
8
0
10
148.75
20
-49.1875
11
162.25
21
-49.1875
0
LINE
8
0
10
164.25
20
-47.1875
11
164.25
21
-34.6875
0
LINE
8
0
10
162.25
20
-32.6875
11
148.75
21
-32.6875
0
LINE
8
0
10
146.75
20
-34.6875
11
146.75
21
-47.1875
0
LINE
8
0
10
167.25
20
-103.875
11
180.75
21
-103.875
0
LINE
8
0
10
182.75
20
-101.875
11
182.75
21
-89.375
0
LINE
8
0
10
180.75
20
-87.375
11
167.25
21
-87.375
0
LINE
8
0
10
165.25
20
-89.375
11
165.25
21
-101.875
0
LINE
8
0
10
167.25
20
-86.375
11
180.75
21
-86.375
0
LINE
8
0
10
182.75
20
-84.375
11
182.75
21
-71.875
0
LINE
8
0
10
180.75
20
-69.875
11
167.25
21
-69.875
0
LINE
8
0
10
165.25
20
-71.875
11
165.25
21
-84.375
0
LINE
8
0
10
167.25
20
-68.875
11
180.75
21
-68.875
0
LINE
8
0
10
182.75
20
-66.875
11
182.75
21
-54.375
0
LINE
8
0
10
180.75
20
-52.375
11
167.25
21
-52.375
0
LINE
8
0
10
165.25
20
-54.375
11
165.25
21
-66.875
0
LINE
8
0
10
167.25
20
-51.375
11
180.75
21
-51.375
0
LINE
8
0
10
182.75
20
-49.375
11
182.75
21
-36.875
0
LINE
8
0
10
180.75
20
-34.875
11
167.25
21
-34.875
0
LINE
8
0
10
165.25
20
-36.875
11
165.25
21
-49.375
0
LINE
8
0
10
185.75
20
-106.0625
11
199.25
21
-106.0625
0
LINE
8
0
10
201.25
20
-104.0625
11
201.25
21
-91.5625
0
LINE
8
0
10
199.25
20
-89.5625
11
185.75
21
-89.5625
0
LINE
8
0
10
183.75
20
-91.5625
11
183.75
21
-104.0625
0
LINE
8
0
10
185.75
20
-88.5625
11
199.25
21
-88.5625
0
LINE
8
0
10
201.25
20
-86.5625
11
201.25
21
-74.0625
0
LINE
8
0
10
199.25
20
-72.0625
11
185.75
21
-72.0625
0
LINE
8
0
10
183.75
20
-74.0625
11
183.75
21
-86.5625
0
LINE
8
0
10
185.75
20
-71.0625
11
199.25
21
-71.0625
0
LINE
8
0
10
201.25
20
-69.0625
11
201.25
21
-56.5625
0
LINE
8
0
10
199.25
20
-54.5625
11
185.75
21
-54.5625
0
LINE
8
0
10
183.75
20
-56.5625
11
183.75
21
-69.0625
0
LINE
8
0
10
185.75
20
-53.5625
11
199.25
21
-53.5625
0
LINE
8
0
10
201.25
20
-51.5625
11
201.25
21
-39.0625
0
LINE
8
0
10
199.25
20
-37.0625
11
185.75
21
-37.0625
0
LINE
8
0
10
183.75
20
-39.0625
11
183.75
21
-51.5625
0
LINE
8
0
10
126.55
20
-126.1875
11
140.05
21
-126.1875
0
LINE
8
0
10
142.05
20
-124.1875
11
142.05
21
-111.6875
0
LINE
8
0
10
140.05
20
-109.6875
11
126.55
21
-109.6875
0
LINE
8
0
10
124.55
20
-111.6875
11
124.55
21
-124.1875
0
LINE
8
0
10
145.05
20
-122.6875
11
158.55
21
-122.6875
0
LINE
8
0
10
160.55
20
-120.6875
11
160.55
21
-108.1875
0
LINE
8
0
10
158.55
20
-106.1875
11
145.05
21
-106.1875
0
LINE
8
0
10
143.05
20
-108.1875
11
143.05
21
-120.6875
0
LINE
8
0
10
163.55
20
-122.6875
11
177.05
21
-122.6875
0
LINE
8
0
10
179.05
20
-120.6875
11
179.05
21
-108.1875
0
LINE
8
0
10
177.05
20
-106.1875
11
163.55
21
-106.1875
0
LINE
8
0
10
161.55
20
-108.1875
11
161.55
21
-120.6875
0
LINE
8
0
10
180.2708181
20
-126.701729
11
193.3108167
21
-130.1957861
0
LINE
8
0
10
197.5813307
20
-114.25801
11
184.5413321
21
-110.7639529
0
LINE
8
0
10
182.0918424
20
-112.1781666
11
178.8566044
21
-124.2522393
0
ARC
8
0
10
106.75
20
-106.25
40
2
50
270
51
0
0
ARC
8
0
10
106.75
20
-93.75
40
2
50
0
51
90
0
ARC
8
0
10
93.25
20
-93.75
40
2
50
90
51
180
0
ARC
8
0
10
93.25
20
-106.25
40
2
50
180
51
270
0
ARC
8
0
10
106.75
20
-88.75
40
2
50
270
51
0
0
ARC
8
0
10
106.75
20
-76.25
40
2
50
0
51
90
0
ARC
8
0
10
93.25
20
-76.25
40
2
50
90
51
180
0
ARC
8
0
10
93.25
20
-88.75
40
2
50
180
51
270
0
ARC
8
0
10
106.75
20
-71.25
40
2
50
270
51
0
0
ARC
8
0
10
106.75
20
-58.75
40
2
50
0
51
90
0
ARC
8
0
10
93.25
20
-58.75
40
2
50
90
51
180
0
ARC
8
0
10
93.25
20
-71.25
40
2
50
180
51
270
0
ARC
8
0
10
106.75
20
-53.75
40
2
50
270
51
0
0
ARC
8
0
10
106.75
20
-41.25
40
2
50
0
51
90
0
ARC
8
0
10
93.25
20
-41.25
40
2
50
90
51
180
0
ARC
8
0
10
93.25
20
-53.75
40
2
50
180
51
270
0
ARC
8
0
10
125.25
20
-106.25
40
2
50
270
51
0
0
ARC
8
0
10
125.25
20
-93.75
40
2
50
0
51
90
0
ARC
8
0
10
111.75
20
-93.75
40
2
50
90
51
180
0
ARC
8
0
10
111.75
20
-106.25
40
2
50
180
51
270
0
ARC
8
0
10
125.25
20
-88.75
40
2
50
270
51
0
0
ARC
8
0
10
125.25
20
-76.25
40
2
50
0
51
90
0
ARC
8
0
10
111.75
20
-76.25
40
2
50
90
51
180
0
ARC
8
0
10
111.75
20
-88.75
40
2
50
180
51
270
0
ARC
8
0
10
125.25
20
-71.25
40
2
50
270
51
0
0
ARC
8
0
10
125.25
20
-58.75
40
2
50
0
51
90
0
ARC
8
0
10
111.75
20
-58.75
40
2
50
90
51
180
0
ARC
8
0
10
111.75
20
-71.25
40
2
50
180
51
270
0
ARC
8
0
10
125.25
20
-53.75
40
2
50
270
51
0
0
ARC
8
0
10
125.25
20
-41.25
40
2
50
0
51
90
0
ARC
8
0
10
111.75
20
-41.25
40
2
50
90
51
180
0
ARC
8
0
10
111.75
20
-53.75
40
2
50
180
51
270
0
ARC
8
0
10
143.75
20
-101.875
40
2
50
270
51
0
0
ARC
8
0
10
143.75
20
-89.375
40
2
50
0
51
90
0
ARC
8
0
10
130.25
20
-89.375
40
2
50
90
51
180
0
ARC
8
0
10
130.25
20
-101.875
40
2
50
180
51
270
0
ARC
8
0
10
143.75
20
-84.375
40
2
50
270
51
0
0
ARC
8
0
10
143.75
20
-71.875
40
2
50
0
51
90
0
ARC
8
0
10
130.25
20
-71.875
40
2
50
90
51
180
0
ARC
8
0
10
130.25
20
-84.375
40
2
50
180
51
270
0
ARC
8
0
10
143.75
20
-66.875
40
2
50
270
51
0
0
ARC
8
0
10
143.75
20
-54.375
40
2
50
0
51
90
0
ARC
8
0
10
130.25
20
-54.375
40
2
50
90
51
180
0
ARC
8
0
10
130.25
20
-66.875
40
2
50
180
51
270
0
ARC
8
0
10
143.75
20
-49.375
40
2
50
270
51
0
0
ARC
8
0
10
143.75
20
-36.875
40
2
50
0
51
90
0
ARC
8
0
10
130.25
20
-36.875
40
2
50
90
51
180
0
ARC
8
0
10
130.25
20
-49.375
40
2
50
180
51
270
0
ARC
8
0
10
162.25
20
-99.6875
40
2
50
270
51
0
0
ARC
8
0
10
162.25
20
-87.1875
40
2
50
0
51
90
0
ARC
8
0
10
148.75
20
-87.1875
40
2
50
90
51
180
0
ARC
8
0
10
148.75
20
-99.6875
40
2
50
180
51
270
0
ARC
8
0
10
162.25
20
-82.1875
40
2
50
270
51
0
0
ARC
8
0
10
162.25
20
-69.6875
40
2
50
0
51
90
0
ARC
8
0
10
148.75
20
-69.6875
40
2
50
90
51
180
0
ARC
8
0
10
148.75
20
-82.1875
40
2
50
180
51
270
0
ARC
8
0
10
162.25
20
-64.6875
40
2
50
270
51
0
0
ARC
8
0
10
162.25
20
-52.1875
40
2
50
0
51
90
0
ARC
8
0
10
148.75
20
-52.1875
40
2
50
90
51
180
0
ARC
8
0
10
148.75
20
-64.6875
40
2
50
180
51
270
0
ARC
8
0
10
162.25
20
-47.1875
40
2
50
270
51
0
0
ARC
8
0
10
162.25
20
-34.6875
40
2
50
0
51
90
0
ARC
8
0
10
148.75
20
-34.6875
40
2
50
90
51
180
0
ARC
8
0
10
148.75
20
-47.1875
40
2
50
180
51
270
0
ARC
8
0
10
180.75
20
-101.875
40
2
50
270
51
0
0
ARC
8
0
10
180.75
20
-89.375
40
2
50
0
51
90
0
ARC
8
0
10
167.25
20
-89.375
40
2
50
90
51
180
0
ARC
8
0
10
167.25
20
-101.875
40
2
50
180
51
270
0
ARC
8
0
10
180.75
20
-84.375
40
2
50
270
51
0
0
ARC
8
0
10
180.75
20
-71.875
40
2
50
0
51
90
0
ARC
8
0
10
167.25
20
-71.875
40
2
50
90
51
180
0
ARC
8
0
10
167.25
20
-84.375
40
2
50
180
51
270
0
ARC
8
0
10
180.75
20
-66.875
40
2
50
270
51
0
0
ARC
8
0
10
180.75
20
-54.375
40
2
50
0
51
90
0
ARC
8
0
10
167.25
20
-54.375
40
2
50
90
51
180
0
ARC
8
0
10
167.25
20
-66.875
40
2
50
180
51
270
0
ARC
8
0
10
180.75
20
-49.375
40
2
50
270
51
0
0
ARC
8
0
10
180.75
20
-36.875
40
2
50
0
51
90
0
ARC
8
0
10
167.25
20
-36.875
40
2
50
90
51
180
0
ARC
8
0
10
167.25
20
-49.375
40
2
50
180
51
270
0
ARC
8
0
10
199.25
20
-104.0625
40
2
50
270
51
0
0
ARC
8
0
10
199.25
20
-91.5625
40
2
50
0
51
90
0
ARC
8
0
10
185.75
20
-91.5625
40
2
50
90
51
180
0
ARC
8
0
10
185.75
20
-104.0625
40
2
50
180
51
270
0
ARC
8
0
10
199.25
20
-86.5625
40
2
50
270
51
0
0
ARC
8
0
10
199.25
20
-74.0625
40
2
50
0
51
90
0
ARC
8
0
10
185.75
20
-74.0625
40
2
50
90
51
180
0
ARC
8
0
10
185.75
20
-86.5625
40
2
50
180
51
270
0
ARC
8
0
10
199.25
20
-69.0625
40
2
50
270
51
0
0
ARC
8
0
10
199.25
20
-56.5625
40
2
50
0
51
90
0
ARC
8
0
10
185.75
20
-56.5625
40
2
50
90
51
180
0
ARC
8
0
10
185.75
20
-69.0625
40
2
50
180
51
270
0
ARC
8
0
10
199.25
20
-51.5625
40
2
50
270
51
0
0
ARC
8
0
10
199.25
20
-39.0625
40
2
50
0
51
90
0
ARC
8
0
10
185.75
20
-39.0625
40
2
50
90
51
180
0
ARC
8
0
10
185.75
20
-51.5625
40
2
50
180
51
270
0
ARC
8
0
10
140.05
20
-124.1875
40
2
50
270
51
0
0
ARC
8
0
10
140.05
20
-111.6875
40
2
50
0
51
90
0
ARC
8
0
10
126.55
20
-111.6875
40
2
50
90
51
180
0
ARC
8
0
10
126.55
20
-124.1875
40
2
50
180
51
270
0
ARC
8
0
10
158.55
20
-120.6875
40
2
50
270
51
0
0
ARC
8
0
10
158.55
20
-108.1875
40
2
50
0
51
90
0
ARC
8
0
10
145.05
20
-108.1875
40
2
50
90
51
180
0
ARC
8
0
10
145.05
20
-120.6875
40
2
50
180
51
270
0
ARC
8
0
10
177.05
20
-120.6875
40
2
50
270
51
0
0
ARC
8
0
10
177.05
20
-108.1875
40
2
50
0
51
90
0
ARC
8
0
10
163.55
20
-108.1875
40
2
50
90
51
180
0
ARC
8
0
10
163.55
20
-120.6875
40
2
50
180
51
270
0
ARC
8
0
10
193.8284547
20
-128.2639344
40
2
50
255.0000021
51
271.0069622
0
ARC
8
0
10
197.0636927
20
-116.1898617
40
2
50
368.4559475
51
75.0000021
0
ARC
8
0
10
184.0236941
20
-112.6958046
40
2
50
75.0000021
51
165.0000021
0
ARC
8
0
10
180.7884561
20
-124.7698773
40
2
50
165.0000021
51
255.0000021
0
LINE
8
0
10
193.8636025
20
-130.2636255
11
212.5270134
21
-141.0389508
0
LINE
8
0
10
215.2590642
20
-140.3069
11
221.5090642
21
-129.4815824
0
LINE
8
0
10
220.7770134
20
-126.7495316
11
199.7758974
21
-114.6245316
0
LINE
8
0
10
199.7758974
20
-114.6245316
11
199.0419511
21
-115.8957638
0
ARC
8
0
10
213.5270134
20
-139.3069
40
2
50
239.9999999
51
329.9999999
0
ARC
8
0
10
219.7770134
20
-128.4815824
40
2
50
329.9999999
51
59.9999999
0
LINE
8
0
10
89.5902827
20
-38.3834904
11
109.3546113
21
-111.2104994
0
LINE
8
0
10
90.0728148
20
-37.7525336
11
126.3650135
21
-37.7515527
0
LINE
8
0
10
126.865
20
-37.2515527
11
126.865
21
-33.8775
0
LINE
8
0
10
127.365
20
-33.3775
11
144.865
21
-33.3775
0
LINE
8
0
10
145.365
20
-32.8775
11
145.365
21
-31.8025
0
LINE
8
0
10
145.865
20
-31.3025
11
165.293
21
-31.3025
0
LINE
8
0
10
165.793
20
-32.8775
11
165.793
21
-31.8025
0
LINE
8
0
10
166.293
20
-33.3775
11
183.793
21
-33.3775
0
LINE
8
0
10
184.293
20
-35.1734742
11
184.293
21
-33.8775
0
LINE
8
0
10
184.7928784
20
-35.6734742
11
202.2943354
21
-35.6777313
0
LINE
8
0
10
202.7929988
20
-37.1293519
11
202.7942134
21
-36.1783699
0
LINE
8
0
10
202.7704924
20
-54.7518615
11
202.7929988
21
-37.1293519
0
LINE
8
0
10
203.270492
20
-55.2525
11
222.518
21
-55.2525
0
LINE
8
0
10
223.018
20
-112.9169837
11
223.018
21
-55.7525
0
LINE
8
0
10
222.5116742
20
-113.4953236
11
222.7645809
21
-113.3519525
0
LINE
8
0
10
220.9663402
20
-128.6609807
11
222.2601614
21
-113.8866732
0
LINE
8
0
10
109.7588719
20
-111.573376
11
220.3899615
21
-129.1111949
0
ARC
8
0
10
90.0728284
20
-38.2525336
40
0.5
50
90.0015527
51
450.0015527
0
ARC
8
0
10
126.365
20
-37.2515527
40
0.5
50
270.001547
51
630.001547
0
ARC
8
0
10
127.365
20
-33.8775
40
0.5
50
90
51
450
0
ARC
8
0
10
144.865
20
-32.8775
40
0.5
50
270
51
630
0
ARC
8
0
10
145.865
20
-31.8025
40
0.5
50
90
51
450
0
ARC
8
0
10
165.293
20
-31.8025
40
0.5
50
0
51
360
0
ARC
8
0
10
166.293
20
-32.8775
40
0.5
50
180
51
540
0
ARC
8
0
10
183.793
20
-33.8775
40
0.5
50
0
51
360
0
ARC
8
0
10
184.793
20
-35.1734742
40
0.5
50
180
51
540
0
ARC
8
0
10
202.2942138
20
-36.1777313
40
0.5
50
359.9268218
51
719.9268218
0
ARC
8
0
10
203.270492
20
-54.7525
40
0.5
50
179.9268275
51
539.9268275
0
ARC
8
0
10
222.518
20
-55.7525
40
0.5
50
0
51
360
0
ARC
8
0
10
222.518
20
-112.9169837
40
0.5
50
299.5486104
51
659.5486104
0
ARC
8
0
10
222.7582551
20
-113.9302924
40
0.5
50
119.5486104
51
479.5486104
0
ARC
8
0
10
220.4682466
20
-128.6173615
40
0.5
50
260.9921313
51
620.9921313
0
ARC
8
0
10
109.837157
20
-111.0795426
40
0.5
50
195.1836391
51
555.1836391
0
LINE
8
0
10
90.9881127
20
-38.9525089
11
110.3517272
21
-110.3029784
0
LINE
8
0
10
90.9881127
20
-38.9525089
11
127.5650135
21
-38.9515203
0
LINE
8
0
10
128.065
20
-38.4515203
11
128.065
21
-34.5775
0
LINE
8
0
10
128.065
20
-34.5775
11
146.065
21
-34.5775
0
LINE
8
0
10
146.565
20
-34.0775
11
146.565
21
-32.5025
0
LINE
8
0
10
146.565
20
-32.5025
11
164.593
21
-32.5025
0
LINE
8
0
10
164.593
20
-34.0775
11
164.593
21
-32.5025
0
LINE
8
0
10
165.093
20
-34.5775
11
183.093
21
-34.5775
0
LINE
8
0
10
183.093
20
-36.3731824
11
183.093
21
-34.5775
0
LINE
8
0
10
183.5928784
20
-36.8731824
11
201.5933194
21
-36.8775609
0
LINE
8
0
10
201.5929998
20
-37.1278193
11
201.5933194
21
-36.8775609
0
LINE
8
0
10
201.5929998
20
-37.1278193
11
201.5689589
21
-55.9518615
0
LINE
8
0
10
202.0689585
20
-56.4525
11
221.818
21
-56.4525
0
LINE
8
0
10
221.818
20
-112.6135
11
221.818
21
-56.4525
0
LINE
8
0
10
221.1670637
20
-112.6135
11
221.818
21
-112.6135
0
LINE
8
0
10
221.1670637
20
-112.6135
11
219.8597944
21
-127.541373
0
LINE
8
0
10
219.8364051
20
-127.8084576
11
219.8597944
21
-127.541373
0
LINE
8
0
10
110.3940939
20
-110.4590902
11
219.8364051
21
-127.8084576
0
LINE
8
0
10
110.3517272
20
-110.3029784
11
110.3940939
21
-110.4590902
0
ARC
8
0
10
127.565
20
-38.4515203
40
0.5
50
270.001547
51
0
0
ARC
8
0
10
146.065
20
-34.0775
40
0.5
50
270
51
0
0
ARC
8
0
10
165.093
20
-34.0775
40
0.5
50
180
51
270
0
ARC
8
0
10
183.593
20
-36.3731824
40
0.5
50
180
51
269.9860657
0
ARC
8
0
10
202.0689585
20
-55.9525
40
0.5
50
179.9268275
51
270
0
LINE
8
0
10
112.4177648
20
-107.798011
11
94.6243468
21
-42.2333543
0
LINE
8
0
10
95.106879
20
-41.6023975
11
130.2150135
21
-41.6014486
0
LINE
8
0
10
130.715
20
-41.1014486
11
130.715
21
-37.7275
0
LINE
8
0
10
131.215
20
-37.2275
11
148.4729804
21
-37.2275
0
LINE
8
0
10
148.9683748
20
-36.7952084
11
149.1338093
21
-35.5847916
0
LINE
8
0
10
149.6292037
20
-35.1525
11
161.5287963
21
-35.1525
0
LINE
8
0
10
162.0241907
20
-35.5847916
11
162.1896252
21
-36.7952084
0
LINE
8
0
10
162.6850196
20
-37.2275
11
179.966593
21
-37.2275
0
LINE
8
0
10
180.4661188
20
-37.7057291
11
180.524459
21
-39.0443284
0
LINE
8
0
10
181.0238632
20
-39.5225576
11
198.4394165
21
-39.5267938
0
LINE
8
0
10
198.9392945
20
-40.0274323
11
198.918002
21
-56.6994349
0
LINE
8
0
10
198.918002
20
-56.6994349
11
198.9155723
21
-58.6018614
0
LINE
8
0
10
199.4155719
20
-59.1025
11
218.668
21
-59.1025
0
LINE
8
0
10
219.168
20
-59.6025
11
219.168
21
-110.5483224
0
LINE
8
0
10
219.03675
20
-110.8859959
11
218.7327213
21
-111.2180048
0
LINE
8
0
10
217.4912127
20
-124.2120098
11
218.6033776
21
-111.5120591
0
LINE
8
0
10
216.9148339
20
-124.6622239
11
112.8220255
21
-108.1608876
0
ARC
8
0
10
95.1068925
20
-42.1023975
40
0.5
50
90.001547
51
195.1836391
0
ARC
8
0
10
130.215
20
-41.1014486
40
0.5
50
270.001547
51
0
0
ARC
8
0
10
131.215
20
-37.7275
40
0.5
50
90
51
180
0
ARC
8
0
10
148.4729804
20
-36.7275
40
0.5
50
270
51
352.2172834
0
ARC
8
0
10
149.6292037
20
-35.6525
40
0.5
50
90
51
172.2172834
0
ARC
8
0
10
161.5287963
20
-35.6525
40
0.5
50
7.7827166
51
90
0
ARC
8
0
10
162.6850196
20
-36.7275
40
0.5
50
187.7827166
51
270
0
ARC
8
0
10
179.966593
20
-37.7275
40
0.5
50
2.4955446
51
90
0
ARC
8
0
10
181.0239848
20
-39.0225576
40
0.5
50
182.4955446
51
269.9860657
0
ARC
8
0
10
198.4392949
20
-40.0267938
40
0.5
50
359.9268275
51
89.9860657
0
ARC
8
0
10
199.4155719
20
-58.6025
40
0.5
50
179.9268218
51
270
0
ARC
8
0
10
218.668
20
-59.6025
40
0.5
50
0
51
90
0
ARC
8
0
10
218.668
20
-110.5483224
40
0.5
50
317.5188885
51
0
0
ARC
8
0
10
219.1014713
20
-111.5556783
40
0.5
50
137.5188885
51
174.9952405
0
ARC
8
0
10
216.993119
20
-124.1683905
40
0.5
50
260.9921313
51
354.9952405
0
ARC
8
0
10
112.9003105
20
-107.6670542
40
0.5
50
195.1836391
51
260.9921313
0
ENDSEC
0
EOF