0
SECTION
2
HEADER
9
$INSUNITS
70
4
0
ENDSEC
0
SECTION
2
TABLES
0
TABLE
2
LTYPE
0
LTYPE
72
65
70
64
2
CONTINUOUS
3
______
73
0
40
0
0
ENDTAB
0
TABLE
2
LAYER
0
ENDTAB
0
ENDSEC
0
SECTION
2
ENTITIES
0
LINE
8
0
10
91.2502787
20
-111.9368
11
91.3145555
21
-39.7020416
0
LINE
8
0
10
91.8145418
20
-39.2024865
11
127.8150135
21
-39.2015135
0
LINE
8
0
10
128.315
20
-38.7015135
11
128.315
21
-35.3275
0
LINE
8
0
10
128.815
20
-34.8275
11
146.315
21
-34.8275
0
LINE
8
0
10
146.815
20
-34.3275
11
146.815
21
-33.2525
0
LINE
8
0
10
147.315
20
-32.7525
11
163.843
21
-32.7525
0
LINE
8
0
10
164.343
20
-34.3275
11
164.343
21
-33.2525
0
LINE
8
0
10
164.843
20
-34.8275
11
182.343
21
-34.8275
0
LINE
8
0
10
182.843
20
-36.6231216
11
182.843
21
-35.3275
0
LINE
8
0
10
183.3428784
20
-37.1231216
11
200.8424828
21
-37.1273783
0
LINE
8
0
10
201.3181292
20
-56.6013463
11
201.3423608
21
-37.6280168
0
LINE
8
0
10
201.3572
20
-56.7957493
11
226.0923282
21
-115.635915
0
LINE
8
0
10
211.0915606
20
-142.2712534
11
226.0654764
21
-116.0778269
0
LINE
8
0
10
176.6016749
20
-126.2536595
11
210.4413642
21
-142.4739855
0
LINE
8
0
10
161.6230199
20
-124.9437274
11
176.4280429
21
-126.2063475
0
LINE
8
0
10
144.8505883
20
-128.4269293
11
161.4782637
21
-124.9524897
0
LINE
8
0
10
124.665089
20
-128.4375
11
144.7483196
21
-128.4375
0
LINE
8
0
10
91.5316822
20
-112.3869288
11
124.4464927
21
-128.3871839
0
LINE
8
0
10
201.818639
20
-56.7025
11
221.068
21
-56.7025
0
LINE
8
0
10
221.568
20
-111.8635
11
221.568
21
-57.2025
0
ARC
8
0
10
91.8145553
20
-39.7024865
40
0.5
50
90.001547
51
450.001547
0
ARC
8
0
10
127.815
20
-38.7015135
40
0.5
50
270.001547
51
630.001547
0
ARC
8
0
10
128.815
20
-35.3275
40
0.5
50
90
51
450
0
ARC
8
0
10
146.315
20
-34.3275
40
0.5
50
270
51
630
0
ARC
8
0
10
147.315
20
-33.2525
40
0.5
50
90
51
450
0
ARC
8
0
10
163.843
20
-33.2525
40
0.5
50
0
51
360
0
ARC
8
0
10
164.843
20
-34.3275
40
0.5
50
180
51
540
0
ARC
8
0
10
182.343
20
-35.3275
40
0.5
50
0
51
360
0
ARC
8
0
10
183.343
20
-36.6231216
40
0.5
50
180
51
540
0
ARC
8
0
10
200.8423612
20
-37.6273783
40
0.5
50
359.9268275
51
719.9268275
0
ARC
8
0
10
201.818639
20
-56.2025
40
0.5
50
179.9268275
51
539.9268275
0
ARC
8
0
10
221.068
20
-57.2025
40
0.5
50
0
51
360
0
ARC
8
0
10
222.068
20
-104.7725771
40
0.5
50
180
51
540
0
ARC
8
0
10
225.6313994
20
-115.8296794
40
0.5
50
330.2448261
51
22.8008265
0
ARC
8
0
10
210.6574836
20
-142.0231059
40
0.5
50
244.3902763
51
604.3902763
0
ARC
8
0
10
176.3855555
20
-126.7045391
40
0.5
50
64.3902763
51
424.3902763
0
ARC
8
0
10
161.5805325
20
-125.441919
40
0.5
50
85.1254242
51
445.1254242
0
ARC
8
0
10
144.7483196
20
-127.9375
40
0.5
50
270
51
630
0
ARC
8
0
10
124.665089
20
-127.9375
40
0.5
50
244.0751
51
604.0751
0
ARC
8
0
10
91.7502785
20
-111.9372449
40
0.5
50
179.9490182
51
539.9490182
0
CIRCLE
8
0
10
109.25
20
-73.75
40
1.1
0
CIRCLE
8
0
10
109.25
20
-91.25
40
1.1
0
CIRCLE
8
0
10
183.218
20
-70.4235
40
1.1
0
CIRCLE
8
0
10
119.707
20
-111.365
40
1.1
0
CIRCLE
8
0
10
191.871694
20
-109.4866677
40
1.1
0
CIRCLE
8
0
10
109.25
20
-73.75
40
2.15
0
CIRCLE
8
0
10
109.25
20
-91.25
40
2.15
0
CIRCLE
8
0
10
183.218
20
-70.4235
40
2.15
0
CIRCLE
8
0
10
119.707
20
-111.365
40
2.15
0
CIRCLE
8
0
10
191.871694
20
-109.4866677
40
2.15
0
CIRCLE
8
0
10
204.927
20
-100.4385
40
1.1
0
CIRCLE
8
0
10
218.969
20
-108.9425
40
1.1
0
ARC
8
0
10
201.8181288
20
-56.6019848
40
0.5
50
179.9268275
51
202.8008265
0
LINE
8
0
10
93.1
20
-106.9
11
106.9
21
-106.9
0
LINE
8
0
10
106.9
20
-106.9
11
106.9
21
-93.1
0
LINE
8
0
10
106.9
20
-93.1
11
93.1
21
-93.1
0
LINE
8
0
10
93.1
20
-93.1
11
93.1
21
-106.9
0
LINE
8
0
10
93.1
20
-89.4
11
106.9
21
-89.4
0
LINE
8
0
10
106.9
20
-89.4
11
106.9
21
-75.6
0
LINE
8
0
10
106.9
20
-75.6
11
93.1
21
-75.6
0
LINE
8
0
10
93.1
20
-75.6
11
93.1
21
-89.4
0
LINE
8
0
10
93.1
20
-71.9
11
106.9
21
-71.9
0
LINE
8
0
10
106.9
20
-71.9
11
106.9
21
-58.1
0
LINE
8
0
10
106.9
20
-58.1
11
93.1
21
-58.1
0
LINE
8
0
10
93.1
20
-58.1
11
93.1
21
-71.9
0
LINE
8
0
10
93.1
20
-54.4
11
106.9
21
-54.4
0
LINE
8
0
10
106.9
20
-54.4
11
106.9
21
-40.6
0
LINE
8
0
10
106.9
20
-40.6
11
93.1
21
-40.6
0
LINE
8
0
10
93.1
20
-40.6
11
93.1
21
-54.4
0
LINE
8
0
10
111.6
20
-106.9
11
125.4
21
-106.9
0
LINE
8
0
10
125.4
20
-106.9
11
125.4
21
-93.1
0
LINE
8
0
10
125.4
20
-93.1
11
111.6
21
-93.1
0
LINE
8
0
10
111.6
20
-93.1
11
111.6
21
-106.9
0
LINE
8
0
10
111.6
20
-89.4
11
125.4
21
-89.4
0
LINE
8
0
10
125.4
20
-89.4
11
125.4
21
-75.6
0
LINE
8
0
10
125.4
20
-75.6
11
111.6
21
-75.6
0
LINE
8
0
10
111.6
20
-75.6
11
111.6
21
-89.4
0
LINE
8
0
10
111.6
20
-71.9
11
125.4
21
-71.9
0
LINE
8
0
10
125.4
20
-71.9
11
125.4
21
-58.1
0
LINE
8
0
10
125.4
20
-58.1
11
111.6
21
-58.1
0
LINE
8
0
10
111.6
20
-58.1
11
111.6
21
-71.9
0
LINE
8
0
10
111.6
20
-54.4
11
125.4
21
-54.4
0
LINE
8
0
10
125.4
20
-54.4
11
125.4
21
-40.6
0
LINE
8
0
10
125.4
20
-40.6
11
111.6
21
-40.6
0
LINE
8
0
10
111.6
20
-40.6
11
111.6
21
-54.4
0
LINE
8
0
10
130.1
20
-102.525
11
143.9
21
-102.525
0
LINE
8
0
10
143.9
20
-102.525
11
143.9
21
-88.725
0
LINE
8
0
10
143.9
20
-88.725
11
130.1
21
-88.725
0
LINE
8
0
10
130.1
20
-88.725
11
130.1
21
-102.525
0
LINE
8
0
10
130.1
20
-85.025
11
143.9
21
-85.025
0
LINE
8
0
10
143.9
20
-85.025
11
143.9
21
-71.225
0
LINE
8
0
10
143.9
20
-71.225
11
130.1
21
-71.225
0
LINE
8
0
10
130.1
20
-71.225
11
130.1
21
-85.025
0
LINE
8
0
10
130.1
20
-67.525
11
143.9
21
-67.525
0
LINE
8
0
10
143.9
20
-67.525
11
143.9
21
-53.725
0
LINE
8
0
10
143.9
20
-53.725
11
130.1
21
-53.725
0
LINE
8
0
10
130.1
20
-53.725
11
130.1
21
-67.525
0
LINE
8
0
10
130.1
20
-50.025
11
143.9
21
-50.025
0
LINE
8
0
10
143.9
20
-50.025
11
143.9
21
-36.225
0
LINE
8
0
10
143.9
20
-36.225
11
130.1
21
-36.225
0
LINE
8
0
10
130.1
20
-36.225
11
130.1
21
-50.025
0
LINE
8
0
10
148.6
20
-100.3375
11
162.4
21
-100.3375
0
LINE
8
0
10
162.4
20
-100.3375
11
162.4
21
-86.5375
0
LINE
8
0
10
162.4
20
-86.5375
11
148.6
21
-86.5375
0
LINE
8
0
10
148.6
20
-86.5375
11
148.6
21
-100.3375
0
LINE
8
0
10
148.6
20
-82.8375
11
162.4
21
-82.8375
0
LINE
8
0
10
162.4
20
-82.8375
11
162.4
21
-69.0375
0
LINE
8
0
10
162.4
20
-69.0375
11
148.6
21
-69.0375
0
LINE
8
0
10
148.6
20
-69.0375
11
148.6
21
-82.8375
0
LINE
8
0
10
148.6
20
-65.3375
11
162.4
21
-65.3375
0
LINE
8
0
10
162.4
20
-65.3375
11
162.4
21
-51.5375
0
LINE
8
0
10
162.4
20
-51.5375
11
148.6
21
-51.5375
0
LINE
8
0
10
148.6
20
-51.5375
11
148.6
21
-65.3375
0
LINE
8
0
10
148.6
20
-47.8375
11
162.4
21
-47.8375
0
LINE
8
0
10
162.4
20
-47.8375
11
162.4
21
-34.0375
0
LINE
8
0
10
162.4
20
-34.0375
11
148.6
21
-34.0375
0
LINE
8
0
10
148.6
20
-34.0375
11
148.6
21
-47.8375
0
LINE
8
0
10
167.1
20
-102.525
11
180.9
21
-102.525
0
LINE
8
0
10
180.9
20
-102.525
11
180.9
21
-88.725
0
LINE
8
0
10
180.9
20
-88.725
11
167.1
21
-88.725
0
LINE
8
0
10
167.1
20
-88.725
11
167.1
21
-102.525
0
LINE
8
0
10
167.1
20
-85.025
11
180.9
21
-85.025
0
LINE
8
0
10
180.9
20
-85.025
11
180.9
21
-71.225
0
LINE
8
0
10
180.9
20
-71.225
11
167.1
21
-71.225
0
LINE
8
0
10
167.1
20
-71.225
11
167.1
21
-85.025
0
LINE
8
0
10
167.1
20
-67.525
11
180.9
21
-67.525
0
LINE
8
0
10
180.9
20
-67.525
11
180.9
21
-53.725
0
LINE
8
0
10
180.9
20
-53.725
11
167.1
21
-53.725
0
LINE
8
0
10
167.1
20
-53.725
11
167.1
21
-67.525
0
LINE
8
0
10
167.1
20
-50.025
11
180.9
21
-50.025
0
LINE
8
0
10
180.9
20
-50.025
11
180.9
21
-36.225
0
LINE
8
0
10
180.9
20
-36.225
11
167.1
21
-36.225
0
LINE
8
0
10
167.1
20
-36.225
11
167.1
21
-50.025
0
LINE
8
0
10
185.6
20
-104.7125
11
199.4
21
-104.7125
0
LINE
8
0
10
199.4
20
-104.7125
11
199.4
21
-90.9125
0
LINE
8
0
10
199.4
20
-90.9125
11
185.6
21
-90.9125
0
LINE
8
0
10
185.6
20
-90.9125
11
185.6
21
-104.7125
0
LINE
8
0
10
185.6
20
-87.2125
11
199.4
21
-87.2125
0
LINE
8
0
10
199.4
20
-87.2125
11
199.4
21
-73.4125
0
LINE
8
0
10
199.4
20
-73.4125
11
185.6
21
-73.4125
0
LINE
8
0
10
185.6
20
-73.4125
11
185.6
21
-87.2125
0
LINE
8
0
10
185.6
20
-69.7125
11
199.4
21
-69.7125
0
LINE
8
0
10
199.4
20
-69.7125
11
199.4
21
-55.9125
0
LINE
8
0
10
199.4
20
-55.9125
11
185.6
21
-55.9125
0
LINE
8
0
10
185.6
20
-55.9125
11
185.6
21
-69.7125
0
LINE
8
0
10
185.6
20
-52.2125
11
199.4
21
-52.2125
0
LINE
8
0
10
199.4
20
-52.2125
11
199.4
21
-38.4125
0
LINE
8
0
10
199.4
20
-38.4125
11
185.6
21
-38.4125
0
LINE
8
0
10
185.6
20
-38.4125
11
185.6
21
-52.2125
0
LINE
8
0
10
126.4
20
-124.8375
11
140.2
21
-124.8375
0
LINE
8
0
10
140.2
20
-124.8375
11
140.2
21
-111.0375
0
LINE
8
0
10
140.2
20
-111.0375
11
126.4
21
-111.0375
0
LINE
8
0
10
126.4
20
-111.0375
11
126.4
21
-124.8375
0
LINE
8
0
10
144.9
20
-121.3375
11
158.7
21
-121.3375
0
LINE
8
0
10
158.7
20
-121.3375
11
158.7
21
-107.5375
0
LINE
8
0
10
158.7
20
-107.5375
11
144.9
21
-107.5375
0
LINE
8
0
10
144.9
20
-107.5375
11
144.9
21
-121.3375
0
LINE
8
0
10
163.4
20
-121.3375
11
177.2
21
-121.3375
0
LINE
8
0
10
177.2
20
-121.3375
11
177.2
21
-107.5375
0
LINE
8
0
10
177.2
20
-107.5375
11
163.4
21
-107.5375
0
LINE
8
0
10
163.4
20
-107.5375
11
163.4
21
-121.3375
0
LINE
8
0
10
180.4753348
20
-125.3589063
11
193.8051112
21
-128.9306091
0
LINE
8
0
10
193.8051112
20
-128.9306091
11
197.376814
21
-115.6008327
0
LINE
8
0
10
197.376814
20
-115.6008327
11
184.0470376
21
-112.0291299
0
LINE
8
0
10
184.0470376
20
-112.0291299
11
180.4753348
21
-125.3589063
0
LINE
8
0
10
197.5919055
20
-130.8573165
11
209.5430561
21
-137.7573165
0
LINE
8
0
10
209.5430561
20
-137.7573165
11
216.4430561
21
-125.8061659
0
LINE
8
0
10
216.4430561
20
-125.8061659
11
204.4919055
21
-118.9061659
0
LINE
8
0
10
204.4919055
20
-118.9061659
11
197.5919055
21
-130.8573165
0
LINE
8
0
10
202.348
20
-111.8635
11
202.348
21
-57.2025
0
LINE
8
0
10
221.068
20
-112.3635
11
202.848
21
-112.3635
0
ARC
8
0
10
202.848
20
-57.2025
40
0.5
50
90
51
180
0
ARC
8
0
10
221.068
20
-111.8635
40
0.5
50
270
51
0
0
ARC
8
0
10
202.848
20
-111.8635
40
0.5
50
180
51
270
0
LINE
8
0
10
93.25
20
-108.25
11
106.75
21
-108.25
0
LINE
8
0
10
108.75
20
-106.25
11
108.75
21
-93.75
0
LINE
8
0
10
106.75
20
-91.75
11
93.25
21
-91.75
0
LINE
8
0
10
91.25
20
-93.75
11
91.25
21
-106.25
0
LINE
8
0
10
93.25
20
-90.75
11
106.75
21
-90.75
0
LINE
8
0
10
108.75
20
-88.75
11
108.75
21
-76.25
0
LINE
8
0
10
106.75
20
-74.25
11
93.25
21
-74.25
0
LINE
8
0
10
91.25
20
-76.25
11
91.25
21
-88.75
0
LINE
8
0
10
93.25
20
-73.25
11
106.75
21
-73.25
0
LINE
8
0
10
108.75
20
-71.25
11
108.75
21
-58.75
0
LINE
8
0
10
106.75
20
-56.75
11
93.25
21
-56.75
0
LINE
8
0
10
91.25
20
-58.75
11
91.25
21
-71.25
0
LINE
8
0
10
93.25
20
-55.75
11
106.75
21
-55.75
0
LINE
8
0
10
108.75
20
-53.75
11
108.75
21
-41.25
0
LINE
8
0
10
106.75
20
-39.25
11
93.25
21
-39.25
0
LINE
8
0
10
91.25
20
-41.25
11
91.25
21
-53.75
0
LINE
8
0
10
111.75
20
-108.25
11
125.25
21
-108.25
0
LINE
8
0
10
127.25
20
-106.25
11
127.25
21
-93.75
0
LINE
8
0
10
125.25
20
-91.75
11
111.75
21
-91.75
0
LINE
8
0
10
109.75
20
-93.75
11
109.75
21
-106.25
0
LINE
8
0
10
111.75
20
-90.75
11
125.25
21
-90.75
0
LINE
8
0
10
127.25
20
-88.75
11
127.25
21
-76.25
0
LINE
8
0
10
125.25
20
-74.25
11
111.75
21
-74.25
0
LINE
8
0
10
109.75
20
-76.25
11
109.75
21
-88.75
0
LINE
8
0
10
111.75
20
-73.25
11
125.25
21
-73.25
0
LINE
8
0
10
127.25
20
-71.25
11
127.25
21
-58.75
0
LINE
8
0
10
125.25
20
-56.75
11
111.75
21
-56.75
0
LINE
8
0
10
109.75
20
-58.75
11
109.75
21
-71.25
0
LINE
8
0
10
111.75
20
-55.75
11
125.25
21
-55.75
0
LINE
8
0
10
127.25
20
-53.75
11
127.25
21
-41.25
0
LINE
8
0
10
125.25
20
-39.25
11
111.75
21
-39.25
0
LINE
8
0
10
109.75
20
-41.25
11
109.75
21
-53.75
0
LINE
8
0
10
130.25
20
-103.875
11
143.75
21
-103.875
0
LINE
8
0
10
145.75
20
-101.875
11
145.75
21
-89.375
0
LINE
8
0
10
143.75
20
-87.375
11
130.25
21
-87.375
0
LINE
8
0
10
128.25
20
-89.375
11
128.25
21
-101.875
0
LINE
8
0
10
130.25
20
-86.375
11
143.75
21
-86.375
0
LINE
8
0
10
145.75
20
-84.375
11
145.75
21
-71.875
0
LINE
8
0
10
143.75
20
-69.875
11
130.25
21
-69.875
0
LINE
8
0
10
128.25
20
-71.875
11
128.25
21
-84.375
0
LINE
8
0
10
130.25
20
-68.875
11
143.75
21
-68.875
0
LINE
8
0
10
145.75
20
-66.875
11
145.75
21
-54.375
0
LINE
8
0
10
143.75
20
-52.375
11
130.25
21
-52.375
0
LINE
8
0
10
128.25
20
-54.375
11
128.25
21
-66.875
0
LINE
8
0
10
130.25
20
-51.375
11
143.75
21
-51.375
0
LINE
8
0
10
145.75
20
-49.375
11
145.75
21
-36.875
0
LINE
8
0
10
143.75
20
-34.875
11
130.25
21
-34.875
0
LINE
8
0
10
128.25
20
-36.875
11
128.25
21
-49.375
0
LINE
8
0
10
148.75
20
-101.6875
11
162.25
21
-101.6875
0
LINE
8
0
10
164.25
20
-99.6875
11
164.25
21
-87.1875
0
LINE
8
0
10
162.25
20
-85.1875
11
148.75
21
-85.1875
0
LINE
8
0
10
146.75
20
-87.1875
11
146.75
21
-99.6875
0
LINE
8
0
10
148.75
20
-84.1875
11
162.25
21
-84.1875
0
LINE
8
0
10
164.25
20
-82.1875
11
164.25
21
-69.6875
0
LINE
8
0
10
162.25
20
-67.6875
11
148.75
21
-67.6875
0
LINE
8
0
10
146.75
20
-69.6875
11
146.75
21
-82.1875
0
LINE
8
0
10
148.75
20
-66.6875
11
162.25
21
-66.6875
0
LINE
8
0
10
164.25
20
-64.6875
11
164.25
21
-52.1875
0
LINE
8
0
10
162.25
20
-50.1875
11
148.75
21
-50.1875
0
LINE
8
0
10
146.75
20
-52.1875
11
146.75
21
-64.6875
0
LINE
8
0
10
148.75
20
-49.1875
11
162.25
21
-49.1875
0
LINE
8
0
10
164.25
20
-47.1875
11
164.25
21
-34.6875
0
LINE
8
0
10
162.25
20
-32.6875
11
148.75
21
-32.6875
0
LINE
8
0
10
146.75
20
-34.6875
11
146.75
21
-47.1875
0
LINE
8
0
10
167.25
20
-103.875
11
180.75
21
-103.875
0
LINE
8
0
10
182.75
20
-101.875
11
182.75
21
-89.375
0
LINE
8
0
10
180.75
20
-87.375
11
167.25
21
-87.375
0
LINE
8
0
10
165.25
20
-89.375
11
165.25
21
-101.875
0
LINE
8
0
10
167.25
20
-86.375
11
180.75
21
-86.375
0
LINE
8
0
10
182.75
20
-84.375
11
182.75
21
-71.875
0
LINE
8
0
10
180.75
20
-69.875
11
167.25
21
-69.875
0
LINE
8
0
10
165.25
20
-71.875
11
165.25
21
-84.375
0
LINE
8
0
10
167.25
20
-68.875
11
180.75
21
-68.875
0
LINE
8
0
10
182.75
20
-66.875
11
182.75
21
-54.375
0
LINE
8
0
10
180.75
20
-52.375
11
167.25
21
-52.375
0
LINE
8
0
10
165.25
20
-54.375
11
165.25
21
-66.875
0
LINE
8
0
10
167.25
20
-51.375
11
180.75
21
-51.375
0
LINE
8
0
10
182.75
20
-49.375
11
182.75
21
-36.875
0
LINE
8
0
10
180.75
20
-34.875
11
167.25
21
-34.875
0
LINE
8
0
10
165.25
20
-36.875
11
165.25
21
-49.375
0
LINE
8
0
10
185.75
20
-106.0625
11
199.25
21
-106.0625
0
LINE
8
0
10
201.25
20
-104.0625
11
201.25
21
-91.5625
0
LINE
8
0
10
199.25
20
-89.5625
11
185.75
21
-89.5625
0
LINE
8
0
10
183.75
20
-91.5625
11
183.75
21
-104.0625
0
LINE
8
0
10
185.75
20
-88.5625
11
199.25
21
-88.5625
0
LINE
8
0
10
201.25
20
-86.5625
11
201.25
21
-74.0625
0
LINE
8
0
10
199.25
20
-72.0625
11
185.75
21
-72.0625
0
LINE
8
0
10
183.75
20
-74.0625
11
183.75
21
-86.5625
0
LINE
8
0
10
185.75
20
-71.0625
11
199.25
21
-71.0625
0
LINE
8
0
10
201.25
20
-69.0625
11
201.25
21
-56.5625
0
LINE
8
0
10
199.25
20
-54.5625
11
185.75
21
-54.5625
0
LINE
8
0
10
183.75
20
-56.5625
11
183.75
21
-69.0625
0
LINE
8
0
10
185.75
20
-53.5625
11
199.25
21
-53.5625
0
LINE
8
0
10
201.25
20
-51.5625
11
201.25
21
-39.0625
0
LINE
8
0
10
199.25
20
-37.0625
11
185.75
21
-37.0625
0
LINE
8
0
10
183.75
20
-39.0625
11
183.75
21
-51.5625
0
LINE
8
0
10
126.55
20
-126.1875
11
140.05
21
-126.1875
0
LINE
8
0
10
142.05
20
-124.1875
11
142.05
21
-111.6875
0
LINE
8
0
10
140.05
20
-109.6875
11
126.55
21
-109.6875
0
LINE
8
0
10
124.55
20
-111.6875
11
124.55
21
-124.1875
0
LINE
8
0
10
145.05
20
-122.6875
11
158.55
21
-122.6875
0
LINE
8
0
10
160.55
20
-120.6875
11
160.55
21
-108.1875
0
LINE
8
0
10
158.55
20
-106.1875
11
145.05
21
-106.1875
0
LINE
8
0
10
143.05
20
-108.1875
11
143.05
21
-120.6875
0
LINE
8
0
10
163.55
20
-122.6875
11
177.05
21
-122.6875
0
LINE
8
0
10
179.05
20
-120.6875
11
179.05
21
-108.1875
0
LINE
8
0
10
177.05
20
-106.1875
11
163.55
21
-106.1875
0
LINE
8
0
10
161.55
20
-108.1875
11
161.55
21
-120.6875
0
LINE
8
0
10
180.2708181
20
-126.701729
11
193.3108167
21
-130.1957861
0
LINE
8
0
10
197.5813307
20
-114.25801
11
184.5413321
21
-110.7639529
0
LINE
8
0
10
182.0918424
20
-112.1781666
11
178.8566044
21
-124.2522393
0
ARC
8
0
10
106.75
20
-106.25
40
2
50
270
51
0
0
ARC
8
0
10
106.75
20
-93.75
40
2
50
0
51
90
0
ARC
8
0
10
93.25
20
-93.75
40
2
50
90
51
180
0
ARC
8
0
10
93.25
20
-106.25
40
2
50
180
51
270
0
ARC
8
0
10
106.75
20
-88.75
40
2
50
270
51
0
0
ARC
8
0
10
106.75
20
-76.25
40
2
50
0
51
90
0
ARC
8
0
10
93.25
20
-76.25
40
2
50
90
51
180
0
ARC
8
0
10
93.25
20
-88.75
40
2
50
180
51
270
0
ARC
8
0
10
106.75
20
-71.25
40
2
50
270
51
0
0
ARC
8
0
10
106.75
20
-58.75
40
2
50
0
51
90
0
ARC
8
0
10
93.25
20
-58.75
40
2
50
90
51
180
0
ARC
8
0
10
93.25
20
-71.25
40
2
50
180
51
270
0
ARC
8
0
10
106.75
20
-53.75
40
2
50
270
51
0
0
ARC
8
0
10
106.75
20
-41.25
40
2
50
0
51
90
0
ARC
8
0
10
93.25
20
-41.25
40
2
50
90
51
180
0
ARC
8
0
10
93.25
20
-53.75
40
2
50
180
51
270
0
ARC
8
0
10
125.25
20
-106.25
40
2
50
270
51
0
0
ARC
8
0
10
125.25
20
-93.75
40
2
50
0
51
90
0
ARC
8
0
10
111.75
20
-93.75
40
2
50
90
51
180
0
ARC
8
0
10
111.75
20
-106.25
40
2
50
180
51
270
0
ARC
8
0
10
125.25
20
-88.75
40
2
50
270
51
0
0
ARC
8
0
10
125.25
20
-76.25
40
2
50
0
51
90
0
ARC
8
0
10
111.75
20
-76.25
40
2
50
90
51
180
0
ARC
8
0
10
111.75
20
-88.75
40
2
50
180
51
270
0
ARC
8
0
10
125.25
20
-71.25
40
2
50
270
51
0
0
ARC
8
0
10
125.25
20
-58.75
40
2
50
0
51
90
0
ARC
8
0
10
111.75
20
-58.75
40
2
50
90
51
180
0
ARC
8
0
10
111.75
20
-71.25
40
2
50
180
51
270
0
ARC
8
0
10
125.25
20
-53.75
40
2
50
270
51
0
0
ARC
8
0
10
125.25
20
-41.25
40
2
50
0
51
90
0
ARC
8
0
10
111.75
20
-41.25
40
2
50
90
51
180
0
ARC
8
0
10
111.75
20
-53.75
40
2
50
180
51
270
0
ARC
8
0
10
143.75
20
-101.875
40
2
50
270
51
0
0
ARC
8
0
10
143.75
20
-89.375
40
2
50
0
51
90
0
ARC
8
0
10
130.25
20
-89.375
40
2
50
90
51
180
0
ARC
8
0
10
130.25
20
-101.875
40
2
50
180
51
270
0
ARC
8
0
10
143.75
20
-84.375
40
2
50
270
51
0
0
ARC
8
0
10
143.75
20
-71.875
40
2
50
0
51
90
0
ARC
8
0
10
130.25
20
-71.875
40
2
50
90
51
180
0
ARC
8
0
10
130.25
20
-84.375
40
2
50
180
51
270
0
ARC
8
0
10
143.75
20
-66.875
40
2
50
270
51
0
0
ARC
8
0
10
143.75
20
-54.375
40
2
50
0
51
90
0
ARC
8
0
10
130.25
20
-54.375
40
2
50
90
51
180
0
ARC
8
0
10
130.25
20
-66.875
40
2
50
180
51
270
0
ARC
8
0
10
143.75
20
-49.375
40
2
50
270
51
0
0
ARC
8
0
10
143.75
20
-36.875
40
2
50
0
51
90
0
ARC
8
0
10
130.25
20
-36.875
40
2
50
90
51
180
0
ARC
8
0
10
130.25
20
-49.375
40
2
50
180
51
270
0
ARC
8
0
10
162.25
20
-99.6875
40
2
50
270
51
0
0
ARC
8
0
10
162.25
20
-87.1875
40
2
50
0
51
90
0
ARC
8
0
10
148.75
20
-87.1875
40
2
50
90
51
180
0
ARC
8
0
10
148.75
20
-99.6875
40
2
50
180
51
270
0
ARC
8
0
10
162.25
20
-82.1875
40
2
50
270
51
0
0
ARC
8
0
10
162.25
20
-69.6875
40
2
50
0
51
90
0
ARC
8
0
10
148.75
20
-69.6875
40
2
50
90
51
180
0
ARC
8
0
10
148.75
20
-82.1875
40
2
50
180
51
270
0
ARC
8
0
10
162.25
20
-64.6875
40
2
50
270
51
0
0
ARC
8
0
10
162.25
20
-52.1875
40
2
50
0
51
90
0
ARC
8
0
10
148.75
20
-52.1875
40
2
50
90
51
180
0
ARC
8
0
10
148.75
20
-64.6875
40
2
50
180
51
270
0
ARC
8
0
10
162.25
20
-47.1875
40
2
50
270
51
0
0
ARC
8
0
10
162.25
20
-34.6875
40
2
50
0
51
90
0
ARC
8
0
10
148.75
20
-34.6875
40
2
50
90
51
180
0
ARC
8
0
10
148.75
20
-47.1875
40
2
50
180
51
270
0
ARC
8
0
10
180.75
20
-101.875
40
2
50
270
51
0
0
ARC
8
0
10
180.75
20
-89.375
40
2
50
0
51
90
0
ARC
8
0
10
167.25
20
-89.375
40
2
50
90
51
180
0
ARC
8
0
10
167.25
20
-101.875
40
2
50
180
51
270
0
ARC
8
0
10
180.75
20
-84.375
40
2
50
270
51
0
0
ARC
8
0
10
180.75
20
-71.875
40
2
50
0
51
90
0
ARC
8
0
10
167.25
20
-71.875
40
2
50
90
51
180
0
ARC
8
0
10
167.25
20
-84.375
40
2
50
180
51
270
0
ARC
8
0
10
180.75
20
-66.875
40
2
50
270
51
0
0
ARC
8
0
10
180.75
20
-54.375
40
2
50
0
51
90
0
ARC
8
0
10
167.25
20
-54.375
40
2
50
90
51
180
0
ARC
8
0
10
167.25
20
-66.875
40
2
50
180
51
270
0
ARC
8
0
10
180.75
20
-49.375
40
2
50
270
51
0
0
ARC
8
0
10
180.75
20
-36.875
40
2
50
0
51
90
0
ARC
8
0
10
167.25
20
-36.875
40
2
50
90
51
180
0
ARC
8
0
10
167.25
20
-49.375
40
2
50
180
51
270
0
ARC
8
0
10
199.25
20
-104.0625
40
2
50
270
51
0
0
ARC
8
0
10
199.25
20
-91.5625
40
2
50
0
51
90
0
ARC
8
0
10
185.75
20
-91.5625
40
2
50
90
51
180
0
ARC
8
0
10
185.75
20
-104.0625
40
2
50
180
51
270
0
ARC
8
0
10
199.25
20
-86.5625
40
2
50
270
51
0
0
ARC
8
0
10
199.25
20
-74.0625
40
2
50
0
51
90
0
ARC
8
0
10
185.75
20
-74.0625
40
2
50
90
51
180
0
ARC
8
0
10
185.75
20
-86.5625
40
2
50
180
51
270
0
ARC
8
0
10
199.25
20
-69.0625
40
2
50
270
51
0
0
ARC
8
0
10
199.25
20
-56.5625
40
2
50
0
51
90
0
ARC
8
0
10
185.75
20
-56.5625
40
2
50
90
51
180
0
ARC
8
0
10
185.75
20
-69.0625
40
2
50
180
51
270
0
ARC
8
0
10
199.25
20
-51.5625
40
2
50
270
51
0
0
ARC
8
0
10
199.25
20
-39.0625
40
2
50
0
51
90
0
ARC
8
0
10
185.75
20
-39.0625
40
2
50
90
51
180
0
ARC
8
0
10
185.75
20
-51.5625
40
2
50
180
51
270
0
ARC
8
0
10
140.05
20
-124.1875
40
2
50
270
51
0
0
ARC
8
0
10
140.05
20
-111.6875
40
2
50
0
51
90
0
ARC
8
0
10
126.55
20
-111.6875
40
2
50
90
51
180
0
ARC
8
0
10
126.55
20
-124.1875
40
2
50
180
51
270
0
ARC
8
0
10
158.55
20
-120.6875
40
2
50
270
51
0
0
ARC
8
0
10
158.55
20
-108.1875
40
2
50
0
51
90
0
ARC
8
0
10
145.05
20
-108.1875
40
2
50
90
51
180
0
ARC
8
0
10
145.05
20
-120.6875
40
2
50
180
51
270
0
ARC
8
0
10
177.05
20
-120.6875
40
2
50
270
51
0
0
ARC
8
0
10
177.05
20
-108.1875
40
2
50
0
51
90
0
ARC
8
0
10
163.55
20
-108.1875
40
2
50
90
51
180
0
ARC
8
0
10
163.55
20
-120.6875
40
2
50
180
51
270
0
ARC
8
0
10
193.8284547
20
-128.2639344
40
2
50
255.0000021
51
271.0069622
0
ARC
8
0
10
197.0636927
20
-116.1898617
40
2
50
368.4559475
51
75.0000021
0
ARC
8
0
10
184.0236941
20
-112.6958046
40
2
50
75.0000021
51
165.0000021
0
ARC
8
0
10
180.7884561
20
-124.7698773
40
2
50
165.0000021
51
255.0000021
0
LINE
8
0
10
193.8636025
20
-130.2636255
11
212.5270134
21
-141.0389508
0
LINE
8
0
10
215.2590642
20
-140.3069
11
221.5090642
21
-129.4815824
0
LINE
8
0
10
220.7770134
20
-126.7495316
11
199.7758974
21
-114.6245316
0
LINE
8
0
10
199.7758974
20
-114.6245316
11
199.0419511
21
-115.8957638
0
ARC
8
0
10
213.5270134
20
-139.3069
40
2
50
239.9999999
51
329.9999999
0
ARC
8
0
10
219.7770134
20
-128.4815824
40
2
50
329.9999999
51
59.9999999
0
LINE
8
0
10
89.8000006
20
-112.2487097
11
89.8650006
21
-39.2012097
0
LINE
8
0
10
89.8650006
20
-39.2012097
11
89.8658451
21
-38.2520808
0
LINE
8
0
10
90.3658314
20
-37.7525257
11
126.3650135
21
-37.7515527
0
LINE
8
0
10
126.865
20
-37.2515527
11
126.865
21
-33.8775
0
LINE
8
0
10
127.365
20
-33.3775
11
144.865
21
-33.3775
0
LINE
8
0
10
145.365
20
-32.8775
11
145.365
21
-31.8025
0
LINE
8
0
10
145.865
20
-31.3025
11
165.293
21
-31.3025
0
LINE
8
0
10
165.793
20
-32.8775
11
165.793
21
-31.8025
0
LINE
8
0
10
166.293
20
-33.3775
11
183.793
21
-33.3775
0
LINE
8
0
10
184.293
20
-35.1734742
11
184.293
21
-33.8775
0
LINE
8
0
10
184.7928784
20
-35.6734742
11
202.2943354
21
-35.6777313
0
LINE
8
0
10
202.7929988
20
-37.1293519
11
202.7942134
21
-36.1783699
0
LINE
8
0
10
202.7704924
20
-54.7518615
11
202.7929988
21
-37.1293519
0
LINE
8
0
10
203.270492
20
-55.2525
11
222.518
21
-55.2525
0
LINE
8
0
10
223.018
20
-104.4801948
11
223.018
21
-55.7525
0
LINE
8
0
10
223.0570712
20
-104.6739593
11
227.7064699
21
-115.7339946
0
LINE
8
0
10
211.6810259
20
-144.1617691
11
227.6796181
21
-116.1759065
0
LINE
8
0
10
176.2141442
20
-127.6758731
11
211.0308295
21
-144.3645012
0
LINE
8
0
10
161.7115652
20
-126.4065423
11
176.0405122
21
-127.6285611
0
LINE
8
0
10
144.9498741
20
-129.8875
11
161.566809
21
-126.4153046
0
LINE
8
0
10
124.2162419
20
-129.8875
11
144.9498741
21
-129.8875
0
LINE
8
0
10
90.0808745
20
-113.2939186
11
124.2162419
21
-129.8875
0
LINE
8
0
10
89.7994711
20
-112.8437898
11
89.8000006
21
-112.2487097
0
ARC
8
0
10
90.3658449
20
-38.2525257
40
0.5
50
90.0015527
51
450.0015527
0
ARC
8
0
10
126.365
20
-37.2515527
40
0.5
50
270.001547
51
630.001547
0
ARC
8
0
10
127.365
20
-33.8775
40
0.5
50
90
51
450
0
ARC
8
0
10
144.865
20
-32.8775
40
0.5
50
270
51
630
0
ARC
8
0
10
145.865
20
-31.8025
40
0.5
50
90
51
450
0
ARC
8
0
10
165.293
20
-31.8025
40
0.5
50
0
51
360
0
ARC
8
0
10
166.293
20
-32.8775
40
0.5
50
180
51
540
0
ARC
8
0
10
183.793
20
-33.8775
40
0.5
50
0
51
360
0
ARC
8
0
10
184.793
20
-35.1734742
40
0.5
50
180
51
540
0
ARC
8
0
10
202.2942138
20
-36.1777313
40
0.5
50
359.9268218
51
719.9268218
0
ARC
8
0
10
203.270492
20
-54.7525
40
0.5
50
179.9268275
51
539.9268275
0
ARC
8
0
10
222.518
20
-55.7525
40
0.5
50
0
51
360
0
ARC
8
0
10
223.518
20
-104.4801948
40
0.5
50
180
51
540
0
ARC
8
0
10
227.2455411
20
-115.927759
40
0.5
50
330.2448261
51
690.2448261
0
ARC
8
0
10
211.2469489
20
-143.9136216
40
0.5
50
244.3902763
51
604.3902763
0
ARC
8
0
10
175.9980248
20
-128.1267527
40
0.5
50
64.3902763
51
424.3902763
0
ARC
8
0
10
161.6690778
20
-126.9047339
40
0.5
50
85.1254242
51
445.1254242
0
ARC
8
0
10
90.2994709
20
-112.8442347
40
0.5
50
179.9490182
51
539.9490182
0
LINE
8
0
10
91.0000001
20
-112.2497775
11
91.0650001
21
-39.2022775
0
LINE
8
0
10
91.0652224
20
-38.9525068
11
91.0650001
21
-39.2022775
0
LINE
8
0
10
91.0652224
20
-38.9525068
11
127.5650135
21
-38.9515203
0
LINE
8
0
10
128.065
20
-38.4515203
11
128.065
21
-34.5775
0
LINE
8
0
10
128.065
20
-34.5775
11
146.065
21
-34.5775
0
LINE
8
0
10
146.565
20
-34.0775
11
146.565
21
-32.5025
0
LINE
8
0
10
146.565
20
-32.5025
11
164.593
21
-32.5025
0
LINE
8
0
10
164.593
20
-34.0775
11
164.593
21
-32.5025
0
LINE
8
0
10
165.093
20
-34.5775
11
183.093
21
-34.5775
0
LINE
8
0
10
183.093
20
-36.3731824
11
183.093
21
-34.5775
0
LINE
8
0
10
183.5928784
20
-36.8731824
11
201.5933194
21
-36.8775609
0
LINE
8
0
10
201.5929998
20
-37.1278193
11
201.5933194
21
-36.8775609
0
LINE
8
0
10
201.5929998
20
-37.1278193
11
201.5689589
21
-55.9518615
0
LINE
8
0
10
202.0689585
20
-56.4525
11
221.818
21
-56.4525
0
LINE
8
0
10
221.818
20
-104.7221664
11
221.818
21
-56.4525
0
LINE
8
0
10
221.8570712
20
-104.9159309
11
226.4663003
21
-115.8804103
0
LINE
8
0
10
210.9623795
20
-143.0009589
11
226.4663003
21
-115.8804103
0
LINE
8
0
10
176.5348593
20
-126.4988688
11
210.9623795
21
-143.0009589
0
LINE
8
0
10
176.3612273
20
-126.4515568
11
161.6382863
21
-125.1959369
0
LINE
8
0
10
144.8258404
20
-128.6875
11
161.4935301
21
-125.2046992
0
LINE
8
0
10
124.4924555
20
-128.6875
11
144.8258404
21
-128.6875
0
LINE
8
0
10
90.9998608
20
-112.4063776
11
124.4924555
21
-128.6875
0
LINE
8
0
10
91.0000001
20
-112.2497775
11
90.9998608
21
-112.4063776
0
ARC
8
0
10
127.565
20
-38.4515203
40
0.5
50
270.001547
51
0
0
ARC
8
0
10
146.065
20
-34.0775
40
0.5
50
270
51
0
0
ARC
8
0
10
165.093
20
-34.0775
40
0.5
50
180
51
270
0
ARC
8
0
10
183.593
20
-36.3731824
40
0.5
50
180
51
269.9860657
0
ARC
8
0
10
202.0689585
20
-55.9525
40
0.5
50
179.9268275
51
270
0
ARC
8
0
10
222.318
20
-104.7221664
40
0.5
50
180
51
202.8008265
0
ARC
8
0
10
176.3187399
20
-126.9497484
40
0.5
50
64.3902763
51
85.1254242
0
ARC
8
0
10
161.5957989
20
-125.6941285
40
0.5
50
85.1254242
51
101.802432
0
LINE
8
0
10
93.6516154
20
-110.4355755
11
93.7124209
21
-42.1019768
0
LINE
8
0
10
94.2124072
20
-41.6024217
11
130.2150135
21
-41.6014486
0
LINE
8
0
10
130.715
20
-41.1014486
11
130.715
21
-37.7275
0
LINE
8
0
10
131.215
20
-37.2275
11
148.4729804
21
-37.2275
0
LINE
8
0
10
148.9683748
20
-36.7952084
11
149.1338093
21
-35.5847916
0
LINE
8
0
10
149.6292037
20
-35.1525
11
161.5287963
21
-35.1525
0
LINE
8
0
10
162.0241907
20
-35.5847916
11
162.1896252
21
-36.7952084
0
LINE
8
0
10
162.6850196
20
-37.2275
11
179.966593
21
-37.2275
0
LINE
8
0
10
180.4661188
20
-37.7057291
11
180.524459
21
-39.0443284
0
LINE
8
0
10
181.0238632
20
-39.5225576
11
198.4394165
21
-39.5267938
0
LINE
8
0
10
198.9392945
20
-40.0274323
11
198.918002
21
-56.6994349
0
LINE
8
0
10
198.918002
20
-56.6994349
11
198.9155723
21
-58.6018614
0
LINE
8
0
10
199.4155719
20
-59.1025
11
218.668
21
-59.1025
0
LINE
8
0
10
219.168
20
-105.3573416
11
219.168
21
-59.6025
0
LINE
8
0
10
219.168
20
-105.3573416
11
223.4206454
21
-115.4735761
0
LINE
8
0
10
223.3937936
20
-115.9154881
11
210.1158938
21
-139.1421241
0
LINE
8
0
10
177.1602937
20
-123.8599569
11
209.4656974
21
-139.3448562
0
LINE
8
0
10
177.1602937
20
-123.8599569
11
176.7224357
21
-123.8227423
0
LINE
8
0
10
176.7224357
20
-123.8227423
11
161.7546297
21
-122.5462395
0
LINE
8
0
10
161.7532496
20
-122.5461218
11
161.4034423
21
-122.516289
0
LINE
8
0
10
144.6025209
20
-126.0269293
11
161.4034423
21
-122.516289
0
LINE
8
0
10
144.5002521
20
-126.0375
11
125.2175161
21
-126.0375
0
LINE
8
0
10
124.9989198
20
-125.9871839
11
93.9330189
21
-110.8857043
0
ARC
8
0
10
94.2124207
20
-42.1024217
40
0.5
50
90.001547
51
179.9490182
0
ARC
8
0
10
130.215
20
-41.1014486
40
0.5
50
270.001547
51
0
0
ARC
8
0
10
131.215
20
-37.7275
40
0.5
50
90
51
180
0
ARC
8
0
10
148.4729804
20
-36.7275
40
0.5
50
270
51
352.2172834
0
ARC
8
0
10
149.6292037
20
-35.6525
40
0.5
50
90
51
172.2172834
0
ARC
8
0
10
161.5287963
20
-35.6525
40
0.5
50
7.7827166
51
90
0
ARC
8
0
10
162.6850196
20
-36.7275
40
0.5
50
187.7827166
51
270
0
ARC
8
0
10
179.966593
20
-37.7275
40
0.5
50
2.4955446
51
90
0
ARC
8
0
10
181.0239848
20
-39.0225576
40
0.5
50
182.4955446
51
269.9860657
0
ARC
8
0
10
198.4392949
20
-40.0267938
40
0.5
50
359.9268275
51
89.9860657
0
ARC
8
0
10
199.4155719
20
-58.6025
40
0.5
50
179.9268218
51
270
0
ARC
8
0
10
218.668
20
-59.6025
40
0.5
50
0
51
90
0
ARC
8
0
10
222.9597166
20
-115.6673406
40
0.5
50
330.2448261
51
22.8008265
0
ARC
8
0
10
209.6818168
20
-138.8939766
40
0.5
50
244.3902763
51
330.2448261
0
ARC
8
0
10
144.5002521
20
-125.5375
40
0.5
50
270
51
281.802432
0
ARC
8
0
10
125.2175161
20
-125.5375
40
0.5
50
244.0751
51
270
0
ARC
8
0
10
94.1516152
20
-110.4360204
40
0.5
50
179.9490182
51
244.0751
0
ENDSEC
0
EOF