0
SECTION
2
HEADER
9
$INSUNITS
70
4
0
ENDSEC
0
SECTION
2
TABLES
0
TABLE
2
LTYPE
0
LTYPE
72
65
70
64
2
CONTINUOUS
3
______
73
0
40
0
0
ENDTAB
0
TABLE
2
LAYER
0
ENDTAB
0
ENDSEC
0
SECTION
2
ENTITIES
0
LINE
8
0
10
375.25
20
-108.75
11
375.25
21
-38.75
0
ARC
8
0
10
374.25
20
-38.75
40
1
50
0
51
90
0
LINE
8
0
10
374.25
20
-37.75
11
338.25
21
-37.75
0
LINE
8
0
10
338.25
20
-37.75
11
338.25
21
-34.375
0
ARC
8
0
10
337.25
20
-34.375
40
1
50
0
51
90
0
LINE
8
0
10
337.25
20
-33.375
11
319.75
21
-33.375
0
LINE
8
0
10
319.75
20
-33.375
11
319.75
21
-32.1875
0
ARC
8
0
10
318.75
20
-32.1875
40
1
50
0
51
90
0
LINE
8
0
10
318.75
20
-31.1875
11
300.25
21
-31.1875
0
ARC
8
0
10
300.25
20
-32.1875
40
1
50
90
51
180
0
LINE
8
0
10
299.25
20
-32.1875
11
299.25
21
-33.375
0
LINE
8
0
10
299.25
20
-33.375
11
281.75
21
-33.375
0
ARC
8
0
10
281.75
20
-34.375
40
1
50
90
51
180
0
LINE
8
0
10
280.75
20
-34.375
11
280.75
21
-35.5625
0
LINE
8
0
10
280.75
20
-35.5625
11
263.25
21
-35.5625
0
ARC
8
0
10
263.25
20
-36.5625
40
1
50
90
51
180
0
LINE
8
0
10
262.25
20
-36.5625
11
262.25
21
-106.5625
0
ARC
8
0
10
263.25
20
-106.5625
40
1
50
180
51
181.3675509
0
LINE
8
0
10
262.2502848
20
-106.586366
11
262.3774159
21
-111.911724
0
LINE
8
0
10
282.6286947
20
-127.3328136
11
300.2894415
21
-125.9375
0
LINE
8
0
10
300.2894415
20
-125.9375
11
318.75
21
-125.9375
0
ARC
8
0
10
318.75
20
-124.9375
40
1
50
270
51
286.2602047
0
LINE
8
0
10
319.03
20
-125.8975
11
374.53
21
-109.71
0
ARC
8
0
10
374.25
20
-108.75
40
1
50
286.2602047
51
0
0
LINE
8
0
10
239.7335958
20
-120.4378983
11
246.5275957
21
-145.7934512
0
ARC
8
0
10
248.4594474
20
-145.2758131
40
2
50
195
51
284.9999999
0
LINE
8
0
10
248.9770855
20
-147.2076648
11
264.9148616
21
-142.9371505
0
ARC
8
0
10
264.3972235
20
-141.0052988
40
2
50
285.0000002
51
374.9999999
0
LINE
8
0
10
266.3290752
20
-140.4876607
11
264.2097333
21
-132.578169
0
ARC
8
0
10
264.1914953
20
-130.5782522
40
2
50
270.5224875
51
285
0
LINE
8
0
10
264.7091334
20
-132.5101039
11
281.6128354
21
-127.9807706
0
ARC
8
0
10
281.0951973
20
-126.0489189
40
2
50
285
51
320.062817
0
LINE
8
0
10
262.3774159
20
-111.911724
11
259.403343
21
-112.7086244
0
ARC
8
0
10
259.9209811
20
-114.6404761
40
2
50
105
51
152.7280183
0
ARC
8
0
10
257.6032236
20
-115.6497459
40
2
50
74.3335106
51
104.9999999
0
LINE
8
0
10
257.0855855
20
-113.7178942
11
241.1478094
21
-117.9884085
0
ARC
8
0
10
241.6654475
20
-119.9202602
40
2
50
104.9999999
51
195
0
ENDSEC
0
EOF