0
SECTION
2
HEADER
9
$INSUNITS
70
4
0
ENDSEC
0
SECTION
2
TABLES
0
TABLE
2
LTYPE
0
LTYPE
72
65
70
64
2
CONTINUOUS
3
______
73
0
40
0
0
ENDTAB
0
TABLE
2
LAYER
0
ENDTAB
0
ENDSEC
0
SECTION
2
ENTITIES
0
LINE
8
0
10
376.25
20
-108.75
11
376.25
21
-38.75
0
ARC
8
0
10
374.25
20
-38.75
40
2
50
0
51
90
0
LINE
8
0
10
374.25
20
-36.75
11
339.25
21
-36.75
0
LINE
8
0
10
339.25
20
-36.75
11
339.25
21
-34.375
0
ARC
8
0
10
337.25
20
-34.375
40
2
50
0
51
90
0
LINE
8
0
10
337.25
20
-32.375
11
320.75
21
-32.375
0
LINE
8
0
10
320.75
20
-32.375
11
320.75
21
-32.1875
0
ARC
8
0
10
318.75
20
-32.1875
40
2
50
0
51
90
0
LINE
8
0
10
318.75
20
-30.1875
11
300.25
21
-30.1875
0
ARC
8
0
10
300.25
20
-32.1875
40
2
50
90
51
180
0
LINE
8
0
10
298.25
20
-32.1875
11
298.25
21
-32.375
0
LINE
8
0
10
298.25
20
-32.375
11
281.75
21
-32.375
0
ARC
8
0
10
281.75
20
-34.375
40
2
50
90
51
180
0
LINE
8
0
10
279.75
20
-34.375
11
279.75
21
-34.5625
0
LINE
8
0
10
279.75
20
-34.5625
11
263.25
21
-34.5625
0
ARC
8
0
10
263.25
20
-36.5625
40
2
50
90
51
180
0
LINE
8
0
10
261.25
20
-36.5625
11
261.25
21
-37.3375
0
LINE
8
0
10
261.25
20
-37.3375
11
239.2
21
-37.3375
0
ARC
8
0
10
239.2
20
-38.3375
40
1
50
90
51
180
0
LINE
8
0
10
238.2
20
-38.3375
11
238.2
21
-90.8375
0
ARC
8
0
10
239.2
20
-90.8375
40
1
50
180
51
270
0
LINE
8
0
10
239.2
20
-91.8375
11
261.25
21
-91.8375
0
LINE
8
0
10
261.25
20
-91.8375
11
261.25
21
-106.5625
0
ARC
8
0
10
263.25
20
-106.5625
40
2
50
180
51
181.3675509
0
LINE
8
0
10
261.2505696
20
-106.610232
11
261.3834888
21
-112.1780459
0
LINE
8
0
10
264.35558
20
-133.1224762
11
282.0479904
21
-128.3818091
0
LINE
8
0
10
282.0479904
20
-128.3818091
11
300.3288832
21
-126.9375
0
LINE
8
0
10
300.3288832
20
-126.9375
11
318.75
21
-126.9375
0
ARC
8
0
10
318.75
20
-124.9375
40
2
50
270
51
286.2602047
0
LINE
8
0
10
319.31
20
-126.8575
11
374.81
21
-110.67
0
ARC
8
0
10
374.25
20
-108.75
40
2
50
286.2602047
51
360
0
LINE
8
0
10
239.7335958
20
-120.4378983
11
246.5275957
21
-145.7934512
0
ARC
8
0
10
248.4594474
20
-145.2758131
40
2
50
195
51
284.9999999
0
LINE
8
0
10
248.9770855
20
-147.2076648
11
264.9148616
21
-142.9371505
0
ARC
8
0
10
264.3972235
20
-141.0052988
40
2
50
285.0000002
51
374.9999999
0
LINE
8
0
10
266.3290752
20
-140.4876607
11
264.35558
21
-133.1224763
0
LINE
8
0
10
261.3834888
20
-112.1780459
11
259.403343
21
-112.7086244
0
ARC
8
0
10
259.9209811
20
-114.6404761
40
2
50
105
51
152.7280183
0
ARC
8
0
10
257.6032236
20
-115.6497459
40
2
50
74.3335106
51
104.9999999
0
LINE
8
0
10
257.0855855
20
-113.7178942
11
241.1478094
21
-117.9884085
0
ARC
8
0
10
241.6654475
20
-119.9202602
40
2
50
104.9999999
51
195
0
ENDSEC
0
EOF