0
SECTION
2
HEADER
9
$INSUNITS
70
4
0
ENDSEC
0
SECTION
2
TABLES
0
TABLE
2
LTYPE
0
LTYPE
72
65
70
64
2
CONTINUOUS
3
______
73
0
40
0
0
ENDTAB
0
TABLE
2
LAYER
0
ENDTAB
0
ENDSEC
0
SECTION
2
ENTITIES
0
LINE
8
0
10
376.25
20
-108.75
11
376.25
21
-38.75
0
ARC
8
0
10
374.25
20
-38.75
40
2
50
0
51
90
0
LINE
8
0
10
374.25
20
-36.75
11
339.25
21
-36.75
0
LINE
8
0
10
339.25
20
-36.75
11
339.25
21
-34.375
0
ARC
8
0
10
337.25
20
-34.375
40
2
50
0
51
90
0
LINE
8
0
10
337.25
20
-32.375
11
320.75
21
-32.375
0
LINE
8
0
10
320.75
20
-32.375
11
320.75
21
-32.1875
0
ARC
8
0
10
318.75
20
-32.1875
40
2
50
0
51
90
0
LINE
8
0
10
318.75
20
-30.1875
11
300.25
21
-30.1875
0
ARC
8
0
10
300.25
20
-32.1875
40
2
50
90
51
180
0
LINE
8
0
10
298.25
20
-32.1875
11
298.25
21
-32.375
0
LINE
8
0
10
298.25
20
-32.375
11
281.75
21
-32.375
0
ARC
8
0
10
281.75
20
-34.375
40
2
50
90
51
180
0
LINE
8
0
10
279.75
20
-34.375
11
279.75
21
-34.5625
0
LINE
8
0
10
279.75
20
-34.5625
11
263.25
21
-34.5625
0
ARC
8
0
10
263.25
20
-36.5625
40
2
50
90
51
180
0
LINE
8
0
10
261.25
20
-37.3625
11
261.25
21
-36.5625
0
LINE
8
0
10
261.25
20
-37.3625
11
239.2
21
-37.3625
0
ARC
8
0
10
239.2
20
-38.3625
40
1
50
90
51
180
0
LINE
8
0
10
238.2
20
-38.3625
11
238.2
21
-102.575045
0
LINE
8
0
10
238.2
20
-112.5061839
11
238.2
21
-114.3625
0
ARC
8
0
10
239.2
20
-114.3625
40
1
50
180
51
255.9563457
0
LINE
8
0
10
260.1885094
20
-115.3625
11
261.25
21
-115.3625
0
LINE
8
0
10
261.25
20
-119.324037
11
261.25
21
-115.3625
0
ARC
8
0
10
263.25
20
-124.9375
40
2
50
250.4344522
51
270
0
LINE
8
0
10
263.25
20
-126.9375
11
318.75
21
-126.9375
0
ARC
8
0
10
318.75
20
-124.9375
40
2
50
270
51
286.2602047
0
LINE
8
0
10
319.31
20
-126.8575
11
374.81
21
-110.67
0
ARC
8
0
10
374.25
20
-108.75
40
2
50
286.2602047
51
360
0
LINE
8
0
10
236.2348534
20
-105.1721569
11
238.2
21
-112.5061839
0
LINE
8
0
10
238.9573389
20
-115.3326111
11
243.0288533
21
-130.5277098
0
ARC
8
0
10
244.960705
20
-130.0100717
40
2
50
195
51
284.9999999
0
LINE
8
0
10
245.4783431
20
-131.9419234
11
261.4161192
21
-127.6714091
0
ARC
8
0
10
260.8984811
20
-125.7395574
40
2
50
285.0000002
51
327.2325699
0
LINE
8
0
10
261.25
20
-119.324037
11
260.1885094
21
-115.3625
0
LINE
8
0
10
238.2
20
-102.575045
11
237.649067
21
-102.7226671
0
ARC
8
0
10
238.1667051
20
-104.6545188
40
2
50
104.9999999
51
195
0
ENDSEC
0
EOF