0
SECTION
2
HEADER
9
$INSUNITS
70
4
0
ENDSEC
0
SECTION
2
TABLES
0
TABLE
2
LTYPE
0
LTYPE
72
65
70
64
2
CONTINUOUS
3
______
73
0
40
0
0
ENDTAB
0
TABLE
2
LAYER
0
ENDTAB
0
ENDSEC
0
SECTION
2
ENTITIES
0
LINE
8
0
10
375.25
20
-129.25
11
375.25
21
-55.25
0
ARC
8
0
10
374.25
20
-55.25
40
1
50
0
51
90
0
LINE
8
0
10
374.25
20
-54.25
11
338.25
21
-54.25
0
LINE
8
0
10
338.25
20
-54.25
11
338.25
21
-50.625
0
ARC
8
0
10
337.25
20
-50.625
40
1
50
0
51
90
0
LINE
8
0
10
337.25
20
-49.625
11
319.75
21
-49.625
0
LINE
8
0
10
319.75
20
-49.625
11
319.75
21
-48.3125
0
ARC
8
0
10
318.75
20
-48.3125
40
1
50
0
51
90
0
LINE
8
0
10
318.75
20
-47.3125
11
300.25
21
-47.3125
0
ARC
8
0
10
300.25
20
-48.3125
40
1
50
90
51
180
0
LINE
8
0
10
299.25
20
-48.3125
11
299.25
21
-49.625
0
LINE
8
0
10
299.25
20
-49.625
11
281.75
21
-49.625
0
ARC
8
0
10
281.75
20
-50.625
40
1
50
90
51
180
0
LINE
8
0
10
280.75
20
-50.625
11
280.75
21
-51.9375
0
LINE
8
0
10
242.75
20
-51.9375
11
280.75
21
-51.9375
0
LINE
8
0
10
262.25
20
-124.9375
11
262.25
21
-126.9375
0
ARC
8
0
10
263.25
20
-126.9375
40
1
50
180
51
255.9560274
0
LINE
8
0
10
263.0073335
20
-127.9076098
11
266.478773
21
-128.7759674
0
LINE
8
0
10
266.478773
20
-128.7759674
11
252.3381991
21
-132.5649228
0
ARC
8
0
10
252.5970181
20
-133.5308486
40
1
50
105.0000002
51
194.9999979
0
LINE
8
0
10
251.6310923
20
-133.7896676
11
256.4192447
21
-151.6592954
0
ARC
8
0
10
257.3851705
20
-151.4004764
40
1
50
195.0000002
51
284.9999979
0
LINE
8
0
10
257.6439895
20
-152.3664022
11
273.686662
21
-148.067781
0
ARC
8
0
10
273.9170285
20
-147.0946771
40
1
50
256.6813494
51
277.5000002
0
LINE
8
0
10
274.0475547
20
-148.086122
11
292.315778
21
-145.6810648
0
LINE
8
0
10
292.315778
20
-145.6810648
11
309.482889
21
-145.9748536
0
ARC
8
0
10
309.5
20
-144.975
40
1
50
269.0195663
51
283.6504176
0
LINE
8
0
10
309.7359973
20
-145.9467537
11
374.4859973
21
-130.2217537
0
ARC
8
0
10
374.25
20
-129.25
40
1
50
283.6504176
51
0
0
LINE
8
0
10
242.75
20
-124.9375
11
242.75
21
-51.9375
0
LINE
8
0
10
242.75
20
-124.9375
11
262.25
21
-124.9375
0
ENDSEC
0
EOF