0
SECTION
2
HEADER
9
$INSUNITS
70
4
0
ENDSEC
0
SECTION
2
TABLES
0
TABLE
2
LTYPE
0
LTYPE
72
65
70
64
2
CONTINUOUS
3
______
73
0
40
0
0
ENDTAB
0
TABLE
2
LAYER
0
ENDTAB
0
ENDSEC
0
SECTION
2
ENTITIES
0
LINE
8
0
10
374.25
20
-129.25
11
374.25
21
-55.25
0
LINE
8
0
10
374.25
20
-55.25
11
337.25
21
-55.25
0
LINE
8
0
10
337.25
20
-55.25
11
337.25
21
-50.625
0
LINE
8
0
10
337.25
20
-50.625
11
318.75
21
-50.625
0
LINE
8
0
10
318.75
20
-50.625
11
318.75
21
-48.3125
0
LINE
8
0
10
318.75
20
-48.3125
11
300.25
21
-48.3125
0
LINE
8
0
10
300.25
20
-48.3125
11
300.25
21
-50.625
0
LINE
8
0
10
300.25
20
-50.625
11
281.75
21
-50.625
0
LINE
8
0
10
281.75
20
-50.625
11
281.75
21
-52.9375
0
LINE
8
0
10
281.75
20
-52.9375
11
263.25
21
-52.9375
0
LINE
8
0
10
263.25
20
-52.9375
11
263.25
21
-126.9375
0
LINE
8
0
10
263.25
20
-126.9375
11
270.4666459
21
-128.7426962
0
LINE
8
0
10
270.4666459
20
-128.7426962
11
252.5970181
21
-133.5308486
0
LINE
8
0
10
252.5970181
20
-133.5308486
11
257.3851705
21
-151.4004764
0
LINE
8
0
10
257.3851705
20
-151.4004764
11
275.2547983
21
-146.612324
0
LINE
8
0
10
275.2547983
20
-146.612324
11
273.9170285
21
-147.0946771
0
LINE
8
0
10
273.9170285
20
-147.0946771
11
292.2587584
21
-144.6799426
0
LINE
8
0
10
292.2587584
20
-144.6799426
11
309.5
21
-144.975
0
LINE
8
0
10
309.5
20
-144.975
11
374.25
21
-129.25
0
ENDSEC
0
EOF