0
SECTION
2
HEADER
9
$INSUNITS
70
4
0
ENDSEC
0
SECTION
2
TABLES
0
TABLE
2
LTYPE
0
LTYPE
72
65
70
64
2
CONTINUOUS
3
______
73
0
40
0
0
ENDTAB
0
TABLE
2
LAYER
0
ENDTAB
0
ENDSEC
0
SECTION
2
ENTITIES
0
LINE
8
0
10
253.3833889
20
-151.4374743
11
274.2567506
21
-145.8444739
0
LINE
8
0
10
274.6406403
20
-129.3484051
11
274.4684275
21
-128.7056983
0
LINE
8
0
10
274.4684275
20
-128.7056983
11
249.1128746
21
-135.4996982
0
LINE
8
0
10
249.1128746
20
-135.4996982
11
253.3833889
21
-151.4374743
0
LINE
8
0
10
274.2822247
20
-146.0379692
11
291.6325098
21
-143.7537608
0
LINE
8
0
10
291.6325098
20
-143.7537608
11
289.4788277
21
-127.3949206
0
LINE
8
0
10
289.4788277
20
-127.3949206
11
274.6406403
21
-129.3484051
0
LINE
8
0
10
274.2567506
20
-145.8444739
11
274.2822247
21
-146.0379692
0
ENDSEC
0
EOF