0
SECTION
2
HEADER
9
$INSUNITS
70
4
0
ENDSEC
0
SECTION
2
TABLES
0
TABLE
2
LTYPE
0
LTYPE
72
65
70
64
2
CONTINUOUS
3
______
73
0
40
0
0
ENDTAB
0
TABLE
2
LAYER
0
ENDTAB
0
ENDSEC
0
SECTION
2
ENTITIES
0
LINE
8
0
10
360.5
20
-108.5
11
360.5
21
-40.5
0
ARC
8
0
10
358.5
20
-40.5
40
2
50
0
51
90
0
LINE
8
0
10
358.5
20
-38.5
11
326.5
21
-38.5
0
LINE
8
0
10
326.5
20
-38.5
11
326.5
21
-36.25
0
ARC
8
0
10
324.5
20
-36.25
40
2
50
0
51
90
0
LINE
8
0
10
324.5
20
-34.25
11
309.5
21
-34.25
0
LINE
8
0
10
309.5
20
-34.25
11
309.5
21
-34.125
0
ARC
8
0
10
307.5
20
-34.125
40
2
50
0
51
90
0
LINE
8
0
10
307.5
20
-32.125
11
290.5
21
-32.125
0
ARC
8
0
10
290.5
20
-34.125
40
2
50
90
51
180
0
LINE
8
0
10
288.5
20
-34.125
11
288.5
21
-34.25
0
LINE
8
0
10
288.5
20
-34.25
11
273.5
21
-34.25
0
ARC
8
0
10
273.5
20
-36.25
40
2
50
90
51
180
0
LINE
8
0
10
271.5
20
-36.25
11
271.5
21
-36.375
0
LINE
8
0
10
271.5
20
-36.375
11
256.5
21
-36.375
0
ARC
8
0
10
256.5
20
-38.375
40
2
50
90
51
180
0
LINE
8
0
10
254.5
20
-39.175
11
254.5
21
-38.375
0
LINE
8
0
10
254.5
20
-39.175
11
234.4
21
-39.175
0
ARC
8
0
10
234.4
20
-40.175
40
1
50
90
51
180
0
LINE
8
0
10
233.4
20
-40.175
11
233.4
21
-101.8535059
0
LINE
8
0
10
257.0027406
20
-126.225
11
307.5
21
-126.225
0
ARC
8
0
10
307.5
20
-124.225
40
2
50
270
51
287.1362745
0
LINE
8
0
10
308.0892908
20
-126.1362134
11
359.0892908
21
-110.4112134
0
ARC
8
0
10
358.5
20
-108.5
40
2
50
287.1362745
51
360
0
LINE
8
0
10
230.5970755
20
-104.6750997
11
237.3910754
21
-130.0306526
0
ARC
8
0
10
239.3229271
20
-129.5130145
40
2
50
195
51
284.9999999
0
LINE
8
0
10
239.8405652
20
-131.4448662
11
255.7783413
21
-127.1743519
0
ARC
8
0
10
255.2607032
20
-125.2425002
40
2
50
285.0000002
51
330.5772336
0
LINE
8
0
10
233.4
20
-101.8535059
11
232.0112891
21
-102.2256099
0
ARC
8
0
10
232.5289272
20
-104.1574616
40
2
50
104.9999999
51
195
0
ENDSEC
0
EOF