0
SECTION
2
HEADER
9
$INSUNITS
70
4
0
ENDSEC
0
SECTION
2
TABLES
0
TABLE
2
LTYPE
0
LTYPE
72
65
70
64
2
CONTINUOUS
3
______
73
0
40
0
0
ENDTAB
0
TABLE
2
LAYER
0
ENDTAB
0
ENDSEC
0
SECTION
2
ENTITIES
0
LINE
8
0
10
253.901027
20
-153.369326
11
273.9208063
21
-148.0050423
0
ARC
8
0
10
274.2822247
20
-146.0379692
40
2
50
259.5889284
51
277.5000001
0
LINE
8
0
10
274.5432771
20
-148.0208589
11
291.8935622
21
-145.7366505
0
ARC
8
0
10
291.6325098
20
-143.7537608
40
2
50
277.5000001
51
367.5000005
0
LINE
8
0
10
293.6153995
20
-143.4927084
11
291.4617174
21
-127.1338682
0
ARC
8
0
10
289.4788277
20
-127.3949206
40
2
50
7.4999998
51
97.5000005
0
LINE
8
0
10
289.2177753
20
-125.4120309
11
275.7652212
21
-127.1830933
0
ARC
8
0
10
274.4684275
20
-128.7056983
40
2
50
49.5791593
51
104.9999991
0
LINE
8
0
10
273.9507894
20
-126.7738466
11
248.5952365
21
-133.5678465
0
ARC
8
0
10
249.1128746
20
-135.4996982
40
2
50
105
51
194.9999999
0
LINE
8
0
10
247.1810229
20
-136.0173363
11
251.4515372
21
-151.9551124
0
ARC
8
0
10
253.3833889
20
-151.4374743
40
2
50
194.9999999
51
285
0
ENDSEC
0
EOF