0
SECTION
2
HEADER
9
$INSUNITS
70
4
0
ENDSEC
0
SECTION
2
TABLES
0
TABLE
2
LTYPE
0
LTYPE
72
65
70
64
2
CONTINUOUS
3
______
73
0
40
0
0
ENDTAB
0
TABLE
2
LAYER
0
ENDTAB
0
ENDSEC
0
SECTION
2
ENTITIES
0
LINE
8
0
10
378.25
20
-124.35
11
378.25
21
-55.25
0
ARC
8
0
10
374.25
20
-55.25
40
4
50
0
51
90
0
LINE
8
0
10
374.25
20
-51.25
11
341.25
21
-51.25
0
LINE
8
0
10
341.25
20
-51.25
11
341.25
21
-50.625
0
ARC
8
0
10
337.25
20
-50.625
40
4
50
0
51
90
0
LINE
8
0
10
337.25
20
-46.625
11
322.376616
21
-46.625
0
ARC
8
0
10
318.75
20
-48.3125
40
4
50
24.9530209
51
90
0
LINE
8
0
10
318.75
20
-44.3125
11
300.25
21
-44.3125
0
ARC
8
0
10
300.25
20
-48.3125
40
4
50
90
51
155.0469791
0
LINE
8
0
10
296.623384
20
-46.625
11
284.9
21
-46.625
0
ARC
8
0
10
281.75
20
-50.625
40
4
50
99.0687214
51
155.0469791
0
LINE
8
0
10
242.75
20
-48.9375
11
256.1
21
-48.9375
0
LINE
8
0
10
269.9
20
-48.9375
11
278.123384
21
-48.9375
0
ARC
8
0
10
242.75
20
-51.9375
40
3
50
90
51
180
0
LINE
8
0
10
239.75
20
-124.9375
11
239.75
21
-51.9375
0
ARC
8
0
10
242.75
20
-124.9375
40
3
50
180
51
270
0
LINE
8
0
10
242.75
20
-127.9375
11
254.35
21
-127.9375
0
LINE
8
0
10
254.35
20
-128.9200338
11
251.561742
21
-129.6671453
0
ARC
8
0
10
252.5970181
20
-133.5308486
40
4
50
105.0000002
51
194.9999979
0
LINE
8
0
10
248.7333148
20
-134.5661247
11
253.5214672
21
-152.4357525
0
ARC
8
0
10
257.3851705
20
-151.4004764
40
4
50
195.0000002
51
284.9999979
0
LINE
8
0
10
258.4204466
20
-155.2641797
11
273.9832905
21
-151.0941282
0
ARC
8
0
10
273.9170285
20
-147.0946771
40
4
50
270.9491767
51
277.5000002
0
LINE
8
0
10
274.4391333
20
-151.0604566
11
292.4868358
21
-148.6844315
0
LINE
8
0
10
292.4868358
20
-148.6844315
11
309.4315561
21
-148.9744144
0
ARC
8
0
10
309.5
20
-144.975
40
4
50
269.0195663
51
283.6504176
0
LINE
8
0
10
310.4439893
20
-148.8620148
11
324.8022855
21
-145.375
0
LINE
8
0
10
328.9
20
-144.3798408
11
367.35
21
-135.0419836
0
LINE
8
0
10
358.1
20
-126.9
11
367.35
21
-126.9
0
LINE
8
0
10
371.9
20
-124.35
11
371.9
21
-113.1
0
LINE
8
0
10
371.9
20
-113.1
11
358.1
21
-113.1
0
LINE
8
0
10
358.1
20
-113.1
11
358.1
21
-126.9
0
LINE
8
0
10
358.1
20
-108.4
11
371.9
21
-108.4
0
LINE
8
0
10
371.9
20
-108.4
11
371.9
21
-94.6
0
LINE
8
0
10
371.9
20
-94.6
11
358.1
21
-94.6
0
LINE
8
0
10
358.1
20
-94.6
11
358.1
21
-108.4
0
LINE
8
0
10
358.1
20
-89.9
11
371.9
21
-89.9
0
LINE
8
0
10
371.9
20
-89.9
11
371.9
21
-76.1
0
LINE
8
0
10
371.9
20
-76.1
11
358.1
21
-76.1
0
LINE
8
0
10
358.1
20
-76.1
11
358.1
21
-89.9
0
LINE
8
0
10
358.1
20
-71.4
11
371.9
21
-71.4
0
LINE
8
0
10
371.9
20
-71.4
11
371.9
21
-57.6
0
LINE
8
0
10
371.9
20
-57.6
11
358.1
21
-57.6
0
LINE
8
0
10
358.1
20
-57.6
11
358.1
21
-71.4
0
LINE
8
0
10
339.6
20
-126.9
11
353.4
21
-126.9
0
LINE
8
0
10
353.4
20
-126.9
11
353.4
21
-113.1
0
LINE
8
0
10
353.4
20
-113.1
11
339.6
21
-113.1
0
LINE
8
0
10
339.6
20
-113.1
11
339.6
21
-126.9
0
LINE
8
0
10
339.6
20
-108.4
11
353.4
21
-108.4
0
LINE
8
0
10
353.4
20
-108.4
11
353.4
21
-94.6
0
LINE
8
0
10
353.4
20
-94.6
11
339.6
21
-94.6
0
LINE
8
0
10
339.6
20
-94.6
11
339.6
21
-108.4
0
LINE
8
0
10
339.6
20
-89.9
11
353.4
21
-89.9
0
LINE
8
0
10
353.4
20
-89.9
11
353.4
21
-76.1
0
LINE
8
0
10
353.4
20
-76.1
11
339.6
21
-76.1
0
LINE
8
0
10
339.6
20
-76.1
11
339.6
21
-89.9
0
LINE
8
0
10
339.6
20
-71.4
11
353.4
21
-71.4
0
LINE
8
0
10
353.4
20
-71.4
11
353.4
21
-57.6
0
LINE
8
0
10
353.4
20
-57.6
11
339.6
21
-57.6
0
LINE
8
0
10
339.6
20
-57.6
11
339.6
21
-71.4
0
LINE
8
0
10
321.1
20
-122.275
11
334.9
21
-122.275
0
LINE
8
0
10
334.9
20
-122.275
11
334.9
21
-108.475
0
LINE
8
0
10
334.9
20
-108.475
11
321.1
21
-108.475
0
LINE
8
0
10
321.1
20
-108.475
11
321.1
21
-122.275
0
LINE
8
0
10
321.1
20
-103.775
11
334.9
21
-103.775
0
LINE
8
0
10
334.9
20
-103.775
11
334.9
21
-89.975
0
LINE
8
0
10
334.9
20
-89.975
11
321.1
21
-89.975
0
LINE
8
0
10
321.1
20
-89.975
11
321.1
21
-103.775
0
LINE
8
0
10
321.1
20
-85.275
11
334.9
21
-85.275
0
LINE
8
0
10
334.9
20
-85.275
11
334.9
21
-71.475
0
LINE
8
0
10
334.9
20
-71.475
11
321.1
21
-71.475
0
LINE
8
0
10
321.1
20
-71.475
11
321.1
21
-85.275
0
LINE
8
0
10
321.1
20
-66.775
11
334.9
21
-66.775
0
LINE
8
0
10
334.9
20
-66.775
11
334.9
21
-52.975
0
LINE
8
0
10
334.9
20
-52.975
11
321.1
21
-52.975
0
LINE
8
0
10
321.1
20
-52.975
11
321.1
21
-66.775
0
LINE
8
0
10
302.6
20
-119.9625
11
316.4
21
-119.9625
0
LINE
8
0
10
316.4
20
-119.9625
11
316.4
21
-106.1625
0
LINE
8
0
10
316.4
20
-106.1625
11
302.6
21
-106.1625
0
LINE
8
0
10
302.6
20
-106.1625
11
302.6
21
-119.9625
0
LINE
8
0
10
302.6
20
-101.4625
11
316.4
21
-101.4625
0
LINE
8
0
10
316.4
20
-101.4625
11
316.4
21
-87.6625
0
LINE
8
0
10
316.4
20
-87.6625
11
302.6
21
-87.6625
0
LINE
8
0
10
302.6
20
-87.6625
11
302.6
21
-101.4625
0
LINE
8
0
10
302.6
20
-82.9625
11
316.4
21
-82.9625
0
LINE
8
0
10
316.4
20
-82.9625
11
316.4
21
-69.1625
0
LINE
8
0
10
316.4
20
-69.1625
11
302.6
21
-69.1625
0
LINE
8
0
10
302.6
20
-69.1625
11
302.6
21
-82.9625
0
LINE
8
0
10
302.6
20
-64.4625
11
316.4
21
-64.4625
0
LINE
8
0
10
316.4
20
-64.4625
11
316.4
21
-50.6625
0
LINE
8
0
10
316.4
20
-50.6625
11
302.6
21
-50.6625
0
LINE
8
0
10
302.6
20
-50.6625
11
302.6
21
-64.4625
0
LINE
8
0
10
284.1
20
-122.275
11
297.9
21
-122.275
0
LINE
8
0
10
297.9
20
-122.275
11
297.9
21
-108.475
0
LINE
8
0
10
297.9
20
-108.475
11
284.1
21
-108.475
0
LINE
8
0
10
284.1
20
-108.475
11
284.1
21
-122.275
0
LINE
8
0
10
284.1
20
-103.775
11
297.9
21
-103.775
0
LINE
8
0
10
297.9
20
-103.775
11
297.9
21
-89.975
0
LINE
8
0
10
297.9
20
-89.975
11
284.1
21
-89.975
0
LINE
8
0
10
284.1
20
-89.975
11
284.1
21
-103.775
0
LINE
8
0
10
284.1
20
-85.275
11
297.9
21
-85.275
0
LINE
8
0
10
297.9
20
-85.275
11
297.9
21
-71.475
0
LINE
8
0
10
297.9
20
-71.475
11
284.1
21
-71.475
0
LINE
8
0
10
284.1
20
-71.475
11
284.1
21
-85.275
0
LINE
8
0
10
284.1
20
-66.775
11
297.9
21
-66.775
0
LINE
8
0
10
297.9
20
-66.775
11
297.9
21
-52.975
0
LINE
8
0
10
297.9
20
-52.975
11
284.1
21
-52.975
0
LINE
8
0
10
284.1
20
-52.975
11
284.1
21
-66.775
0
LINE
8
0
10
268.15
20
-124.5875
11
279.4
21
-124.5875
0
LINE
8
0
10
279.4
20
-124.5875
11
279.4
21
-110.7875
0
LINE
8
0
10
279.4
20
-110.7875
11
265.6
21
-110.7875
0
LINE
8
0
10
265.6
20
-110.7875
11
265.6
21
-120.0375
0
LINE
8
0
10
265.6
20
-106.0875
11
279.4
21
-106.0875
0
LINE
8
0
10
279.4
20
-106.0875
11
279.4
21
-92.2875
0
LINE
8
0
10
279.4
20
-92.2875
11
265.6
21
-92.2875
0
LINE
8
0
10
265.6
20
-92.2875
11
265.6
21
-106.0875
0
LINE
8
0
10
265.6
20
-87.5875
11
279.4
21
-87.5875
0
LINE
8
0
10
279.4
20
-87.5875
11
279.4
21
-73.7875
0
LINE
8
0
10
279.4
20
-73.7875
11
265.6
21
-73.7875
0
LINE
8
0
10
265.6
20
-73.7875
11
265.6
21
-87.5875
0
LINE
8
0
10
265.6
20
-69.0875
11
279.4
21
-69.0875
0
LINE
8
0
10
279.4
20
-69.0875
11
279.4
21
-55.2875
0
LINE
8
0
10
279.4
20
-55.2875
11
269.9
21
-55.2875
0
LINE
8
0
10
265.6
20
-56.675
11
265.6
21
-69.0875
0
LINE
8
0
10
293.35
20
-142.625
11
307.15
21
-142.625
0
LINE
8
0
10
307.15
20
-142.625
11
307.15
21
-140.375
0
LINE
8
0
10
301.21
20
-128.825
11
293.35
21
-128.825
0
LINE
8
0
10
293.35
20
-128.825
11
293.35
21
-142.625
0
LINE
8
0
10
275.9401874
20
-144.4580452
11
289.6221265
21
-142.6567837
0
LINE
8
0
10
289.6221265
20
-142.6567837
11
287.820865
21
-128.9748446
0
LINE
8
0
10
287.820865
20
-128.9748446
11
274.1389259
21
-130.7761061
0
LINE
8
0
10
274.1389259
20
-130.7761061
11
275.9401874
21
-144.4580452
0
LINE
8
0
10
259.0468714
20
-148.5223259
11
272.3766478
21
-144.9506231
0
LINE
8
0
10
272.3766478
20
-144.9506231
11
268.804945
21
-131.6208467
0
LINE
8
0
10
268.804945
20
-131.6208467
11
268.15
21
-131.7963387
0
LINE
8
0
10
260.5322822
20
-133.8375
11
255.4751686
21
-135.1925495
0
LINE
8
0
10
255.4751686
20
-135.1925495
11
259.0468714
21
-148.5223259
0
LINE
8
0
10
315.1
20
-145.375
11
324.8022855
21
-145.375
0
LINE
8
0
10
328.9
20
-144.3798408
11
328.9
21
-131.575
0
LINE
8
0
10
328.9
20
-131.575
11
315.1
21
-131.575
0
LINE
8
0
10
315.1
20
-131.575
11
315.1
21
-145.375
0
LINE
8
0
10
281.119524
20
-46.675
11
284.9
21
-46.675
0
LINE
8
0
10
284.9
20
-46.675
11
284.9
21
-46.625
0
LINE
8
0
10
307.15
20
-140.375
11
315.01
21
-140.375
0
LINE
8
0
10
315.01
20
-140.375
11
315.01
21
-126.575
0
LINE
8
0
10
315.01
20
-126.575
11
301.21
21
-126.575
0
LINE
8
0
10
301.21
20
-126.575
11
301.21
21
-128.825
0
LINE
8
0
10
256.1
20
-56.675
11
265.6
21
-56.675
0
LINE
8
0
10
269.9
20
-55.2875
11
269.9
21
-48.9375
0
LINE
8
0
10
256.1
20
-48.9375
11
256.1
21
-56.675
0
LINE
8
0
10
378.25
20
-124.35
11
371.9
21
-124.35
0
LINE
8
0
10
367.35
20
-126.9
11
367.35
21
-135.0419836
0
LINE
8
0
10
254.35
20
-133.8375
11
260.5322822
21
-133.8375
0
LINE
8
0
10
268.15
20
-131.7963387
11
268.15
21
-124.5875
0
LINE
8
0
10
265.6
20
-120.0375
11
254.35
21
-120.0375
0
LINE
8
0
10
254.35
20
-120.0375
11
254.35
21
-127.9375
0
LINE
8
0
10
254.35
20
-128.9200338
11
254.35
21
-133.8375
0
ENDSEC
0
EOF