0
SECTION
2
HEADER
9
$INSUNITS
70
4
0
ENDSEC
0
SECTION
2
TABLES
0
TABLE
2
LTYPE
0
LTYPE
72
65
70
64
2
CONTINUOUS
3
______
73
0
40
0
0
ENDTAB
0
TABLE
2
LAYER
0
ENDTAB
0
ENDSEC
0
SECTION
2
ENTITIES
0
LINE
8
0
10
358.1
20
-126.9
11
367.35
21
-126.9
0
LINE
8
0
10
371.9
20
-124.35
11
371.9
21
-113.1
0
LINE
8
0
10
371.9
20
-113.1
11
358.1
21
-113.1
0
LINE
8
0
10
358.1
20
-113.1
11
358.1
21
-126.9
0
LINE
8
0
10
358.1
20
-108.4
11
371.9
21
-108.4
0
LINE
8
0
10
371.9
20
-108.4
11
371.9
21
-94.6
0
LINE
8
0
10
371.9
20
-94.6
11
358.1
21
-94.6
0
LINE
8
0
10
358.1
20
-94.6
11
358.1
21
-108.4
0
LINE
8
0
10
358.1
20
-89.9
11
371.9
21
-89.9
0
LINE
8
0
10
371.9
20
-89.9
11
371.9
21
-76.1
0
LINE
8
0
10
371.9
20
-76.1
11
358.1
21
-76.1
0
LINE
8
0
10
358.1
20
-76.1
11
358.1
21
-89.9
0
LINE
8
0
10
358.1
20
-71.4
11
371.9
21
-71.4
0
LINE
8
0
10
371.9
20
-71.4
11
371.9
21
-57.6
0
LINE
8
0
10
371.9
20
-57.6
11
358.1
21
-57.6
0
LINE
8
0
10
358.1
20
-57.6
11
358.1
21
-71.4
0
LINE
8
0
10
339.6
20
-126.9
11
353.4
21
-126.9
0
LINE
8
0
10
353.4
20
-126.9
11
353.4
21
-113.1
0
LINE
8
0
10
353.4
20
-113.1
11
339.6
21
-113.1
0
LINE
8
0
10
339.6
20
-113.1
11
339.6
21
-126.9
0
LINE
8
0
10
339.6
20
-108.4
11
353.4
21
-108.4
0
LINE
8
0
10
353.4
20
-108.4
11
353.4
21
-94.6
0
LINE
8
0
10
353.4
20
-94.6
11
339.6
21
-94.6
0
LINE
8
0
10
339.6
20
-94.6
11
339.6
21
-108.4
0
LINE
8
0
10
339.6
20
-89.9
11
353.4
21
-89.9
0
LINE
8
0
10
353.4
20
-89.9
11
353.4
21
-76.1
0
LINE
8
0
10
353.4
20
-76.1
11
339.6
21
-76.1
0
LINE
8
0
10
339.6
20
-76.1
11
339.6
21
-89.9
0
LINE
8
0
10
339.6
20
-71.4
11
353.4
21
-71.4
0
LINE
8
0
10
353.4
20
-71.4
11
353.4
21
-57.6
0
LINE
8
0
10
353.4
20
-57.6
11
339.6
21
-57.6
0
LINE
8
0
10
339.6
20
-57.6
11
339.6
21
-71.4
0
LINE
8
0
10
321.1
20
-122.275
11
334.9
21
-122.275
0
LINE
8
0
10
334.9
20
-122.275
11
334.9
21
-108.475
0
LINE
8
0
10
334.9
20
-108.475
11
321.1
21
-108.475
0
LINE
8
0
10
321.1
20
-108.475
11
321.1
21
-122.275
0
LINE
8
0
10
321.1
20
-103.775
11
334.9
21
-103.775
0
LINE
8
0
10
334.9
20
-103.775
11
334.9
21
-89.975
0
LINE
8
0
10
334.9
20
-89.975
11
321.1
21
-89.975
0
LINE
8
0
10
321.1
20
-89.975
11
321.1
21
-103.775
0
LINE
8
0
10
321.1
20
-85.275
11
334.9
21
-85.275
0
LINE
8
0
10
334.9
20
-85.275
11
334.9
21
-71.475
0
LINE
8
0
10
334.9
20
-71.475
11
321.1
21
-71.475
0
LINE
8
0
10
321.1
20
-71.475
11
321.1
21
-85.275
0
LINE
8
0
10
321.1
20
-66.775
11
334.9
21
-66.775
0
LINE
8
0
10
334.9
20
-66.775
11
334.9
21
-52.975
0
LINE
8
0
10
334.9
20
-52.975
11
321.1
21
-52.975
0
LINE
8
0
10
321.1
20
-52.975
11
321.1
21
-66.775
0
LINE
8
0
10
302.6
20
-119.9625
11
316.4
21
-119.9625
0
LINE
8
0
10
316.4
20
-119.9625
11
316.4
21
-106.1625
0
LINE
8
0
10
316.4
20
-106.1625
11
302.6
21
-106.1625
0
LINE
8
0
10
302.6
20
-106.1625
11
302.6
21
-119.9625
0
LINE
8
0
10
302.6
20
-101.4625
11
316.4
21
-101.4625
0
LINE
8
0
10
316.4
20
-101.4625
11
316.4
21
-87.6625
0
LINE
8
0
10
316.4
20
-87.6625
11
302.6
21
-87.6625
0
LINE
8
0
10
302.6
20
-87.6625
11
302.6
21
-101.4625
0
LINE
8
0
10
302.6
20
-82.9625
11
316.4
21
-82.9625
0
LINE
8
0
10
316.4
20
-82.9625
11
316.4
21
-69.1625
0
LINE
8
0
10
316.4
20
-69.1625
11
302.6
21
-69.1625
0
LINE
8
0
10
302.6
20
-69.1625
11
302.6
21
-82.9625
0
LINE
8
0
10
302.6
20
-64.4625
11
316.4
21
-64.4625
0
LINE
8
0
10
316.4
20
-64.4625
11
316.4
21
-50.6625
0
LINE
8
0
10
316.4
20
-50.6625
11
302.6
21
-50.6625
0
LINE
8
0
10
302.6
20
-50.6625
11
302.6
21
-64.4625
0
LINE
8
0
10
284.1
20
-122.275
11
297.9
21
-122.275
0
LINE
8
0
10
297.9
20
-122.275
11
297.9
21
-108.475
0
LINE
8
0
10
297.9
20
-108.475
11
284.1
21
-108.475
0
LINE
8
0
10
284.1
20
-108.475
11
284.1
21
-122.275
0
LINE
8
0
10
284.1
20
-103.775
11
297.9
21
-103.775
0
LINE
8
0
10
297.9
20
-103.775
11
297.9
21
-89.975
0
LINE
8
0
10
297.9
20
-89.975
11
284.1
21
-89.975
0
LINE
8
0
10
284.1
20
-89.975
11
284.1
21
-103.775
0
LINE
8
0
10
284.1
20
-85.275
11
297.9
21
-85.275
0
LINE
8
0
10
297.9
20
-85.275
11
297.9
21
-71.475
0
LINE
8
0
10
297.9
20
-71.475
11
284.1
21
-71.475
0
LINE
8
0
10
284.1
20
-71.475
11
284.1
21
-85.275
0
LINE
8
0
10
284.1
20
-66.775
11
297.9
21
-66.775
0
LINE
8
0
10
297.9
20
-66.775
11
297.9
21
-52.975
0
LINE
8
0
10
297.9
20
-52.975
11
284.1
21
-52.975
0
LINE
8
0
10
284.1
20
-52.975
11
284.1
21
-66.775
0
LINE
8
0
10
268.15
20
-124.5875
11
279.4
21
-124.5875
0
LINE
8
0
10
279.4
20
-124.5875
11
279.4
21
-110.7875
0
LINE
8
0
10
279.4
20
-110.7875
11
265.6
21
-110.7875
0
LINE
8
0
10
265.6
20
-110.7875
11
265.6
21
-120.0375
0
LINE
8
0
10
265.6
20
-106.0875
11
279.4
21
-106.0875
0
LINE
8
0
10
279.4
20
-106.0875
11
279.4
21
-92.2875
0
LINE
8
0
10
279.4
20
-92.2875
11
265.6
21
-92.2875
0
LINE
8
0
10
265.6
20
-92.2875
11
265.6
21
-106.0875
0
LINE
8
0
10
265.6
20
-87.5875
11
279.4
21
-87.5875
0
LINE
8
0
10
279.4
20
-87.5875
11
279.4
21
-73.7875
0
LINE
8
0
10
279.4
20
-73.7875
11
265.6
21
-73.7875
0
LINE
8
0
10
265.6
20
-73.7875
11
265.6
21
-87.5875
0
LINE
8
0
10
265.6
20
-69.0875
11
279.4
21
-69.0875
0
LINE
8
0
10
279.4
20
-69.0875
11
279.4
21
-55.2875
0
LINE
8
0
10
279.4
20
-55.2875
11
269.9
21
-55.2875
0
LINE
8
0
10
265.6
20
-56.675
11
265.6
21
-69.0875
0
LINE
8
0
10
293.35
20
-142.625
11
307.15
21
-142.625
0
LINE
8
0
10
307.15
20
-142.625
11
307.15
21
-128.825
0
LINE
8
0
10
307.15
20
-128.825
11
293.35
21
-128.825
0
LINE
8
0
10
293.35
20
-128.825
11
293.35
21
-142.625
0
LINE
8
0
10
275.9401874
20
-144.4580452
11
289.6221265
21
-142.6567837
0
LINE
8
0
10
289.6221265
20
-142.6567837
11
287.820865
21
-128.9748446
0
LINE
8
0
10
287.820865
20
-128.9748446
11
274.1389259
21
-130.7761061
0
LINE
8
0
10
274.1389259
20
-130.7761061
11
275.9401874
21
-144.4580452
0
LINE
8
0
10
259.0468714
20
-148.5223259
11
272.3766478
21
-144.9506231
0
LINE
8
0
10
272.3766478
20
-144.9506231
11
268.804945
21
-131.6208467
0
LINE
8
0
10
268.804945
20
-131.6208467
11
268.15
21
-131.7963387
0
LINE
8
0
10
260.5322822
20
-133.8375
11
255.4751686
21
-135.1925495
0
LINE
8
0
10
255.4751686
20
-135.1925495
11
259.0468714
21
-148.5223259
0
LINE
8
0
10
352.1
20
-48.3
11
365.9
21
-48.3
0
LINE
8
0
10
365.9
20
-48.3
11
365.9
21
-34.5
0
LINE
8
0
10
365.9
20
-34.5
11
352.1
21
-34.5
0
LINE
8
0
10
352.1
20
-34.5
11
352.1
21
-48.3
0
LINE
8
0
10
271.1
20
-46.675
11
284.9
21
-46.675
0
LINE
8
0
10
284.9
20
-46.675
11
284.9
21
-32.875
0
LINE
8
0
10
284.9
20
-32.875
11
271.1
21
-32.875
0
LINE
8
0
10
271.1
20
-32.875
11
271.1
21
-46.675
0
LINE
8
0
10
330.4
20
-43.3
11
344.2
21
-43.3
0
LINE
8
0
10
344.2
20
-43.3
11
344.2
21
-29.5
0
LINE
8
0
10
344.2
20
-29.5
11
330.4
21
-29.5
0
LINE
8
0
10
330.4
20
-29.5
11
330.4
21
-43.3
0
LINE
8
0
10
256.1
20
-56.675
11
265.6
21
-56.675
0
LINE
8
0
10
269.9
20
-55.2875
11
269.9
21
-42.875
0
LINE
8
0
10
269.9
20
-42.875
11
256.1
21
-42.875
0
LINE
8
0
10
256.1
20
-42.875
11
256.1
21
-56.675
0
LINE
8
0
10
367.35
20
-138.15
11
381.15
21
-138.15
0
LINE
8
0
10
381.15
20
-138.15
11
381.15
21
-124.35
0
LINE
8
0
10
381.15
20
-124.35
11
371.9
21
-124.35
0
LINE
8
0
10
367.35
20
-126.9
11
367.35
21
-138.15
0
LINE
8
0
10
254.35
20
-133.8375
11
260.5322822
21
-133.8375
0
LINE
8
0
10
268.15
20
-131.7963387
11
268.15
21
-124.5875
0
LINE
8
0
10
265.6
20
-120.0375
11
254.35
21
-120.0375
0
LINE
8
0
10
254.35
20
-120.0375
11
254.35
21
-133.8375
0
ENDSEC
0
EOF