0
SECTION
2
HEADER
9
$INSUNITS
70
4
0
ENDSEC
0
SECTION
2
TABLES
0
TABLE
2
LTYPE
0
LTYPE
72
65
70
64
2
CONTINUOUS
3
______
73
0
40
0
0
ENDTAB
0
TABLE
2
LAYER
0
ENDTAB
0
ENDSEC
0
SECTION
2
ENTITIES
0
CIRCLE
8
0
10
156.89
20
-133.475
40
1.1
0
CIRCLE
8
0
10
202
20
-49.775
40
1.1
0
CIRCLE
8
0
10
90.75
20
-131.25
40
1.1
0
CIRCLE
8
0
10
203.75
20
-126.9375
40
1.1
0
CIRCLE
8
0
10
308.11
20
-133.475
40
1.1
0
CIRCLE
8
0
10
263
20
-49.775
40
1.1
0
CIRCLE
8
0
10
374.25
20
-131.25
40
1.1
0
CIRCLE
8
0
10
261.25
20
-126.9375
40
1.1
0
ENDSEC
0
EOF